G04*
G04 #@! TF.GenerationSoftware,Altium Limited,Altium Designer,19.0.15 (446)*
G04*
G04 Layer_Color=8388736*
%FSLAX24Y24*%
%MOIN*%
G70*
G01*
G75*
%ADD18R,0.0335X0.0118*%
%ADD19R,0.0315X0.0118*%
%ADD20R,0.0689X0.0976*%
%ADD21R,0.0394X0.0276*%
%ADD22R,0.0354X0.0650*%
%ADD23R,0.0217X0.0315*%
%ADD24R,0.0630X0.0236*%
%ADD25R,0.0709X0.0335*%
%ADD26R,0.0276X0.0394*%
%ADD27R,0.0315X0.0217*%
%ADD28R,0.0650X0.0354*%
%ADD29C,0.0433*%
%ADD30C,0.0768*%
%ADD31R,0.0768X0.0768*%
%ADD32C,0.0531*%
%ADD33O,0.0531X0.0669*%
%ADD34C,0.0630*%
%ADD35R,0.0630X0.0630*%
%ADD36C,0.0768*%
%ADD37R,0.0768X0.0768*%
%ADD38C,0.0602*%
%ADD39C,0.0350*%
D18*
X24710Y48389D02*
D03*
Y48586D02*
D03*
Y48192D02*
D03*
Y47995D02*
D03*
X23470Y48586D02*
D03*
Y48192D02*
D03*
Y48389D02*
D03*
Y47995D02*
D03*
D19*
X12495Y30576D02*
D03*
Y30773D02*
D03*
Y30182D02*
D03*
Y30379D02*
D03*
Y29985D02*
D03*
X11314Y30773D02*
D03*
Y30576D02*
D03*
Y30182D02*
D03*
Y30379D02*
D03*
Y29985D02*
D03*
X20087Y30536D02*
D03*
Y30733D02*
D03*
Y30142D02*
D03*
Y30339D02*
D03*
Y29945D02*
D03*
X18906Y30733D02*
D03*
Y30536D02*
D03*
Y30142D02*
D03*
Y30339D02*
D03*
Y29945D02*
D03*
D20*
X11904Y30379D02*
D03*
X19497Y30339D02*
D03*
D21*
X14230Y31503D02*
D03*
Y30834D02*
D03*
X21960Y31425D02*
D03*
Y30755D02*
D03*
D22*
X12318Y31580D02*
D03*
X11255D02*
D03*
X20090Y31540D02*
D03*
X19027D02*
D03*
D23*
X23035Y43466D02*
D03*
X22405D02*
D03*
X10430Y43446D02*
D03*
X9800D02*
D03*
X10412Y42748D02*
D03*
X9782D02*
D03*
X10444Y42086D02*
D03*
X9814D02*
D03*
X10435Y41396D02*
D03*
X9805D02*
D03*
X10435Y40746D02*
D03*
X9805D02*
D03*
X10435Y40076D02*
D03*
X9805D02*
D03*
X10444Y39391D02*
D03*
X9814D02*
D03*
X10444Y38736D02*
D03*
X9814D02*
D03*
X17180Y43440D02*
D03*
X16550D02*
D03*
X17195Y42756D02*
D03*
X16565D02*
D03*
X17219Y42046D02*
D03*
X16589D02*
D03*
X17209Y41386D02*
D03*
X16579D02*
D03*
X17209Y40766D02*
D03*
X16579D02*
D03*
X17209Y40096D02*
D03*
X16579D02*
D03*
X17209Y39426D02*
D03*
X16579D02*
D03*
X17209Y38756D02*
D03*
X16579D02*
D03*
X20100Y37420D02*
D03*
X19470D02*
D03*
X20090Y36888D02*
D03*
X19460D02*
D03*
X20090Y36357D02*
D03*
X19460D02*
D03*
X20075Y35825D02*
D03*
X19445D02*
D03*
X7565Y37328D02*
D03*
X6935D02*
D03*
X7560Y36398D02*
D03*
X6930D02*
D03*
X13686Y37470D02*
D03*
X13056D02*
D03*
X13675Y36890D02*
D03*
X13045D02*
D03*
X19535Y29270D02*
D03*
X18905D02*
D03*
X11859Y29346D02*
D03*
X11229D02*
D03*
X23035Y42700D02*
D03*
X22405D02*
D03*
D24*
X3095Y50281D02*
D03*
Y50675D02*
D03*
Y49888D02*
D03*
Y51462D02*
D03*
Y51069D02*
D03*
Y47132D02*
D03*
Y46738D02*
D03*
Y49494D02*
D03*
Y49100D02*
D03*
Y48707D02*
D03*
Y47525D02*
D03*
Y46344D02*
D03*
Y48313D02*
D03*
Y47919D02*
D03*
Y45557D02*
D03*
Y45951D02*
D03*
Y45163D02*
D03*
Y44770D02*
D03*
Y43588D02*
D03*
Y43195D02*
D03*
Y44376D02*
D03*
Y43982D02*
D03*
Y42407D02*
D03*
Y42801D02*
D03*
Y42014D02*
D03*
X890Y51462D02*
D03*
Y51069D02*
D03*
Y49888D02*
D03*
Y47525D02*
D03*
Y50675D02*
D03*
Y50281D02*
D03*
Y49100D02*
D03*
Y49494D02*
D03*
Y48707D02*
D03*
Y47132D02*
D03*
Y46738D02*
D03*
Y48313D02*
D03*
Y47919D02*
D03*
Y45163D02*
D03*
Y45951D02*
D03*
Y44770D02*
D03*
Y46344D02*
D03*
Y44376D02*
D03*
Y43982D02*
D03*
Y43588D02*
D03*
Y45557D02*
D03*
Y42407D02*
D03*
Y42014D02*
D03*
Y43195D02*
D03*
Y42801D02*
D03*
D25*
X2150Y51955D02*
D03*
Y41521D02*
D03*
D26*
X11494Y43436D02*
D03*
X10825D02*
D03*
X11481Y42748D02*
D03*
X10812D02*
D03*
X11504Y42086D02*
D03*
X10835D02*
D03*
X11494Y41396D02*
D03*
X10825D02*
D03*
X11500Y40736D02*
D03*
X10830D02*
D03*
X11494Y40076D02*
D03*
X10825D02*
D03*
X11494Y39386D02*
D03*
X10825D02*
D03*
X11494Y38716D02*
D03*
X10825D02*
D03*
X18240Y43438D02*
D03*
X17571D02*
D03*
X18258Y42748D02*
D03*
X17589D02*
D03*
X18250Y42056D02*
D03*
X17581D02*
D03*
X18268Y41396D02*
D03*
X17599D02*
D03*
X18268Y40776D02*
D03*
X17599D02*
D03*
X18278Y40106D02*
D03*
X17609D02*
D03*
X18273Y39426D02*
D03*
X17604D02*
D03*
X18269Y38756D02*
D03*
X17599D02*
D03*
X21179Y37420D02*
D03*
X20510D02*
D03*
X21173Y36918D02*
D03*
X20504D02*
D03*
X21165Y36360D02*
D03*
X20495D02*
D03*
X21165Y35825D02*
D03*
X20495D02*
D03*
X8719Y37338D02*
D03*
X8050D02*
D03*
X8724Y36398D02*
D03*
X8055D02*
D03*
X14805Y37470D02*
D03*
X14135D02*
D03*
X14805Y36890D02*
D03*
X14135D02*
D03*
D27*
X18370Y17455D02*
D03*
Y16825D02*
D03*
X17838Y17465D02*
D03*
Y16835D02*
D03*
X18296Y9315D02*
D03*
Y8685D02*
D03*
X9603Y16267D02*
D03*
Y15637D02*
D03*
X17764Y9310D02*
D03*
Y8680D02*
D03*
X8540Y16267D02*
D03*
Y15637D02*
D03*
X22173Y16247D02*
D03*
Y15617D02*
D03*
X11360Y3895D02*
D03*
Y3265D02*
D03*
X14023Y3875D02*
D03*
Y3245D02*
D03*
X21642Y16247D02*
D03*
Y15617D02*
D03*
X10828Y3895D02*
D03*
Y3265D02*
D03*
X15086Y3865D02*
D03*
Y3235D02*
D03*
X17234Y17465D02*
D03*
Y16835D02*
D03*
X17232Y9315D02*
D03*
Y8685D02*
D03*
X9072Y16267D02*
D03*
Y15637D02*
D03*
X21110Y16247D02*
D03*
Y15617D02*
D03*
X10294Y3895D02*
D03*
Y3265D02*
D03*
X14555Y3865D02*
D03*
Y3235D02*
D03*
X13094Y30234D02*
D03*
Y29604D02*
D03*
X20658Y30175D02*
D03*
Y29545D02*
D03*
X25311Y48255D02*
D03*
Y47625D02*
D03*
X25842Y48250D02*
D03*
Y47620D02*
D03*
X23844Y47503D02*
D03*
Y46873D02*
D03*
X23312Y47503D02*
D03*
Y46873D02*
D03*
X24375Y47503D02*
D03*
Y46873D02*
D03*
X21970Y32570D02*
D03*
Y31940D02*
D03*
X14230Y32537D02*
D03*
Y31907D02*
D03*
X21190Y30175D02*
D03*
Y29545D02*
D03*
X13574Y30235D02*
D03*
Y29605D02*
D03*
D28*
X18168Y30850D02*
D03*
Y29787D02*
D03*
X10554D02*
D03*
Y30850D02*
D03*
D29*
X20495Y46810D02*
D03*
X14610Y26200D02*
D03*
X9550Y31877D02*
D03*
X20820Y32270D02*
D03*
X17209Y31796D02*
D03*
X12989Y32410D02*
D03*
X6080Y29120D02*
D03*
X7980Y26100D02*
D03*
X17370Y50880D02*
D03*
X19930Y48900D02*
D03*
X20880Y48940D02*
D03*
D30*
X21120Y4270D02*
D03*
Y2301D02*
D03*
X16199D02*
D03*
X16121Y16300D02*
D03*
Y14332D02*
D03*
X11200D02*
D03*
X16120Y11290D02*
D03*
Y9322D02*
D03*
X11199D02*
D03*
X10281Y13580D02*
D03*
Y11611D02*
D03*
X5360D02*
D03*
X22111Y13560D02*
D03*
Y11592D02*
D03*
X17190D02*
D03*
X9181Y4338D02*
D03*
Y2370D02*
D03*
X4260D02*
D03*
D31*
X16199Y4270D02*
D03*
X11200Y16300D02*
D03*
X11199Y11290D02*
D03*
X5360Y13580D02*
D03*
X17190Y13560D02*
D03*
X4260Y4338D02*
D03*
D32*
X24865Y45180D02*
D03*
X24365Y44680D02*
D03*
X24865Y44180D02*
D03*
X23865Y45180D02*
D03*
Y44180D02*
D03*
X8710Y20420D02*
D03*
X8210Y19920D02*
D03*
X8710Y19420D02*
D03*
X7710Y20420D02*
D03*
Y19420D02*
D03*
X10630Y20400D02*
D03*
X10130Y19900D02*
D03*
X10630Y19400D02*
D03*
X9630Y20400D02*
D03*
Y19400D02*
D03*
X24780Y42460D02*
D03*
X24280Y41960D02*
D03*
X24780Y41460D02*
D03*
X23780Y42460D02*
D03*
Y41460D02*
D03*
D33*
X22790Y50970D02*
D03*
X21810Y50960D02*
D03*
X20830Y50950D02*
D03*
X19850Y50940D02*
D03*
X18870Y50930D02*
D03*
X6360Y25910D02*
D03*
X5380Y25900D02*
D03*
D34*
X19480Y46470D02*
D03*
Y45470D02*
D03*
X26630Y50880D02*
D03*
X7449Y30500D02*
D03*
Y29500D02*
D03*
X22760Y40836D02*
D03*
X22770Y45320D02*
D03*
X25800Y42550D02*
D03*
X25877Y45340D02*
D03*
X24920Y50880D02*
D03*
D35*
X19480Y47470D02*
D03*
X26630Y49880D02*
D03*
X7449Y31500D02*
D03*
X22760Y41836D02*
D03*
X22770Y44320D02*
D03*
X25800Y41550D02*
D03*
X25877Y44340D02*
D03*
X24920Y49880D02*
D03*
D36*
X26231Y40010D02*
D03*
Y39010D02*
D03*
Y38010D02*
D03*
Y37010D02*
D03*
Y36010D02*
D03*
Y35010D02*
D03*
Y33010D02*
D03*
Y32010D02*
D03*
Y34010D02*
D03*
Y31010D02*
D03*
Y30010D02*
D03*
Y29010D02*
D03*
Y28010D02*
D03*
Y27010D02*
D03*
Y26010D02*
D03*
Y25010D02*
D03*
Y24010D02*
D03*
Y23010D02*
D03*
Y22010D02*
D03*
Y21010D02*
D03*
Y20010D02*
D03*
Y19010D02*
D03*
Y18010D02*
D03*
Y17010D02*
D03*
Y16010D02*
D03*
Y15010D02*
D03*
Y14010D02*
D03*
Y11010D02*
D03*
Y13010D02*
D03*
Y12010D02*
D03*
Y10010D02*
D03*
Y9010D02*
D03*
Y7010D02*
D03*
Y6010D02*
D03*
Y8010D02*
D03*
X25231Y39010D02*
D03*
Y38010D02*
D03*
Y37010D02*
D03*
Y36010D02*
D03*
Y35010D02*
D03*
Y34010D02*
D03*
Y33010D02*
D03*
Y32010D02*
D03*
Y31010D02*
D03*
Y30010D02*
D03*
Y29010D02*
D03*
Y28010D02*
D03*
Y27010D02*
D03*
Y26010D02*
D03*
Y25010D02*
D03*
Y24010D02*
D03*
Y23010D02*
D03*
Y22010D02*
D03*
Y21010D02*
D03*
Y20010D02*
D03*
Y19010D02*
D03*
Y18010D02*
D03*
Y17010D02*
D03*
Y15010D02*
D03*
Y14010D02*
D03*
Y16010D02*
D03*
Y13010D02*
D03*
Y12010D02*
D03*
Y11010D02*
D03*
Y10010D02*
D03*
Y7010D02*
D03*
Y6010D02*
D03*
Y9010D02*
D03*
Y8010D02*
D03*
X2340Y40020D02*
D03*
Y39020D02*
D03*
Y38020D02*
D03*
Y37020D02*
D03*
Y36020D02*
D03*
Y35020D02*
D03*
Y33020D02*
D03*
Y32020D02*
D03*
Y34020D02*
D03*
Y31020D02*
D03*
Y30020D02*
D03*
Y29020D02*
D03*
Y28020D02*
D03*
Y27020D02*
D03*
Y26020D02*
D03*
Y25020D02*
D03*
Y24020D02*
D03*
Y23020D02*
D03*
Y22020D02*
D03*
Y21020D02*
D03*
Y20020D02*
D03*
Y19020D02*
D03*
Y18020D02*
D03*
Y17020D02*
D03*
Y16020D02*
D03*
Y15020D02*
D03*
Y14020D02*
D03*
Y11020D02*
D03*
Y13020D02*
D03*
Y12020D02*
D03*
Y10020D02*
D03*
Y9020D02*
D03*
Y7020D02*
D03*
Y6020D02*
D03*
Y8020D02*
D03*
X1340Y39020D02*
D03*
Y38020D02*
D03*
Y37020D02*
D03*
Y36020D02*
D03*
Y35020D02*
D03*
Y34020D02*
D03*
Y33020D02*
D03*
Y32020D02*
D03*
Y31020D02*
D03*
Y30020D02*
D03*
Y29020D02*
D03*
Y28020D02*
D03*
Y27020D02*
D03*
Y26020D02*
D03*
Y25020D02*
D03*
Y24020D02*
D03*
Y23020D02*
D03*
Y22020D02*
D03*
Y21020D02*
D03*
Y20020D02*
D03*
Y19020D02*
D03*
Y18020D02*
D03*
Y17020D02*
D03*
Y15020D02*
D03*
Y14020D02*
D03*
Y16020D02*
D03*
Y13020D02*
D03*
Y12020D02*
D03*
Y11020D02*
D03*
Y10020D02*
D03*
Y7020D02*
D03*
Y6020D02*
D03*
Y9020D02*
D03*
Y8020D02*
D03*
D37*
X25231Y40010D02*
D03*
X1340Y40020D02*
D03*
D38*
X18920Y25250D02*
D03*
X19920D02*
D03*
X16920D02*
D03*
X17920D02*
D03*
X12800Y25260D02*
D03*
X9800D02*
D03*
X11800D02*
D03*
X10800D02*
D03*
X19920Y22250D02*
D03*
X17920D02*
D03*
X18920D02*
D03*
X16920D02*
D03*
X12800Y22260D02*
D03*
X10800D02*
D03*
X11800D02*
D03*
X9800D02*
D03*
D39*
X9603Y16745D02*
D03*
M02*
