G04*
G04 #@! TF.GenerationSoftware,Altium Limited,Altium Designer,19.0.15 (446)*
G04*
G04 Layer_Color=2752767*
%FSLAX24Y24*%
%MOIN*%
G70*
G01*
G75*
%ADD48C,0.0020*%
%ADD49C,0.0027*%
D48*
X21040Y4190D02*
Y4350D01*
X21200D01*
Y4190D01*
X21040D01*
Y2221D02*
Y2382D01*
X21200D01*
Y2221D01*
X21040D01*
X16119Y4190D02*
Y4350D01*
X16279D01*
Y4190D01*
X16119D01*
Y2221D02*
Y2382D01*
X16279D01*
Y2221D01*
X16119D01*
X22790Y50890D02*
X22710Y51050D01*
X22870D01*
X22790Y50890D01*
X21810Y50880D02*
X21730Y51040D01*
X21890D01*
X21810Y50880D01*
X20830Y50870D02*
X20750Y51030D01*
X20910D01*
X20830Y50870D01*
X19850Y50860D02*
X19770Y51020D01*
X19930D01*
X19850Y50860D01*
X18870Y50850D02*
X18790Y51010D01*
X18950D01*
X18870Y50850D01*
X6360Y25830D02*
X6280Y25990D01*
X6440D01*
X6360Y25830D01*
X5380Y25820D02*
X5300Y25980D01*
X5460D01*
X5380Y25820D01*
X19480Y46390D02*
X19520Y46430D01*
X19560D01*
X19520Y46470D01*
X19560Y46510D01*
X19520D01*
X19480Y46550D01*
X19440Y46510D01*
X19400D01*
X19440Y46470D01*
X19400Y46430D01*
X19440D01*
X19480Y46390D01*
Y45390D02*
X19520Y45430D01*
X19560D01*
X19520Y45470D01*
X19560Y45510D01*
X19520D01*
X19480Y45550D01*
X19440Y45510D01*
X19400D01*
X19440Y45470D01*
X19400Y45430D01*
X19440D01*
X19480Y45390D01*
Y47390D02*
X19520Y47430D01*
X19560D01*
X19520Y47470D01*
X19560Y47510D01*
X19520D01*
X19480Y47550D01*
X19440Y47510D01*
X19400D01*
X19440Y47470D01*
X19400Y47430D01*
X19440D01*
X19480Y47390D01*
X26630Y49800D02*
X26670Y49840D01*
X26710D01*
X26670Y49880D01*
X26710Y49920D01*
X26670D01*
X26630Y49960D01*
X26590Y49920D01*
X26550D01*
X26590Y49880D01*
X26550Y49840D01*
X26590D01*
X26630Y49800D01*
Y50800D02*
X26670Y50840D01*
X26710D01*
X26670Y50880D01*
X26710Y50920D01*
X26670D01*
X26630Y50960D01*
X26590Y50920D01*
X26550D01*
X26590Y50880D01*
X26550Y50840D01*
X26590D01*
X26630Y50800D01*
X26151Y39930D02*
X26191Y40010D01*
X26151Y40090D01*
X26231Y40050D01*
X26311Y40090D01*
X26271Y40010D01*
X26311Y39930D01*
X26231Y39970D01*
X26151Y39930D01*
Y38930D02*
X26191Y39010D01*
X26151Y39090D01*
X26231Y39050D01*
X26311Y39090D01*
X26271Y39010D01*
X26311Y38930D01*
X26231Y38970D01*
X26151Y38930D01*
Y37930D02*
X26191Y38010D01*
X26151Y38090D01*
X26231Y38050D01*
X26311Y38090D01*
X26271Y38010D01*
X26311Y37930D01*
X26231Y37970D01*
X26151Y37930D01*
Y36930D02*
X26191Y37010D01*
X26151Y37090D01*
X26231Y37050D01*
X26311Y37090D01*
X26271Y37010D01*
X26311Y36930D01*
X26231Y36970D01*
X26151Y36930D01*
Y35930D02*
X26191Y36010D01*
X26151Y36090D01*
X26231Y36050D01*
X26311Y36090D01*
X26271Y36010D01*
X26311Y35930D01*
X26231Y35970D01*
X26151Y35930D01*
Y34930D02*
X26191Y35010D01*
X26151Y35090D01*
X26231Y35050D01*
X26311Y35090D01*
X26271Y35010D01*
X26311Y34930D01*
X26231Y34970D01*
X26151Y34930D01*
Y32930D02*
X26191Y33010D01*
X26151Y33090D01*
X26231Y33050D01*
X26311Y33090D01*
X26271Y33010D01*
X26311Y32930D01*
X26231Y32970D01*
X26151Y32930D01*
Y31930D02*
X26191Y32010D01*
X26151Y32090D01*
X26231Y32050D01*
X26311Y32090D01*
X26271Y32010D01*
X26311Y31930D01*
X26231Y31970D01*
X26151Y31930D01*
Y33930D02*
X26191Y34010D01*
X26151Y34090D01*
X26231Y34050D01*
X26311Y34090D01*
X26271Y34010D01*
X26311Y33930D01*
X26231Y33970D01*
X26151Y33930D01*
Y30930D02*
X26191Y31010D01*
X26151Y31090D01*
X26231Y31050D01*
X26311Y31090D01*
X26271Y31010D01*
X26311Y30930D01*
X26231Y30970D01*
X26151Y30930D01*
Y29930D02*
X26191Y30010D01*
X26151Y30090D01*
X26231Y30050D01*
X26311Y30090D01*
X26271Y30010D01*
X26311Y29930D01*
X26231Y29970D01*
X26151Y29930D01*
Y28930D02*
X26191Y29010D01*
X26151Y29090D01*
X26231Y29050D01*
X26311Y29090D01*
X26271Y29010D01*
X26311Y28930D01*
X26231Y28970D01*
X26151Y28930D01*
Y27930D02*
X26191Y28010D01*
X26151Y28090D01*
X26231Y28050D01*
X26311Y28090D01*
X26271Y28010D01*
X26311Y27930D01*
X26231Y27970D01*
X26151Y27930D01*
Y26930D02*
X26191Y27010D01*
X26151Y27090D01*
X26231Y27050D01*
X26311Y27090D01*
X26271Y27010D01*
X26311Y26930D01*
X26231Y26970D01*
X26151Y26930D01*
Y25930D02*
X26191Y26010D01*
X26151Y26090D01*
X26231Y26050D01*
X26311Y26090D01*
X26271Y26010D01*
X26311Y25930D01*
X26231Y25970D01*
X26151Y25930D01*
Y24930D02*
X26191Y25010D01*
X26151Y25090D01*
X26231Y25050D01*
X26311Y25090D01*
X26271Y25010D01*
X26311Y24930D01*
X26231Y24970D01*
X26151Y24930D01*
Y23930D02*
X26191Y24010D01*
X26151Y24090D01*
X26231Y24050D01*
X26311Y24090D01*
X26271Y24010D01*
X26311Y23930D01*
X26231Y23970D01*
X26151Y23930D01*
Y22930D02*
X26191Y23010D01*
X26151Y23090D01*
X26231Y23050D01*
X26311Y23090D01*
X26271Y23010D01*
X26311Y22930D01*
X26231Y22970D01*
X26151Y22930D01*
Y21930D02*
X26191Y22010D01*
X26151Y22090D01*
X26231Y22050D01*
X26311Y22090D01*
X26271Y22010D01*
X26311Y21930D01*
X26231Y21970D01*
X26151Y21930D01*
Y20930D02*
X26191Y21010D01*
X26151Y21090D01*
X26231Y21050D01*
X26311Y21090D01*
X26271Y21010D01*
X26311Y20930D01*
X26231Y20970D01*
X26151Y20930D01*
Y19930D02*
X26191Y20010D01*
X26151Y20090D01*
X26231Y20050D01*
X26311Y20090D01*
X26271Y20010D01*
X26311Y19930D01*
X26231Y19970D01*
X26151Y19930D01*
Y18930D02*
X26191Y19010D01*
X26151Y19090D01*
X26231Y19050D01*
X26311Y19090D01*
X26271Y19010D01*
X26311Y18930D01*
X26231Y18970D01*
X26151Y18930D01*
Y17930D02*
X26191Y18010D01*
X26151Y18090D01*
X26231Y18050D01*
X26311Y18090D01*
X26271Y18010D01*
X26311Y17930D01*
X26231Y17970D01*
X26151Y17930D01*
Y16930D02*
X26191Y17010D01*
X26151Y17090D01*
X26231Y17050D01*
X26311Y17090D01*
X26271Y17010D01*
X26311Y16930D01*
X26231Y16970D01*
X26151Y16930D01*
Y15930D02*
X26191Y16010D01*
X26151Y16090D01*
X26231Y16050D01*
X26311Y16090D01*
X26271Y16010D01*
X26311Y15930D01*
X26231Y15970D01*
X26151Y15930D01*
Y14930D02*
X26191Y15010D01*
X26151Y15090D01*
X26231Y15050D01*
X26311Y15090D01*
X26271Y15010D01*
X26311Y14930D01*
X26231Y14970D01*
X26151Y14930D01*
Y13930D02*
X26191Y14010D01*
X26151Y14090D01*
X26231Y14050D01*
X26311Y14090D01*
X26271Y14010D01*
X26311Y13930D01*
X26231Y13970D01*
X26151Y13930D01*
Y10930D02*
X26191Y11010D01*
X26151Y11090D01*
X26231Y11050D01*
X26311Y11090D01*
X26271Y11010D01*
X26311Y10930D01*
X26231Y10970D01*
X26151Y10930D01*
Y12930D02*
X26191Y13010D01*
X26151Y13090D01*
X26231Y13050D01*
X26311Y13090D01*
X26271Y13010D01*
X26311Y12930D01*
X26231Y12970D01*
X26151Y12930D01*
Y11930D02*
X26191Y12010D01*
X26151Y12090D01*
X26231Y12050D01*
X26311Y12090D01*
X26271Y12010D01*
X26311Y11930D01*
X26231Y11970D01*
X26151Y11930D01*
Y9930D02*
X26191Y10010D01*
X26151Y10090D01*
X26231Y10050D01*
X26311Y10090D01*
X26271Y10010D01*
X26311Y9930D01*
X26231Y9970D01*
X26151Y9930D01*
Y8930D02*
X26191Y9010D01*
X26151Y9090D01*
X26231Y9050D01*
X26311Y9090D01*
X26271Y9010D01*
X26311Y8930D01*
X26231Y8970D01*
X26151Y8930D01*
Y6930D02*
X26191Y7010D01*
X26151Y7090D01*
X26231Y7050D01*
X26311Y7090D01*
X26271Y7010D01*
X26311Y6930D01*
X26231Y6970D01*
X26151Y6930D01*
Y5930D02*
X26191Y6010D01*
X26151Y6090D01*
X26231Y6050D01*
X26311Y6090D01*
X26271Y6010D01*
X26311Y5930D01*
X26231Y5970D01*
X26151Y5930D01*
Y7930D02*
X26191Y8010D01*
X26151Y8090D01*
X26231Y8050D01*
X26311Y8090D01*
X26271Y8010D01*
X26311Y7930D01*
X26231Y7970D01*
X26151Y7930D01*
X25151Y39930D02*
X25191Y40010D01*
X25151Y40090D01*
X25231Y40050D01*
X25311Y40090D01*
X25271Y40010D01*
X25311Y39930D01*
X25231Y39970D01*
X25151Y39930D01*
Y38930D02*
X25191Y39010D01*
X25151Y39090D01*
X25231Y39050D01*
X25311Y39090D01*
X25271Y39010D01*
X25311Y38930D01*
X25231Y38970D01*
X25151Y38930D01*
Y37930D02*
X25191Y38010D01*
X25151Y38090D01*
X25231Y38050D01*
X25311Y38090D01*
X25271Y38010D01*
X25311Y37930D01*
X25231Y37970D01*
X25151Y37930D01*
Y36930D02*
X25191Y37010D01*
X25151Y37090D01*
X25231Y37050D01*
X25311Y37090D01*
X25271Y37010D01*
X25311Y36930D01*
X25231Y36970D01*
X25151Y36930D01*
Y35930D02*
X25191Y36010D01*
X25151Y36090D01*
X25231Y36050D01*
X25311Y36090D01*
X25271Y36010D01*
X25311Y35930D01*
X25231Y35970D01*
X25151Y35930D01*
Y34930D02*
X25191Y35010D01*
X25151Y35090D01*
X25231Y35050D01*
X25311Y35090D01*
X25271Y35010D01*
X25311Y34930D01*
X25231Y34970D01*
X25151Y34930D01*
Y33930D02*
X25191Y34010D01*
X25151Y34090D01*
X25231Y34050D01*
X25311Y34090D01*
X25271Y34010D01*
X25311Y33930D01*
X25231Y33970D01*
X25151Y33930D01*
Y32930D02*
X25191Y33010D01*
X25151Y33090D01*
X25231Y33050D01*
X25311Y33090D01*
X25271Y33010D01*
X25311Y32930D01*
X25231Y32970D01*
X25151Y32930D01*
Y31930D02*
X25191Y32010D01*
X25151Y32090D01*
X25231Y32050D01*
X25311Y32090D01*
X25271Y32010D01*
X25311Y31930D01*
X25231Y31970D01*
X25151Y31930D01*
Y30930D02*
X25191Y31010D01*
X25151Y31090D01*
X25231Y31050D01*
X25311Y31090D01*
X25271Y31010D01*
X25311Y30930D01*
X25231Y30970D01*
X25151Y30930D01*
Y29930D02*
X25191Y30010D01*
X25151Y30090D01*
X25231Y30050D01*
X25311Y30090D01*
X25271Y30010D01*
X25311Y29930D01*
X25231Y29970D01*
X25151Y29930D01*
Y28930D02*
X25191Y29010D01*
X25151Y29090D01*
X25231Y29050D01*
X25311Y29090D01*
X25271Y29010D01*
X25311Y28930D01*
X25231Y28970D01*
X25151Y28930D01*
Y27930D02*
X25191Y28010D01*
X25151Y28090D01*
X25231Y28050D01*
X25311Y28090D01*
X25271Y28010D01*
X25311Y27930D01*
X25231Y27970D01*
X25151Y27930D01*
Y26930D02*
X25191Y27010D01*
X25151Y27090D01*
X25231Y27050D01*
X25311Y27090D01*
X25271Y27010D01*
X25311Y26930D01*
X25231Y26970D01*
X25151Y26930D01*
Y25930D02*
X25191Y26010D01*
X25151Y26090D01*
X25231Y26050D01*
X25311Y26090D01*
X25271Y26010D01*
X25311Y25930D01*
X25231Y25970D01*
X25151Y25930D01*
Y24930D02*
X25191Y25010D01*
X25151Y25090D01*
X25231Y25050D01*
X25311Y25090D01*
X25271Y25010D01*
X25311Y24930D01*
X25231Y24970D01*
X25151Y24930D01*
Y23930D02*
X25191Y24010D01*
X25151Y24090D01*
X25231Y24050D01*
X25311Y24090D01*
X25271Y24010D01*
X25311Y23930D01*
X25231Y23970D01*
X25151Y23930D01*
Y22930D02*
X25191Y23010D01*
X25151Y23090D01*
X25231Y23050D01*
X25311Y23090D01*
X25271Y23010D01*
X25311Y22930D01*
X25231Y22970D01*
X25151Y22930D01*
Y21930D02*
X25191Y22010D01*
X25151Y22090D01*
X25231Y22050D01*
X25311Y22090D01*
X25271Y22010D01*
X25311Y21930D01*
X25231Y21970D01*
X25151Y21930D01*
Y20930D02*
X25191Y21010D01*
X25151Y21090D01*
X25231Y21050D01*
X25311Y21090D01*
X25271Y21010D01*
X25311Y20930D01*
X25231Y20970D01*
X25151Y20930D01*
Y19930D02*
X25191Y20010D01*
X25151Y20090D01*
X25231Y20050D01*
X25311Y20090D01*
X25271Y20010D01*
X25311Y19930D01*
X25231Y19970D01*
X25151Y19930D01*
Y18930D02*
X25191Y19010D01*
X25151Y19090D01*
X25231Y19050D01*
X25311Y19090D01*
X25271Y19010D01*
X25311Y18930D01*
X25231Y18970D01*
X25151Y18930D01*
Y17930D02*
X25191Y18010D01*
X25151Y18090D01*
X25231Y18050D01*
X25311Y18090D01*
X25271Y18010D01*
X25311Y17930D01*
X25231Y17970D01*
X25151Y17930D01*
Y16930D02*
X25191Y17010D01*
X25151Y17090D01*
X25231Y17050D01*
X25311Y17090D01*
X25271Y17010D01*
X25311Y16930D01*
X25231Y16970D01*
X25151Y16930D01*
Y14930D02*
X25191Y15010D01*
X25151Y15090D01*
X25231Y15050D01*
X25311Y15090D01*
X25271Y15010D01*
X25311Y14930D01*
X25231Y14970D01*
X25151Y14930D01*
Y13930D02*
X25191Y14010D01*
X25151Y14090D01*
X25231Y14050D01*
X25311Y14090D01*
X25271Y14010D01*
X25311Y13930D01*
X25231Y13970D01*
X25151Y13930D01*
Y15930D02*
X25191Y16010D01*
X25151Y16090D01*
X25231Y16050D01*
X25311Y16090D01*
X25271Y16010D01*
X25311Y15930D01*
X25231Y15970D01*
X25151Y15930D01*
Y12930D02*
X25191Y13010D01*
X25151Y13090D01*
X25231Y13050D01*
X25311Y13090D01*
X25271Y13010D01*
X25311Y12930D01*
X25231Y12970D01*
X25151Y12930D01*
Y11930D02*
X25191Y12010D01*
X25151Y12090D01*
X25231Y12050D01*
X25311Y12090D01*
X25271Y12010D01*
X25311Y11930D01*
X25231Y11970D01*
X25151Y11930D01*
Y10930D02*
X25191Y11010D01*
X25151Y11090D01*
X25231Y11050D01*
X25311Y11090D01*
X25271Y11010D01*
X25311Y10930D01*
X25231Y10970D01*
X25151Y10930D01*
Y9930D02*
X25191Y10010D01*
X25151Y10090D01*
X25231Y10050D01*
X25311Y10090D01*
X25271Y10010D01*
X25311Y9930D01*
X25231Y9970D01*
X25151Y9930D01*
Y6930D02*
X25191Y7010D01*
X25151Y7090D01*
X25231Y7050D01*
X25311Y7090D01*
X25271Y7010D01*
X25311Y6930D01*
X25231Y6970D01*
X25151Y6930D01*
Y5930D02*
X25191Y6010D01*
X25151Y6090D01*
X25231Y6050D01*
X25311Y6090D01*
X25271Y6010D01*
X25311Y5930D01*
X25231Y5970D01*
X25151Y5930D01*
Y8930D02*
X25191Y9010D01*
X25151Y9090D01*
X25231Y9050D01*
X25311Y9090D01*
X25271Y9010D01*
X25311Y8930D01*
X25231Y8970D01*
X25151Y8930D01*
Y7930D02*
X25191Y8010D01*
X25151Y8090D01*
X25231Y8050D01*
X25311Y8090D01*
X25271Y8010D01*
X25311Y7930D01*
X25231Y7970D01*
X25151Y7930D01*
X18880Y25210D02*
Y25170D01*
X18960D01*
Y25210D01*
X19000D01*
Y25290D01*
X18960D01*
Y25330D01*
X18880D01*
Y25290D01*
X18840D01*
Y25210D01*
X18880D01*
X19880D02*
Y25170D01*
X19960D01*
Y25210D01*
X20000D01*
Y25290D01*
X19960D01*
Y25330D01*
X19880D01*
Y25290D01*
X19840D01*
Y25210D01*
X19880D01*
X16880D02*
Y25170D01*
X16960D01*
Y25210D01*
X17000D01*
Y25290D01*
X16960D01*
Y25330D01*
X16880D01*
Y25290D01*
X16840D01*
Y25210D01*
X16880D01*
X17880D02*
Y25170D01*
X17960D01*
Y25210D01*
X18000D01*
Y25290D01*
X17960D01*
Y25330D01*
X17880D01*
Y25290D01*
X17840D01*
Y25210D01*
X17880D01*
X16041Y16220D02*
Y16380D01*
X16201D01*
Y16220D01*
X16041D01*
Y14252D02*
Y14411D01*
X16201D01*
Y14252D01*
X16041D01*
X11120Y16220D02*
Y16380D01*
X11280D01*
Y16220D01*
X11120D01*
Y14252D02*
Y14411D01*
X11280D01*
Y14252D01*
X11120D01*
X16040Y11210D02*
Y11370D01*
X16200D01*
Y11210D01*
X16040D01*
Y9241D02*
Y9402D01*
X16200D01*
Y9241D01*
X16040D01*
X11119Y11210D02*
Y11370D01*
X11279D01*
Y11210D01*
X11119D01*
Y9241D02*
Y9402D01*
X11279D01*
Y9241D01*
X11119D01*
X10201Y13500D02*
Y13660D01*
X10361D01*
Y13500D01*
X10201D01*
Y11531D02*
Y11691D01*
X10361D01*
Y11531D01*
X10201D01*
X5280Y13500D02*
Y13660D01*
X5440D01*
Y13500D01*
X5280D01*
Y11531D02*
Y11691D01*
X5440D01*
Y11531D01*
X5280D01*
X22031Y13480D02*
Y13640D01*
X22191D01*
Y13480D01*
X22031D01*
Y11511D02*
Y11672D01*
X22191D01*
Y11511D01*
X22031D01*
X17110Y13480D02*
Y13640D01*
X17270D01*
Y13480D01*
X17110D01*
Y11511D02*
Y11672D01*
X17270D01*
Y11511D01*
X17110D01*
X9101Y4259D02*
Y4419D01*
X9261D01*
Y4259D01*
X9101D01*
Y2290D02*
Y2450D01*
X9261D01*
Y2290D01*
X9101D01*
X4180Y4259D02*
Y4419D01*
X4340D01*
Y4259D01*
X4180D01*
Y2290D02*
Y2450D01*
X4340D01*
Y2290D01*
X4180D01*
X2260Y39940D02*
X2300Y40020D01*
X2260Y40100D01*
X2340Y40060D01*
X2420Y40100D01*
X2380Y40020D01*
X2420Y39940D01*
X2340Y39980D01*
X2260Y39940D01*
Y38940D02*
X2300Y39020D01*
X2260Y39100D01*
X2340Y39060D01*
X2420Y39100D01*
X2380Y39020D01*
X2420Y38940D01*
X2340Y38980D01*
X2260Y38940D01*
Y37940D02*
X2300Y38020D01*
X2260Y38100D01*
X2340Y38060D01*
X2420Y38100D01*
X2380Y38020D01*
X2420Y37940D01*
X2340Y37980D01*
X2260Y37940D01*
Y36940D02*
X2300Y37020D01*
X2260Y37100D01*
X2340Y37060D01*
X2420Y37100D01*
X2380Y37020D01*
X2420Y36940D01*
X2340Y36980D01*
X2260Y36940D01*
Y35940D02*
X2300Y36020D01*
X2260Y36100D01*
X2340Y36060D01*
X2420Y36100D01*
X2380Y36020D01*
X2420Y35940D01*
X2340Y35980D01*
X2260Y35940D01*
Y34940D02*
X2300Y35020D01*
X2260Y35100D01*
X2340Y35060D01*
X2420Y35100D01*
X2380Y35020D01*
X2420Y34940D01*
X2340Y34980D01*
X2260Y34940D01*
Y32940D02*
X2300Y33020D01*
X2260Y33100D01*
X2340Y33060D01*
X2420Y33100D01*
X2380Y33020D01*
X2420Y32940D01*
X2340Y32980D01*
X2260Y32940D01*
Y31940D02*
X2300Y32020D01*
X2260Y32100D01*
X2340Y32060D01*
X2420Y32100D01*
X2380Y32020D01*
X2420Y31940D01*
X2340Y31980D01*
X2260Y31940D01*
Y33940D02*
X2300Y34020D01*
X2260Y34100D01*
X2340Y34060D01*
X2420Y34100D01*
X2380Y34020D01*
X2420Y33940D01*
X2340Y33980D01*
X2260Y33940D01*
Y30940D02*
X2300Y31020D01*
X2260Y31100D01*
X2340Y31060D01*
X2420Y31100D01*
X2380Y31020D01*
X2420Y30940D01*
X2340Y30980D01*
X2260Y30940D01*
Y29940D02*
X2300Y30020D01*
X2260Y30100D01*
X2340Y30060D01*
X2420Y30100D01*
X2380Y30020D01*
X2420Y29940D01*
X2340Y29980D01*
X2260Y29940D01*
Y28940D02*
X2300Y29020D01*
X2260Y29100D01*
X2340Y29060D01*
X2420Y29100D01*
X2380Y29020D01*
X2420Y28940D01*
X2340Y28980D01*
X2260Y28940D01*
Y27940D02*
X2300Y28020D01*
X2260Y28100D01*
X2340Y28060D01*
X2420Y28100D01*
X2380Y28020D01*
X2420Y27940D01*
X2340Y27980D01*
X2260Y27940D01*
Y26940D02*
X2300Y27020D01*
X2260Y27100D01*
X2340Y27060D01*
X2420Y27100D01*
X2380Y27020D01*
X2420Y26940D01*
X2340Y26980D01*
X2260Y26940D01*
Y25940D02*
X2300Y26020D01*
X2260Y26100D01*
X2340Y26060D01*
X2420Y26100D01*
X2380Y26020D01*
X2420Y25940D01*
X2340Y25980D01*
X2260Y25940D01*
Y24940D02*
X2300Y25020D01*
X2260Y25100D01*
X2340Y25060D01*
X2420Y25100D01*
X2380Y25020D01*
X2420Y24940D01*
X2340Y24980D01*
X2260Y24940D01*
Y23940D02*
X2300Y24020D01*
X2260Y24100D01*
X2340Y24060D01*
X2420Y24100D01*
X2380Y24020D01*
X2420Y23940D01*
X2340Y23980D01*
X2260Y23940D01*
Y22940D02*
X2300Y23020D01*
X2260Y23100D01*
X2340Y23060D01*
X2420Y23100D01*
X2380Y23020D01*
X2420Y22940D01*
X2340Y22980D01*
X2260Y22940D01*
Y21940D02*
X2300Y22020D01*
X2260Y22100D01*
X2340Y22060D01*
X2420Y22100D01*
X2380Y22020D01*
X2420Y21940D01*
X2340Y21980D01*
X2260Y21940D01*
Y20940D02*
X2300Y21020D01*
X2260Y21100D01*
X2340Y21060D01*
X2420Y21100D01*
X2380Y21020D01*
X2420Y20940D01*
X2340Y20980D01*
X2260Y20940D01*
Y19940D02*
X2300Y20020D01*
X2260Y20100D01*
X2340Y20060D01*
X2420Y20100D01*
X2380Y20020D01*
X2420Y19940D01*
X2340Y19980D01*
X2260Y19940D01*
Y18940D02*
X2300Y19020D01*
X2260Y19100D01*
X2340Y19060D01*
X2420Y19100D01*
X2380Y19020D01*
X2420Y18940D01*
X2340Y18980D01*
X2260Y18940D01*
Y17940D02*
X2300Y18020D01*
X2260Y18100D01*
X2340Y18060D01*
X2420Y18100D01*
X2380Y18020D01*
X2420Y17940D01*
X2340Y17980D01*
X2260Y17940D01*
Y16940D02*
X2300Y17020D01*
X2260Y17100D01*
X2340Y17060D01*
X2420Y17100D01*
X2380Y17020D01*
X2420Y16940D01*
X2340Y16980D01*
X2260Y16940D01*
Y15940D02*
X2300Y16020D01*
X2260Y16100D01*
X2340Y16060D01*
X2420Y16100D01*
X2380Y16020D01*
X2420Y15940D01*
X2340Y15980D01*
X2260Y15940D01*
Y14940D02*
X2300Y15020D01*
X2260Y15100D01*
X2340Y15060D01*
X2420Y15100D01*
X2380Y15020D01*
X2420Y14940D01*
X2340Y14980D01*
X2260Y14940D01*
Y13940D02*
X2300Y14020D01*
X2260Y14100D01*
X2340Y14060D01*
X2420Y14100D01*
X2380Y14020D01*
X2420Y13940D01*
X2340Y13980D01*
X2260Y13940D01*
Y10940D02*
X2300Y11020D01*
X2260Y11100D01*
X2340Y11060D01*
X2420Y11100D01*
X2380Y11020D01*
X2420Y10940D01*
X2340Y10980D01*
X2260Y10940D01*
Y12940D02*
X2300Y13020D01*
X2260Y13100D01*
X2340Y13060D01*
X2420Y13100D01*
X2380Y13020D01*
X2420Y12940D01*
X2340Y12980D01*
X2260Y12940D01*
Y11940D02*
X2300Y12020D01*
X2260Y12100D01*
X2340Y12060D01*
X2420Y12100D01*
X2380Y12020D01*
X2420Y11940D01*
X2340Y11980D01*
X2260Y11940D01*
Y9940D02*
X2300Y10020D01*
X2260Y10100D01*
X2340Y10060D01*
X2420Y10100D01*
X2380Y10020D01*
X2420Y9940D01*
X2340Y9980D01*
X2260Y9940D01*
Y8940D02*
X2300Y9020D01*
X2260Y9100D01*
X2340Y9060D01*
X2420Y9100D01*
X2380Y9020D01*
X2420Y8940D01*
X2340Y8980D01*
X2260Y8940D01*
Y6940D02*
X2300Y7020D01*
X2260Y7100D01*
X2340Y7060D01*
X2420Y7100D01*
X2380Y7020D01*
X2420Y6940D01*
X2340Y6980D01*
X2260Y6940D01*
Y5940D02*
X2300Y6020D01*
X2260Y6100D01*
X2340Y6060D01*
X2420Y6100D01*
X2380Y6020D01*
X2420Y5940D01*
X2340Y5980D01*
X2260Y5940D01*
Y7940D02*
X2300Y8020D01*
X2260Y8100D01*
X2340Y8060D01*
X2420Y8100D01*
X2380Y8020D01*
X2420Y7940D01*
X2340Y7980D01*
X2260Y7940D01*
X1260Y39940D02*
X1300Y40020D01*
X1260Y40100D01*
X1340Y40060D01*
X1420Y40100D01*
X1380Y40020D01*
X1420Y39940D01*
X1340Y39980D01*
X1260Y39940D01*
Y38940D02*
X1300Y39020D01*
X1260Y39100D01*
X1340Y39060D01*
X1420Y39100D01*
X1380Y39020D01*
X1420Y38940D01*
X1340Y38980D01*
X1260Y38940D01*
Y37940D02*
X1300Y38020D01*
X1260Y38100D01*
X1340Y38060D01*
X1420Y38100D01*
X1380Y38020D01*
X1420Y37940D01*
X1340Y37980D01*
X1260Y37940D01*
Y36940D02*
X1300Y37020D01*
X1260Y37100D01*
X1340Y37060D01*
X1420Y37100D01*
X1380Y37020D01*
X1420Y36940D01*
X1340Y36980D01*
X1260Y36940D01*
Y35940D02*
X1300Y36020D01*
X1260Y36100D01*
X1340Y36060D01*
X1420Y36100D01*
X1380Y36020D01*
X1420Y35940D01*
X1340Y35980D01*
X1260Y35940D01*
Y34940D02*
X1300Y35020D01*
X1260Y35100D01*
X1340Y35060D01*
X1420Y35100D01*
X1380Y35020D01*
X1420Y34940D01*
X1340Y34980D01*
X1260Y34940D01*
Y33940D02*
X1300Y34020D01*
X1260Y34100D01*
X1340Y34060D01*
X1420Y34100D01*
X1380Y34020D01*
X1420Y33940D01*
X1340Y33980D01*
X1260Y33940D01*
Y32940D02*
X1300Y33020D01*
X1260Y33100D01*
X1340Y33060D01*
X1420Y33100D01*
X1380Y33020D01*
X1420Y32940D01*
X1340Y32980D01*
X1260Y32940D01*
Y31940D02*
X1300Y32020D01*
X1260Y32100D01*
X1340Y32060D01*
X1420Y32100D01*
X1380Y32020D01*
X1420Y31940D01*
X1340Y31980D01*
X1260Y31940D01*
Y30940D02*
X1300Y31020D01*
X1260Y31100D01*
X1340Y31060D01*
X1420Y31100D01*
X1380Y31020D01*
X1420Y30940D01*
X1340Y30980D01*
X1260Y30940D01*
Y29940D02*
X1300Y30020D01*
X1260Y30100D01*
X1340Y30060D01*
X1420Y30100D01*
X1380Y30020D01*
X1420Y29940D01*
X1340Y29980D01*
X1260Y29940D01*
Y28940D02*
X1300Y29020D01*
X1260Y29100D01*
X1340Y29060D01*
X1420Y29100D01*
X1380Y29020D01*
X1420Y28940D01*
X1340Y28980D01*
X1260Y28940D01*
Y27940D02*
X1300Y28020D01*
X1260Y28100D01*
X1340Y28060D01*
X1420Y28100D01*
X1380Y28020D01*
X1420Y27940D01*
X1340Y27980D01*
X1260Y27940D01*
Y26940D02*
X1300Y27020D01*
X1260Y27100D01*
X1340Y27060D01*
X1420Y27100D01*
X1380Y27020D01*
X1420Y26940D01*
X1340Y26980D01*
X1260Y26940D01*
Y25940D02*
X1300Y26020D01*
X1260Y26100D01*
X1340Y26060D01*
X1420Y26100D01*
X1380Y26020D01*
X1420Y25940D01*
X1340Y25980D01*
X1260Y25940D01*
Y24940D02*
X1300Y25020D01*
X1260Y25100D01*
X1340Y25060D01*
X1420Y25100D01*
X1380Y25020D01*
X1420Y24940D01*
X1340Y24980D01*
X1260Y24940D01*
Y23940D02*
X1300Y24020D01*
X1260Y24100D01*
X1340Y24060D01*
X1420Y24100D01*
X1380Y24020D01*
X1420Y23940D01*
X1340Y23980D01*
X1260Y23940D01*
Y22940D02*
X1300Y23020D01*
X1260Y23100D01*
X1340Y23060D01*
X1420Y23100D01*
X1380Y23020D01*
X1420Y22940D01*
X1340Y22980D01*
X1260Y22940D01*
Y21940D02*
X1300Y22020D01*
X1260Y22100D01*
X1340Y22060D01*
X1420Y22100D01*
X1380Y22020D01*
X1420Y21940D01*
X1340Y21980D01*
X1260Y21940D01*
Y20940D02*
X1300Y21020D01*
X1260Y21100D01*
X1340Y21060D01*
X1420Y21100D01*
X1380Y21020D01*
X1420Y20940D01*
X1340Y20980D01*
X1260Y20940D01*
Y19940D02*
X1300Y20020D01*
X1260Y20100D01*
X1340Y20060D01*
X1420Y20100D01*
X1380Y20020D01*
X1420Y19940D01*
X1340Y19980D01*
X1260Y19940D01*
Y18940D02*
X1300Y19020D01*
X1260Y19100D01*
X1340Y19060D01*
X1420Y19100D01*
X1380Y19020D01*
X1420Y18940D01*
X1340Y18980D01*
X1260Y18940D01*
Y17940D02*
X1300Y18020D01*
X1260Y18100D01*
X1340Y18060D01*
X1420Y18100D01*
X1380Y18020D01*
X1420Y17940D01*
X1340Y17980D01*
X1260Y17940D01*
Y16940D02*
X1300Y17020D01*
X1260Y17100D01*
X1340Y17060D01*
X1420Y17100D01*
X1380Y17020D01*
X1420Y16940D01*
X1340Y16980D01*
X1260Y16940D01*
Y14940D02*
X1300Y15020D01*
X1260Y15100D01*
X1340Y15060D01*
X1420Y15100D01*
X1380Y15020D01*
X1420Y14940D01*
X1340Y14980D01*
X1260Y14940D01*
Y13940D02*
X1300Y14020D01*
X1260Y14100D01*
X1340Y14060D01*
X1420Y14100D01*
X1380Y14020D01*
X1420Y13940D01*
X1340Y13980D01*
X1260Y13940D01*
Y15940D02*
X1300Y16020D01*
X1260Y16100D01*
X1340Y16060D01*
X1420Y16100D01*
X1380Y16020D01*
X1420Y15940D01*
X1340Y15980D01*
X1260Y15940D01*
Y12940D02*
X1300Y13020D01*
X1260Y13100D01*
X1340Y13060D01*
X1420Y13100D01*
X1380Y13020D01*
X1420Y12940D01*
X1340Y12980D01*
X1260Y12940D01*
Y11940D02*
X1300Y12020D01*
X1260Y12100D01*
X1340Y12060D01*
X1420Y12100D01*
X1380Y12020D01*
X1420Y11940D01*
X1340Y11980D01*
X1260Y11940D01*
Y10940D02*
X1300Y11020D01*
X1260Y11100D01*
X1340Y11060D01*
X1420Y11100D01*
X1380Y11020D01*
X1420Y10940D01*
X1340Y10980D01*
X1260Y10940D01*
Y9940D02*
X1300Y10020D01*
X1260Y10100D01*
X1340Y10060D01*
X1420Y10100D01*
X1380Y10020D01*
X1420Y9940D01*
X1340Y9980D01*
X1260Y9940D01*
Y6940D02*
X1300Y7020D01*
X1260Y7100D01*
X1340Y7060D01*
X1420Y7100D01*
X1380Y7020D01*
X1420Y6940D01*
X1340Y6980D01*
X1260Y6940D01*
Y5940D02*
X1300Y6020D01*
X1260Y6100D01*
X1340Y6060D01*
X1420Y6100D01*
X1380Y6020D01*
X1420Y5940D01*
X1340Y5980D01*
X1260Y5940D01*
Y8940D02*
X1300Y9020D01*
X1260Y9100D01*
X1340Y9060D01*
X1420Y9100D01*
X1380Y9020D01*
X1420Y8940D01*
X1340Y8980D01*
X1260Y8940D01*
Y7940D02*
X1300Y8020D01*
X1260Y8100D01*
X1340Y8060D01*
X1420Y8100D01*
X1380Y8020D01*
X1420Y7940D01*
X1340Y7980D01*
X1260Y7940D01*
X12760Y25220D02*
Y25180D01*
X12840D01*
Y25220D01*
X12880D01*
Y25300D01*
X12840D01*
Y25340D01*
X12760D01*
Y25300D01*
X12720D01*
Y25220D01*
X12760D01*
X9760D02*
Y25180D01*
X9840D01*
Y25220D01*
X9880D01*
Y25300D01*
X9840D01*
Y25340D01*
X9760D01*
Y25300D01*
X9720D01*
Y25220D01*
X9760D01*
X11760D02*
Y25180D01*
X11840D01*
Y25220D01*
X11880D01*
Y25300D01*
X11840D01*
Y25340D01*
X11760D01*
Y25300D01*
X11720D01*
Y25220D01*
X11760D01*
X10760D02*
Y25180D01*
X10840D01*
Y25220D01*
X10880D01*
Y25300D01*
X10840D01*
Y25340D01*
X10760D01*
Y25300D01*
X10720D01*
Y25220D01*
X10760D01*
X19880Y22210D02*
Y22170D01*
X19960D01*
Y22210D01*
X20000D01*
Y22290D01*
X19960D01*
Y22330D01*
X19880D01*
Y22290D01*
X19840D01*
Y22210D01*
X19880D01*
X17880D02*
Y22170D01*
X17960D01*
Y22210D01*
X18000D01*
Y22290D01*
X17960D01*
Y22330D01*
X17880D01*
Y22290D01*
X17840D01*
Y22210D01*
X17880D01*
X18880D02*
Y22170D01*
X18960D01*
Y22210D01*
X19000D01*
Y22290D01*
X18960D01*
Y22330D01*
X18880D01*
Y22290D01*
X18840D01*
Y22210D01*
X18880D01*
X16880D02*
Y22170D01*
X16960D01*
Y22210D01*
X17000D01*
Y22290D01*
X16960D01*
Y22330D01*
X16880D01*
Y22290D01*
X16840D01*
Y22210D01*
X16880D01*
X12760Y22220D02*
Y22180D01*
X12840D01*
Y22220D01*
X12880D01*
Y22300D01*
X12840D01*
Y22340D01*
X12760D01*
Y22300D01*
X12720D01*
Y22220D01*
X12760D01*
X10760D02*
Y22180D01*
X10840D01*
Y22220D01*
X10880D01*
Y22300D01*
X10840D01*
Y22340D01*
X10760D01*
Y22300D01*
X10720D01*
Y22220D01*
X10760D01*
X11760D02*
Y22180D01*
X11840D01*
Y22220D01*
X11880D01*
Y22300D01*
X11840D01*
Y22340D01*
X11760D01*
Y22300D01*
X11720D01*
Y22220D01*
X11760D01*
X9760D02*
Y22180D01*
X9840D01*
Y22220D01*
X9880D01*
Y22300D01*
X9840D01*
Y22340D01*
X9760D01*
Y22300D01*
X9720D01*
Y22220D01*
X9760D01*
X7449Y30420D02*
X7489Y30460D01*
X7529D01*
X7489Y30500D01*
X7529Y30540D01*
X7489D01*
X7449Y30580D01*
X7409Y30540D01*
X7369D01*
X7409Y30500D01*
X7369Y30460D01*
X7409D01*
X7449Y30420D01*
Y29420D02*
X7489Y29460D01*
X7529D01*
X7489Y29500D01*
X7529Y29540D01*
X7489D01*
X7449Y29580D01*
X7409Y29540D01*
X7369D01*
X7409Y29500D01*
X7369Y29460D01*
X7409D01*
X7449Y29420D01*
Y31420D02*
X7489Y31460D01*
X7529D01*
X7489Y31500D01*
X7529Y31540D01*
X7489D01*
X7449Y31580D01*
X7409Y31540D01*
X7369D01*
X7409Y31500D01*
X7369Y31460D01*
X7409D01*
X7449Y31420D01*
X22760Y40756D02*
X22800Y40796D01*
X22840D01*
X22800Y40836D01*
X22840Y40876D01*
X22800D01*
X22760Y40916D01*
X22720Y40876D01*
X22680D01*
X22720Y40836D01*
X22680Y40796D01*
X22720D01*
X22760Y40756D01*
Y41756D02*
X22800Y41796D01*
X22840D01*
X22800Y41836D01*
X22840Y41876D01*
X22800D01*
X22760Y41916D01*
X22720Y41876D01*
X22680D01*
X22720Y41836D01*
X22680Y41796D01*
X22720D01*
X22760Y41756D01*
X22770Y44240D02*
X22810Y44280D01*
X22850D01*
X22810Y44320D01*
X22850Y44360D01*
X22810D01*
X22770Y44400D01*
X22730Y44360D01*
X22690D01*
X22730Y44320D01*
X22690Y44280D01*
X22730D01*
X22770Y44240D01*
Y45240D02*
X22810Y45280D01*
X22850D01*
X22810Y45320D01*
X22850Y45360D01*
X22810D01*
X22770Y45400D01*
X22730Y45360D01*
X22690D01*
X22730Y45320D01*
X22690Y45280D01*
X22730D01*
X22770Y45240D01*
X25800Y41470D02*
X25840Y41510D01*
X25880D01*
X25840Y41550D01*
X25880Y41590D01*
X25840D01*
X25800Y41630D01*
X25760Y41590D01*
X25720D01*
X25760Y41550D01*
X25720Y41510D01*
X25760D01*
X25800Y41470D01*
Y42470D02*
X25840Y42510D01*
X25880D01*
X25840Y42550D01*
X25880Y42590D01*
X25840D01*
X25800Y42630D01*
X25760Y42590D01*
X25720D01*
X25760Y42550D01*
X25720Y42510D01*
X25760D01*
X25800Y42470D01*
X25877Y44260D02*
X25917Y44300D01*
X25957D01*
X25917Y44340D01*
X25957Y44380D01*
X25917D01*
X25877Y44420D01*
X25837Y44380D01*
X25797D01*
X25837Y44340D01*
X25797Y44300D01*
X25837D01*
X25877Y44260D01*
Y45260D02*
X25917Y45300D01*
X25957D01*
X25917Y45340D01*
X25957Y45380D01*
X25917D01*
X25877Y45420D01*
X25837Y45380D01*
X25797D01*
X25837Y45340D01*
X25797Y45300D01*
X25837D01*
X25877Y45260D01*
X24920Y49800D02*
X24960Y49840D01*
X25000D01*
X24960Y49880D01*
X25000Y49920D01*
X24960D01*
X24920Y49960D01*
X24880Y49920D01*
X24840D01*
X24880Y49880D01*
X24840Y49840D01*
X24880D01*
X24920Y49800D01*
Y50800D02*
X24960Y50840D01*
X25000D01*
X24960Y50880D01*
X25000Y50920D01*
X24960D01*
X24920Y50960D01*
X24880Y50920D01*
X24840D01*
X24880Y50880D01*
X24840Y50840D01*
X24880D01*
X24920Y50800D01*
X19420Y30270D02*
X19460D01*
X19500Y30310D01*
X19540Y30270D01*
X19580D01*
Y30310D01*
X19540Y30350D01*
X19580Y30390D01*
Y30430D01*
X19540D01*
X19500Y30390D01*
X19460Y30430D01*
X19420D01*
Y30390D01*
X19460Y30350D01*
X19420Y30310D01*
Y30270D01*
X26800Y5520D02*
X26880Y5600D01*
X26960Y5520D01*
X26880Y5440D01*
X26800Y5520D01*
X8460Y44420D02*
X8500D01*
X8540Y44460D01*
X8580Y44420D01*
X8620D01*
Y44460D01*
X8580Y44500D01*
X8620Y44540D01*
Y44580D01*
X8580D01*
X8540Y44540D01*
X8500Y44580D01*
X8460D01*
Y44540D01*
X8500Y44500D01*
X8460Y44460D01*
Y44420D01*
X7950Y44940D02*
X7990D01*
X8030Y44980D01*
X8070Y44940D01*
X8110D01*
Y44980D01*
X8070Y45020D01*
X8110Y45060D01*
Y45100D01*
X8070D01*
X8030Y45060D01*
X7990Y45100D01*
X7950D01*
Y45060D01*
X7990Y45020D01*
X7950Y44980D01*
Y44940D01*
X18604Y40696D02*
X18644D01*
X18684Y40736D01*
X18724Y40696D01*
X18764D01*
Y40736D01*
X18724Y40776D01*
X18764Y40816D01*
Y40856D01*
X18724D01*
X18684Y40816D01*
X18644Y40856D01*
X18604D01*
Y40816D01*
X18644Y40776D01*
X18604Y40736D01*
Y40696D01*
X18614Y40026D02*
X18654D01*
X18694Y40066D01*
X18734Y40026D01*
X18774D01*
Y40066D01*
X18734Y40106D01*
X18774Y40146D01*
Y40186D01*
X18734D01*
X18694Y40146D01*
X18654Y40186D01*
X18614D01*
Y40146D01*
X18654Y40106D01*
X18614Y40066D01*
Y40026D01*
X12097Y49063D02*
X12137D01*
X12177Y49103D01*
X12217Y49063D01*
X12257D01*
Y49103D01*
X12217Y49143D01*
X12257Y49183D01*
Y49223D01*
X12217D01*
X12177Y49183D01*
X12137Y49223D01*
X12097D01*
Y49183D01*
X12137Y49143D01*
X12097Y49103D01*
Y49063D01*
X13014Y37966D02*
X13054D01*
X13094Y38006D01*
X13134Y37966D01*
X13174D01*
Y38006D01*
X13134Y38046D01*
X13174Y38086D01*
Y38126D01*
X13134D01*
X13094Y38086D01*
X13054Y38126D01*
X13014D01*
Y38086D01*
X13054Y38046D01*
X13014Y38006D01*
Y37966D01*
X3830Y49890D02*
X3910Y49970D01*
X3990Y49890D01*
X3910Y49810D01*
X3830Y49890D01*
X16960Y51570D02*
X17040Y51650D01*
X17120Y51570D01*
X17040Y51490D01*
X16960Y51570D01*
X23230Y35580D02*
X23310Y35660D01*
X23390Y35580D01*
X23310Y35500D01*
X23230Y35580D01*
X23950Y51810D02*
X24030Y51890D01*
X24110Y51810D01*
X24030Y51730D01*
X23950Y51810D01*
X20729Y45541D02*
X20809Y45621D01*
X20889Y45541D01*
X20809Y45461D01*
X20729Y45541D01*
X21950Y36450D02*
X22030Y36530D01*
X22110Y36450D01*
X22030Y36370D01*
X21950Y36450D01*
X25730Y46200D02*
X25810Y46280D01*
X25890Y46200D01*
X25810Y46120D01*
X25730Y46200D01*
X6520Y44973D02*
X6560D01*
X6600Y45013D01*
X6640Y44973D01*
X6680D01*
Y45013D01*
X6640Y45053D01*
X6680Y45093D01*
Y45133D01*
X6640D01*
X6600Y45093D01*
X6560Y45133D01*
X6520D01*
Y45093D01*
X6560Y45053D01*
X6520Y45013D01*
Y44973D01*
X13100Y45240D02*
X13140D01*
X13180Y45280D01*
X13220Y45240D01*
X13260D01*
Y45280D01*
X13220Y45320D01*
X13260Y45360D01*
Y45400D01*
X13220D01*
X13180Y45360D01*
X13140Y45400D01*
X13100D01*
Y45360D01*
X13140Y45320D01*
X13100Y45280D01*
Y45240D01*
X13530Y45553D02*
X13570D01*
X13610Y45593D01*
X13650Y45553D01*
X13690D01*
Y45593D01*
X13650Y45633D01*
X13690Y45673D01*
Y45713D01*
X13650D01*
X13610Y45673D01*
X13570Y45713D01*
X13530D01*
Y45673D01*
X13570Y45633D01*
X13530Y45593D01*
Y45553D01*
X2253Y45557D02*
X2333Y45637D01*
X2413Y45557D01*
X2333Y45477D01*
X2253Y45557D01*
X2170Y45020D02*
X2250Y45100D01*
X2330Y45020D01*
X2250Y44940D01*
X2170Y45020D01*
Y44375D02*
X2250Y44455D01*
X2330Y44375D01*
X2250Y44295D01*
X2170Y44375D01*
Y43850D02*
X2250Y43930D01*
X2330Y43850D01*
X2250Y43770D01*
X2170Y43850D01*
X2260Y46090D02*
X2340Y46170D01*
X2420Y46090D01*
X2340Y46010D01*
X2260Y46090D01*
Y46738D02*
X2340Y46818D01*
X2420Y46738D01*
X2340Y46658D01*
X2260Y46738D01*
X11540Y48610D02*
X11580D01*
X11620Y48650D01*
X11660Y48610D01*
X11700D01*
Y48650D01*
X11660Y48690D01*
X11700Y48730D01*
Y48770D01*
X11660D01*
X11620Y48730D01*
X11580Y48770D01*
X11540D01*
Y48730D01*
X11580Y48690D01*
X11540Y48650D01*
Y48610D01*
X16320Y49500D02*
X16400Y49580D01*
X16480Y49500D01*
X16400Y49420D01*
X16320Y49500D01*
X23430Y17840D02*
X23470D01*
X23510Y17880D01*
X23550Y17840D01*
X23590D01*
Y17880D01*
X23550Y17920D01*
X23590Y17960D01*
Y18000D01*
X23550D01*
X23510Y17960D01*
X23470Y18000D01*
X23430D01*
Y17960D01*
X23470Y17920D01*
X23430Y17880D01*
Y17840D01*
X15800Y50240D02*
X15880Y50320D01*
X15960Y50240D01*
X15880Y50160D01*
X15800Y50240D01*
X4640Y50670D02*
X4680D01*
X4720Y50710D01*
X4760Y50670D01*
X4800D01*
Y50710D01*
X4760Y50750D01*
X4800Y50790D01*
Y50830D01*
X4760D01*
X4720Y50790D01*
X4680Y50830D01*
X4640D01*
Y50790D01*
X4680Y50750D01*
X4640Y50710D01*
Y50670D01*
X4983Y50989D02*
X5023D01*
X5063Y51029D01*
X5103Y50989D01*
X5143D01*
Y51029D01*
X5103Y51069D01*
X5143Y51109D01*
Y51149D01*
X5103D01*
X5063Y51109D01*
X5023Y51149D01*
X4983D01*
Y51109D01*
X5023Y51069D01*
X4983Y51029D01*
Y50989D01*
X5250Y51450D02*
X5290D01*
X5330Y51490D01*
X5370Y51450D01*
X5410D01*
Y51490D01*
X5370Y51530D01*
X5410Y51570D01*
Y51610D01*
X5370D01*
X5330Y51570D01*
X5290Y51610D01*
X5250D01*
Y51570D01*
X5290Y51530D01*
X5250Y51490D01*
Y51450D01*
X1787Y47460D02*
X1827D01*
X1867Y47500D01*
X1907Y47460D01*
X1947D01*
Y47500D01*
X1907Y47540D01*
X1947Y47580D01*
Y47620D01*
X1907D01*
X1867Y47580D01*
X1827Y47620D01*
X1787D01*
Y47580D01*
X1827Y47540D01*
X1787Y47500D01*
Y47460D01*
X24740D02*
X24780D01*
X24820Y47500D01*
X24860Y47460D01*
X24900D01*
Y47500D01*
X24860Y47540D01*
X24900Y47580D01*
Y47620D01*
X24860D01*
X24820Y47580D01*
X24780Y47620D01*
X24740D01*
Y47580D01*
X24780Y47540D01*
X24740Y47500D01*
Y47460D01*
X26030Y47300D02*
X26110Y47380D01*
X26190Y47300D01*
X26110Y47220D01*
X26030Y47300D01*
X9523Y16745D02*
X9603Y16825D01*
X9683Y16745D01*
X9603Y16665D01*
X9523Y16745D01*
X18205Y9736D02*
X18285Y9816D01*
X18365Y9736D01*
X18285Y9656D01*
X18205Y9736D01*
X13943Y4495D02*
X14023Y4575D01*
X14103Y4495D01*
X14023Y4415D01*
X13943Y4495D01*
X11280Y4500D02*
X11360Y4580D01*
X11440Y4500D01*
X11360Y4420D01*
X11280Y4500D01*
X21690Y16601D02*
X21770Y16681D01*
X21850Y16601D01*
X21770Y16521D01*
X21690Y16601D01*
X18680Y17360D02*
X18760Y17440D01*
X18840Y17360D01*
X18760Y17280D01*
X18680Y17360D01*
X20310Y31710D02*
X20350D01*
X20390Y31750D01*
X20430Y31710D01*
X20470D01*
Y31750D01*
X20430Y31790D01*
X20470Y31830D01*
Y31870D01*
X20430D01*
X20390Y31830D01*
X20350Y31870D01*
X20310D01*
Y31830D01*
X20350Y31790D01*
X20310Y31750D01*
Y31710D01*
X12810Y31730D02*
X12850D01*
X12890Y31770D01*
X12930Y31730D01*
X12970D01*
Y31770D01*
X12930Y31810D01*
X12970Y31850D01*
Y31890D01*
X12930D01*
X12890Y31850D01*
X12850Y31890D01*
X12810D01*
Y31850D01*
X12850Y31810D01*
X12810Y31770D01*
Y31730D01*
X17840Y33360D02*
X17880D01*
X17920Y33400D01*
X17960Y33360D01*
X18000D01*
Y33400D01*
X17960Y33440D01*
X18000Y33480D01*
Y33520D01*
X17960D01*
X17920Y33480D01*
X17880Y33520D01*
X17840D01*
Y33480D01*
X17880Y33440D01*
X17840Y33400D01*
Y33360D01*
X21280Y46770D02*
X21320D01*
X21360Y46810D01*
X21400Y46770D01*
X21440D01*
Y46810D01*
X21400Y46850D01*
X21440Y46890D01*
Y46930D01*
X21400D01*
X21360Y46890D01*
X21320Y46930D01*
X21280D01*
Y46890D01*
X21320Y46850D01*
X21280Y46810D01*
Y46770D01*
X18790Y12220D02*
X18830D01*
X18870Y12260D01*
X18910Y12220D01*
X18950D01*
Y12260D01*
X18910Y12300D01*
X18950Y12340D01*
Y12380D01*
X18910D01*
X18870Y12340D01*
X18830Y12380D01*
X18790D01*
Y12340D01*
X18830Y12300D01*
X18790Y12260D01*
Y12220D01*
X18040Y12920D02*
X18080D01*
X18120Y12960D01*
X18160Y12920D01*
X18200D01*
Y12960D01*
X18160Y13000D01*
X18200Y13040D01*
Y13080D01*
X18160D01*
X18120Y13040D01*
X18080Y13080D01*
X18040D01*
Y13040D01*
X18080Y13000D01*
X18040Y12960D01*
Y12920D01*
X18430Y12550D02*
X18470D01*
X18510Y12590D01*
X18550Y12550D01*
X18590D01*
Y12590D01*
X18550Y12630D01*
X18590Y12670D01*
Y12710D01*
X18550D01*
X18510Y12670D01*
X18470Y12710D01*
X18430D01*
Y12670D01*
X18470Y12630D01*
X18430Y12590D01*
Y12550D01*
X8230Y51450D02*
X8270D01*
X8310Y51490D01*
X8350Y51450D01*
X8390D01*
Y51490D01*
X8350Y51530D01*
X8390Y51570D01*
Y51610D01*
X8350D01*
X8310Y51570D01*
X8270Y51610D01*
X8230D01*
Y51570D01*
X8270Y51530D01*
X8230Y51490D01*
Y51450D01*
X5940Y31280D02*
X5980D01*
X6020Y31320D01*
X6060Y31280D01*
X6100D01*
Y31320D01*
X6060Y31360D01*
X6100Y31400D01*
Y31440D01*
X6060D01*
X6020Y31400D01*
X5980Y31440D01*
X5940D01*
Y31400D01*
X5980Y31360D01*
X5940Y31320D01*
Y31280D01*
X7179Y40740D02*
X7219D01*
X7259Y40780D01*
X7299Y40740D01*
X7339D01*
Y40780D01*
X7299Y40820D01*
X7339Y40860D01*
Y40900D01*
X7299D01*
X7259Y40860D01*
X7219Y40900D01*
X7179D01*
Y40860D01*
X7219Y40820D01*
X7179Y40780D01*
Y40740D01*
X26650Y4810D02*
X26690D01*
X26730Y4850D01*
X26770Y4810D01*
X26810D01*
Y4850D01*
X26770Y4890D01*
X26810Y4930D01*
Y4970D01*
X26770D01*
X26730Y4930D01*
X26690Y4970D01*
X26650D01*
Y4930D01*
X26690Y4890D01*
X26650Y4850D01*
Y4810D01*
X21840Y30210D02*
X21880D01*
X21920Y30250D01*
X21960Y30210D01*
X22000D01*
Y30250D01*
X21960Y30290D01*
X22000Y30330D01*
Y30370D01*
X21960D01*
X21920Y30330D01*
X21880Y30370D01*
X21840D01*
Y30330D01*
X21880Y30290D01*
X21840Y30250D01*
Y30210D01*
X13780Y31065D02*
X13820D01*
X13860Y31105D01*
X13900Y31065D01*
X13940D01*
Y31105D01*
X13900Y31145D01*
X13940Y31185D01*
Y31225D01*
X13900D01*
X13860Y31185D01*
X13820Y31225D01*
X13780D01*
Y31185D01*
X13820Y31145D01*
X13780Y31105D01*
Y31065D01*
X11824Y30299D02*
X11864D01*
X11904Y30339D01*
X11944Y30299D01*
X11984D01*
Y30339D01*
X11944Y30379D01*
X11984Y30419D01*
Y30459D01*
X11944D01*
X11904Y30419D01*
X11864Y30459D01*
X11824D01*
Y30419D01*
X11864Y30379D01*
X11824Y30339D01*
Y30299D01*
X9760Y4100D02*
X9800D01*
X9840Y4140D01*
X9880Y4100D01*
X9920D01*
Y4140D01*
X9880Y4180D01*
X9920Y4220D01*
Y4260D01*
X9880D01*
X9840Y4220D01*
X9800Y4260D01*
X9760D01*
Y4220D01*
X9800Y4180D01*
X9760Y4140D01*
Y4100D01*
X14510Y4880D02*
X14550D01*
X14590Y4920D01*
X14630Y4880D01*
X14670D01*
Y4920D01*
X14630Y4960D01*
X14670Y5000D01*
Y5040D01*
X14630D01*
X14590Y5000D01*
X14550Y5040D01*
X14510D01*
Y5000D01*
X14550Y4960D01*
X14510Y4920D01*
Y4880D01*
X16560Y8615D02*
X16600D01*
X16640Y8655D01*
X16680Y8615D01*
X16720D01*
Y8655D01*
X16680Y8695D01*
X16720Y8735D01*
Y8775D01*
X16680D01*
X16640Y8735D01*
X16600Y8775D01*
X16560D01*
Y8735D01*
X16600Y8695D01*
X16560Y8655D01*
Y8615D01*
X20513Y16167D02*
X20553D01*
X20593Y16207D01*
X20633Y16167D01*
X20673D01*
Y16207D01*
X20633Y16247D01*
X20673Y16287D01*
Y16327D01*
X20633D01*
X20593Y16287D01*
X20553Y16327D01*
X20513D01*
Y16287D01*
X20553Y16247D01*
X20513Y16207D01*
Y16167D01*
X17160Y15790D02*
X17200D01*
X17240Y15830D01*
X17280Y15790D01*
X17320D01*
Y15830D01*
X17280Y15870D01*
X17320Y15910D01*
Y15950D01*
X17280D01*
X17240Y15910D01*
X17200Y15950D01*
X17160D01*
Y15910D01*
X17200Y15870D01*
X17160Y15830D01*
Y15790D01*
X8992Y15240D02*
X9032D01*
X9072Y15280D01*
X9112Y15240D01*
X9152D01*
Y15280D01*
X9112Y15320D01*
X9152Y15360D01*
Y15400D01*
X9112D01*
X9072Y15360D01*
X9032Y15400D01*
X8992D01*
Y15360D01*
X9032Y15320D01*
X8992Y15280D01*
Y15240D01*
X7480Y41730D02*
X7520D01*
X7560Y41770D01*
X7600Y41730D01*
X7640D01*
Y41770D01*
X7600Y41810D01*
X7640Y41850D01*
Y41890D01*
X7600D01*
X7560Y41850D01*
X7520Y41890D01*
X7480D01*
Y41850D01*
X7520Y41810D01*
X7480Y41770D01*
Y41730D01*
X12360Y36450D02*
X12400D01*
X12440Y36490D01*
X12480Y36450D01*
X12520D01*
Y36490D01*
X12480Y36530D01*
X12520Y36570D01*
Y36610D01*
X12480D01*
X12440Y36570D01*
X12400Y36610D01*
X12360D01*
Y36570D01*
X12400Y36530D01*
X12360Y36490D01*
Y36450D01*
X20205Y18430D02*
X20245D01*
X20285Y18470D01*
X20325Y18430D01*
X20365D01*
Y18470D01*
X20325Y18510D01*
X20365Y18550D01*
Y18590D01*
X20325D01*
X20285Y18550D01*
X20245Y18590D01*
X20205D01*
Y18550D01*
X20245Y18510D01*
X20205Y18470D01*
Y18430D01*
X19270Y19930D02*
X19310D01*
X19350Y19970D01*
X19390Y19930D01*
X19430D01*
Y19970D01*
X19390Y20010D01*
X19430Y20050D01*
Y20090D01*
X19390D01*
X19350Y20050D01*
X19310Y20090D01*
X19270D01*
Y20050D01*
X19310Y20010D01*
X19270Y19970D01*
Y19930D01*
X13870Y43360D02*
X13910D01*
X13950Y43400D01*
X13990Y43360D01*
X14030D01*
Y43400D01*
X13990Y43440D01*
X14030Y43480D01*
Y43520D01*
X13990D01*
X13950Y43480D01*
X13910Y43520D01*
X13870D01*
Y43480D01*
X13910Y43440D01*
X13870Y43400D01*
Y43360D01*
X13910Y42680D02*
X13950D01*
X13990Y42720D01*
X14030Y42680D01*
X14070D01*
Y42720D01*
X14030Y42760D01*
X14070Y42800D01*
Y42840D01*
X14030D01*
X13990Y42800D01*
X13950Y42840D01*
X13910D01*
Y42800D01*
X13950Y42760D01*
X13910Y42720D01*
Y42680D01*
X13920Y42050D02*
X13960D01*
X14000Y42090D01*
X14040Y42050D01*
X14080D01*
Y42090D01*
X14040Y42130D01*
X14080Y42170D01*
Y42210D01*
X14040D01*
X14000Y42170D01*
X13960Y42210D01*
X13920D01*
Y42170D01*
X13960Y42130D01*
X13920Y42090D01*
Y42050D01*
X13870Y41310D02*
X13910D01*
X13950Y41350D01*
X13990Y41310D01*
X14030D01*
Y41350D01*
X13990Y41390D01*
X14030Y41430D01*
Y41470D01*
X13990D01*
X13950Y41430D01*
X13910Y41470D01*
X13870D01*
Y41430D01*
X13910Y41390D01*
X13870Y41350D01*
Y41310D01*
X13890Y40610D02*
X13930D01*
X13970Y40650D01*
X14010Y40610D01*
X14050D01*
Y40650D01*
X14010Y40690D01*
X14050Y40730D01*
Y40770D01*
X14010D01*
X13970Y40730D01*
X13930Y40770D01*
X13890D01*
Y40730D01*
X13930Y40690D01*
X13890Y40650D01*
Y40610D01*
X15510Y38680D02*
X15550D01*
X15590Y38720D01*
X15630Y38680D01*
X15670D01*
Y38720D01*
X15630Y38760D01*
X15670Y38800D01*
Y38840D01*
X15630D01*
X15590Y38800D01*
X15550Y38840D01*
X15510D01*
Y38800D01*
X15550Y38760D01*
X15510Y38720D01*
Y38680D01*
X14000Y39350D02*
X14040D01*
X14080Y39390D01*
X14120Y39350D01*
X14160D01*
Y39390D01*
X14120Y39430D01*
X14160Y39470D01*
Y39510D01*
X14120D01*
X14080Y39470D01*
X14040Y39510D01*
X14000D01*
Y39470D01*
X14040Y39430D01*
X14000Y39390D01*
Y39350D01*
X13770Y40020D02*
X13810D01*
X13850Y40060D01*
X13890Y40020D01*
X13930D01*
Y40060D01*
X13890Y40100D01*
X13930Y40140D01*
Y40180D01*
X13890D01*
X13850Y40140D01*
X13810Y40180D01*
X13770D01*
Y40140D01*
X13810Y40100D01*
X13770Y40060D01*
Y40020D01*
X19660Y18240D02*
X19700D01*
X19740Y18280D01*
X19780Y18240D01*
X19820D01*
Y18280D01*
X19780Y18320D01*
X19820Y18360D01*
Y18400D01*
X19780D01*
X19740Y18360D01*
X19700Y18400D01*
X19660D01*
Y18360D01*
X19700Y18320D01*
X19660Y18280D01*
Y18240D01*
X21230Y15050D02*
X21270D01*
X21310Y15090D01*
X21350Y15050D01*
X21390D01*
Y15090D01*
X21350Y15130D01*
X21390Y15170D01*
Y15210D01*
X21350D01*
X21310Y15170D01*
X21270Y15210D01*
X21230D01*
Y15170D01*
X21270Y15130D01*
X21230Y15090D01*
Y15050D01*
X4600Y36338D02*
X4640D01*
X4680Y36378D01*
X4720Y36338D01*
X4760D01*
Y36378D01*
X4720Y36418D01*
X4760Y36458D01*
Y36498D01*
X4720D01*
X4680Y36458D01*
X4640Y36498D01*
X4600D01*
Y36458D01*
X4640Y36418D01*
X4600Y36378D01*
Y36338D01*
X5020Y37258D02*
X5060D01*
X5100Y37298D01*
X5140Y37258D01*
X5180D01*
Y37298D01*
X5140Y37338D01*
X5180Y37378D01*
Y37418D01*
X5140D01*
X5100Y37378D01*
X5060Y37418D01*
X5020D01*
Y37378D01*
X5060Y37338D01*
X5020Y37298D01*
Y37258D01*
X8720Y48220D02*
X8760D01*
X8800Y48260D01*
X8840Y48220D01*
X8880D01*
Y48260D01*
X8840Y48300D01*
X8880Y48340D01*
Y48380D01*
X8840D01*
X8800Y48340D01*
X8760Y48380D01*
X8720D01*
Y48340D01*
X8760Y48300D01*
X8720Y48260D01*
Y48220D01*
X6420Y47460D02*
X6460D01*
X6500Y47500D01*
X6540Y47460D01*
X6580D01*
Y47500D01*
X6540Y47540D01*
X6580Y47580D01*
Y47620D01*
X6540D01*
X6500Y47580D01*
X6460Y47620D01*
X6420D01*
Y47580D01*
X6460Y47540D01*
X6420Y47500D01*
Y47460D01*
X5820Y47020D02*
X5860D01*
X5900Y47060D01*
X5940Y47020D01*
X5980D01*
Y47060D01*
X5940Y47100D01*
X5980Y47140D01*
Y47180D01*
X5940D01*
X5900Y47140D01*
X5860Y47180D01*
X5820D01*
Y47140D01*
X5860Y47100D01*
X5820Y47060D01*
Y47020D01*
X8920Y44420D02*
X8960D01*
X9000Y44460D01*
X9040Y44420D01*
X9080D01*
Y44460D01*
X9040Y44500D01*
X9080Y44540D01*
Y44580D01*
X9040D01*
X9000Y44540D01*
X8960Y44580D01*
X8920D01*
Y44540D01*
X8960Y44500D01*
X8920Y44460D01*
Y44420D01*
X5920D02*
X5960D01*
X6000Y44460D01*
X6040Y44420D01*
X6080D01*
Y44460D01*
X6040Y44500D01*
X6080Y44540D01*
Y44580D01*
X6040D01*
X6000Y44540D01*
X5960Y44580D01*
X5920D01*
Y44540D01*
X5960Y44500D01*
X5920Y44460D01*
Y44420D01*
X5420D02*
X5460D01*
X5500Y44460D01*
X5540Y44420D01*
X5580D01*
Y44460D01*
X5540Y44500D01*
X5580Y44540D01*
Y44580D01*
X5540D01*
X5500Y44540D01*
X5460Y44580D01*
X5420D01*
Y44540D01*
X5460Y44500D01*
X5420Y44460D01*
Y44420D01*
Y46264D02*
X5460D01*
X5500Y46304D01*
X5540Y46264D01*
X5580D01*
Y46304D01*
X5540Y46344D01*
X5580Y46384D01*
Y46424D01*
X5540D01*
X5500Y46384D01*
X5460Y46424D01*
X5420D01*
Y46384D01*
X5460Y46344D01*
X5420Y46304D01*
Y46264D01*
X1415Y47050D02*
X1455D01*
X1495Y47090D01*
X1535Y47050D01*
X1575D01*
Y47090D01*
X1535Y47130D01*
X1575Y47170D01*
Y47210D01*
X1535D01*
X1495Y47170D01*
X1455Y47210D01*
X1415D01*
Y47170D01*
X1455Y47130D01*
X1415Y47090D01*
Y47050D01*
X1435Y45870D02*
X1475D01*
X1515Y45910D01*
X1555Y45870D01*
X1595D01*
Y45910D01*
X1555Y45950D01*
X1595Y45990D01*
Y46030D01*
X1555D01*
X1515Y45990D01*
X1475Y46030D01*
X1435D01*
Y45990D01*
X1475Y45950D01*
X1435Y45910D01*
Y45870D01*
Y44670D02*
X1475D01*
X1515Y44710D01*
X1555Y44670D01*
X1595D01*
Y44710D01*
X1555Y44750D01*
X1595Y44790D01*
Y44830D01*
X1555D01*
X1515Y44790D01*
X1475Y44830D01*
X1435D01*
Y44790D01*
X1475Y44750D01*
X1435Y44710D01*
Y44670D01*
X1385Y43520D02*
X1425D01*
X1465Y43560D01*
X1505Y43520D01*
X1545D01*
Y43560D01*
X1505Y43600D01*
X1545Y43640D01*
Y43680D01*
X1505D01*
X1465Y43640D01*
X1425Y43680D01*
X1385D01*
Y43640D01*
X1425Y43600D01*
X1385Y43560D01*
Y43520D01*
Y43120D02*
X1425D01*
X1465Y43160D01*
X1505Y43120D01*
X1545D01*
Y43160D01*
X1505Y43200D01*
X1545Y43240D01*
Y43280D01*
X1505D01*
X1465Y43240D01*
X1425Y43280D01*
X1385D01*
Y43240D01*
X1425Y43200D01*
X1385Y43160D01*
Y43120D01*
Y42720D02*
X1425D01*
X1465Y42760D01*
X1505Y42720D01*
X1545D01*
Y42760D01*
X1505Y42800D01*
X1545Y42840D01*
Y42880D01*
X1505D01*
X1465Y42840D01*
X1425Y42880D01*
X1385D01*
Y42840D01*
X1425Y42800D01*
X1385Y42760D01*
Y42720D01*
Y42320D02*
X1425D01*
X1465Y42360D01*
X1505Y42320D01*
X1545D01*
Y42360D01*
X1505Y42400D01*
X1545Y42440D01*
Y42480D01*
X1505D01*
X1465Y42440D01*
X1425Y42480D01*
X1385D01*
Y42440D01*
X1425Y42400D01*
X1385Y42360D01*
Y42320D01*
Y41920D02*
X1425D01*
X1465Y41960D01*
X1505Y41920D01*
X1545D01*
Y41960D01*
X1505Y42000D01*
X1545Y42040D01*
Y42080D01*
X1505D01*
X1465Y42040D01*
X1425Y42080D01*
X1385D01*
Y42040D01*
X1425Y42000D01*
X1385Y41960D01*
Y41920D01*
X1445Y48614D02*
X1485D01*
X1525Y48654D01*
X1565Y48614D01*
X1605D01*
Y48654D01*
X1565Y48694D01*
X1605Y48734D01*
Y48774D01*
X1565D01*
X1525Y48734D01*
X1485Y48774D01*
X1445D01*
Y48734D01*
X1485Y48694D01*
X1445Y48654D01*
Y48614D01*
X1435Y48220D02*
X1475D01*
X1515Y48260D01*
X1555Y48220D01*
X1595D01*
Y48260D01*
X1555Y48300D01*
X1595Y48340D01*
Y48380D01*
X1555D01*
X1515Y48340D01*
X1475Y48380D01*
X1435D01*
Y48340D01*
X1475Y48300D01*
X1435Y48260D01*
Y48220D01*
Y48989D02*
X1475D01*
X1515Y49029D01*
X1555Y48989D01*
X1595D01*
Y49029D01*
X1555Y49069D01*
X1595Y49109D01*
Y49149D01*
X1555D01*
X1515Y49109D01*
X1475Y49149D01*
X1435D01*
Y49109D01*
X1475Y49069D01*
X1435Y49029D01*
Y48989D01*
Y49389D02*
X1475D01*
X1515Y49429D01*
X1555Y49389D01*
X1595D01*
Y49429D01*
X1555Y49469D01*
X1595Y49509D01*
Y49549D01*
X1555D01*
X1515Y49509D01*
X1475Y49549D01*
X1435D01*
Y49509D01*
X1475Y49469D01*
X1435Y49429D01*
Y49389D01*
Y49789D02*
X1475D01*
X1515Y49829D01*
X1555Y49789D01*
X1595D01*
Y49829D01*
X1555Y49869D01*
X1595Y49909D01*
Y49949D01*
X1555D01*
X1515Y49909D01*
X1475Y49949D01*
X1435D01*
Y49909D01*
X1475Y49869D01*
X1435Y49829D01*
Y49789D01*
Y50189D02*
X1475D01*
X1515Y50229D01*
X1555Y50189D01*
X1595D01*
Y50229D01*
X1555Y50269D01*
X1595Y50309D01*
Y50349D01*
X1555D01*
X1515Y50309D01*
X1475Y50349D01*
X1435D01*
Y50309D01*
X1475Y50269D01*
X1435Y50229D01*
Y50189D01*
Y50589D02*
X1475D01*
X1515Y50629D01*
X1555Y50589D01*
X1595D01*
Y50629D01*
X1555Y50669D01*
X1595Y50709D01*
Y50749D01*
X1555D01*
X1515Y50709D01*
X1475Y50749D01*
X1435D01*
Y50709D01*
X1475Y50669D01*
X1435Y50629D01*
Y50589D01*
Y50989D02*
X1475D01*
X1515Y51029D01*
X1555Y50989D01*
X1595D01*
Y51029D01*
X1555Y51069D01*
X1595Y51109D01*
Y51149D01*
X1555D01*
X1515Y51109D01*
X1475Y51149D01*
X1435D01*
Y51109D01*
X1475Y51069D01*
X1435Y51029D01*
Y50989D01*
Y51370D02*
X1475D01*
X1515Y51410D01*
X1555Y51370D01*
X1595D01*
Y51410D01*
X1555Y51450D01*
X1595Y51490D01*
Y51530D01*
X1555D01*
X1515Y51490D01*
X1475Y51530D01*
X1435D01*
Y51490D01*
X1475Y51450D01*
X1435Y51410D01*
Y51370D01*
X3735Y47820D02*
X3775D01*
X3815Y47860D01*
X3855Y47820D01*
X3895D01*
Y47860D01*
X3855Y47900D01*
X3895Y47940D01*
Y47980D01*
X3855D01*
X3815Y47940D01*
X3775Y47980D01*
X3735D01*
Y47940D01*
X3775Y47900D01*
X3735Y47860D01*
Y47820D01*
Y46620D02*
X3775D01*
X3815Y46660D01*
X3855Y46620D01*
X3895D01*
Y46660D01*
X3855Y46700D01*
X3895Y46740D01*
Y46780D01*
X3855D01*
X3815Y46740D01*
X3775Y46780D01*
X3735D01*
Y46740D01*
X3775Y46700D01*
X3735Y46660D01*
Y46620D01*
X3685Y45470D02*
X3725D01*
X3765Y45510D01*
X3805Y45470D01*
X3845D01*
Y45510D01*
X3805Y45550D01*
X3845Y45590D01*
Y45630D01*
X3805D01*
X3765Y45590D01*
X3725Y45630D01*
X3685D01*
Y45590D01*
X3725Y45550D01*
X3685Y45510D01*
Y45470D01*
X3635Y44270D02*
X3675D01*
X3715Y44310D01*
X3755Y44270D01*
X3795D01*
Y44310D01*
X3755Y44350D01*
X3795Y44390D01*
Y44430D01*
X3755D01*
X3715Y44390D01*
X3675Y44430D01*
X3635D01*
Y44390D01*
X3675Y44350D01*
X3635Y44310D01*
Y44270D01*
Y41920D02*
X3675D01*
X3715Y41960D01*
X3755Y41920D01*
X3795D01*
Y41960D01*
X3755Y42000D01*
X3795Y42040D01*
Y42080D01*
X3755D01*
X3715Y42040D01*
X3675Y42080D01*
X3635D01*
Y42040D01*
X3675Y42000D01*
X3635Y41960D01*
Y41920D01*
X9060Y36318D02*
X9100D01*
X9140Y36358D01*
X9180Y36318D01*
X9220D01*
Y36358D01*
X9180Y36398D01*
X9220Y36438D01*
Y36478D01*
X9180D01*
X9140Y36438D01*
X9100Y36478D01*
X9060D01*
Y36438D01*
X9100Y36398D01*
X9060Y36358D01*
Y36318D01*
X9055Y37258D02*
X9095D01*
X9135Y37298D01*
X9175Y37258D01*
X9215D01*
Y37298D01*
X9175Y37338D01*
X9215Y37378D01*
Y37418D01*
X9175D01*
X9135Y37378D01*
X9095Y37418D01*
X9055D01*
Y37378D01*
X9095Y37338D01*
X9055Y37298D01*
Y37258D01*
X15140Y36810D02*
X15180D01*
X15220Y36850D01*
X15260Y36810D01*
X15300D01*
Y36850D01*
X15260Y36890D01*
X15300Y36930D01*
Y36970D01*
X15260D01*
X15220Y36930D01*
X15180Y36970D01*
X15140D01*
Y36930D01*
X15180Y36890D01*
X15140Y36850D01*
Y36810D01*
Y37390D02*
X15180D01*
X15220Y37430D01*
X15260Y37390D01*
X15300D01*
Y37430D01*
X15260Y37470D01*
X15300Y37510D01*
Y37550D01*
X15260D01*
X15220Y37510D01*
X15180Y37550D01*
X15140D01*
Y37510D01*
X15180Y37470D01*
X15140Y37430D01*
Y37390D01*
X21500Y35745D02*
X21540D01*
X21580Y35785D01*
X21620Y35745D01*
X21660D01*
Y35785D01*
X21620Y35825D01*
X21660Y35865D01*
Y35905D01*
X21620D01*
X21580Y35865D01*
X21540Y35905D01*
X21500D01*
Y35865D01*
X21540Y35825D01*
X21500Y35785D01*
Y35745D01*
Y36280D02*
X21540D01*
X21580Y36320D01*
X21620Y36280D01*
X21660D01*
Y36320D01*
X21620Y36360D01*
X21660Y36400D01*
Y36440D01*
X21620D01*
X21580Y36400D01*
X21540Y36440D01*
X21500D01*
Y36400D01*
X21540Y36360D01*
X21500Y36320D01*
Y36280D01*
X21509Y36838D02*
X21549D01*
X21589Y36878D01*
X21629Y36838D01*
X21669D01*
Y36878D01*
X21629Y36918D01*
X21669Y36958D01*
Y36998D01*
X21629D01*
X21589Y36958D01*
X21549Y36998D01*
X21509D01*
Y36958D01*
X21549Y36918D01*
X21509Y36878D01*
Y36838D01*
X21515Y37340D02*
X21555D01*
X21595Y37380D01*
X21635Y37340D01*
X21675D01*
Y37380D01*
X21635Y37420D01*
X21675Y37460D01*
Y37500D01*
X21635D01*
X21595Y37460D01*
X21555Y37500D01*
X21515D01*
Y37460D01*
X21555Y37420D01*
X21515Y37380D01*
Y37340D01*
X18604Y38676D02*
X18644D01*
X18684Y38716D01*
X18724Y38676D01*
X18764D01*
Y38716D01*
X18724Y38756D01*
X18764Y38796D01*
Y38836D01*
X18724D01*
X18684Y38796D01*
X18644Y38836D01*
X18604D01*
Y38796D01*
X18644Y38756D01*
X18604Y38716D01*
Y38676D01*
X18609Y39346D02*
X18649D01*
X18689Y39386D01*
X18729Y39346D01*
X18769D01*
Y39386D01*
X18729Y39426D01*
X18769Y39466D01*
Y39506D01*
X18729D01*
X18689Y39466D01*
X18649Y39506D01*
X18609D01*
Y39466D01*
X18649Y39426D01*
X18609Y39386D01*
Y39346D01*
X18604Y41316D02*
X18644D01*
X18684Y41356D01*
X18724Y41316D01*
X18764D01*
Y41356D01*
X18724Y41396D01*
X18764Y41436D01*
Y41476D01*
X18724D01*
X18684Y41436D01*
X18644Y41476D01*
X18604D01*
Y41436D01*
X18644Y41396D01*
X18604Y41356D01*
Y41316D01*
X18586Y41976D02*
X18626D01*
X18666Y42016D01*
X18706Y41976D01*
X18746D01*
Y42016D01*
X18706Y42056D01*
X18746Y42096D01*
Y42136D01*
X18706D01*
X18666Y42096D01*
X18626Y42136D01*
X18586D01*
Y42096D01*
X18626Y42056D01*
X18586Y42016D01*
Y41976D01*
X18594Y42668D02*
X18634D01*
X18674Y42708D01*
X18714Y42668D01*
X18754D01*
Y42708D01*
X18714Y42748D01*
X18754Y42788D01*
Y42828D01*
X18714D01*
X18674Y42788D01*
X18634Y42828D01*
X18594D01*
Y42788D01*
X18634Y42748D01*
X18594Y42708D01*
Y42668D01*
X18576Y43358D02*
X18616D01*
X18656Y43398D01*
X18696Y43358D01*
X18736D01*
Y43398D01*
X18696Y43438D01*
X18736Y43478D01*
Y43518D01*
X18696D01*
X18656Y43478D01*
X18616Y43518D01*
X18576D01*
Y43478D01*
X18616Y43438D01*
X18576Y43398D01*
Y43358D01*
X11830Y39311D02*
X11870D01*
X11910Y39351D01*
X11950Y39311D01*
X11990D01*
Y39351D01*
X11950Y39391D01*
X11990Y39431D01*
Y39471D01*
X11950D01*
X11910Y39431D01*
X11870Y39471D01*
X11830D01*
Y39431D01*
X11870Y39391D01*
X11830Y39351D01*
Y39311D01*
X11790Y38620D02*
X11830D01*
X11870Y38660D01*
X11910Y38620D01*
X11950D01*
Y38660D01*
X11910Y38700D01*
X11950Y38740D01*
Y38780D01*
X11910D01*
X11870Y38740D01*
X11830Y38780D01*
X11790D01*
Y38740D01*
X11830Y38700D01*
X11790Y38660D01*
Y38620D01*
X11766Y41316D02*
X11806D01*
X11846Y41356D01*
X11886Y41316D01*
X11926D01*
Y41356D01*
X11886Y41396D01*
X11926Y41436D01*
Y41476D01*
X11886D01*
X11846Y41436D01*
X11806Y41476D01*
X11766D01*
Y41436D01*
X11806Y41396D01*
X11766Y41356D01*
Y41316D01*
X11778Y42668D02*
X11818D01*
X11858Y42708D01*
X11898Y42668D01*
X11938D01*
Y42708D01*
X11898Y42748D01*
X11938Y42788D01*
Y42828D01*
X11898D01*
X11858Y42788D01*
X11818Y42828D01*
X11778D01*
Y42788D01*
X11818Y42748D01*
X11778Y42708D01*
Y42668D01*
X11770Y39996D02*
X11810D01*
X11850Y40036D01*
X11890Y39996D01*
X11930D01*
Y40036D01*
X11890Y40076D01*
X11930Y40116D01*
Y40156D01*
X11890D01*
X11850Y40116D01*
X11810Y40156D01*
X11770D01*
Y40116D01*
X11810Y40076D01*
X11770Y40036D01*
Y39996D01*
Y40656D02*
X11810D01*
X11850Y40696D01*
X11890Y40656D01*
X11930D01*
Y40696D01*
X11890Y40736D01*
X11930Y40776D01*
Y40816D01*
X11890D01*
X11850Y40776D01*
X11810Y40816D01*
X11770D01*
Y40776D01*
X11810Y40736D01*
X11770Y40696D01*
Y40656D01*
X11794Y42006D02*
X11834D01*
X11874Y42046D01*
X11914Y42006D01*
X11954D01*
Y42046D01*
X11914Y42086D01*
X11954Y42126D01*
Y42166D01*
X11914D01*
X11874Y42126D01*
X11834Y42166D01*
X11794D01*
Y42126D01*
X11834Y42086D01*
X11794Y42046D01*
Y42006D01*
X11830Y43356D02*
X11870D01*
X11910Y43396D01*
X11950Y43356D01*
X11990D01*
Y43396D01*
X11950Y43436D01*
X11990Y43476D01*
Y43516D01*
X11950D01*
X11910Y43476D01*
X11870Y43516D01*
X11830D01*
Y43476D01*
X11870Y43436D01*
X11830Y43396D01*
Y43356D01*
D49*
X24945Y45180D02*
G03*
X24945Y45180I-80J0D01*
G01*
X24445Y44680D02*
G03*
X24445Y44680I-80J0D01*
G01*
X24945Y44180D02*
G03*
X24945Y44180I-80J0D01*
G01*
X23945Y45180D02*
G03*
X23945Y45180I-80J0D01*
G01*
Y44180D02*
G03*
X23945Y44180I-80J0D01*
G01*
X8790Y20420D02*
G03*
X8790Y20420I-80J0D01*
G01*
X8290Y19920D02*
G03*
X8290Y19920I-80J0D01*
G01*
X8790Y19420D02*
G03*
X8790Y19420I-80J0D01*
G01*
X7790Y20420D02*
G03*
X7790Y20420I-80J0D01*
G01*
Y19420D02*
G03*
X7790Y19420I-80J0D01*
G01*
X10710Y20400D02*
G03*
X10710Y20400I-80J0D01*
G01*
X10210Y19900D02*
G03*
X10210Y19900I-80J0D01*
G01*
X10710Y19400D02*
G03*
X10710Y19400I-80J0D01*
G01*
X9710Y20400D02*
G03*
X9710Y20400I-80J0D01*
G01*
Y19400D02*
G03*
X9710Y19400I-80J0D01*
G01*
X24860Y42460D02*
G03*
X24860Y42460I-80J0D01*
G01*
X24360Y41960D02*
G03*
X24360Y41960I-80J0D01*
G01*
X24860Y41460D02*
G03*
X24860Y41460I-80J0D01*
G01*
X23860Y42460D02*
G03*
X23860Y42460I-80J0D01*
G01*
Y41460D02*
G03*
X23860Y41460I-80J0D01*
G01*
M02*
