G04*
G04 #@! TF.GenerationSoftware,Altium Limited,Altium Designer,21.3.2 (30)*
G04*
G04 Layer_Color=2752767*
%FSLAX24Y24*%
%MOIN*%
G70*
G04*
G04 #@! TF.SameCoordinates,833F00A7-D450-4082-898E-3E871E1ABAC5*
G04*
G04*
G04 #@! TF.FilePolarity,Positive*
G04*
G01*
G75*
%ADD46C,0.0020*%
%ADD47C,0.0027*%
D46*
X19400Y45390D02*
Y45550D01*
X19560D01*
Y45390D01*
X19400D01*
Y46390D02*
Y46550D01*
X19560D01*
Y46390D01*
X19400D01*
Y47390D02*
Y47550D01*
X19560D01*
Y47390D01*
X19400D01*
X25720Y42470D02*
Y42630D01*
X25880D01*
Y42470D01*
X25720D01*
Y41470D02*
Y41630D01*
X25880D01*
Y41470D01*
X25720D01*
X26550Y50800D02*
Y50960D01*
X26710D01*
Y50800D01*
X26550D01*
Y49800D02*
Y49960D01*
X26710D01*
Y49800D01*
X26550D01*
X24840Y50800D02*
Y50960D01*
X25000D01*
Y50800D01*
X24840D01*
Y49800D02*
Y49960D01*
X25000D01*
Y49800D01*
X24840D01*
X25797Y45260D02*
Y45420D01*
X25957D01*
Y45260D01*
X25797D01*
Y44260D02*
Y44420D01*
X25957D01*
Y44260D01*
X25797D01*
X12800Y22180D02*
X12720Y22340D01*
X12880D01*
X12800Y22180D01*
X11800D02*
X11720Y22340D01*
X11880D01*
X11800Y22180D01*
X10800D02*
X10720Y22340D01*
X10880D01*
X10800Y22180D01*
X9800D02*
X9720Y22340D01*
X9880D01*
X9800Y22180D01*
X12800Y25180D02*
X12720Y25340D01*
X12880D01*
X12800Y25180D01*
X11800D02*
X11720Y25340D01*
X11880D01*
X11800Y25180D01*
X10800D02*
X10720Y25340D01*
X10880D01*
X10800Y25180D01*
X9800D02*
X9720Y25340D01*
X9880D01*
X9800Y25180D01*
X22690Y45240D02*
Y45400D01*
X22850D01*
Y45240D01*
X22690D01*
Y44240D02*
Y44400D01*
X22850D01*
Y44240D01*
X22690D01*
X22680Y40756D02*
Y40916D01*
X22840D01*
Y40756D01*
X22680D01*
Y41756D02*
Y41916D01*
X22840D01*
Y41756D01*
X22680D01*
X24280Y41880D02*
X24320Y41920D01*
X24360D01*
X24320Y41960D01*
X24360Y42000D01*
X24320D01*
X24280Y42040D01*
X24240Y42000D01*
X24200D01*
X24240Y41960D01*
X24200Y41920D01*
X24240D01*
X24280Y41880D01*
X24780Y41380D02*
X24820Y41420D01*
X24860D01*
X24820Y41460D01*
X24860Y41500D01*
X24820D01*
X24780Y41540D01*
X24740Y41500D01*
X24700D01*
X24740Y41460D01*
X24700Y41420D01*
X24740D01*
X24780Y41380D01*
X23780D02*
X23820Y41420D01*
X23860D01*
X23820Y41460D01*
X23860Y41500D01*
X23820D01*
X23780Y41540D01*
X23740Y41500D01*
X23700D01*
X23740Y41460D01*
X23700Y41420D01*
X23740D01*
X23780Y41380D01*
Y42380D02*
X23820Y42420D01*
X23860D01*
X23820Y42460D01*
X23860Y42500D01*
X23820D01*
X23780Y42540D01*
X23740Y42500D01*
X23700D01*
X23740Y42460D01*
X23700Y42420D01*
X23740D01*
X23780Y42380D01*
X24780D02*
X24820Y42420D01*
X24860D01*
X24820Y42460D01*
X24860Y42500D01*
X24820D01*
X24780Y42540D01*
X24740Y42500D01*
X24700D01*
X24740Y42460D01*
X24700Y42420D01*
X24740D01*
X24780Y42380D01*
X24365Y44600D02*
X24405Y44640D01*
X24445D01*
X24405Y44680D01*
X24445Y44720D01*
X24405D01*
X24365Y44760D01*
X24325Y44720D01*
X24285D01*
X24325Y44680D01*
X24285Y44640D01*
X24325D01*
X24365Y44600D01*
X24865Y44100D02*
X24905Y44140D01*
X24945D01*
X24905Y44180D01*
X24945Y44220D01*
X24905D01*
X24865Y44260D01*
X24825Y44220D01*
X24785D01*
X24825Y44180D01*
X24785Y44140D01*
X24825D01*
X24865Y44100D01*
X23865D02*
X23905Y44140D01*
X23945D01*
X23905Y44180D01*
X23945Y44220D01*
X23905D01*
X23865Y44260D01*
X23825Y44220D01*
X23785D01*
X23825Y44180D01*
X23785Y44140D01*
X23825D01*
X23865Y44100D01*
Y45100D02*
X23905Y45140D01*
X23945D01*
X23905Y45180D01*
X23945Y45220D01*
X23905D01*
X23865Y45260D01*
X23825Y45220D01*
X23785D01*
X23825Y45180D01*
X23785Y45140D01*
X23825D01*
X23865Y45100D01*
X24865D02*
X24905Y45140D01*
X24945D01*
X24905Y45180D01*
X24945Y45220D01*
X24905D01*
X24865Y45260D01*
X24825Y45220D01*
X24785D01*
X24825Y45180D01*
X24785Y45140D01*
X24825D01*
X24865Y45100D01*
X7369Y31420D02*
Y31580D01*
X7529D01*
Y31420D01*
X7369D01*
Y30420D02*
Y30580D01*
X7529D01*
Y30420D01*
X7369D01*
Y29420D02*
Y29580D01*
X7529D01*
Y29420D01*
X7369D01*
X25151Y39930D02*
X25191Y40010D01*
X25151Y40090D01*
X25231Y40050D01*
X25311Y40090D01*
X25271Y40010D01*
X25311Y39930D01*
X25231Y39970D01*
X25151Y39930D01*
Y38930D02*
X25191Y39010D01*
X25151Y39090D01*
X25231Y39050D01*
X25311Y39090D01*
X25271Y39010D01*
X25311Y38930D01*
X25231Y38970D01*
X25151Y38930D01*
Y37930D02*
X25191Y38010D01*
X25151Y38090D01*
X25231Y38050D01*
X25311Y38090D01*
X25271Y38010D01*
X25311Y37930D01*
X25231Y37970D01*
X25151Y37930D01*
Y36930D02*
X25191Y37010D01*
X25151Y37090D01*
X25231Y37050D01*
X25311Y37090D01*
X25271Y37010D01*
X25311Y36930D01*
X25231Y36970D01*
X25151Y36930D01*
X26151Y37930D02*
X26191Y38010D01*
X26151Y38090D01*
X26231Y38050D01*
X26311Y38090D01*
X26271Y38010D01*
X26311Y37930D01*
X26231Y37970D01*
X26151Y37930D01*
Y38930D02*
X26191Y39010D01*
X26151Y39090D01*
X26231Y39050D01*
X26311Y39090D01*
X26271Y39010D01*
X26311Y38930D01*
X26231Y38970D01*
X26151Y38930D01*
Y39930D02*
X26191Y40010D01*
X26151Y40090D01*
X26231Y40050D01*
X26311Y40090D01*
X26271Y40010D01*
X26311Y39930D01*
X26231Y39970D01*
X26151Y39930D01*
Y36930D02*
X26191Y37010D01*
X26151Y37090D01*
X26231Y37050D01*
X26311Y37090D01*
X26271Y37010D01*
X26311Y36930D01*
X26231Y36970D01*
X26151Y36930D01*
Y33930D02*
X26191Y34010D01*
X26151Y34090D01*
X26231Y34050D01*
X26311Y34090D01*
X26271Y34010D01*
X26311Y33930D01*
X26231Y33970D01*
X26151Y33930D01*
Y35930D02*
X26191Y36010D01*
X26151Y36090D01*
X26231Y36050D01*
X26311Y36090D01*
X26271Y36010D01*
X26311Y35930D01*
X26231Y35970D01*
X26151Y35930D01*
Y34930D02*
X26191Y35010D01*
X26151Y35090D01*
X26231Y35050D01*
X26311Y35090D01*
X26271Y35010D01*
X26311Y34930D01*
X26231Y34970D01*
X26151Y34930D01*
X25151Y33930D02*
X25191Y34010D01*
X25151Y34090D01*
X25231Y34050D01*
X25311Y34090D01*
X25271Y34010D01*
X25311Y33930D01*
X25231Y33970D01*
X25151Y33930D01*
Y34930D02*
X25191Y35010D01*
X25151Y35090D01*
X25231Y35050D01*
X25311Y35090D01*
X25271Y35010D01*
X25311Y34930D01*
X25231Y34970D01*
X25151Y34930D01*
Y35930D02*
X25191Y36010D01*
X25151Y36090D01*
X25231Y36050D01*
X25311Y36090D01*
X25271Y36010D01*
X25311Y35930D01*
X25231Y35970D01*
X25151Y35930D01*
Y30930D02*
X25191Y31010D01*
X25151Y31090D01*
X25231Y31050D01*
X25311Y31090D01*
X25271Y31010D01*
X25311Y30930D01*
X25231Y30970D01*
X25151Y30930D01*
Y29930D02*
X25191Y30010D01*
X25151Y30090D01*
X25231Y30050D01*
X25311Y30090D01*
X25271Y30010D01*
X25311Y29930D01*
X25231Y29970D01*
X25151Y29930D01*
Y28930D02*
X25191Y29010D01*
X25151Y29090D01*
X25231Y29050D01*
X25311Y29090D01*
X25271Y29010D01*
X25311Y28930D01*
X25231Y28970D01*
X25151Y28930D01*
X26151Y29930D02*
X26191Y30010D01*
X26151Y30090D01*
X26231Y30050D01*
X26311Y30090D01*
X26271Y30010D01*
X26311Y29930D01*
X26231Y29970D01*
X26151Y29930D01*
Y30930D02*
X26191Y31010D01*
X26151Y31090D01*
X26231Y31050D01*
X26311Y31090D01*
X26271Y31010D01*
X26311Y30930D01*
X26231Y30970D01*
X26151Y30930D01*
Y28930D02*
X26191Y29010D01*
X26151Y29090D01*
X26231Y29050D01*
X26311Y29090D01*
X26271Y29010D01*
X26311Y28930D01*
X26231Y28970D01*
X26151Y28930D01*
Y31930D02*
X26191Y32010D01*
X26151Y32090D01*
X26231Y32050D01*
X26311Y32090D01*
X26271Y32010D01*
X26311Y31930D01*
X26231Y31970D01*
X26151Y31930D01*
Y32930D02*
X26191Y33010D01*
X26151Y33090D01*
X26231Y33050D01*
X26311Y33090D01*
X26271Y33010D01*
X26311Y32930D01*
X26231Y32970D01*
X26151Y32930D01*
X25151Y31930D02*
X25191Y32010D01*
X25151Y32090D01*
X25231Y32050D01*
X25311Y32090D01*
X25271Y32010D01*
X25311Y31930D01*
X25231Y31970D01*
X25151Y31930D01*
Y32930D02*
X25191Y33010D01*
X25151Y33090D01*
X25231Y33050D01*
X25311Y33090D01*
X25271Y33010D01*
X25311Y32930D01*
X25231Y32970D01*
X25151Y32930D01*
Y22930D02*
X25191Y23010D01*
X25151Y23090D01*
X25231Y23050D01*
X25311Y23090D01*
X25271Y23010D01*
X25311Y22930D01*
X25231Y22970D01*
X25151Y22930D01*
Y21930D02*
X25191Y22010D01*
X25151Y22090D01*
X25231Y22050D01*
X25311Y22090D01*
X25271Y22010D01*
X25311Y21930D01*
X25231Y21970D01*
X25151Y21930D01*
X26151Y22930D02*
X26191Y23010D01*
X26151Y23090D01*
X26231Y23050D01*
X26311Y23090D01*
X26271Y23010D01*
X26311Y22930D01*
X26231Y22970D01*
X26151Y22930D01*
Y21930D02*
X26191Y22010D01*
X26151Y22090D01*
X26231Y22050D01*
X26311Y22090D01*
X26271Y22010D01*
X26311Y21930D01*
X26231Y21970D01*
X26151Y21930D01*
Y20930D02*
X26191Y21010D01*
X26151Y21090D01*
X26231Y21050D01*
X26311Y21090D01*
X26271Y21010D01*
X26311Y20930D01*
X26231Y20970D01*
X26151Y20930D01*
Y19930D02*
X26191Y20010D01*
X26151Y20090D01*
X26231Y20050D01*
X26311Y20090D01*
X26271Y20010D01*
X26311Y19930D01*
X26231Y19970D01*
X26151Y19930D01*
X25151D02*
X25191Y20010D01*
X25151Y20090D01*
X25231Y20050D01*
X25311Y20090D01*
X25271Y20010D01*
X25311Y19930D01*
X25231Y19970D01*
X25151Y19930D01*
Y20930D02*
X25191Y21010D01*
X25151Y21090D01*
X25231Y21050D01*
X25311Y21090D01*
X25271Y21010D01*
X25311Y20930D01*
X25231Y20970D01*
X25151Y20930D01*
Y25930D02*
X25191Y26010D01*
X25151Y26090D01*
X25231Y26050D01*
X25311Y26090D01*
X25271Y26010D01*
X25311Y25930D01*
X25231Y25970D01*
X25151Y25930D01*
Y24930D02*
X25191Y25010D01*
X25151Y25090D01*
X25231Y25050D01*
X25311Y25090D01*
X25271Y25010D01*
X25311Y24930D01*
X25231Y24970D01*
X25151Y24930D01*
Y23930D02*
X25191Y24010D01*
X25151Y24090D01*
X25231Y24050D01*
X25311Y24090D01*
X25271Y24010D01*
X25311Y23930D01*
X25231Y23970D01*
X25151Y23930D01*
X26151Y24930D02*
X26191Y25010D01*
X26151Y25090D01*
X26231Y25050D01*
X26311Y25090D01*
X26271Y25010D01*
X26311Y24930D01*
X26231Y24970D01*
X26151Y24930D01*
Y25930D02*
X26191Y26010D01*
X26151Y26090D01*
X26231Y26050D01*
X26311Y26090D01*
X26271Y26010D01*
X26311Y25930D01*
X26231Y25970D01*
X26151Y25930D01*
Y23930D02*
X26191Y24010D01*
X26151Y24090D01*
X26231Y24050D01*
X26311Y24090D01*
X26271Y24010D01*
X26311Y23930D01*
X26231Y23970D01*
X26151Y23930D01*
Y26930D02*
X26191Y27010D01*
X26151Y27090D01*
X26231Y27050D01*
X26311Y27090D01*
X26271Y27010D01*
X26311Y26930D01*
X26231Y26970D01*
X26151Y26930D01*
Y27930D02*
X26191Y28010D01*
X26151Y28090D01*
X26231Y28050D01*
X26311Y28090D01*
X26271Y28010D01*
X26311Y27930D01*
X26231Y27970D01*
X26151Y27930D01*
X25151Y26930D02*
X25191Y27010D01*
X25151Y27090D01*
X25231Y27050D01*
X25311Y27090D01*
X25271Y27010D01*
X25311Y26930D01*
X25231Y26970D01*
X25151Y26930D01*
Y27930D02*
X25191Y28010D01*
X25151Y28090D01*
X25231Y28050D01*
X25311Y28090D01*
X25271Y28010D01*
X25311Y27930D01*
X25231Y27970D01*
X25151Y27930D01*
Y18930D02*
X25191Y19010D01*
X25151Y19090D01*
X25231Y19050D01*
X25311Y19090D01*
X25271Y19010D01*
X25311Y18930D01*
X25231Y18970D01*
X25151Y18930D01*
X26151D02*
X26191Y19010D01*
X26151Y19090D01*
X26231Y19050D01*
X26311Y19090D01*
X26271Y19010D01*
X26311Y18930D01*
X26231Y18970D01*
X26151Y18930D01*
X25151Y6930D02*
X25191Y7010D01*
X25151Y7090D01*
X25231Y7050D01*
X25311Y7090D01*
X25271Y7010D01*
X25311Y6930D01*
X25231Y6970D01*
X25151Y6930D01*
Y5930D02*
X25191Y6010D01*
X25151Y6090D01*
X25231Y6050D01*
X25311Y6090D01*
X25271Y6010D01*
X25311Y5930D01*
X25231Y5970D01*
X25151Y5930D01*
X26151Y6930D02*
X26191Y7010D01*
X26151Y7090D01*
X26231Y7050D01*
X26311Y7090D01*
X26271Y7010D01*
X26311Y6930D01*
X26231Y6970D01*
X26151Y6930D01*
Y5930D02*
X26191Y6010D01*
X26151Y6090D01*
X26231Y6050D01*
X26311Y6090D01*
X26271Y6010D01*
X26311Y5930D01*
X26231Y5970D01*
X26151Y5930D01*
X25151Y11930D02*
X25191Y12010D01*
X25151Y12090D01*
X25231Y12050D01*
X25311Y12090D01*
X25271Y12010D01*
X25311Y11930D01*
X25231Y11970D01*
X25151Y11930D01*
Y10930D02*
X25191Y11010D01*
X25151Y11090D01*
X25231Y11050D01*
X25311Y11090D01*
X25271Y11010D01*
X25311Y10930D01*
X25231Y10970D01*
X25151Y10930D01*
X26151Y11930D02*
X26191Y12010D01*
X26151Y12090D01*
X26231Y12050D01*
X26311Y12090D01*
X26271Y12010D01*
X26311Y11930D01*
X26231Y11970D01*
X26151Y11930D01*
Y10930D02*
X26191Y11010D01*
X26151Y11090D01*
X26231Y11050D01*
X26311Y11090D01*
X26271Y11010D01*
X26311Y10930D01*
X26231Y10970D01*
X26151Y10930D01*
Y7930D02*
X26191Y8010D01*
X26151Y8090D01*
X26231Y8050D01*
X26311Y8090D01*
X26271Y8010D01*
X26311Y7930D01*
X26231Y7970D01*
X26151Y7930D01*
Y9930D02*
X26191Y10010D01*
X26151Y10090D01*
X26231Y10050D01*
X26311Y10090D01*
X26271Y10010D01*
X26311Y9930D01*
X26231Y9970D01*
X26151Y9930D01*
Y8930D02*
X26191Y9010D01*
X26151Y9090D01*
X26231Y9050D01*
X26311Y9090D01*
X26271Y9010D01*
X26311Y8930D01*
X26231Y8970D01*
X26151Y8930D01*
X25151Y7930D02*
X25191Y8010D01*
X25151Y8090D01*
X25231Y8050D01*
X25311Y8090D01*
X25271Y8010D01*
X25311Y7930D01*
X25231Y7970D01*
X25151Y7930D01*
Y8930D02*
X25191Y9010D01*
X25151Y9090D01*
X25231Y9050D01*
X25311Y9090D01*
X25271Y9010D01*
X25311Y8930D01*
X25231Y8970D01*
X25151Y8930D01*
Y9930D02*
X25191Y10010D01*
X25151Y10090D01*
X25231Y10050D01*
X25311Y10090D01*
X25271Y10010D01*
X25311Y9930D01*
X25231Y9970D01*
X25151Y9930D01*
Y14930D02*
X25191Y15010D01*
X25151Y15090D01*
X25231Y15050D01*
X25311Y15090D01*
X25271Y15010D01*
X25311Y14930D01*
X25231Y14970D01*
X25151Y14930D01*
Y13930D02*
X25191Y14010D01*
X25151Y14090D01*
X25231Y14050D01*
X25311Y14090D01*
X25271Y14010D01*
X25311Y13930D01*
X25231Y13970D01*
X25151Y13930D01*
Y12930D02*
X25191Y13010D01*
X25151Y13090D01*
X25231Y13050D01*
X25311Y13090D01*
X25271Y13010D01*
X25311Y12930D01*
X25231Y12970D01*
X25151Y12930D01*
X26151Y13930D02*
X26191Y14010D01*
X26151Y14090D01*
X26231Y14050D01*
X26311Y14090D01*
X26271Y14010D01*
X26311Y13930D01*
X26231Y13970D01*
X26151Y13930D01*
Y14930D02*
X26191Y15010D01*
X26151Y15090D01*
X26231Y15050D01*
X26311Y15090D01*
X26271Y15010D01*
X26311Y14930D01*
X26231Y14970D01*
X26151Y14930D01*
Y12930D02*
X26191Y13010D01*
X26151Y13090D01*
X26231Y13050D01*
X26311Y13090D01*
X26271Y13010D01*
X26311Y12930D01*
X26231Y12970D01*
X26151Y12930D01*
Y15930D02*
X26191Y16010D01*
X26151Y16090D01*
X26231Y16050D01*
X26311Y16090D01*
X26271Y16010D01*
X26311Y15930D01*
X26231Y15970D01*
X26151Y15930D01*
Y17930D02*
X26191Y18010D01*
X26151Y18090D01*
X26231Y18050D01*
X26311Y18090D01*
X26271Y18010D01*
X26311Y17930D01*
X26231Y17970D01*
X26151Y17930D01*
Y16930D02*
X26191Y17010D01*
X26151Y17090D01*
X26231Y17050D01*
X26311Y17090D01*
X26271Y17010D01*
X26311Y16930D01*
X26231Y16970D01*
X26151Y16930D01*
X25151Y15930D02*
X25191Y16010D01*
X25151Y16090D01*
X25231Y16050D01*
X25311Y16090D01*
X25271Y16010D01*
X25311Y15930D01*
X25231Y15970D01*
X25151Y15930D01*
Y16930D02*
X25191Y17010D01*
X25151Y17090D01*
X25231Y17050D01*
X25311Y17090D01*
X25271Y17010D01*
X25311Y16930D01*
X25231Y16970D01*
X25151Y16930D01*
Y17930D02*
X25191Y18010D01*
X25151Y18090D01*
X25231Y18050D01*
X25311Y18090D01*
X25271Y18010D01*
X25311Y17930D01*
X25231Y17970D01*
X25151Y17930D01*
X1260Y39940D02*
X1300Y40020D01*
X1260Y40100D01*
X1340Y40060D01*
X1420Y40100D01*
X1380Y40020D01*
X1420Y39940D01*
X1340Y39980D01*
X1260Y39940D01*
Y38940D02*
X1300Y39020D01*
X1260Y39100D01*
X1340Y39060D01*
X1420Y39100D01*
X1380Y39020D01*
X1420Y38940D01*
X1340Y38980D01*
X1260Y38940D01*
Y37940D02*
X1300Y38020D01*
X1260Y38100D01*
X1340Y38060D01*
X1420Y38100D01*
X1380Y38020D01*
X1420Y37940D01*
X1340Y37980D01*
X1260Y37940D01*
Y36940D02*
X1300Y37020D01*
X1260Y37100D01*
X1340Y37060D01*
X1420Y37100D01*
X1380Y37020D01*
X1420Y36940D01*
X1340Y36980D01*
X1260Y36940D01*
X2260Y37940D02*
X2300Y38020D01*
X2260Y38100D01*
X2340Y38060D01*
X2420Y38100D01*
X2380Y38020D01*
X2420Y37940D01*
X2340Y37980D01*
X2260Y37940D01*
Y38940D02*
X2300Y39020D01*
X2260Y39100D01*
X2340Y39060D01*
X2420Y39100D01*
X2380Y39020D01*
X2420Y38940D01*
X2340Y38980D01*
X2260Y38940D01*
Y39940D02*
X2300Y40020D01*
X2260Y40100D01*
X2340Y40060D01*
X2420Y40100D01*
X2380Y40020D01*
X2420Y39940D01*
X2340Y39980D01*
X2260Y39940D01*
Y36940D02*
X2300Y37020D01*
X2260Y37100D01*
X2340Y37060D01*
X2420Y37100D01*
X2380Y37020D01*
X2420Y36940D01*
X2340Y36980D01*
X2260Y36940D01*
Y33940D02*
X2300Y34020D01*
X2260Y34100D01*
X2340Y34060D01*
X2420Y34100D01*
X2380Y34020D01*
X2420Y33940D01*
X2340Y33980D01*
X2260Y33940D01*
Y35940D02*
X2300Y36020D01*
X2260Y36100D01*
X2340Y36060D01*
X2420Y36100D01*
X2380Y36020D01*
X2420Y35940D01*
X2340Y35980D01*
X2260Y35940D01*
Y34940D02*
X2300Y35020D01*
X2260Y35100D01*
X2340Y35060D01*
X2420Y35100D01*
X2380Y35020D01*
X2420Y34940D01*
X2340Y34980D01*
X2260Y34940D01*
X1260Y33940D02*
X1300Y34020D01*
X1260Y34100D01*
X1340Y34060D01*
X1420Y34100D01*
X1380Y34020D01*
X1420Y33940D01*
X1340Y33980D01*
X1260Y33940D01*
Y34940D02*
X1300Y35020D01*
X1260Y35100D01*
X1340Y35060D01*
X1420Y35100D01*
X1380Y35020D01*
X1420Y34940D01*
X1340Y34980D01*
X1260Y34940D01*
Y35940D02*
X1300Y36020D01*
X1260Y36100D01*
X1340Y36060D01*
X1420Y36100D01*
X1380Y36020D01*
X1420Y35940D01*
X1340Y35980D01*
X1260Y35940D01*
Y30940D02*
X1300Y31020D01*
X1260Y31100D01*
X1340Y31060D01*
X1420Y31100D01*
X1380Y31020D01*
X1420Y30940D01*
X1340Y30980D01*
X1260Y30940D01*
Y29940D02*
X1300Y30020D01*
X1260Y30100D01*
X1340Y30060D01*
X1420Y30100D01*
X1380Y30020D01*
X1420Y29940D01*
X1340Y29980D01*
X1260Y29940D01*
Y28940D02*
X1300Y29020D01*
X1260Y29100D01*
X1340Y29060D01*
X1420Y29100D01*
X1380Y29020D01*
X1420Y28940D01*
X1340Y28980D01*
X1260Y28940D01*
X2260Y29940D02*
X2300Y30020D01*
X2260Y30100D01*
X2340Y30060D01*
X2420Y30100D01*
X2380Y30020D01*
X2420Y29940D01*
X2340Y29980D01*
X2260Y29940D01*
Y30940D02*
X2300Y31020D01*
X2260Y31100D01*
X2340Y31060D01*
X2420Y31100D01*
X2380Y31020D01*
X2420Y30940D01*
X2340Y30980D01*
X2260Y30940D01*
Y28940D02*
X2300Y29020D01*
X2260Y29100D01*
X2340Y29060D01*
X2420Y29100D01*
X2380Y29020D01*
X2420Y28940D01*
X2340Y28980D01*
X2260Y28940D01*
Y31940D02*
X2300Y32020D01*
X2260Y32100D01*
X2340Y32060D01*
X2420Y32100D01*
X2380Y32020D01*
X2420Y31940D01*
X2340Y31980D01*
X2260Y31940D01*
Y32940D02*
X2300Y33020D01*
X2260Y33100D01*
X2340Y33060D01*
X2420Y33100D01*
X2380Y33020D01*
X2420Y32940D01*
X2340Y32980D01*
X2260Y32940D01*
X1260Y31940D02*
X1300Y32020D01*
X1260Y32100D01*
X1340Y32060D01*
X1420Y32100D01*
X1380Y32020D01*
X1420Y31940D01*
X1340Y31980D01*
X1260Y31940D01*
Y32940D02*
X1300Y33020D01*
X1260Y33100D01*
X1340Y33060D01*
X1420Y33100D01*
X1380Y33020D01*
X1420Y32940D01*
X1340Y32980D01*
X1260Y32940D01*
Y22940D02*
X1300Y23020D01*
X1260Y23100D01*
X1340Y23060D01*
X1420Y23100D01*
X1380Y23020D01*
X1420Y22940D01*
X1340Y22980D01*
X1260Y22940D01*
Y21940D02*
X1300Y22020D01*
X1260Y22100D01*
X1340Y22060D01*
X1420Y22100D01*
X1380Y22020D01*
X1420Y21940D01*
X1340Y21980D01*
X1260Y21940D01*
X2260Y22940D02*
X2300Y23020D01*
X2260Y23100D01*
X2340Y23060D01*
X2420Y23100D01*
X2380Y23020D01*
X2420Y22940D01*
X2340Y22980D01*
X2260Y22940D01*
Y21940D02*
X2300Y22020D01*
X2260Y22100D01*
X2340Y22060D01*
X2420Y22100D01*
X2380Y22020D01*
X2420Y21940D01*
X2340Y21980D01*
X2260Y21940D01*
Y20940D02*
X2300Y21020D01*
X2260Y21100D01*
X2340Y21060D01*
X2420Y21100D01*
X2380Y21020D01*
X2420Y20940D01*
X2340Y20980D01*
X2260Y20940D01*
Y19940D02*
X2300Y20020D01*
X2260Y20100D01*
X2340Y20060D01*
X2420Y20100D01*
X2380Y20020D01*
X2420Y19940D01*
X2340Y19980D01*
X2260Y19940D01*
X1260D02*
X1300Y20020D01*
X1260Y20100D01*
X1340Y20060D01*
X1420Y20100D01*
X1380Y20020D01*
X1420Y19940D01*
X1340Y19980D01*
X1260Y19940D01*
Y20940D02*
X1300Y21020D01*
X1260Y21100D01*
X1340Y21060D01*
X1420Y21100D01*
X1380Y21020D01*
X1420Y20940D01*
X1340Y20980D01*
X1260Y20940D01*
Y25940D02*
X1300Y26020D01*
X1260Y26100D01*
X1340Y26060D01*
X1420Y26100D01*
X1380Y26020D01*
X1420Y25940D01*
X1340Y25980D01*
X1260Y25940D01*
Y24940D02*
X1300Y25020D01*
X1260Y25100D01*
X1340Y25060D01*
X1420Y25100D01*
X1380Y25020D01*
X1420Y24940D01*
X1340Y24980D01*
X1260Y24940D01*
Y23940D02*
X1300Y24020D01*
X1260Y24100D01*
X1340Y24060D01*
X1420Y24100D01*
X1380Y24020D01*
X1420Y23940D01*
X1340Y23980D01*
X1260Y23940D01*
X2260Y24940D02*
X2300Y25020D01*
X2260Y25100D01*
X2340Y25060D01*
X2420Y25100D01*
X2380Y25020D01*
X2420Y24940D01*
X2340Y24980D01*
X2260Y24940D01*
Y25940D02*
X2300Y26020D01*
X2260Y26100D01*
X2340Y26060D01*
X2420Y26100D01*
X2380Y26020D01*
X2420Y25940D01*
X2340Y25980D01*
X2260Y25940D01*
Y23940D02*
X2300Y24020D01*
X2260Y24100D01*
X2340Y24060D01*
X2420Y24100D01*
X2380Y24020D01*
X2420Y23940D01*
X2340Y23980D01*
X2260Y23940D01*
Y26940D02*
X2300Y27020D01*
X2260Y27100D01*
X2340Y27060D01*
X2420Y27100D01*
X2380Y27020D01*
X2420Y26940D01*
X2340Y26980D01*
X2260Y26940D01*
Y27940D02*
X2300Y28020D01*
X2260Y28100D01*
X2340Y28060D01*
X2420Y28100D01*
X2380Y28020D01*
X2420Y27940D01*
X2340Y27980D01*
X2260Y27940D01*
X1260Y26940D02*
X1300Y27020D01*
X1260Y27100D01*
X1340Y27060D01*
X1420Y27100D01*
X1380Y27020D01*
X1420Y26940D01*
X1340Y26980D01*
X1260Y26940D01*
Y27940D02*
X1300Y28020D01*
X1260Y28100D01*
X1340Y28060D01*
X1420Y28100D01*
X1380Y28020D01*
X1420Y27940D01*
X1340Y27980D01*
X1260Y27940D01*
Y18940D02*
X1300Y19020D01*
X1260Y19100D01*
X1340Y19060D01*
X1420Y19100D01*
X1380Y19020D01*
X1420Y18940D01*
X1340Y18980D01*
X1260Y18940D01*
X2260D02*
X2300Y19020D01*
X2260Y19100D01*
X2340Y19060D01*
X2420Y19100D01*
X2380Y19020D01*
X2420Y18940D01*
X2340Y18980D01*
X2260Y18940D01*
X1260Y6940D02*
X1300Y7020D01*
X1260Y7100D01*
X1340Y7060D01*
X1420Y7100D01*
X1380Y7020D01*
X1420Y6940D01*
X1340Y6980D01*
X1260Y6940D01*
Y5940D02*
X1300Y6020D01*
X1260Y6100D01*
X1340Y6060D01*
X1420Y6100D01*
X1380Y6020D01*
X1420Y5940D01*
X1340Y5980D01*
X1260Y5940D01*
X2260Y6940D02*
X2300Y7020D01*
X2260Y7100D01*
X2340Y7060D01*
X2420Y7100D01*
X2380Y7020D01*
X2420Y6940D01*
X2340Y6980D01*
X2260Y6940D01*
Y5940D02*
X2300Y6020D01*
X2260Y6100D01*
X2340Y6060D01*
X2420Y6100D01*
X2380Y6020D01*
X2420Y5940D01*
X2340Y5980D01*
X2260Y5940D01*
X1260Y11940D02*
X1300Y12020D01*
X1260Y12100D01*
X1340Y12060D01*
X1420Y12100D01*
X1380Y12020D01*
X1420Y11940D01*
X1340Y11980D01*
X1260Y11940D01*
Y10940D02*
X1300Y11020D01*
X1260Y11100D01*
X1340Y11060D01*
X1420Y11100D01*
X1380Y11020D01*
X1420Y10940D01*
X1340Y10980D01*
X1260Y10940D01*
X2260Y11940D02*
X2300Y12020D01*
X2260Y12100D01*
X2340Y12060D01*
X2420Y12100D01*
X2380Y12020D01*
X2420Y11940D01*
X2340Y11980D01*
X2260Y11940D01*
Y10940D02*
X2300Y11020D01*
X2260Y11100D01*
X2340Y11060D01*
X2420Y11100D01*
X2380Y11020D01*
X2420Y10940D01*
X2340Y10980D01*
X2260Y10940D01*
Y7940D02*
X2300Y8020D01*
X2260Y8100D01*
X2340Y8060D01*
X2420Y8100D01*
X2380Y8020D01*
X2420Y7940D01*
X2340Y7980D01*
X2260Y7940D01*
Y9940D02*
X2300Y10020D01*
X2260Y10100D01*
X2340Y10060D01*
X2420Y10100D01*
X2380Y10020D01*
X2420Y9940D01*
X2340Y9980D01*
X2260Y9940D01*
Y8940D02*
X2300Y9020D01*
X2260Y9100D01*
X2340Y9060D01*
X2420Y9100D01*
X2380Y9020D01*
X2420Y8940D01*
X2340Y8980D01*
X2260Y8940D01*
X1260Y7940D02*
X1300Y8020D01*
X1260Y8100D01*
X1340Y8060D01*
X1420Y8100D01*
X1380Y8020D01*
X1420Y7940D01*
X1340Y7980D01*
X1260Y7940D01*
Y8940D02*
X1300Y9020D01*
X1260Y9100D01*
X1340Y9060D01*
X1420Y9100D01*
X1380Y9020D01*
X1420Y8940D01*
X1340Y8980D01*
X1260Y8940D01*
Y9940D02*
X1300Y10020D01*
X1260Y10100D01*
X1340Y10060D01*
X1420Y10100D01*
X1380Y10020D01*
X1420Y9940D01*
X1340Y9980D01*
X1260Y9940D01*
Y14940D02*
X1300Y15020D01*
X1260Y15100D01*
X1340Y15060D01*
X1420Y15100D01*
X1380Y15020D01*
X1420Y14940D01*
X1340Y14980D01*
X1260Y14940D01*
Y13940D02*
X1300Y14020D01*
X1260Y14100D01*
X1340Y14060D01*
X1420Y14100D01*
X1380Y14020D01*
X1420Y13940D01*
X1340Y13980D01*
X1260Y13940D01*
Y12940D02*
X1300Y13020D01*
X1260Y13100D01*
X1340Y13060D01*
X1420Y13100D01*
X1380Y13020D01*
X1420Y12940D01*
X1340Y12980D01*
X1260Y12940D01*
X2260Y13940D02*
X2300Y14020D01*
X2260Y14100D01*
X2340Y14060D01*
X2420Y14100D01*
X2380Y14020D01*
X2420Y13940D01*
X2340Y13980D01*
X2260Y13940D01*
Y14940D02*
X2300Y15020D01*
X2260Y15100D01*
X2340Y15060D01*
X2420Y15100D01*
X2380Y15020D01*
X2420Y14940D01*
X2340Y14980D01*
X2260Y14940D01*
Y12940D02*
X2300Y13020D01*
X2260Y13100D01*
X2340Y13060D01*
X2420Y13100D01*
X2380Y13020D01*
X2420Y12940D01*
X2340Y12980D01*
X2260Y12940D01*
Y15940D02*
X2300Y16020D01*
X2260Y16100D01*
X2340Y16060D01*
X2420Y16100D01*
X2380Y16020D01*
X2420Y15940D01*
X2340Y15980D01*
X2260Y15940D01*
Y17940D02*
X2300Y18020D01*
X2260Y18100D01*
X2340Y18060D01*
X2420Y18100D01*
X2380Y18020D01*
X2420Y17940D01*
X2340Y17980D01*
X2260Y17940D01*
Y16940D02*
X2300Y17020D01*
X2260Y17100D01*
X2340Y17060D01*
X2420Y17100D01*
X2380Y17020D01*
X2420Y16940D01*
X2340Y16980D01*
X2260Y16940D01*
X1260Y15940D02*
X1300Y16020D01*
X1260Y16100D01*
X1340Y16060D01*
X1420Y16100D01*
X1380Y16020D01*
X1420Y15940D01*
X1340Y15980D01*
X1260Y15940D01*
Y16940D02*
X1300Y17020D01*
X1260Y17100D01*
X1340Y17060D01*
X1420Y17100D01*
X1380Y17020D01*
X1420Y16940D01*
X1340Y16980D01*
X1260Y16940D01*
Y17940D02*
X1300Y18020D01*
X1260Y18100D01*
X1340Y18060D01*
X1420Y18100D01*
X1380Y18020D01*
X1420Y17940D01*
X1340Y17980D01*
X1260Y17940D01*
X10630Y20320D02*
X10670Y20360D01*
X10710D01*
X10670Y20400D01*
X10710Y20440D01*
X10670D01*
X10630Y20480D01*
X10590Y20440D01*
X10550D01*
X10590Y20400D01*
X10550Y20360D01*
X10590D01*
X10630Y20320D01*
X9630D02*
X9670Y20360D01*
X9710D01*
X9670Y20400D01*
X9710Y20440D01*
X9670D01*
X9630Y20480D01*
X9590Y20440D01*
X9550D01*
X9590Y20400D01*
X9550Y20360D01*
X9590D01*
X9630Y20320D01*
Y19320D02*
X9670Y19360D01*
X9710D01*
X9670Y19400D01*
X9710Y19440D01*
X9670D01*
X9630Y19480D01*
X9590Y19440D01*
X9550D01*
X9590Y19400D01*
X9550Y19360D01*
X9590D01*
X9630Y19320D01*
X10630D02*
X10670Y19360D01*
X10710D01*
X10670Y19400D01*
X10710Y19440D01*
X10670D01*
X10630Y19480D01*
X10590Y19440D01*
X10550D01*
X10590Y19400D01*
X10550Y19360D01*
X10590D01*
X10630Y19320D01*
X10130Y19820D02*
X10170Y19860D01*
X10210D01*
X10170Y19900D01*
X10210Y19940D01*
X10170D01*
X10130Y19980D01*
X10090Y19940D01*
X10050D01*
X10090Y19900D01*
X10050Y19860D01*
X10090D01*
X10130Y19820D01*
X8710Y20340D02*
X8750Y20380D01*
X8790D01*
X8750Y20420D01*
X8790Y20460D01*
X8750D01*
X8710Y20500D01*
X8670Y20460D01*
X8630D01*
X8670Y20420D01*
X8630Y20380D01*
X8670D01*
X8710Y20340D01*
X7710D02*
X7750Y20380D01*
X7790D01*
X7750Y20420D01*
X7790Y20460D01*
X7750D01*
X7710Y20500D01*
X7670Y20460D01*
X7630D01*
X7670Y20420D01*
X7630Y20380D01*
X7670D01*
X7710Y20340D01*
Y19340D02*
X7750Y19380D01*
X7790D01*
X7750Y19420D01*
X7790Y19460D01*
X7750D01*
X7710Y19500D01*
X7670Y19460D01*
X7630D01*
X7670Y19420D01*
X7630Y19380D01*
X7670D01*
X7710Y19340D01*
X8710D02*
X8750Y19380D01*
X8790D01*
X8750Y19420D01*
X8790Y19460D01*
X8750D01*
X8710Y19500D01*
X8670Y19460D01*
X8630D01*
X8670Y19420D01*
X8630Y19380D01*
X8670D01*
X8710Y19340D01*
X8210Y19840D02*
X8250Y19880D01*
X8290D01*
X8250Y19920D01*
X8290Y19960D01*
X8250D01*
X8210Y20000D01*
X8170Y19960D01*
X8130D01*
X8170Y19920D01*
X8130Y19880D01*
X8170D01*
X8210Y19840D01*
X16920Y25170D02*
X16840Y25330D01*
X17000D01*
X16920Y25170D01*
X17920D02*
X17840Y25330D01*
X18000D01*
X17920Y25170D01*
X18920D02*
X18840Y25330D01*
X19000D01*
X18920Y25170D01*
X19920D02*
X19840Y25330D01*
X20000D01*
X19920Y25170D01*
Y22170D02*
X19840Y22330D01*
X20000D01*
X19920Y22170D01*
X18920D02*
X18840Y22330D01*
X19000D01*
X18920Y22170D01*
X17920D02*
X17840Y22330D01*
X18000D01*
X17920Y22170D01*
X16920D02*
X16840Y22330D01*
X17000D01*
X16920Y22170D01*
X21080Y2262D02*
Y2221D01*
X21160D01*
Y2262D01*
X21200D01*
Y2342D01*
X21160D01*
Y2382D01*
X21080D01*
Y2342D01*
X21040D01*
Y2262D01*
X21080D01*
X16159D02*
Y2221D01*
X16239D01*
Y2262D01*
X16279D01*
Y2342D01*
X16239D01*
Y2382D01*
X16159D01*
Y2342D01*
X16119D01*
Y2262D01*
X16159D01*
X21080Y4230D02*
Y4190D01*
X21160D01*
Y4230D01*
X21200D01*
Y4310D01*
X21160D01*
Y4350D01*
X21080D01*
Y4310D01*
X21040D01*
Y4230D01*
X21080D01*
X16159D02*
Y4190D01*
X16239D01*
Y4230D01*
X16279D01*
Y4310D01*
X16239D01*
Y4350D01*
X16159D01*
Y4310D01*
X16119D01*
Y4230D01*
X16159D01*
X9141Y2330D02*
Y2290D01*
X9221D01*
Y2330D01*
X9261D01*
Y2410D01*
X9221D01*
Y2450D01*
X9141D01*
Y2410D01*
X9101D01*
Y2330D01*
X9141D01*
X4220D02*
Y2290D01*
X4300D01*
Y2330D01*
X4340D01*
Y2410D01*
X4300D01*
Y2450D01*
X4220D01*
Y2410D01*
X4180D01*
Y2330D01*
X4220D01*
X9141Y4299D02*
Y4259D01*
X9221D01*
Y4299D01*
X9261D01*
Y4378D01*
X9221D01*
Y4419D01*
X9141D01*
Y4378D01*
X9101D01*
Y4299D01*
X9141D01*
X4220D02*
Y4259D01*
X4300D01*
Y4299D01*
X4340D01*
Y4378D01*
X4300D01*
Y4419D01*
X4220D01*
Y4378D01*
X4180D01*
Y4299D01*
X4220D01*
X10241Y11571D02*
Y11531D01*
X10321D01*
Y11571D01*
X10361D01*
Y11651D01*
X10321D01*
Y11691D01*
X10241D01*
Y11651D01*
X10201D01*
Y11571D01*
X10241D01*
X5320D02*
Y11531D01*
X5400D01*
Y11571D01*
X5440D01*
Y11651D01*
X5400D01*
Y11691D01*
X5320D01*
Y11651D01*
X5280D01*
Y11571D01*
X5320D01*
X10241Y13540D02*
Y13500D01*
X10321D01*
Y13540D01*
X10361D01*
Y13620D01*
X10321D01*
Y13660D01*
X10241D01*
Y13620D01*
X10201D01*
Y13540D01*
X10241D01*
X5320D02*
Y13500D01*
X5400D01*
Y13540D01*
X5440D01*
Y13620D01*
X5400D01*
Y13660D01*
X5320D01*
Y13620D01*
X5280D01*
Y13540D01*
X5320D01*
X16081Y14291D02*
Y14252D01*
X16161D01*
Y14291D01*
X16201D01*
Y14372D01*
X16161D01*
Y14411D01*
X16081D01*
Y14372D01*
X16041D01*
Y14291D01*
X16081D01*
X11160D02*
Y14252D01*
X11240D01*
Y14291D01*
X11280D01*
Y14372D01*
X11240D01*
Y14411D01*
X11160D01*
Y14372D01*
X11120D01*
Y14291D01*
X11160D01*
X16081Y16260D02*
Y16220D01*
X16161D01*
Y16260D01*
X16201D01*
Y16340D01*
X16161D01*
Y16380D01*
X16081D01*
Y16340D01*
X16041D01*
Y16260D01*
X16081D01*
X11160D02*
Y16220D01*
X11240D01*
Y16260D01*
X11280D01*
Y16340D01*
X11240D01*
Y16380D01*
X11160D01*
Y16340D01*
X11120D01*
Y16260D01*
X11160D01*
X22071Y11552D02*
Y11511D01*
X22151D01*
Y11552D01*
X22191D01*
Y11631D01*
X22151D01*
Y11672D01*
X22071D01*
Y11631D01*
X22031D01*
Y11552D01*
X22071D01*
X17150D02*
Y11511D01*
X17230D01*
Y11552D01*
X17270D01*
Y11631D01*
X17230D01*
Y11672D01*
X17150D01*
Y11631D01*
X17110D01*
Y11552D01*
X17150D01*
X22071Y13520D02*
Y13480D01*
X22151D01*
Y13520D01*
X22191D01*
Y13600D01*
X22151D01*
Y13640D01*
X22071D01*
Y13600D01*
X22031D01*
Y13520D01*
X22071D01*
X17150D02*
Y13480D01*
X17230D01*
Y13520D01*
X17270D01*
Y13600D01*
X17230D01*
Y13640D01*
X17150D01*
Y13600D01*
X17110D01*
Y13520D01*
X17150D01*
X16080Y9281D02*
Y9241D01*
X16160D01*
Y9281D01*
X16200D01*
Y9362D01*
X16160D01*
Y9402D01*
X16080D01*
Y9362D01*
X16040D01*
Y9281D01*
X16080D01*
X11159D02*
Y9241D01*
X11239D01*
Y9281D01*
X11279D01*
Y9362D01*
X11239D01*
Y9402D01*
X11159D01*
Y9362D01*
X11119D01*
Y9281D01*
X11159D01*
X16080Y11250D02*
Y11210D01*
X16160D01*
Y11250D01*
X16200D01*
Y11330D01*
X16160D01*
Y11370D01*
X16080D01*
Y11330D01*
X16040D01*
Y11250D01*
X16080D01*
X11159D02*
Y11210D01*
X11239D01*
Y11250D01*
X11279D01*
Y11330D01*
X11239D01*
Y11370D01*
X11159D01*
Y11330D01*
X11119D01*
Y11250D01*
X11159D01*
X3830Y49810D02*
X3870D01*
X3910Y49850D01*
X3950Y49810D01*
X3990D01*
Y49850D01*
X3950Y49890D01*
X3990Y49930D01*
Y49970D01*
X3950D01*
X3910Y49930D01*
X3870Y49970D01*
X3830D01*
Y49930D01*
X3870Y49890D01*
X3830Y49850D01*
Y49810D01*
X16960Y51490D02*
X17000D01*
X17040Y51530D01*
X17080Y51490D01*
X17120D01*
Y51530D01*
X17080Y51570D01*
X17120Y51610D01*
Y51650D01*
X17080D01*
X17040Y51610D01*
X17000Y51650D01*
X16960D01*
Y51610D01*
X17000Y51570D01*
X16960Y51530D01*
Y51490D01*
X23230Y35500D02*
X23270D01*
X23310Y35540D01*
X23350Y35500D01*
X23390D01*
Y35540D01*
X23350Y35580D01*
X23390Y35620D01*
Y35660D01*
X23350D01*
X23310Y35620D01*
X23270Y35660D01*
X23230D01*
Y35620D01*
X23270Y35580D01*
X23230Y35540D01*
Y35500D01*
X23950Y51730D02*
X23990D01*
X24030Y51770D01*
X24070Y51730D01*
X24110D01*
Y51770D01*
X24070Y51810D01*
X24110Y51850D01*
Y51890D01*
X24070D01*
X24030Y51850D01*
X23990Y51890D01*
X23950D01*
Y51850D01*
X23990Y51810D01*
X23950Y51770D01*
Y51730D01*
X20729Y45461D02*
X20769D01*
X20809Y45501D01*
X20849Y45461D01*
X20889D01*
Y45501D01*
X20849Y45541D01*
X20889Y45581D01*
Y45621D01*
X20849D01*
X20809Y45581D01*
X20769Y45621D01*
X20729D01*
Y45581D01*
X20769Y45541D01*
X20729Y45501D01*
Y45461D01*
X21950Y36370D02*
X21990D01*
X22030Y36410D01*
X22070Y36370D01*
X22110D01*
Y36410D01*
X22070Y36450D01*
X22110Y36490D01*
Y36530D01*
X22070D01*
X22030Y36490D01*
X21990Y36530D01*
X21950D01*
Y36490D01*
X21990Y36450D01*
X21950Y36410D01*
Y36370D01*
X25730Y46120D02*
X25770D01*
X25810Y46160D01*
X25850Y46120D01*
X25890D01*
Y46160D01*
X25850Y46200D01*
X25890Y46240D01*
Y46280D01*
X25850D01*
X25810Y46240D01*
X25770Y46280D01*
X25730D01*
Y46240D01*
X25770Y46200D01*
X25730Y46160D01*
Y46120D01*
X7950Y45020D02*
X8030Y45100D01*
X8110Y45020D01*
X8030Y44940D01*
X7950Y45020D01*
X6520Y45053D02*
X6600Y45133D01*
X6680Y45053D01*
X6600Y44973D01*
X6520Y45053D01*
X13100Y45320D02*
X13180Y45400D01*
X13260Y45320D01*
X13180Y45240D01*
X13100Y45320D01*
X13530Y45633D02*
X13610Y45713D01*
X13690Y45633D01*
X13610Y45553D01*
X13530Y45633D01*
X26906Y5440D02*
X26946D01*
X26986Y5480D01*
X27026Y5440D01*
X27066D01*
Y5480D01*
X27026Y5520D01*
X27066Y5560D01*
Y5600D01*
X27026D01*
X26986Y5560D01*
X26946Y5600D01*
X26906D01*
Y5560D01*
X26946Y5520D01*
X26906Y5480D01*
Y5440D01*
X2253Y45477D02*
X2293D01*
X2333Y45517D01*
X2373Y45477D01*
X2413D01*
Y45517D01*
X2373Y45557D01*
X2413Y45597D01*
Y45637D01*
X2373D01*
X2333Y45597D01*
X2293Y45637D01*
X2253D01*
Y45597D01*
X2293Y45557D01*
X2253Y45517D01*
Y45477D01*
X2170Y44940D02*
X2210D01*
X2250Y44980D01*
X2290Y44940D01*
X2330D01*
Y44980D01*
X2290Y45020D01*
X2330Y45060D01*
Y45100D01*
X2290D01*
X2250Y45060D01*
X2210Y45100D01*
X2170D01*
Y45060D01*
X2210Y45020D01*
X2170Y44980D01*
Y44940D01*
Y44295D02*
X2210D01*
X2250Y44335D01*
X2290Y44295D01*
X2330D01*
Y44335D01*
X2290Y44375D01*
X2330Y44415D01*
Y44455D01*
X2290D01*
X2250Y44415D01*
X2210Y44455D01*
X2170D01*
Y44415D01*
X2210Y44375D01*
X2170Y44335D01*
Y44295D01*
Y43770D02*
X2210D01*
X2250Y43810D01*
X2290Y43770D01*
X2330D01*
Y43810D01*
X2290Y43850D01*
X2330Y43890D01*
Y43930D01*
X2290D01*
X2250Y43890D01*
X2210Y43930D01*
X2170D01*
Y43890D01*
X2210Y43850D01*
X2170Y43810D01*
Y43770D01*
X2260Y46010D02*
X2300D01*
X2340Y46050D01*
X2380Y46010D01*
X2420D01*
Y46050D01*
X2380Y46090D01*
X2420Y46130D01*
Y46170D01*
X2380D01*
X2340Y46130D01*
X2300Y46170D01*
X2260D01*
Y46130D01*
X2300Y46090D01*
X2260Y46050D01*
Y46010D01*
Y46658D02*
X2300D01*
X2340Y46698D01*
X2380Y46658D01*
X2420D01*
Y46698D01*
X2380Y46738D01*
X2420Y46778D01*
Y46818D01*
X2380D01*
X2340Y46778D01*
X2300Y46818D01*
X2260D01*
Y46778D01*
X2300Y46738D01*
X2260Y46698D01*
Y46658D01*
X11910Y49170D02*
X11990Y49250D01*
X12070Y49170D01*
X11990Y49090D01*
X11910Y49170D01*
X11540Y48690D02*
X11620Y48770D01*
X11700Y48690D01*
X11620Y48610D01*
X11540Y48690D01*
X16320Y49420D02*
X16360D01*
X16400Y49460D01*
X16440Y49420D01*
X16480D01*
Y49460D01*
X16440Y49500D01*
X16480Y49540D01*
Y49580D01*
X16440D01*
X16400Y49540D01*
X16360Y49580D01*
X16320D01*
Y49540D01*
X16360Y49500D01*
X16320Y49460D01*
Y49420D01*
X23430Y17920D02*
X23510Y18000D01*
X23590Y17920D01*
X23510Y17840D01*
X23430Y17920D01*
X15800Y50160D02*
X15840D01*
X15880Y50200D01*
X15920Y50160D01*
X15960D01*
Y50200D01*
X15920Y50240D01*
X15960Y50280D01*
Y50320D01*
X15920D01*
X15880Y50280D01*
X15840Y50320D01*
X15800D01*
Y50280D01*
X15840Y50240D01*
X15800Y50200D01*
Y50160D01*
X4640Y50750D02*
X4720Y50830D01*
X4800Y50750D01*
X4720Y50670D01*
X4640Y50750D01*
X4983Y51069D02*
X5063Y51149D01*
X5143Y51069D01*
X5063Y50989D01*
X4983Y51069D01*
X5250Y51530D02*
X5330Y51610D01*
X5410Y51530D01*
X5330Y51450D01*
X5250Y51530D01*
X1787Y47540D02*
X1867Y47620D01*
X1947Y47540D01*
X1867Y47460D01*
X1787Y47540D01*
X24740D02*
X24820Y47620D01*
X24900Y47540D01*
X24820Y47460D01*
X24740Y47540D01*
X26030Y47220D02*
X26070D01*
X26110Y47260D01*
X26150Y47220D01*
X26190D01*
Y47260D01*
X26150Y47300D01*
X26190Y47340D01*
Y47380D01*
X26150D01*
X26110Y47340D01*
X26070Y47380D01*
X26030D01*
Y47340D01*
X26070Y47300D01*
X26030Y47260D01*
Y47220D01*
X9523Y16665D02*
X9563D01*
X9603Y16705D01*
X9643Y16665D01*
X9683D01*
Y16705D01*
X9643Y16745D01*
X9683Y16785D01*
Y16825D01*
X9643D01*
X9603Y16785D01*
X9563Y16825D01*
X9523D01*
Y16785D01*
X9563Y16745D01*
X9523Y16705D01*
Y16665D01*
X18205Y9656D02*
X18245D01*
X18285Y9696D01*
X18325Y9656D01*
X18365D01*
Y9696D01*
X18325Y9736D01*
X18365Y9776D01*
Y9816D01*
X18325D01*
X18285Y9776D01*
X18245Y9816D01*
X18205D01*
Y9776D01*
X18245Y9736D01*
X18205Y9696D01*
Y9656D01*
X13943Y4415D02*
X13983D01*
X14023Y4455D01*
X14063Y4415D01*
X14103D01*
Y4455D01*
X14063Y4495D01*
X14103Y4535D01*
Y4575D01*
X14063D01*
X14023Y4535D01*
X13983Y4575D01*
X13943D01*
Y4535D01*
X13983Y4495D01*
X13943Y4455D01*
Y4415D01*
X11280Y4420D02*
X11320D01*
X11360Y4460D01*
X11400Y4420D01*
X11440D01*
Y4460D01*
X11400Y4500D01*
X11440Y4540D01*
Y4580D01*
X11400D01*
X11360Y4540D01*
X11320Y4580D01*
X11280D01*
Y4540D01*
X11320Y4500D01*
X11280Y4460D01*
Y4420D01*
X21690Y16521D02*
X21730D01*
X21770Y16561D01*
X21810Y16521D01*
X21850D01*
Y16561D01*
X21810Y16601D01*
X21850Y16641D01*
Y16681D01*
X21810D01*
X21770Y16641D01*
X21730Y16681D01*
X21690D01*
Y16641D01*
X21730Y16601D01*
X21690Y16561D01*
Y16521D01*
X18680Y17280D02*
X18720D01*
X18760Y17320D01*
X18800Y17280D01*
X18840D01*
Y17320D01*
X18800Y17360D01*
X18840Y17400D01*
Y17440D01*
X18800D01*
X18760Y17400D01*
X18720Y17440D01*
X18680D01*
Y17400D01*
X18720Y17360D01*
X18680Y17320D01*
Y17280D01*
X20310Y31790D02*
X20390Y31870D01*
X20470Y31790D01*
X20390Y31710D01*
X20310Y31790D01*
X12810Y31810D02*
X12890Y31890D01*
X12970Y31810D01*
X12890Y31730D01*
X12810Y31810D01*
X17840Y33440D02*
X17920Y33520D01*
X18000Y33440D01*
X17920Y33360D01*
X17840Y33440D01*
X21280Y46850D02*
X21360Y46930D01*
X21440Y46850D01*
X21360Y46770D01*
X21280Y46850D01*
X18790Y12300D02*
X18870Y12380D01*
X18950Y12300D01*
X18870Y12220D01*
X18790Y12300D01*
X18040Y13000D02*
X18120Y13080D01*
X18200Y13000D01*
X18120Y12920D01*
X18040Y13000D01*
X18430Y12630D02*
X18510Y12710D01*
X18590Y12630D01*
X18510Y12550D01*
X18430Y12630D01*
X8230Y51530D02*
X8310Y51610D01*
X8390Y51530D01*
X8310Y51450D01*
X8230Y51530D01*
X5940Y31360D02*
X6020Y31440D01*
X6100Y31360D01*
X6020Y31280D01*
X5940Y31360D01*
X7179Y40820D02*
X7259Y40900D01*
X7339Y40820D01*
X7259Y40740D01*
X7179Y40820D01*
X26650Y4890D02*
X26730Y4970D01*
X26810Y4890D01*
X26730Y4810D01*
X26650Y4890D01*
X21840Y30290D02*
X21920Y30370D01*
X22000Y30290D01*
X21920Y30210D01*
X21840Y30290D01*
X13780Y31145D02*
X13860Y31225D01*
X13940Y31145D01*
X13860Y31065D01*
X13780Y31145D01*
X19410Y30490D02*
X19490Y30570D01*
X19570Y30490D01*
X19490Y30410D01*
X19410Y30490D01*
X11824Y30379D02*
X11904Y30459D01*
X11984Y30379D01*
X11904Y30299D01*
X11824Y30379D01*
X9760Y4180D02*
X9840Y4260D01*
X9920Y4180D01*
X9840Y4100D01*
X9760Y4180D01*
X14510Y4960D02*
X14590Y5040D01*
X14670Y4960D01*
X14590Y4880D01*
X14510Y4960D01*
X16560Y8695D02*
X16640Y8775D01*
X16720Y8695D01*
X16640Y8615D01*
X16560Y8695D01*
X20513Y16247D02*
X20593Y16327D01*
X20673Y16247D01*
X20593Y16167D01*
X20513Y16247D01*
X17160Y15870D02*
X17240Y15950D01*
X17320Y15870D01*
X17240Y15790D01*
X17160Y15870D01*
X8992Y15320D02*
X9072Y15400D01*
X9152Y15320D01*
X9072Y15240D01*
X8992Y15320D01*
X7480Y41810D02*
X7560Y41890D01*
X7640Y41810D01*
X7560Y41730D01*
X7480Y41810D01*
X13014Y38050D02*
X13094Y38130D01*
X13174Y38050D01*
X13094Y37970D01*
X13014Y38050D01*
X12360Y36530D02*
X12440Y36610D01*
X12520Y36530D01*
X12440Y36450D01*
X12360Y36530D01*
X20205Y18510D02*
X20285Y18590D01*
X20365Y18510D01*
X20285Y18430D01*
X20205Y18510D01*
X19270Y20010D02*
X19350Y20090D01*
X19430Y20010D01*
X19350Y19930D01*
X19270Y20010D01*
X13870Y43440D02*
X13950Y43520D01*
X14030Y43440D01*
X13950Y43360D01*
X13870Y43440D01*
X13910Y42760D02*
X13990Y42840D01*
X14070Y42760D01*
X13990Y42680D01*
X13910Y42760D01*
X13920Y42130D02*
X14000Y42210D01*
X14080Y42130D01*
X14000Y42050D01*
X13920Y42130D01*
X13870Y41390D02*
X13950Y41470D01*
X14030Y41390D01*
X13950Y41310D01*
X13870Y41390D01*
X13890Y40690D02*
X13970Y40770D01*
X14050Y40690D01*
X13970Y40610D01*
X13890Y40690D01*
X15510Y38760D02*
X15590Y38840D01*
X15670Y38760D01*
X15590Y38680D01*
X15510Y38760D01*
X14000Y39430D02*
X14080Y39510D01*
X14160Y39430D01*
X14080Y39350D01*
X14000Y39430D01*
X13770Y40100D02*
X13850Y40180D01*
X13930Y40100D01*
X13850Y40020D01*
X13770Y40100D01*
X19660Y18320D02*
X19740Y18400D01*
X19820Y18320D01*
X19740Y18240D01*
X19660Y18320D01*
X21230Y15130D02*
X21310Y15210D01*
X21390Y15130D01*
X21310Y15050D01*
X21230Y15130D01*
X4600Y36418D02*
X4680Y36498D01*
X4760Y36418D01*
X4680Y36338D01*
X4600Y36418D01*
X5020Y37338D02*
X5100Y37418D01*
X5180Y37338D01*
X5100Y37258D01*
X5020Y37338D01*
X8720Y48300D02*
X8800Y48380D01*
X8880Y48300D01*
X8800Y48220D01*
X8720Y48300D01*
X6420Y47540D02*
X6500Y47620D01*
X6580Y47540D01*
X6500Y47460D01*
X6420Y47540D01*
X5820Y47100D02*
X5900Y47180D01*
X5980Y47100D01*
X5900Y47020D01*
X5820Y47100D01*
X8920Y44500D02*
X9000Y44580D01*
X9080Y44500D01*
X9000Y44420D01*
X8920Y44500D01*
X8460D02*
X8540Y44580D01*
X8620Y44500D01*
X8540Y44420D01*
X8460Y44500D01*
X5920D02*
X6000Y44580D01*
X6080Y44500D01*
X6000Y44420D01*
X5920Y44500D01*
X5420D02*
X5500Y44580D01*
X5580Y44500D01*
X5500Y44420D01*
X5420Y44500D01*
Y46344D02*
X5500Y46424D01*
X5580Y46344D01*
X5500Y46264D01*
X5420Y46344D01*
X1415Y47130D02*
X1495Y47210D01*
X1575Y47130D01*
X1495Y47050D01*
X1415Y47130D01*
X1435Y45950D02*
X1515Y46030D01*
X1595Y45950D01*
X1515Y45870D01*
X1435Y45950D01*
Y44750D02*
X1515Y44830D01*
X1595Y44750D01*
X1515Y44670D01*
X1435Y44750D01*
X1385Y43600D02*
X1465Y43680D01*
X1545Y43600D01*
X1465Y43520D01*
X1385Y43600D01*
Y43200D02*
X1465Y43280D01*
X1545Y43200D01*
X1465Y43120D01*
X1385Y43200D01*
Y42800D02*
X1465Y42880D01*
X1545Y42800D01*
X1465Y42720D01*
X1385Y42800D01*
Y42400D02*
X1465Y42480D01*
X1545Y42400D01*
X1465Y42320D01*
X1385Y42400D01*
Y42000D02*
X1465Y42080D01*
X1545Y42000D01*
X1465Y41920D01*
X1385Y42000D01*
X1445Y48694D02*
X1525Y48774D01*
X1605Y48694D01*
X1525Y48614D01*
X1445Y48694D01*
X1435Y48300D02*
X1515Y48380D01*
X1595Y48300D01*
X1515Y48220D01*
X1435Y48300D01*
Y49069D02*
X1515Y49149D01*
X1595Y49069D01*
X1515Y48989D01*
X1435Y49069D01*
Y49469D02*
X1515Y49549D01*
X1595Y49469D01*
X1515Y49389D01*
X1435Y49469D01*
Y49869D02*
X1515Y49949D01*
X1595Y49869D01*
X1515Y49789D01*
X1435Y49869D01*
Y50269D02*
X1515Y50349D01*
X1595Y50269D01*
X1515Y50189D01*
X1435Y50269D01*
Y50669D02*
X1515Y50749D01*
X1595Y50669D01*
X1515Y50589D01*
X1435Y50669D01*
Y51069D02*
X1515Y51149D01*
X1595Y51069D01*
X1515Y50989D01*
X1435Y51069D01*
Y51450D02*
X1515Y51530D01*
X1595Y51450D01*
X1515Y51370D01*
X1435Y51450D01*
X3735Y47900D02*
X3815Y47980D01*
X3895Y47900D01*
X3815Y47820D01*
X3735Y47900D01*
Y46700D02*
X3815Y46780D01*
X3895Y46700D01*
X3815Y46620D01*
X3735Y46700D01*
X3685Y45550D02*
X3765Y45630D01*
X3845Y45550D01*
X3765Y45470D01*
X3685Y45550D01*
X3635Y44350D02*
X3715Y44430D01*
X3795Y44350D01*
X3715Y44270D01*
X3635Y44350D01*
Y42000D02*
X3715Y42080D01*
X3795Y42000D01*
X3715Y41920D01*
X3635Y42000D01*
X9060Y36398D02*
X9140Y36478D01*
X9220Y36398D01*
X9140Y36318D01*
X9060Y36398D01*
X9055Y37338D02*
X9135Y37418D01*
X9215Y37338D01*
X9135Y37258D01*
X9055Y37338D01*
X15140Y36890D02*
X15220Y36970D01*
X15300Y36890D01*
X15220Y36810D01*
X15140Y36890D01*
Y37470D02*
X15220Y37550D01*
X15300Y37470D01*
X15220Y37390D01*
X15140Y37470D01*
X21500Y35825D02*
X21580Y35905D01*
X21660Y35825D01*
X21580Y35745D01*
X21500Y35825D01*
Y36360D02*
X21580Y36440D01*
X21660Y36360D01*
X21580Y36280D01*
X21500Y36360D01*
X21509Y36918D02*
X21589Y36998D01*
X21669Y36918D01*
X21589Y36838D01*
X21509Y36918D01*
X21515Y37420D02*
X21595Y37500D01*
X21675Y37420D01*
X21595Y37340D01*
X21515Y37420D01*
X18604Y38756D02*
X18684Y38836D01*
X18764Y38756D01*
X18684Y38676D01*
X18604Y38756D01*
X18609Y39426D02*
X18689Y39506D01*
X18769Y39426D01*
X18689Y39346D01*
X18609Y39426D01*
X18614Y40106D02*
X18694Y40186D01*
X18774Y40106D01*
X18694Y40026D01*
X18614Y40106D01*
X18604Y40776D02*
X18684Y40856D01*
X18764Y40776D01*
X18684Y40696D01*
X18604Y40776D01*
Y41396D02*
X18684Y41476D01*
X18764Y41396D01*
X18684Y41316D01*
X18604Y41396D01*
X18586Y42056D02*
X18666Y42136D01*
X18746Y42056D01*
X18666Y41976D01*
X18586Y42056D01*
X18594Y42748D02*
X18674Y42828D01*
X18754Y42748D01*
X18674Y42668D01*
X18594Y42748D01*
X18576Y43438D02*
X18656Y43518D01*
X18736Y43438D01*
X18656Y43358D01*
X18576Y43438D01*
X11830Y39391D02*
X11910Y39471D01*
X11990Y39391D01*
X11910Y39311D01*
X11830Y39391D01*
X11790Y38700D02*
X11870Y38780D01*
X11950Y38700D01*
X11870Y38620D01*
X11790Y38700D01*
X11766Y41396D02*
X11846Y41476D01*
X11926Y41396D01*
X11846Y41316D01*
X11766Y41396D01*
X11778Y42748D02*
X11858Y42828D01*
X11938Y42748D01*
X11858Y42668D01*
X11778Y42748D01*
X11770Y40076D02*
X11850Y40156D01*
X11930Y40076D01*
X11850Y39996D01*
X11770Y40076D01*
Y40736D02*
X11850Y40816D01*
X11930Y40736D01*
X11850Y40656D01*
X11770Y40736D01*
X11794Y42086D02*
X11874Y42166D01*
X11954Y42086D01*
X11874Y42006D01*
X11794Y42086D01*
X11830Y43436D02*
X11910Y43516D01*
X11990Y43436D01*
X11910Y43356D01*
X11830Y43436D01*
D47*
X5460Y25900D02*
G03*
X5460Y25900I-80J0D01*
G01*
X6440Y25910D02*
G03*
X6440Y25910I-80J0D01*
G01*
X18950Y50930D02*
G03*
X18950Y50930I-80J0D01*
G01*
X19930Y50940D02*
G03*
X19930Y50940I-80J0D01*
G01*
X20910Y50950D02*
G03*
X20910Y50950I-80J0D01*
G01*
X21890Y50960D02*
G03*
X21890Y50960I-80J0D01*
G01*
X22870Y50970D02*
G03*
X22870Y50970I-80J0D01*
G01*
M02*
