G04*
G04 #@! TF.GenerationSoftware,Altium Limited,Altium Designer,21.3.2 (30)*
G04*
G04 Layer_Physical_Order=4*
G04 Layer_Color=16711680*
%FSLAX24Y24*%
%MOIN*%
G70*
G04*
G04 #@! TF.SameCoordinates,833F00A7-D450-4082-898E-3E871E1ABAC5*
G04*
G04*
G04 #@! TF.FilePolarity,Positive*
G04*
G01*
G75*
%ADD13C,0.0100*%
%ADD30C,0.0630*%
%ADD31R,0.0630X0.0630*%
%ADD32O,0.0531X0.0669*%
%ADD33C,0.0602*%
%ADD34C,0.0531*%
%ADD37C,0.0768*%
%ADD38R,0.0768X0.0768*%
%ADD39C,0.0350*%
%ADD41R,0.0728X0.0728*%
%ADD42C,0.0728*%
%ADD43C,0.0315*%
%ADD44C,0.0500*%
G36*
X26972Y52369D02*
X27097Y52318D01*
X27210Y52242D01*
X27305Y52147D01*
X27381Y52034D01*
X27432Y51909D01*
X27459Y51776D01*
Y51709D01*
Y4633D01*
Y4565D01*
X27432Y4432D01*
X27381Y4307D01*
X27305Y4195D01*
X27210Y4099D01*
X27097Y4024D01*
X26972Y3972D01*
X26839Y3946D01*
X22915D01*
X22912Y3945D01*
X22910Y3945D01*
X22833Y3942D01*
X22825Y3940D01*
X22818D01*
X22667Y3910D01*
X22658Y3906D01*
X22648Y3904D01*
X22505Y3845D01*
X22497Y3839D01*
X22488Y3836D01*
X22360Y3750D01*
X22353Y3743D01*
X22344Y3737D01*
X22235Y3628D01*
X22230Y3620D01*
X22223Y3613D01*
X22137Y3485D01*
X22133Y3476D01*
X22128Y3467D01*
X22069Y3325D01*
X22067Y3315D01*
X22063Y3306D01*
X22033Y3155D01*
Y3147D01*
X22031Y3140D01*
X22027Y3063D01*
X22028Y3060D01*
X22027Y3058D01*
X22027Y787D01*
X22027Y720D01*
X22001Y587D01*
X21949Y462D01*
X21874Y349D01*
X21778Y254D01*
X21665Y179D01*
X21540Y127D01*
X21408Y100D01*
X21340Y100D01*
X14712Y100D01*
X720D01*
X587Y127D01*
X462Y179D01*
X349Y254D01*
X254Y349D01*
X179Y462D01*
X127Y587D01*
X100Y720D01*
Y787D01*
Y51709D01*
Y51776D01*
X127Y51909D01*
X179Y52034D01*
X254Y52147D01*
X349Y52242D01*
X462Y52318D01*
X587Y52369D01*
X720Y52396D01*
X26839D01*
X26972Y52369D01*
D02*
G37*
%LPC*%
G36*
X23830Y52121D02*
X23830Y52121D01*
X8413D01*
X8413Y52121D01*
X8371Y52113D01*
X8334Y52089D01*
X8334Y52089D01*
X7887Y51641D01*
X5516D01*
X5486Y51686D01*
X5414Y51734D01*
X5330Y51751D01*
X5246Y51734D01*
X5174Y51686D01*
X5126Y51614D01*
X5109Y51530D01*
X5126Y51446D01*
X5174Y51374D01*
X5246Y51326D01*
X5330Y51309D01*
X5414Y51326D01*
X5486Y51374D01*
X5516Y51419D01*
X7933D01*
X7933Y51419D01*
X7976Y51427D01*
X8012Y51451D01*
X8052Y51492D01*
X8100Y51477D01*
X8106Y51446D01*
X8154Y51374D01*
X8226Y51326D01*
X8310Y51309D01*
X8394Y51326D01*
X8466Y51374D01*
X8514Y51446D01*
X8531Y51530D01*
X8514Y51614D01*
X8466Y51686D01*
X8394Y51734D01*
X8363Y51740D01*
X8348Y51788D01*
X8459Y51899D01*
X23763D01*
X23800Y51856D01*
X23791Y51810D01*
X23810Y51719D01*
X23861Y51641D01*
X23939Y51590D01*
X24030Y51571D01*
X24121Y51590D01*
X24199Y51641D01*
X24250Y51719D01*
X24269Y51810D01*
X24250Y51901D01*
X24199Y51979D01*
X24121Y52030D01*
X24030Y52049D01*
X23962Y52035D01*
X23909Y52089D01*
X23873Y52113D01*
X23830Y52121D01*
D02*
G37*
G36*
X17040Y51809D02*
X16949Y51790D01*
X16871Y51739D01*
X16833Y51681D01*
X14416D01*
X14416Y51681D01*
X14374Y51673D01*
X14338Y51649D01*
X14338Y51649D01*
X13869Y51180D01*
X5250D01*
X5220Y51225D01*
X5148Y51273D01*
X5063Y51289D01*
X4979Y51273D01*
X4907Y51225D01*
X4859Y51153D01*
X4843Y51069D01*
X4859Y50984D01*
X4868Y50972D01*
X4832Y50936D01*
X4804Y50954D01*
X4720Y50971D01*
X4636Y50954D01*
X4564Y50906D01*
X4516Y50834D01*
X4499Y50750D01*
X4516Y50666D01*
X4564Y50594D01*
X4636Y50546D01*
X4720Y50529D01*
X4804Y50546D01*
X4876Y50594D01*
X4924Y50666D01*
X4941Y50750D01*
X4924Y50834D01*
X4916Y50847D01*
X4952Y50883D01*
X4979Y50865D01*
X5063Y50848D01*
X5148Y50865D01*
X5220Y50913D01*
X5250Y50958D01*
X13915D01*
X13915Y50958D01*
X13958Y50966D01*
X13994Y50990D01*
X14463Y51459D01*
X16833D01*
X16871Y51401D01*
X16949Y51350D01*
X17040Y51331D01*
X17131Y51350D01*
X17209Y51401D01*
X17260Y51479D01*
X17279Y51570D01*
X17260Y51661D01*
X17209Y51739D01*
X17131Y51790D01*
X17040Y51809D01*
D02*
G37*
G36*
X20830Y51347D02*
X20745Y51335D01*
X20666Y51303D01*
X20598Y51251D01*
X20546Y51183D01*
X20514Y51104D01*
X20502Y51019D01*
Y50881D01*
X20514Y50796D01*
X20546Y50717D01*
X20598Y50649D01*
X20666Y50597D01*
X20745Y50565D01*
X20830Y50553D01*
X20915Y50565D01*
X20994Y50597D01*
X21062Y50649D01*
X21114Y50717D01*
X21146Y50796D01*
X21158Y50881D01*
Y51019D01*
X21146Y51104D01*
X21114Y51183D01*
X21062Y51251D01*
X20994Y51303D01*
X20915Y51335D01*
X20830Y51347D01*
D02*
G37*
G36*
X19850Y51336D02*
X19765Y51325D01*
X19686Y51293D01*
X19618Y51241D01*
X19566Y51173D01*
X19534Y51094D01*
X19522Y51009D01*
Y50871D01*
X19534Y50786D01*
X19566Y50707D01*
X19618Y50639D01*
X19686Y50587D01*
X19765Y50555D01*
X19850Y50543D01*
X19935Y50555D01*
X20014Y50587D01*
X20082Y50639D01*
X20134Y50707D01*
X20166Y50786D01*
X20178Y50871D01*
Y51009D01*
X20166Y51094D01*
X20134Y51173D01*
X20082Y51241D01*
X20014Y51293D01*
X19935Y51325D01*
X19850Y51336D01*
D02*
G37*
G36*
X18870Y51326D02*
X18785Y51315D01*
X18706Y51283D01*
X18638Y51231D01*
X18586Y51163D01*
X18554Y51084D01*
X18542Y50999D01*
Y50861D01*
X18554Y50776D01*
X18586Y50697D01*
X18638Y50629D01*
X18706Y50577D01*
X18785Y50545D01*
X18870Y50533D01*
X18955Y50545D01*
X19034Y50577D01*
X19102Y50629D01*
X19154Y50697D01*
X19186Y50776D01*
X19198Y50861D01*
Y50999D01*
X19186Y51084D01*
X19154Y51163D01*
X19102Y51231D01*
X19034Y51283D01*
X18955Y51315D01*
X18870Y51326D01*
D02*
G37*
G36*
X15880Y50479D02*
X15789Y50460D01*
X15711Y50409D01*
X15660Y50331D01*
X15641Y50240D01*
X15660Y50149D01*
X15711Y50071D01*
X15789Y50020D01*
X15880Y50001D01*
X15971Y50020D01*
X16049Y50071D01*
X16100Y50149D01*
X16119Y50240D01*
X16100Y50331D01*
X16049Y50409D01*
X15971Y50460D01*
X15880Y50479D01*
D02*
G37*
G36*
X3910Y50129D02*
X3819Y50110D01*
X3741Y50059D01*
X3690Y49981D01*
X3671Y49890D01*
X3690Y49799D01*
X3741Y49721D01*
X3819Y49670D01*
X3910Y49651D01*
X4001Y49670D01*
X4079Y49721D01*
X4130Y49799D01*
X4149Y49890D01*
X4130Y49981D01*
X4079Y50059D01*
X4001Y50110D01*
X3910Y50129D01*
D02*
G37*
G36*
X27004Y50254D02*
X26256D01*
Y49506D01*
X27004D01*
Y50254D01*
D02*
G37*
G36*
X25294D02*
X24546D01*
Y49506D01*
X25294D01*
Y50254D01*
D02*
G37*
G36*
X16400Y49739D02*
X16309Y49720D01*
X16231Y49669D01*
X16180Y49591D01*
X16161Y49500D01*
X16180Y49409D01*
X16231Y49331D01*
X16309Y49280D01*
X16400Y49261D01*
X16491Y49280D01*
X16569Y49331D01*
X16620Y49409D01*
X16639Y49500D01*
X16620Y49591D01*
X16569Y49669D01*
X16491Y49720D01*
X16400Y49739D01*
D02*
G37*
G36*
X11990Y49391D02*
X11906Y49374D01*
X11834Y49326D01*
X11786Y49254D01*
X11769Y49170D01*
X11786Y49086D01*
X11834Y49014D01*
X11906Y48966D01*
X11990Y48949D01*
X12074Y48966D01*
X12146Y49014D01*
X12194Y49086D01*
X12211Y49170D01*
X12194Y49254D01*
X12146Y49326D01*
X12074Y49374D01*
X11990Y49391D01*
D02*
G37*
G36*
X8800Y48521D02*
X8716Y48504D01*
X8644Y48456D01*
X8596Y48384D01*
X8579Y48300D01*
X8596Y48216D01*
X8644Y48144D01*
X8716Y48096D01*
X8800Y48079D01*
X8884Y48096D01*
X8956Y48144D01*
X9004Y48216D01*
X9021Y48300D01*
X9004Y48384D01*
X8956Y48456D01*
X8884Y48504D01*
X8800Y48521D01*
D02*
G37*
G36*
X19545Y47847D02*
X19525Y47844D01*
X19106D01*
Y47096D01*
X19854D01*
Y47515D01*
X19857Y47535D01*
X19854Y47555D01*
Y47844D01*
X19565D01*
X19545Y47847D01*
D02*
G37*
G36*
X5900Y47321D02*
X5816Y47304D01*
X5744Y47256D01*
X5696Y47184D01*
X5679Y47100D01*
X5696Y47016D01*
X5744Y46944D01*
X5816Y46896D01*
X5900Y46879D01*
X5984Y46896D01*
X6056Y46944D01*
X6104Y47016D01*
X6121Y47100D01*
X6104Y47184D01*
X6056Y47256D01*
X5984Y47304D01*
X5900Y47321D01*
D02*
G37*
G36*
X21360Y47071D02*
X21276Y47054D01*
X21204Y47006D01*
X21156Y46934D01*
X21139Y46850D01*
X21156Y46766D01*
X21204Y46694D01*
X21276Y46646D01*
X21360Y46629D01*
X21444Y46646D01*
X21516Y46694D01*
X21564Y46766D01*
X21581Y46850D01*
X21564Y46934D01*
X21516Y47006D01*
X21444Y47054D01*
X21360Y47071D01*
D02*
G37*
G36*
X19480Y46847D02*
X19382Y46834D01*
X19291Y46797D01*
X19213Y46737D01*
X19153Y46659D01*
X19116Y46568D01*
X19103Y46470D01*
X19116Y46372D01*
X19153Y46281D01*
X19213Y46203D01*
X19291Y46143D01*
X19382Y46106D01*
X19480Y46093D01*
X19578Y46106D01*
X19669Y46143D01*
X19747Y46203D01*
X19807Y46281D01*
X19844Y46372D01*
X19857Y46470D01*
X19844Y46568D01*
X19807Y46659D01*
X19747Y46737D01*
X19669Y46797D01*
X19578Y46834D01*
X19480Y46847D01*
D02*
G37*
G36*
X13610Y45854D02*
X13526Y45837D01*
X13454Y45789D01*
X13406Y45718D01*
X13389Y45633D01*
X13406Y45549D01*
X13454Y45477D01*
X13526Y45429D01*
X13610Y45412D01*
X13694Y45429D01*
X13766Y45477D01*
X13814Y45549D01*
X13831Y45633D01*
X13814Y45718D01*
X13766Y45789D01*
X13694Y45837D01*
X13610Y45854D01*
D02*
G37*
G36*
X13180Y45541D02*
X13096Y45524D01*
X13024Y45476D01*
X12976Y45404D01*
X12959Y45320D01*
X12976Y45236D01*
X13024Y45164D01*
X13096Y45116D01*
X13180Y45099D01*
X13264Y45116D01*
X13336Y45164D01*
X13384Y45236D01*
X13401Y45320D01*
X13384Y45404D01*
X13336Y45476D01*
X13264Y45524D01*
X13180Y45541D01*
D02*
G37*
G36*
X11620Y48911D02*
X11536Y48894D01*
X11464Y48846D01*
X11416Y48774D01*
X11399Y48690D01*
X11416Y48606D01*
X11464Y48534D01*
X11536Y48486D01*
X11620Y48469D01*
X11673Y48480D01*
X14301Y45851D01*
X14301Y45851D01*
X14337Y45827D01*
X14380Y45819D01*
X19238D01*
X19255Y45769D01*
X19213Y45737D01*
X19153Y45659D01*
X19116Y45568D01*
X19103Y45470D01*
X19116Y45372D01*
X19153Y45281D01*
X19213Y45203D01*
X19291Y45143D01*
X19382Y45106D01*
X19480Y45093D01*
X19578Y45106D01*
X19669Y45143D01*
X19747Y45203D01*
X19807Y45281D01*
X19844Y45372D01*
X19857Y45470D01*
X19844Y45568D01*
X19807Y45659D01*
X19747Y45737D01*
X19705Y45769D01*
X19722Y45819D01*
X20374D01*
X20584Y45609D01*
X20571Y45541D01*
X20589Y45450D01*
X20640Y45372D01*
X20718Y45320D01*
X20755Y45313D01*
X20772Y45259D01*
X20484Y44971D01*
X8292D01*
X8251Y45020D01*
X8234Y45104D01*
X8186Y45176D01*
X8141Y45206D01*
Y45633D01*
X8141Y45633D01*
X8133Y45676D01*
X8109Y45712D01*
X8109Y45712D01*
X6538Y47282D01*
X6553Y47330D01*
X6584Y47336D01*
X6656Y47384D01*
X6704Y47456D01*
X6721Y47540D01*
X6704Y47624D01*
X6656Y47696D01*
X6584Y47744D01*
X6500Y47761D01*
X6416Y47744D01*
X6344Y47696D01*
X6296Y47624D01*
X6290Y47593D01*
X6242Y47578D01*
X6202Y47619D01*
X6166Y47643D01*
X6123Y47651D01*
X6123Y47651D01*
X2053D01*
X2023Y47696D01*
X1951Y47744D01*
X1867Y47761D01*
X1782Y47744D01*
X1711Y47696D01*
X1663Y47624D01*
X1646Y47540D01*
X1663Y47456D01*
X1711Y47384D01*
X1782Y47336D01*
X1867Y47319D01*
X1951Y47336D01*
X2023Y47384D01*
X2053Y47429D01*
X6077D01*
X7919Y45587D01*
Y45206D01*
X7874Y45176D01*
X7826Y45104D01*
X7809Y45020D01*
X7826Y44936D01*
X7874Y44864D01*
X7946Y44816D01*
X7966Y44812D01*
X7982Y44764D01*
X7956Y44733D01*
X6675D01*
X6621Y44786D01*
X6638Y44840D01*
X6684Y44849D01*
X6756Y44897D01*
X6804Y44969D01*
X6821Y45053D01*
X6804Y45138D01*
X6756Y45210D01*
X6711Y45240D01*
Y45345D01*
X6769Y45402D01*
X6769Y45402D01*
X6793Y45438D01*
X6801Y45481D01*
Y45760D01*
X6801Y45760D01*
X6793Y45803D01*
X6769Y45839D01*
X6769Y45839D01*
X5562Y47045D01*
X5526Y47069D01*
X5483Y47078D01*
X5483Y47078D01*
X3281D01*
X3281Y47078D01*
X3238Y47069D01*
X3202Y47045D01*
X3006Y46849D01*
X2547D01*
X2509Y46907D01*
X2431Y46958D01*
X2340Y46977D01*
X2249Y46958D01*
X2171Y46907D01*
X2120Y46829D01*
X2101Y46738D01*
X2120Y46647D01*
X2171Y46569D01*
X2249Y46518D01*
X2340Y46499D01*
X2431Y46518D01*
X2509Y46569D01*
X2547Y46627D01*
X3052D01*
X3052Y46627D01*
X3095Y46635D01*
X3131Y46659D01*
X3327Y46855D01*
X5437D01*
X6579Y45714D01*
Y45527D01*
X6521Y45469D01*
X6497Y45433D01*
X6489Y45391D01*
X6489Y45391D01*
Y45240D01*
X6444Y45210D01*
X6401Y45146D01*
X6368Y45148D01*
X6351Y45154D01*
Y45604D01*
X6351Y45604D01*
X6343Y45647D01*
X6319Y45683D01*
X5710Y46291D01*
X5721Y46344D01*
X5704Y46429D01*
X5656Y46500D01*
X5584Y46548D01*
X5500Y46565D01*
X5416Y46548D01*
X5344Y46500D01*
X5296Y46429D01*
X5279Y46344D01*
X5296Y46260D01*
X5310Y46239D01*
X5283Y46189D01*
X2555D01*
X2509Y46259D01*
X2431Y46310D01*
X2340Y46329D01*
X2249Y46310D01*
X2171Y46259D01*
X2120Y46181D01*
X2101Y46090D01*
X2120Y45999D01*
X2171Y45921D01*
X2249Y45870D01*
X2340Y45851D01*
X2431Y45870D01*
X2509Y45921D01*
X2539Y45967D01*
X5276D01*
X5889Y45354D01*
Y44686D01*
X5844Y44656D01*
X5796Y44584D01*
X5779Y44500D01*
X5796Y44416D01*
X5844Y44344D01*
X5889Y44314D01*
Y44110D01*
X5889Y44110D01*
X5897Y44067D01*
X5921Y44031D01*
X6021Y43931D01*
X6021Y43931D01*
X6057Y43907D01*
X6100Y43899D01*
X9121D01*
X9121Y43899D01*
X9163Y43907D01*
X9199Y43931D01*
X9347Y44079D01*
X19754D01*
X21919Y41914D01*
Y36657D01*
X21861Y36619D01*
X21810Y36541D01*
X21791Y36450D01*
X21810Y36359D01*
X21861Y36281D01*
X21939Y36230D01*
X22030Y36211D01*
X22121Y36230D01*
X22199Y36281D01*
X22250Y36359D01*
X22269Y36450D01*
X22250Y36541D01*
X22199Y36619D01*
X22141Y36657D01*
Y41960D01*
X22133Y42003D01*
X22109Y42039D01*
X22109Y42039D01*
X19879Y44269D01*
X19843Y44293D01*
X19800Y44301D01*
X19800Y44301D01*
X9301D01*
X9258Y44293D01*
X9222Y44269D01*
X9222Y44269D01*
X9075Y44121D01*
X6146D01*
X6111Y44156D01*
Y44314D01*
X6156Y44344D01*
X6204Y44416D01*
X6221Y44500D01*
X6204Y44584D01*
X6156Y44656D01*
X6111Y44686D01*
Y44916D01*
X6161Y44932D01*
X6161Y44931D01*
X6550Y44543D01*
X6550Y44543D01*
X6586Y44519D01*
X6629Y44510D01*
X6629Y44510D01*
X8008D01*
X8008Y44510D01*
X8051Y44519D01*
X8087Y44543D01*
X8293Y44749D01*
X8439D01*
X8445Y44732D01*
X8448Y44699D01*
X8384Y44656D01*
X8336Y44584D01*
X8319Y44500D01*
X8336Y44416D01*
X8384Y44344D01*
X8456Y44296D01*
X8540Y44279D01*
X8624Y44296D01*
X8696Y44344D01*
X8744Y44416D01*
X8745Y44418D01*
X8795D01*
X8796Y44416D01*
X8844Y44344D01*
X8916Y44296D01*
X9000Y44279D01*
X9084Y44296D01*
X9156Y44344D01*
X9204Y44416D01*
X9221Y44500D01*
X9204Y44584D01*
X9156Y44656D01*
X9092Y44699D01*
X9095Y44732D01*
X9101Y44749D01*
X20530D01*
X20530Y44749D01*
X20573Y44757D01*
X20609Y44781D01*
X21946Y46119D01*
X25588D01*
X25590Y46109D01*
X25641Y46031D01*
X25719Y45980D01*
X25810Y45961D01*
X25901Y45980D01*
X25979Y46031D01*
X26030Y46109D01*
X26049Y46200D01*
X26030Y46291D01*
X25979Y46369D01*
X25901Y46420D01*
X25810Y46439D01*
X25719Y46420D01*
X25641Y46369D01*
X25623Y46341D01*
X21900D01*
X21900Y46341D01*
X21857Y46333D01*
X21821Y46309D01*
X21821Y46309D01*
X21091Y45579D01*
X21037Y45595D01*
X21030Y45632D01*
X20978Y45710D01*
X20901Y45761D01*
X20809Y45780D01*
X20741Y45766D01*
X20499Y46009D01*
X20463Y46033D01*
X20420Y46041D01*
X20420Y46041D01*
X14426D01*
X11830Y48637D01*
X11841Y48690D01*
X11824Y48774D01*
X11776Y48846D01*
X11704Y48894D01*
X11620Y48911D01*
D02*
G37*
G36*
X25877Y45717D02*
X25779Y45704D01*
X25688Y45667D01*
X25610Y45607D01*
X25550Y45529D01*
X25512Y45438D01*
X25499Y45340D01*
X25512Y45242D01*
X25550Y45151D01*
X25610Y45073D01*
X25688Y45013D01*
X25779Y44976D01*
X25877Y44963D01*
X25974Y44976D01*
X26065Y45013D01*
X26143Y45073D01*
X26203Y45151D01*
X26241Y45242D01*
X26254Y45340D01*
X26241Y45438D01*
X26203Y45529D01*
X26143Y45607D01*
X26065Y45667D01*
X25974Y45704D01*
X25877Y45717D01*
D02*
G37*
G36*
X2333Y45796D02*
X2242Y45777D01*
X2164Y45726D01*
X2113Y45648D01*
X2094Y45557D01*
X2113Y45466D01*
X2164Y45388D01*
X2242Y45336D01*
X2333Y45318D01*
X2424Y45336D01*
X2502Y45388D01*
X2540Y45446D01*
X3066D01*
X3480Y45031D01*
X3516Y45007D01*
X3559Y44999D01*
X3559Y44999D01*
X4024D01*
X4113Y44910D01*
X4112Y44901D01*
X4091Y44861D01*
X3393D01*
X3156Y45099D01*
X3120Y45123D01*
X3077Y45131D01*
X3077Y45131D01*
X2457D01*
X2419Y45189D01*
X2341Y45240D01*
X2250Y45259D01*
X2159Y45240D01*
X2081Y45189D01*
X2030Y45111D01*
X2011Y45020D01*
X2030Y44929D01*
X2081Y44851D01*
X2159Y44800D01*
X2250Y44781D01*
X2341Y44800D01*
X2419Y44851D01*
X2457Y44909D01*
X3031D01*
X3268Y44671D01*
X3268Y44671D01*
X3304Y44647D01*
X3347Y44639D01*
X3347Y44639D01*
X4060D01*
X5337Y43362D01*
X5373Y43338D01*
X5406Y43331D01*
X5401Y43281D01*
X4152D01*
X2980Y44454D01*
X2944Y44478D01*
X2901Y44486D01*
X2901Y44486D01*
X2457D01*
X2419Y44544D01*
X2341Y44595D01*
X2250Y44614D01*
X2159Y44595D01*
X2081Y44544D01*
X2030Y44466D01*
X2011Y44375D01*
X2030Y44284D01*
X2081Y44206D01*
X2159Y44155D01*
X2250Y44136D01*
X2341Y44155D01*
X2419Y44206D01*
X2457Y44264D01*
X2855D01*
X4028Y43091D01*
X4028Y43091D01*
X4064Y43067D01*
X4106Y43059D01*
X11798D01*
X11800Y43058D01*
X11800Y43059D01*
X12020D01*
X12020Y43058D01*
X12022Y43059D01*
X12096D01*
X13039Y42116D01*
X13038Y42110D01*
X12984Y42093D01*
X12517Y42560D01*
X12481Y42585D01*
X12438Y42593D01*
X12438Y42593D01*
X4304D01*
X2959Y43939D01*
X2923Y43963D01*
X2880Y43971D01*
X2880Y43971D01*
X2730D01*
X2687Y43963D01*
X2685Y43961D01*
X2457D01*
X2419Y44019D01*
X2341Y44070D01*
X2250Y44089D01*
X2159Y44070D01*
X2081Y44019D01*
X2030Y43941D01*
X2011Y43850D01*
X2030Y43759D01*
X2081Y43681D01*
X2159Y43630D01*
X2250Y43611D01*
X2341Y43630D01*
X2419Y43681D01*
X2457Y43739D01*
X2720D01*
X2720Y43739D01*
X2763Y43747D01*
X2765Y43749D01*
X2834D01*
X4180Y42403D01*
X4180Y42403D01*
X4216Y42379D01*
X4258Y42371D01*
X4258Y42371D01*
X12392D01*
X13209Y41554D01*
Y39770D01*
X13209Y39770D01*
X13217Y39727D01*
X13241Y39691D01*
X13581Y39351D01*
X13581Y39351D01*
X13617Y39327D01*
X13660Y39319D01*
X13660Y39319D01*
X13894D01*
X13924Y39274D01*
X13996Y39226D01*
X14080Y39209D01*
X14164Y39226D01*
X14236Y39274D01*
X14284Y39346D01*
X14301Y39430D01*
X14284Y39514D01*
X14236Y39586D01*
X14164Y39634D01*
X14080Y39651D01*
X13996Y39634D01*
X13924Y39586D01*
X13894Y39541D01*
X13706D01*
X13431Y39816D01*
Y41455D01*
X13481Y41480D01*
X13499Y41466D01*
Y40340D01*
X13499Y40340D01*
X13507Y40297D01*
X13531Y40261D01*
X13640Y40153D01*
X13629Y40100D01*
X13646Y40016D01*
X13694Y39944D01*
X13766Y39896D01*
X13850Y39879D01*
X13934Y39896D01*
X14006Y39944D01*
X14054Y40016D01*
X14071Y40100D01*
X14054Y40184D01*
X14006Y40256D01*
X13934Y40304D01*
X13850Y40321D01*
X13797Y40310D01*
X13721Y40386D01*
Y40589D01*
X13738Y40595D01*
X13771Y40598D01*
X13814Y40534D01*
X13886Y40486D01*
X13970Y40469D01*
X14054Y40486D01*
X14126Y40534D01*
X14174Y40606D01*
X14191Y40690D01*
X14174Y40774D01*
X14126Y40846D01*
X14054Y40894D01*
X13970Y40911D01*
X13886Y40894D01*
X13814Y40846D01*
X13771Y40782D01*
X13738Y40785D01*
X13721Y40791D01*
Y41253D01*
X13771Y41268D01*
X13794Y41234D01*
X13866Y41186D01*
X13950Y41169D01*
X14034Y41186D01*
X14106Y41234D01*
X14154Y41306D01*
X14171Y41390D01*
X14154Y41474D01*
X14106Y41546D01*
X14034Y41594D01*
X13950Y41611D01*
X13866Y41594D01*
X13794Y41546D01*
X13771Y41512D01*
X13721Y41527D01*
Y41535D01*
X13721Y41535D01*
X13713Y41577D01*
X13689Y41614D01*
X13689Y41614D01*
X13291Y42011D01*
Y42132D01*
X13291Y42132D01*
X13283Y42175D01*
X13259Y42211D01*
X12221Y43249D01*
X12185Y43273D01*
X12142Y43281D01*
X12142Y43281D01*
X12021D01*
X12021Y43281D01*
X12019Y43281D01*
X11801D01*
X11799Y43281D01*
X11799Y43281D01*
X11552D01*
X11547Y43331D01*
X11580Y43338D01*
X11616Y43362D01*
X11846Y43592D01*
X11974D01*
X12204Y43362D01*
X12204Y43362D01*
X12240Y43338D01*
X12283Y43329D01*
X12643D01*
X13610Y42362D01*
X13610Y42362D01*
X13790Y42183D01*
X13779Y42130D01*
X13796Y42046D01*
X13844Y41974D01*
X13916Y41926D01*
X14000Y41909D01*
X14084Y41926D01*
X14156Y41974D01*
X14204Y42046D01*
X14221Y42130D01*
X14204Y42214D01*
X14156Y42286D01*
X14084Y42334D01*
X14000Y42351D01*
X13947Y42340D01*
X13768Y42520D01*
X13768Y42520D01*
X13768Y42520D01*
X12768Y43519D01*
X12732Y43543D01*
X12690Y43552D01*
X12690Y43552D01*
X12367D01*
X12363Y43559D01*
X12389Y43609D01*
X13434D01*
X13539Y43504D01*
Y43100D01*
X13539Y43100D01*
X13547Y43057D01*
X13571Y43021D01*
X13780Y42813D01*
X13769Y42760D01*
X13786Y42676D01*
X13834Y42604D01*
X13906Y42556D01*
X13990Y42539D01*
X14074Y42556D01*
X14146Y42604D01*
X14194Y42676D01*
X14211Y42760D01*
X14194Y42844D01*
X14146Y42916D01*
X14074Y42964D01*
X13990Y42981D01*
X13937Y42970D01*
X13761Y43146D01*
Y43251D01*
X13811Y43273D01*
X13866Y43236D01*
X13950Y43220D01*
X14035Y43236D01*
X14107Y43284D01*
X14154Y43356D01*
X14171Y43440D01*
X14154Y43525D01*
X14107Y43597D01*
X14035Y43644D01*
X13950Y43661D01*
X13866Y43644D01*
X13802Y43602D01*
X13785Y43598D01*
X13743Y43607D01*
X13729Y43629D01*
X13729Y43629D01*
X13559Y43799D01*
X13523Y43823D01*
X13480Y43831D01*
X13480Y43831D01*
X12274D01*
X12165Y43940D01*
X12129Y43965D01*
X12086Y43973D01*
X12086Y43973D01*
X11734D01*
X11691Y43965D01*
X11655Y43940D01*
X11655Y43940D01*
X11546Y43831D01*
X5506D01*
X4149Y45189D01*
X4113Y45213D01*
X4070Y45221D01*
X4070Y45221D01*
X3605D01*
X3191Y45636D01*
X3154Y45660D01*
X3112Y45668D01*
X3112Y45668D01*
X2540D01*
X2502Y45726D01*
X2424Y45777D01*
X2333Y45796D01*
D02*
G37*
G36*
X24365Y45007D02*
X24280Y44996D01*
X24201Y44963D01*
X24133Y44911D01*
X24081Y44844D01*
X24049Y44765D01*
X24038Y44680D01*
X24049Y44595D01*
X24081Y44516D01*
X24133Y44449D01*
X24201Y44397D01*
X24280Y44364D01*
X24365Y44353D01*
X24450Y44364D01*
X24528Y44397D01*
X24596Y44449D01*
X24648Y44516D01*
X24681Y44595D01*
X24692Y44680D01*
X24681Y44765D01*
X24648Y44844D01*
X24596Y44911D01*
X24528Y44963D01*
X24450Y44996D01*
X24365Y45007D01*
D02*
G37*
G36*
X5500Y44721D02*
X5416Y44704D01*
X5344Y44656D01*
X5296Y44584D01*
X5279Y44500D01*
X5296Y44416D01*
X5344Y44344D01*
X5416Y44296D01*
X5500Y44279D01*
X5584Y44296D01*
X5656Y44344D01*
X5704Y44416D01*
X5721Y44500D01*
X5704Y44584D01*
X5656Y44656D01*
X5584Y44704D01*
X5500Y44721D01*
D02*
G37*
G36*
X26251Y44714D02*
X25503D01*
Y43966D01*
X26251D01*
Y44714D01*
D02*
G37*
G36*
X23144Y44694D02*
X22396D01*
Y43946D01*
X23144D01*
Y44694D01*
D02*
G37*
G36*
X25800Y42927D02*
X25702Y42914D01*
X25611Y42877D01*
X25533Y42817D01*
X25473Y42739D01*
X25436Y42648D01*
X25423Y42550D01*
X25436Y42452D01*
X25473Y42361D01*
X25533Y42283D01*
X25611Y42223D01*
X25702Y42186D01*
X25800Y42173D01*
X25898Y42186D01*
X25989Y42223D01*
X26067Y42283D01*
X26127Y42361D01*
X26164Y42452D01*
X26177Y42550D01*
X26164Y42648D01*
X26127Y42739D01*
X26067Y42817D01*
X25989Y42877D01*
X25898Y42914D01*
X25800Y42927D01*
D02*
G37*
G36*
X24280Y42287D02*
X24195Y42276D01*
X24116Y42243D01*
X24049Y42191D01*
X23997Y42124D01*
X23964Y42045D01*
X23953Y41960D01*
X23964Y41875D01*
X23997Y41796D01*
X24049Y41729D01*
X24116Y41677D01*
X24195Y41644D01*
X24280Y41633D01*
X24365Y41644D01*
X24444Y41677D01*
X24511Y41729D01*
X24563Y41796D01*
X24596Y41875D01*
X24607Y41960D01*
X24596Y42045D01*
X24563Y42124D01*
X24511Y42191D01*
X24444Y42243D01*
X24365Y42276D01*
X24280Y42287D01*
D02*
G37*
G36*
X7560Y42031D02*
X7476Y42014D01*
X7404Y41966D01*
X7356Y41894D01*
X7339Y41810D01*
X7356Y41726D01*
X7404Y41654D01*
X7476Y41606D01*
X7560Y41589D01*
X7644Y41606D01*
X7716Y41654D01*
X7764Y41726D01*
X7781Y41810D01*
X7764Y41894D01*
X7716Y41966D01*
X7644Y42014D01*
X7560Y42031D01*
D02*
G37*
G36*
X23134Y42210D02*
X22386D01*
Y41462D01*
X23134D01*
Y42210D01*
D02*
G37*
G36*
X25941Y47772D02*
X25860Y47761D01*
X25785Y47730D01*
X25720Y47680D01*
X25671Y47616D01*
X25639Y47541D01*
X25629Y47460D01*
X25639Y47379D01*
X25671Y47304D01*
X25720Y47240D01*
X25885Y47075D01*
X26488Y46471D01*
Y41612D01*
X26220Y41344D01*
X26174Y41363D01*
Y41924D01*
X25426D01*
Y41176D01*
X25987D01*
X26006Y41130D01*
X25871Y40995D01*
X24738D01*
X24658Y40984D01*
X24583Y40953D01*
X24518Y40903D01*
X22560Y38946D01*
X22511Y38881D01*
X22480Y38806D01*
X22469Y38725D01*
Y22910D01*
X19613Y20054D01*
X19560Y20068D01*
X19559Y20069D01*
X19554Y20094D01*
X19506Y20166D01*
X19434Y20214D01*
X19350Y20231D01*
X19266Y20214D01*
X19194Y20166D01*
X19146Y20094D01*
X19129Y20010D01*
X19146Y19926D01*
X19194Y19854D01*
X19266Y19806D01*
X19296Y19800D01*
X19311Y19752D01*
X18580Y19021D01*
X18530Y18956D01*
X18499Y18881D01*
X18488Y18800D01*
Y17512D01*
X18459Y17441D01*
X18448Y17360D01*
X18459Y17279D01*
X18490Y17204D01*
X18540Y17140D01*
X18604Y17090D01*
X18633Y17078D01*
X19218Y16493D01*
X19283Y16444D01*
X19358Y16413D01*
X19439Y16402D01*
X20718D01*
X20746Y16381D01*
X20821Y16350D01*
X20902Y16339D01*
X21591D01*
X21758Y16172D01*
Y14628D01*
X18010Y10879D01*
X17960Y10815D01*
X17929Y10739D01*
X17918Y10659D01*
Y7699D01*
X14991Y4772D01*
X10939D01*
X9900Y5811D01*
Y13271D01*
X9947Y13287D01*
X9965Y13264D01*
X10058Y13193D01*
X10166Y13148D01*
X10281Y13133D01*
X10397Y13148D01*
X10505Y13193D01*
X10597Y13264D01*
X10668Y13356D01*
X10713Y13464D01*
X10728Y13580D01*
X10713Y13695D01*
X10668Y13803D01*
X10597Y13896D01*
X10505Y13967D01*
X10397Y14011D01*
X10281Y14026D01*
X10166Y14011D01*
X10058Y13967D01*
X9965Y13896D01*
X9947Y13872D01*
X9900Y13888D01*
Y16729D01*
X9889Y16810D01*
X9858Y16885D01*
X9809Y16950D01*
X9809Y16950D01*
X3892Y22867D01*
Y31780D01*
X3881Y31861D01*
X3850Y31936D01*
X3800Y32000D01*
X2765Y33036D01*
X2752Y33130D01*
X2710Y33233D01*
X2642Y33322D01*
X2553Y33390D01*
X2450Y33432D01*
X2340Y33447D01*
X2230Y33432D01*
X2127Y33390D01*
X2038Y33322D01*
X1970Y33233D01*
X1928Y33130D01*
X1913Y33020D01*
X1928Y32910D01*
X1970Y32807D01*
X2038Y32718D01*
X2127Y32650D01*
X2230Y32608D01*
X2324Y32595D01*
X2434Y32485D01*
X2411Y32438D01*
X2340Y32447D01*
X2230Y32432D01*
X2127Y32390D01*
X2038Y32322D01*
X1970Y32233D01*
X1928Y32130D01*
X1913Y32020D01*
X1928Y31910D01*
X1970Y31807D01*
X2038Y31718D01*
X2127Y31650D01*
X2230Y31608D01*
X2340Y31593D01*
X2450Y31608D01*
X2553Y31650D01*
X2642Y31718D01*
X2710Y31807D01*
X2752Y31910D01*
X2767Y32020D01*
X2758Y32091D01*
X2805Y32114D01*
X3268Y31651D01*
Y22738D01*
X3279Y22657D01*
X3310Y22582D01*
X3360Y22517D01*
X9277Y16600D01*
Y5682D01*
X9287Y5601D01*
X9318Y5526D01*
X9368Y5461D01*
X10590Y4240D01*
X10590Y4240D01*
X10654Y4190D01*
X10729Y4159D01*
X10810Y4148D01*
X10810Y4148D01*
X15120D01*
X15201Y4159D01*
X15276Y4190D01*
X15340Y4240D01*
X15710Y4609D01*
X15756Y4590D01*
Y3827D01*
X16642D01*
Y4713D01*
X15879D01*
X15860Y4759D01*
X18450Y7350D01*
X18500Y7414D01*
X18531Y7489D01*
X18542Y7570D01*
Y10530D01*
X21624Y13611D01*
X21668Y13589D01*
X21665Y13560D01*
X21680Y13444D01*
X21724Y13337D01*
X21795Y13244D01*
X21888Y13173D01*
X21996Y13128D01*
X22111Y13113D01*
X22227Y13128D01*
X22335Y13173D01*
X22427Y13244D01*
X22498Y13337D01*
X22543Y13444D01*
X22558Y13560D01*
X22543Y13676D01*
X22498Y13783D01*
X22427Y13876D01*
X22335Y13947D01*
X22227Y13992D01*
X22111Y14007D01*
X22082Y14003D01*
X22060Y14048D01*
X22290Y14278D01*
X22340Y14343D01*
X22371Y14418D01*
X22382Y14499D01*
Y16301D01*
X22371Y16382D01*
X22340Y16457D01*
X22290Y16522D01*
X21990Y16822D01*
X21990Y16822D01*
X21963Y16849D01*
X21984Y16899D01*
X24819D01*
X24861Y16796D01*
X24929Y16708D01*
X25017Y16640D01*
X25120Y16597D01*
X25231Y16583D01*
X25341Y16597D01*
X25444Y16640D01*
X25532Y16708D01*
X25596Y16791D01*
X25614Y16790D01*
X25646Y16777D01*
Y16243D01*
X25614Y16229D01*
X25596Y16229D01*
X25532Y16312D01*
X25444Y16379D01*
X25341Y16422D01*
X25231Y16437D01*
X25120Y16422D01*
X25017Y16379D01*
X24929Y16312D01*
X24861Y16223D01*
X24818Y16120D01*
X24804Y16010D01*
X24818Y15899D01*
X24861Y15796D01*
X24929Y15708D01*
X25017Y15640D01*
X25120Y15597D01*
X25231Y15583D01*
X25341Y15597D01*
X25444Y15640D01*
X25532Y15708D01*
X25596Y15791D01*
X25614Y15790D01*
X25646Y15777D01*
Y15483D01*
X25646Y15483D01*
X25655Y15440D01*
X25679Y15404D01*
X25861Y15222D01*
X25818Y15120D01*
X25804Y15010D01*
X25818Y14899D01*
X25861Y14796D01*
X25929Y14708D01*
X26017Y14640D01*
X26120Y14597D01*
X26231Y14583D01*
X26341Y14597D01*
X26444Y14640D01*
X26532Y14708D01*
X26600Y14796D01*
X26643Y14899D01*
X26657Y15010D01*
X26643Y15120D01*
X26600Y15223D01*
X26532Y15312D01*
X26444Y15379D01*
X26341Y15422D01*
X26231Y15437D01*
X26120Y15422D01*
X26018Y15380D01*
X25869Y15529D01*
Y15709D01*
X25916Y15725D01*
X25929Y15708D01*
X26017Y15640D01*
X26120Y15597D01*
X26231Y15583D01*
X26341Y15597D01*
X26444Y15640D01*
X26532Y15708D01*
X26600Y15796D01*
X26643Y15899D01*
X26657Y16010D01*
X26643Y16120D01*
X26600Y16223D01*
X26532Y16312D01*
X26444Y16379D01*
X26341Y16422D01*
X26231Y16437D01*
X26120Y16422D01*
X26017Y16379D01*
X25929Y16312D01*
X25916Y16295D01*
X25869Y16311D01*
Y16709D01*
X25916Y16725D01*
X25929Y16708D01*
X26017Y16640D01*
X26120Y16597D01*
X26231Y16583D01*
X26341Y16597D01*
X26444Y16640D01*
X26532Y16708D01*
X26600Y16796D01*
X26643Y16899D01*
X26657Y17010D01*
X26643Y17120D01*
X26600Y17223D01*
X26532Y17312D01*
X26444Y17379D01*
X26341Y17422D01*
X26231Y17437D01*
X26120Y17422D01*
X26017Y17379D01*
X25929Y17312D01*
X25882Y17251D01*
X25873Y17247D01*
X25819Y17247D01*
X25468Y17599D01*
X25468Y17652D01*
X25472Y17662D01*
X25532Y17708D01*
X25600Y17796D01*
X25643Y17899D01*
X25657Y18010D01*
X25643Y18120D01*
X25600Y18223D01*
X25532Y18312D01*
X25444Y18379D01*
X25341Y18422D01*
X25231Y18437D01*
X25120Y18422D01*
X25017Y18379D01*
X24929Y18312D01*
X24861Y18223D01*
X24818Y18120D01*
X24804Y18010D01*
X24818Y17899D01*
X24861Y17796D01*
X24929Y17708D01*
X24945Y17695D01*
X24929Y17648D01*
X21540D01*
X20599Y18589D01*
X20563Y18613D01*
X20520Y18621D01*
X20520Y18621D01*
X20471D01*
X20441Y18666D01*
X20369Y18714D01*
X20285Y18731D01*
X20201Y18714D01*
X20129Y18666D01*
X20081Y18594D01*
X20064Y18510D01*
X20081Y18426D01*
X20129Y18354D01*
X20201Y18306D01*
X20285Y18289D01*
X20369Y18306D01*
X20441Y18354D01*
X20444Y18358D01*
X20508Y18364D01*
X21415Y17458D01*
X21415Y17458D01*
X21451Y17434D01*
X21494Y17425D01*
X21494Y17425D01*
X24998D01*
X25011Y17394D01*
X25012Y17375D01*
X24929Y17312D01*
X24861Y17223D01*
X24819Y17121D01*
X21096D01*
X19950Y18267D01*
X19961Y18320D01*
X19944Y18404D01*
X19896Y18476D01*
X19824Y18524D01*
X19740Y18541D01*
X19656Y18524D01*
X19584Y18476D01*
X19536Y18404D01*
X19519Y18320D01*
X19536Y18236D01*
X19584Y18164D01*
X19656Y18116D01*
X19740Y18099D01*
X19793Y18110D01*
X20827Y17075D01*
X20807Y17025D01*
X19568D01*
X19112Y17481D01*
Y18671D01*
X20037Y19596D01*
X20037Y19596D01*
X23001Y22561D01*
X23001Y22561D01*
X23051Y22625D01*
X23082Y22700D01*
X23093Y22781D01*
X23093Y22781D01*
Y35398D01*
X23119Y35406D01*
X23143Y35410D01*
X23199Y35373D01*
Y24510D01*
X23199Y24510D01*
X23207Y24467D01*
X23231Y24431D01*
X24258Y23404D01*
X24258Y23404D01*
X24295Y23380D01*
X24337Y23372D01*
X24929D01*
X24945Y23324D01*
X24929Y23312D01*
X24861Y23223D01*
X24818Y23120D01*
X24804Y23010D01*
X24818Y22899D01*
X24861Y22796D01*
X24929Y22708D01*
X25017Y22640D01*
X25120Y22597D01*
X25231Y22583D01*
X25341Y22597D01*
X25444Y22640D01*
X25532Y22708D01*
X25600Y22796D01*
X25643Y22899D01*
X25657Y23010D01*
X25643Y23120D01*
X25600Y23223D01*
X25532Y23312D01*
X25516Y23324D01*
X25532Y23372D01*
X25711D01*
X25861Y23222D01*
X25818Y23120D01*
X25804Y23010D01*
X25818Y22899D01*
X25861Y22796D01*
X25929Y22708D01*
X26017Y22640D01*
X26120Y22597D01*
X26231Y22583D01*
X26341Y22597D01*
X26444Y22640D01*
X26532Y22708D01*
X26600Y22796D01*
X26643Y22899D01*
X26657Y23010D01*
X26643Y23120D01*
X26600Y23223D01*
X26532Y23312D01*
X26444Y23379D01*
X26341Y23422D01*
X26231Y23437D01*
X26120Y23422D01*
X26018Y23380D01*
X25836Y23562D01*
X25800Y23586D01*
X25757Y23594D01*
X25757Y23594D01*
X25463D01*
X25450Y23626D01*
X25449Y23644D01*
X25532Y23708D01*
X25600Y23796D01*
X25643Y23899D01*
X25657Y24010D01*
X25643Y24120D01*
X25600Y24223D01*
X25532Y24312D01*
X25444Y24379D01*
X25341Y24422D01*
X25231Y24437D01*
X25120Y24422D01*
X25017Y24379D01*
X24929Y24312D01*
X24861Y24223D01*
X24818Y24120D01*
X24804Y24010D01*
X24818Y23899D01*
X24861Y23796D01*
X24929Y23708D01*
X25012Y23644D01*
X25011Y23626D01*
X24998Y23594D01*
X24383D01*
X23421Y24556D01*
Y35373D01*
X23479Y35411D01*
X23530Y35489D01*
X23549Y35580D01*
X23530Y35671D01*
X23479Y35749D01*
X23401Y35800D01*
X23310Y35819D01*
X23219Y35800D01*
X23143Y35750D01*
X23119Y35754D01*
X23093Y35762D01*
Y38596D01*
X24761Y40265D01*
X24807Y40246D01*
Y39586D01*
X25654D01*
Y40371D01*
X25924D01*
X25941Y40321D01*
X25929Y40312D01*
X25861Y40223D01*
X25818Y40120D01*
X25804Y40010D01*
X25818Y39899D01*
X25861Y39796D01*
X25929Y39708D01*
X26017Y39640D01*
X26120Y39597D01*
X26231Y39583D01*
X26341Y39597D01*
X26444Y39640D01*
X26532Y39708D01*
X26600Y39796D01*
X26643Y39899D01*
X26657Y40010D01*
X26643Y40120D01*
X26600Y40223D01*
X26532Y40312D01*
X26444Y40379D01*
X26341Y40422D01*
X26261Y40433D01*
X26243Y40485D01*
X27020Y41263D01*
X27020Y41263D01*
X27070Y41327D01*
X27101Y41402D01*
X27112Y41483D01*
Y46601D01*
X27101Y46681D01*
X27070Y46756D01*
X27020Y46821D01*
X26326Y47516D01*
X26161Y47680D01*
X26096Y47730D01*
X26021Y47761D01*
X25941Y47772D01*
D02*
G37*
G36*
X7259Y41041D02*
X7175Y41024D01*
X7103Y40976D01*
X7055Y40904D01*
X7039Y40820D01*
X7055Y40736D01*
X7103Y40664D01*
X7175Y40616D01*
X7259Y40599D01*
X7344Y40616D01*
X7415Y40664D01*
X7463Y40736D01*
X7480Y40820D01*
X7463Y40904D01*
X7415Y40976D01*
X7344Y41024D01*
X7259Y41041D01*
D02*
G37*
G36*
X1763Y40443D02*
X917D01*
Y39597D01*
X1763D01*
Y40443D01*
D02*
G37*
G36*
X2340Y40447D02*
X2230Y40432D01*
X2127Y40390D01*
X2038Y40322D01*
X1970Y40233D01*
X1928Y40130D01*
X1913Y40020D01*
X1928Y39910D01*
X1970Y39807D01*
X2038Y39718D01*
X2127Y39650D01*
X2230Y39608D01*
X2340Y39593D01*
X2450Y39608D01*
X2553Y39650D01*
X2642Y39718D01*
X2710Y39807D01*
X2752Y39910D01*
X2767Y40020D01*
X2752Y40130D01*
X2710Y40233D01*
X2642Y40322D01*
X2553Y40390D01*
X2450Y40432D01*
X2340Y40447D01*
D02*
G37*
G36*
Y39447D02*
X2230Y39432D01*
X2127Y39390D01*
X2038Y39322D01*
X1970Y39233D01*
X1928Y39130D01*
X1913Y39020D01*
X1928Y38910D01*
X1970Y38807D01*
X2038Y38718D01*
X2127Y38650D01*
X2230Y38608D01*
X2340Y38593D01*
X2450Y38608D01*
X2553Y38650D01*
X2642Y38718D01*
X2710Y38807D01*
X2752Y38910D01*
X2767Y39020D01*
X2752Y39130D01*
X2710Y39233D01*
X2642Y39322D01*
X2553Y39390D01*
X2450Y39432D01*
X2340Y39447D01*
D02*
G37*
G36*
X1340D02*
X1230Y39432D01*
X1127Y39390D01*
X1038Y39322D01*
X970Y39233D01*
X928Y39130D01*
X913Y39020D01*
X928Y38910D01*
X970Y38807D01*
X1038Y38718D01*
X1127Y38650D01*
X1230Y38608D01*
X1340Y38593D01*
X1450Y38608D01*
X1553Y38650D01*
X1642Y38718D01*
X1710Y38807D01*
X1752Y38910D01*
X1767Y39020D01*
X1752Y39130D01*
X1710Y39233D01*
X1642Y39322D01*
X1553Y39390D01*
X1450Y39432D01*
X1340Y39447D01*
D02*
G37*
G36*
X26231Y39437D02*
X26120Y39422D01*
X26017Y39379D01*
X25929Y39312D01*
X25861Y39223D01*
X25818Y39120D01*
X25804Y39010D01*
X25818Y38899D01*
X25861Y38796D01*
X25929Y38708D01*
X26017Y38640D01*
X26120Y38597D01*
X26231Y38583D01*
X26341Y38597D01*
X26444Y38640D01*
X26532Y38708D01*
X26600Y38796D01*
X26643Y38899D01*
X26657Y39010D01*
X26643Y39120D01*
X26600Y39223D01*
X26532Y39312D01*
X26444Y39379D01*
X26341Y39422D01*
X26231Y39437D01*
D02*
G37*
G36*
X25231D02*
X25120Y39422D01*
X25017Y39379D01*
X24929Y39312D01*
X24861Y39223D01*
X24818Y39120D01*
X24804Y39010D01*
X24818Y38899D01*
X24861Y38796D01*
X24929Y38708D01*
X25017Y38640D01*
X25120Y38597D01*
X25231Y38583D01*
X25341Y38597D01*
X25444Y38640D01*
X25532Y38708D01*
X25600Y38796D01*
X25643Y38899D01*
X25657Y39010D01*
X25643Y39120D01*
X25600Y39223D01*
X25532Y39312D01*
X25444Y39379D01*
X25341Y39422D01*
X25231Y39437D01*
D02*
G37*
G36*
X15590Y38981D02*
X15506Y38964D01*
X15434Y38916D01*
X15386Y38844D01*
X15369Y38760D01*
X15386Y38676D01*
X15434Y38604D01*
X15506Y38556D01*
X15590Y38539D01*
X15674Y38556D01*
X15746Y38604D01*
X15794Y38676D01*
X15811Y38760D01*
X15794Y38844D01*
X15746Y38916D01*
X15674Y38964D01*
X15590Y38981D01*
D02*
G37*
G36*
X13094Y38271D02*
X13010Y38254D01*
X12938Y38206D01*
X12890Y38134D01*
X12874Y38050D01*
X12890Y37966D01*
X12938Y37894D01*
X13010Y37846D01*
X13094Y37829D01*
X13179Y37846D01*
X13250Y37894D01*
X13298Y37966D01*
X13315Y38050D01*
X13298Y38134D01*
X13250Y38206D01*
X13179Y38254D01*
X13094Y38271D01*
D02*
G37*
G36*
X2340Y38447D02*
X2230Y38432D01*
X2127Y38390D01*
X2038Y38322D01*
X1970Y38233D01*
X1928Y38130D01*
X1913Y38020D01*
X1928Y37910D01*
X1970Y37807D01*
X2038Y37718D01*
X2127Y37650D01*
X2230Y37608D01*
X2340Y37593D01*
X2450Y37608D01*
X2553Y37650D01*
X2642Y37718D01*
X2710Y37807D01*
X2752Y37910D01*
X2767Y38020D01*
X2752Y38130D01*
X2710Y38233D01*
X2642Y38322D01*
X2553Y38390D01*
X2450Y38432D01*
X2340Y38447D01*
D02*
G37*
G36*
X1340D02*
X1230Y38432D01*
X1127Y38390D01*
X1038Y38322D01*
X970Y38233D01*
X928Y38130D01*
X913Y38020D01*
X928Y37910D01*
X970Y37807D01*
X1038Y37718D01*
X1127Y37650D01*
X1230Y37608D01*
X1340Y37593D01*
X1450Y37608D01*
X1553Y37650D01*
X1642Y37718D01*
X1710Y37807D01*
X1752Y37910D01*
X1767Y38020D01*
X1752Y38130D01*
X1710Y38233D01*
X1642Y38322D01*
X1553Y38390D01*
X1450Y38432D01*
X1340Y38447D01*
D02*
G37*
G36*
X26231Y38437D02*
X26120Y38422D01*
X26017Y38379D01*
X25929Y38312D01*
X25861Y38223D01*
X25818Y38120D01*
X25804Y38010D01*
X25818Y37899D01*
X25861Y37796D01*
X25929Y37708D01*
X26017Y37640D01*
X26120Y37597D01*
X26231Y37583D01*
X26341Y37597D01*
X26444Y37640D01*
X26532Y37708D01*
X26600Y37796D01*
X26643Y37899D01*
X26657Y38010D01*
X26643Y38120D01*
X26600Y38223D01*
X26532Y38312D01*
X26444Y38379D01*
X26341Y38422D01*
X26231Y38437D01*
D02*
G37*
G36*
X25231D02*
X25120Y38422D01*
X25017Y38379D01*
X24929Y38312D01*
X24861Y38223D01*
X24818Y38120D01*
X24804Y38010D01*
X24818Y37899D01*
X24861Y37796D01*
X24929Y37708D01*
X25017Y37640D01*
X25120Y37597D01*
X25231Y37583D01*
X25341Y37597D01*
X25444Y37640D01*
X25532Y37708D01*
X25600Y37796D01*
X25643Y37899D01*
X25657Y38010D01*
X25643Y38120D01*
X25600Y38223D01*
X25532Y38312D01*
X25444Y38379D01*
X25341Y38422D01*
X25231Y38437D01*
D02*
G37*
G36*
X5100Y37559D02*
X5016Y37542D01*
X4944Y37494D01*
X4896Y37422D01*
X4879Y37338D01*
X4896Y37253D01*
X4944Y37182D01*
X5016Y37134D01*
X5100Y37117D01*
X5184Y37134D01*
X5256Y37182D01*
X5304Y37253D01*
X5321Y37338D01*
X5304Y37422D01*
X5256Y37494D01*
X5184Y37542D01*
X5100Y37559D01*
D02*
G37*
G36*
X1340Y37447D02*
X1230Y37432D01*
X1127Y37390D01*
X1038Y37322D01*
X970Y37233D01*
X928Y37130D01*
X913Y37020D01*
X928Y36910D01*
X970Y36807D01*
X1038Y36718D01*
X1127Y36650D01*
X1230Y36608D01*
X1340Y36593D01*
X1450Y36608D01*
X1553Y36650D01*
X1642Y36718D01*
X1710Y36807D01*
X1752Y36910D01*
X1767Y37020D01*
X1752Y37130D01*
X1710Y37233D01*
X1642Y37322D01*
X1553Y37390D01*
X1450Y37432D01*
X1340Y37447D01*
D02*
G37*
G36*
X26231Y37437D02*
X26120Y37422D01*
X26017Y37379D01*
X25929Y37312D01*
X25861Y37223D01*
X25818Y37120D01*
X25804Y37010D01*
X25818Y36899D01*
X25861Y36796D01*
X25929Y36708D01*
X26017Y36640D01*
X26120Y36597D01*
X26231Y36583D01*
X26341Y36597D01*
X26444Y36640D01*
X26532Y36708D01*
X26600Y36796D01*
X26643Y36899D01*
X26657Y37010D01*
X26643Y37120D01*
X26600Y37223D01*
X26532Y37312D01*
X26444Y37379D01*
X26341Y37422D01*
X26231Y37437D01*
D02*
G37*
G36*
X25231D02*
X25120Y37422D01*
X25017Y37379D01*
X24929Y37312D01*
X24861Y37223D01*
X24818Y37120D01*
X24804Y37010D01*
X24818Y36899D01*
X24861Y36796D01*
X24929Y36708D01*
X25017Y36640D01*
X25120Y36597D01*
X25231Y36583D01*
X25341Y36597D01*
X25444Y36640D01*
X25532Y36708D01*
X25600Y36796D01*
X25643Y36899D01*
X25657Y37010D01*
X25643Y37120D01*
X25600Y37223D01*
X25532Y37312D01*
X25444Y37379D01*
X25341Y37422D01*
X25231Y37437D01*
D02*
G37*
G36*
X12440Y36751D02*
X12356Y36734D01*
X12284Y36686D01*
X12236Y36614D01*
X12219Y36530D01*
X12236Y36446D01*
X12284Y36374D01*
X12356Y36326D01*
X12440Y36309D01*
X12524Y36326D01*
X12596Y36374D01*
X12644Y36446D01*
X12661Y36530D01*
X12644Y36614D01*
X12596Y36686D01*
X12524Y36734D01*
X12440Y36751D01*
D02*
G37*
G36*
X4680Y36639D02*
X4596Y36622D01*
X4524Y36574D01*
X4476Y36502D01*
X4459Y36418D01*
X4476Y36333D01*
X4524Y36262D01*
X4596Y36214D01*
X4680Y36197D01*
X4764Y36214D01*
X4836Y36262D01*
X4884Y36333D01*
X4901Y36418D01*
X4884Y36502D01*
X4836Y36574D01*
X4764Y36622D01*
X4680Y36639D01*
D02*
G37*
G36*
X2340Y36447D02*
X2230Y36432D01*
X2127Y36390D01*
X2038Y36322D01*
X1970Y36233D01*
X1928Y36130D01*
X1913Y36020D01*
X1928Y35910D01*
X1970Y35807D01*
X2038Y35718D01*
X2127Y35650D01*
X2230Y35608D01*
X2340Y35593D01*
X2450Y35608D01*
X2553Y35650D01*
X2642Y35718D01*
X2710Y35807D01*
X2752Y35910D01*
X2767Y36020D01*
X2752Y36130D01*
X2710Y36233D01*
X2642Y36322D01*
X2553Y36390D01*
X2450Y36432D01*
X2340Y36447D01*
D02*
G37*
G36*
X1340D02*
X1230Y36432D01*
X1127Y36390D01*
X1038Y36322D01*
X970Y36233D01*
X928Y36130D01*
X913Y36020D01*
X928Y35910D01*
X970Y35807D01*
X1038Y35718D01*
X1127Y35650D01*
X1230Y35608D01*
X1340Y35593D01*
X1450Y35608D01*
X1553Y35650D01*
X1642Y35718D01*
X1710Y35807D01*
X1752Y35910D01*
X1767Y36020D01*
X1752Y36130D01*
X1710Y36233D01*
X1642Y36322D01*
X1553Y36390D01*
X1450Y36432D01*
X1340Y36447D01*
D02*
G37*
G36*
X26231Y36437D02*
X26120Y36422D01*
X26017Y36379D01*
X25929Y36312D01*
X25861Y36223D01*
X25818Y36120D01*
X25804Y36010D01*
X25818Y35899D01*
X25861Y35796D01*
X25929Y35708D01*
X26017Y35640D01*
X26120Y35597D01*
X26231Y35583D01*
X26341Y35597D01*
X26444Y35640D01*
X26532Y35708D01*
X26600Y35796D01*
X26643Y35899D01*
X26657Y36010D01*
X26643Y36120D01*
X26600Y36223D01*
X26532Y36312D01*
X26444Y36379D01*
X26341Y36422D01*
X26231Y36437D01*
D02*
G37*
G36*
X2340Y35447D02*
X2230Y35432D01*
X2127Y35390D01*
X2038Y35322D01*
X1970Y35233D01*
X1928Y35130D01*
X1913Y35020D01*
X1928Y34910D01*
X1970Y34807D01*
X2038Y34718D01*
X2127Y34650D01*
X2230Y34608D01*
X2340Y34593D01*
X2450Y34608D01*
X2553Y34650D01*
X2642Y34718D01*
X2710Y34807D01*
X2752Y34910D01*
X2767Y35020D01*
X2752Y35130D01*
X2710Y35233D01*
X2642Y35322D01*
X2553Y35390D01*
X2450Y35432D01*
X2340Y35447D01*
D02*
G37*
G36*
X1340D02*
X1230Y35432D01*
X1127Y35390D01*
X1038Y35322D01*
X970Y35233D01*
X928Y35130D01*
X913Y35020D01*
X928Y34910D01*
X970Y34807D01*
X1038Y34718D01*
X1127Y34650D01*
X1230Y34608D01*
X1340Y34593D01*
X1450Y34608D01*
X1553Y34650D01*
X1642Y34718D01*
X1710Y34807D01*
X1752Y34910D01*
X1767Y35020D01*
X1752Y35130D01*
X1710Y35233D01*
X1642Y35322D01*
X1553Y35390D01*
X1450Y35432D01*
X1340Y35447D01*
D02*
G37*
G36*
X26231Y35437D02*
X26120Y35422D01*
X26017Y35379D01*
X25929Y35312D01*
X25861Y35223D01*
X25818Y35120D01*
X25804Y35010D01*
X25818Y34899D01*
X25861Y34796D01*
X25929Y34708D01*
X26017Y34640D01*
X26120Y34597D01*
X26231Y34583D01*
X26341Y34597D01*
X26444Y34640D01*
X26532Y34708D01*
X26600Y34796D01*
X26643Y34899D01*
X26657Y35010D01*
X26643Y35120D01*
X26600Y35223D01*
X26532Y35312D01*
X26444Y35379D01*
X26341Y35422D01*
X26231Y35437D01*
D02*
G37*
G36*
X25231D02*
X25120Y35422D01*
X25017Y35379D01*
X24929Y35312D01*
X24861Y35223D01*
X24818Y35120D01*
X24804Y35010D01*
X24818Y34899D01*
X24861Y34796D01*
X24929Y34708D01*
X25017Y34640D01*
X25120Y34597D01*
X25231Y34583D01*
X25341Y34597D01*
X25444Y34640D01*
X25532Y34708D01*
X25600Y34796D01*
X25643Y34899D01*
X25657Y35010D01*
X25643Y35120D01*
X25600Y35223D01*
X25532Y35312D01*
X25444Y35379D01*
X25341Y35422D01*
X25231Y35437D01*
D02*
G37*
G36*
X2340Y34447D02*
X2230Y34432D01*
X2127Y34390D01*
X2038Y34322D01*
X1970Y34233D01*
X1928Y34130D01*
X1913Y34020D01*
X1928Y33910D01*
X1970Y33807D01*
X2038Y33718D01*
X2127Y33650D01*
X2230Y33608D01*
X2340Y33593D01*
X2450Y33608D01*
X2553Y33650D01*
X2642Y33718D01*
X2710Y33807D01*
X2752Y33910D01*
X2767Y34020D01*
X2752Y34130D01*
X2710Y34233D01*
X2642Y34322D01*
X2553Y34390D01*
X2450Y34432D01*
X2340Y34447D01*
D02*
G37*
G36*
X1340D02*
X1230Y34432D01*
X1127Y34390D01*
X1038Y34322D01*
X970Y34233D01*
X928Y34130D01*
X913Y34020D01*
X928Y33910D01*
X970Y33807D01*
X1038Y33718D01*
X1127Y33650D01*
X1230Y33608D01*
X1340Y33593D01*
X1450Y33608D01*
X1553Y33650D01*
X1642Y33718D01*
X1710Y33807D01*
X1752Y33910D01*
X1767Y34020D01*
X1752Y34130D01*
X1710Y34233D01*
X1642Y34322D01*
X1553Y34390D01*
X1450Y34432D01*
X1340Y34447D01*
D02*
G37*
G36*
X26231Y34437D02*
X26120Y34422D01*
X26017Y34379D01*
X25929Y34312D01*
X25861Y34223D01*
X25818Y34120D01*
X25804Y34010D01*
X25818Y33899D01*
X25861Y33796D01*
X25929Y33708D01*
X26017Y33640D01*
X26120Y33597D01*
X26231Y33583D01*
X26341Y33597D01*
X26444Y33640D01*
X26532Y33708D01*
X26600Y33796D01*
X26643Y33899D01*
X26657Y34010D01*
X26643Y34120D01*
X26600Y34223D01*
X26532Y34312D01*
X26444Y34379D01*
X26341Y34422D01*
X26231Y34437D01*
D02*
G37*
G36*
X25231D02*
X25120Y34422D01*
X25017Y34379D01*
X24929Y34312D01*
X24861Y34223D01*
X24818Y34120D01*
X24804Y34010D01*
X24818Y33899D01*
X24861Y33796D01*
X24929Y33708D01*
X25017Y33640D01*
X25120Y33597D01*
X25231Y33583D01*
X25341Y33597D01*
X25444Y33640D01*
X25532Y33708D01*
X25600Y33796D01*
X25643Y33899D01*
X25657Y34010D01*
X25643Y34120D01*
X25600Y34223D01*
X25532Y34312D01*
X25444Y34379D01*
X25341Y34422D01*
X25231Y34437D01*
D02*
G37*
G36*
X17920Y33661D02*
X17836Y33644D01*
X17764Y33596D01*
X17716Y33524D01*
X17699Y33440D01*
X17716Y33356D01*
X17764Y33284D01*
X17836Y33236D01*
X17920Y33219D01*
X18004Y33236D01*
X18076Y33284D01*
X18124Y33356D01*
X18141Y33440D01*
X18124Y33524D01*
X18076Y33596D01*
X18004Y33644D01*
X17920Y33661D01*
D02*
G37*
G36*
X1340Y33447D02*
X1230Y33432D01*
X1127Y33390D01*
X1038Y33322D01*
X970Y33233D01*
X928Y33130D01*
X913Y33020D01*
X928Y32910D01*
X970Y32807D01*
X1038Y32718D01*
X1127Y32650D01*
X1230Y32608D01*
X1340Y32593D01*
X1450Y32608D01*
X1553Y32650D01*
X1642Y32718D01*
X1710Y32807D01*
X1752Y32910D01*
X1767Y33020D01*
X1752Y33130D01*
X1710Y33233D01*
X1642Y33322D01*
X1553Y33390D01*
X1450Y33432D01*
X1340Y33447D01*
D02*
G37*
G36*
X26231Y33437D02*
X26120Y33422D01*
X26017Y33379D01*
X25929Y33312D01*
X25861Y33223D01*
X25818Y33120D01*
X25804Y33010D01*
X25818Y32899D01*
X25861Y32796D01*
X25929Y32708D01*
X26017Y32640D01*
X26120Y32597D01*
X26231Y32583D01*
X26341Y32597D01*
X26444Y32640D01*
X26532Y32708D01*
X26600Y32796D01*
X26643Y32899D01*
X26657Y33010D01*
X26643Y33120D01*
X26600Y33223D01*
X26532Y33312D01*
X26444Y33379D01*
X26341Y33422D01*
X26231Y33437D01*
D02*
G37*
G36*
X25231D02*
X25120Y33422D01*
X25017Y33379D01*
X24929Y33312D01*
X24861Y33223D01*
X24818Y33120D01*
X24804Y33010D01*
X24818Y32899D01*
X24861Y32796D01*
X24929Y32708D01*
X25017Y32640D01*
X25120Y32597D01*
X25231Y32583D01*
X25341Y32597D01*
X25444Y32640D01*
X25532Y32708D01*
X25600Y32796D01*
X25643Y32899D01*
X25657Y33010D01*
X25643Y33120D01*
X25600Y33223D01*
X25532Y33312D01*
X25444Y33379D01*
X25341Y33422D01*
X25231Y33437D01*
D02*
G37*
G36*
X1340Y32447D02*
X1230Y32432D01*
X1127Y32390D01*
X1038Y32322D01*
X970Y32233D01*
X928Y32130D01*
X913Y32020D01*
X928Y31910D01*
X970Y31807D01*
X1038Y31718D01*
X1127Y31650D01*
X1230Y31608D01*
X1340Y31593D01*
X1450Y31608D01*
X1553Y31650D01*
X1642Y31718D01*
X1710Y31807D01*
X1752Y31910D01*
X1767Y32020D01*
X1752Y32130D01*
X1710Y32233D01*
X1642Y32322D01*
X1553Y32390D01*
X1450Y32432D01*
X1340Y32447D01*
D02*
G37*
G36*
X12890Y32031D02*
X12806Y32014D01*
X12734Y31966D01*
X12686Y31894D01*
X12669Y31810D01*
X12686Y31726D01*
X12734Y31654D01*
X12806Y31606D01*
X12890Y31589D01*
X12974Y31606D01*
X13046Y31654D01*
X13094Y31726D01*
X13111Y31810D01*
X13094Y31894D01*
X13046Y31966D01*
X12974Y32014D01*
X12890Y32031D01*
D02*
G37*
G36*
X26231Y32437D02*
X26120Y32422D01*
X26017Y32379D01*
X25929Y32312D01*
X25861Y32223D01*
X25818Y32120D01*
X25804Y32010D01*
X25818Y31899D01*
X25861Y31796D01*
X25929Y31708D01*
X26017Y31640D01*
X26120Y31597D01*
X26231Y31583D01*
X26341Y31597D01*
X26444Y31640D01*
X26532Y31708D01*
X26600Y31796D01*
X26643Y31899D01*
X26657Y32010D01*
X26643Y32120D01*
X26600Y32223D01*
X26532Y32312D01*
X26444Y32379D01*
X26341Y32422D01*
X26231Y32437D01*
D02*
G37*
G36*
X25231D02*
X25120Y32422D01*
X25017Y32379D01*
X24929Y32312D01*
X24861Y32223D01*
X24818Y32120D01*
X24804Y32010D01*
X24818Y31899D01*
X24861Y31796D01*
X24929Y31708D01*
X25017Y31640D01*
X25120Y31597D01*
X25231Y31583D01*
X25341Y31597D01*
X25444Y31640D01*
X25532Y31708D01*
X25600Y31796D01*
X25643Y31899D01*
X25657Y32010D01*
X25643Y32120D01*
X25600Y32223D01*
X25532Y32312D01*
X25444Y32379D01*
X25341Y32422D01*
X25231Y32437D01*
D02*
G37*
G36*
X20390Y32011D02*
X20306Y31994D01*
X20234Y31946D01*
X20186Y31874D01*
X20169Y31790D01*
X20186Y31706D01*
X20234Y31634D01*
X20306Y31586D01*
X20390Y31569D01*
X20474Y31586D01*
X20546Y31634D01*
X20594Y31706D01*
X20611Y31790D01*
X20594Y31874D01*
X20546Y31946D01*
X20474Y31994D01*
X20390Y32011D01*
D02*
G37*
G36*
X6020Y31581D02*
X5936Y31564D01*
X5864Y31516D01*
X5816Y31444D01*
X5799Y31360D01*
X5816Y31276D01*
X5864Y31204D01*
X5936Y31156D01*
X6020Y31139D01*
X6104Y31156D01*
X6176Y31204D01*
X6224Y31276D01*
X6241Y31360D01*
X6224Y31444D01*
X6176Y31516D01*
X6104Y31564D01*
X6020Y31581D01*
D02*
G37*
G36*
X7823Y31874D02*
X7075D01*
Y31126D01*
X7823D01*
Y31874D01*
D02*
G37*
G36*
X25231Y31437D02*
X25120Y31422D01*
X25017Y31379D01*
X24929Y31312D01*
X24861Y31223D01*
X24818Y31120D01*
X24804Y31010D01*
X24818Y30899D01*
X24861Y30796D01*
X24929Y30708D01*
X25017Y30640D01*
X25120Y30597D01*
X25231Y30583D01*
X25341Y30597D01*
X25444Y30640D01*
X25532Y30708D01*
X25600Y30796D01*
X25643Y30899D01*
X25657Y31010D01*
X25643Y31120D01*
X25600Y31223D01*
X25532Y31312D01*
X25444Y31379D01*
X25341Y31422D01*
X25231Y31437D01*
D02*
G37*
G36*
X7449Y30877D02*
X7352Y30864D01*
X7261Y30827D01*
X7183Y30767D01*
X7123Y30689D01*
X7085Y30598D01*
X7072Y30500D01*
X7085Y30402D01*
X7123Y30311D01*
X7183Y30233D01*
X7261Y30173D01*
X7352Y30136D01*
X7449Y30123D01*
X7547Y30136D01*
X7638Y30173D01*
X7716Y30233D01*
X7776Y30311D01*
X7814Y30402D01*
X7827Y30500D01*
X7814Y30598D01*
X7776Y30689D01*
X7716Y30767D01*
X7638Y30827D01*
X7547Y30864D01*
X7449Y30877D01*
D02*
G37*
G36*
X1340Y30447D02*
X1230Y30432D01*
X1127Y30390D01*
X1038Y30322D01*
X970Y30233D01*
X928Y30130D01*
X913Y30020D01*
X928Y29910D01*
X970Y29807D01*
X1038Y29718D01*
X1127Y29650D01*
X1230Y29608D01*
X1340Y29593D01*
X1450Y29608D01*
X1553Y29650D01*
X1642Y29718D01*
X1710Y29807D01*
X1752Y29910D01*
X1767Y30020D01*
X1752Y30130D01*
X1710Y30233D01*
X1642Y30322D01*
X1553Y30390D01*
X1450Y30432D01*
X1340Y30447D01*
D02*
G37*
G36*
X26231Y30437D02*
X26120Y30422D01*
X26017Y30379D01*
X25929Y30312D01*
X25861Y30223D01*
X25818Y30120D01*
X25804Y30010D01*
X25818Y29899D01*
X25861Y29796D01*
X25929Y29708D01*
X26017Y29640D01*
X26120Y29597D01*
X26231Y29583D01*
X26341Y29597D01*
X26444Y29640D01*
X26532Y29708D01*
X26600Y29796D01*
X26643Y29899D01*
X26657Y30010D01*
X26643Y30120D01*
X26600Y30223D01*
X26532Y30312D01*
X26444Y30379D01*
X26341Y30422D01*
X26231Y30437D01*
D02*
G37*
G36*
X25231D02*
X25120Y30422D01*
X25017Y30379D01*
X24929Y30312D01*
X24861Y30223D01*
X24818Y30120D01*
X24804Y30010D01*
X24818Y29899D01*
X24861Y29796D01*
X24929Y29708D01*
X25017Y29640D01*
X25120Y29597D01*
X25231Y29583D01*
X25341Y29597D01*
X25444Y29640D01*
X25532Y29708D01*
X25600Y29796D01*
X25643Y29899D01*
X25657Y30010D01*
X25643Y30120D01*
X25600Y30223D01*
X25532Y30312D01*
X25444Y30379D01*
X25341Y30422D01*
X25231Y30437D01*
D02*
G37*
G36*
X7449Y29877D02*
X7352Y29864D01*
X7261Y29827D01*
X7183Y29767D01*
X7123Y29689D01*
X7085Y29598D01*
X7072Y29500D01*
X7085Y29402D01*
X7123Y29311D01*
X7183Y29233D01*
X7261Y29173D01*
X7352Y29136D01*
X7449Y29123D01*
X7547Y29136D01*
X7638Y29173D01*
X7716Y29233D01*
X7776Y29311D01*
X7814Y29402D01*
X7827Y29500D01*
X7814Y29598D01*
X7776Y29689D01*
X7716Y29767D01*
X7638Y29827D01*
X7547Y29864D01*
X7449Y29877D01*
D02*
G37*
G36*
X2340Y29447D02*
X2230Y29432D01*
X2127Y29390D01*
X2038Y29322D01*
X1970Y29233D01*
X1928Y29130D01*
X1913Y29020D01*
X1928Y28910D01*
X1970Y28807D01*
X2038Y28718D01*
X2127Y28650D01*
X2230Y28608D01*
X2340Y28593D01*
X2450Y28608D01*
X2553Y28650D01*
X2642Y28718D01*
X2710Y28807D01*
X2752Y28910D01*
X2767Y29020D01*
X2752Y29130D01*
X2710Y29233D01*
X2642Y29322D01*
X2553Y29390D01*
X2450Y29432D01*
X2340Y29447D01*
D02*
G37*
G36*
X1340D02*
X1230Y29432D01*
X1127Y29390D01*
X1038Y29322D01*
X970Y29233D01*
X928Y29130D01*
X913Y29020D01*
X928Y28910D01*
X970Y28807D01*
X1038Y28718D01*
X1127Y28650D01*
X1230Y28608D01*
X1340Y28593D01*
X1450Y28608D01*
X1553Y28650D01*
X1642Y28718D01*
X1710Y28807D01*
X1752Y28910D01*
X1767Y29020D01*
X1752Y29130D01*
X1710Y29233D01*
X1642Y29322D01*
X1553Y29390D01*
X1450Y29432D01*
X1340Y29447D01*
D02*
G37*
G36*
X26231Y29437D02*
X26120Y29422D01*
X26017Y29379D01*
X25929Y29312D01*
X25861Y29223D01*
X25818Y29120D01*
X25804Y29010D01*
X25818Y28899D01*
X25861Y28796D01*
X25929Y28708D01*
X26017Y28640D01*
X26120Y28597D01*
X26231Y28583D01*
X26341Y28597D01*
X26444Y28640D01*
X26532Y28708D01*
X26600Y28796D01*
X26643Y28899D01*
X26657Y29010D01*
X26643Y29120D01*
X26600Y29223D01*
X26532Y29312D01*
X26444Y29379D01*
X26341Y29422D01*
X26231Y29437D01*
D02*
G37*
G36*
X25231D02*
X25120Y29422D01*
X25017Y29379D01*
X24929Y29312D01*
X24861Y29223D01*
X24818Y29120D01*
X24804Y29010D01*
X24818Y28899D01*
X24861Y28796D01*
X24929Y28708D01*
X25017Y28640D01*
X25120Y28597D01*
X25231Y28583D01*
X25341Y28597D01*
X25444Y28640D01*
X25532Y28708D01*
X25600Y28796D01*
X25643Y28899D01*
X25657Y29010D01*
X25643Y29120D01*
X25600Y29223D01*
X25532Y29312D01*
X25444Y29379D01*
X25341Y29422D01*
X25231Y29437D01*
D02*
G37*
G36*
X2340Y28447D02*
X2230Y28432D01*
X2127Y28390D01*
X2038Y28322D01*
X1970Y28233D01*
X1928Y28130D01*
X1913Y28020D01*
X1928Y27910D01*
X1970Y27807D01*
X2038Y27718D01*
X2127Y27650D01*
X2230Y27608D01*
X2340Y27593D01*
X2450Y27608D01*
X2553Y27650D01*
X2642Y27718D01*
X2710Y27807D01*
X2752Y27910D01*
X2767Y28020D01*
X2752Y28130D01*
X2710Y28233D01*
X2642Y28322D01*
X2553Y28390D01*
X2450Y28432D01*
X2340Y28447D01*
D02*
G37*
G36*
X1340D02*
X1230Y28432D01*
X1127Y28390D01*
X1038Y28322D01*
X970Y28233D01*
X928Y28130D01*
X913Y28020D01*
X928Y27910D01*
X970Y27807D01*
X1038Y27718D01*
X1127Y27650D01*
X1230Y27608D01*
X1340Y27593D01*
X1450Y27608D01*
X1553Y27650D01*
X1642Y27718D01*
X1710Y27807D01*
X1752Y27910D01*
X1767Y28020D01*
X1752Y28130D01*
X1710Y28233D01*
X1642Y28322D01*
X1553Y28390D01*
X1450Y28432D01*
X1340Y28447D01*
D02*
G37*
G36*
X26231Y28437D02*
X26120Y28422D01*
X26017Y28379D01*
X25929Y28312D01*
X25861Y28223D01*
X25818Y28120D01*
X25804Y28010D01*
X25818Y27899D01*
X25861Y27796D01*
X25929Y27708D01*
X26017Y27640D01*
X26120Y27597D01*
X26231Y27583D01*
X26341Y27597D01*
X26444Y27640D01*
X26532Y27708D01*
X26600Y27796D01*
X26643Y27899D01*
X26657Y28010D01*
X26643Y28120D01*
X26600Y28223D01*
X26532Y28312D01*
X26444Y28379D01*
X26341Y28422D01*
X26231Y28437D01*
D02*
G37*
G36*
X25231D02*
X25120Y28422D01*
X25017Y28379D01*
X24929Y28312D01*
X24861Y28223D01*
X24818Y28120D01*
X24804Y28010D01*
X24818Y27899D01*
X24861Y27796D01*
X24929Y27708D01*
X25017Y27640D01*
X25120Y27597D01*
X25231Y27583D01*
X25341Y27597D01*
X25444Y27640D01*
X25532Y27708D01*
X25600Y27796D01*
X25643Y27899D01*
X25657Y28010D01*
X25643Y28120D01*
X25600Y28223D01*
X25532Y28312D01*
X25444Y28379D01*
X25341Y28422D01*
X25231Y28437D01*
D02*
G37*
G36*
X2340Y27447D02*
X2230Y27432D01*
X2127Y27390D01*
X2038Y27322D01*
X1970Y27233D01*
X1928Y27130D01*
X1913Y27020D01*
X1928Y26910D01*
X1970Y26807D01*
X2038Y26718D01*
X2127Y26650D01*
X2230Y26608D01*
X2340Y26593D01*
X2450Y26608D01*
X2553Y26650D01*
X2642Y26718D01*
X2710Y26807D01*
X2752Y26910D01*
X2767Y27020D01*
X2752Y27130D01*
X2710Y27233D01*
X2642Y27322D01*
X2553Y27390D01*
X2450Y27432D01*
X2340Y27447D01*
D02*
G37*
G36*
X1340D02*
X1230Y27432D01*
X1127Y27390D01*
X1038Y27322D01*
X970Y27233D01*
X928Y27130D01*
X913Y27020D01*
X928Y26910D01*
X970Y26807D01*
X1038Y26718D01*
X1127Y26650D01*
X1230Y26608D01*
X1340Y26593D01*
X1450Y26608D01*
X1553Y26650D01*
X1642Y26718D01*
X1710Y26807D01*
X1752Y26910D01*
X1767Y27020D01*
X1752Y27130D01*
X1710Y27233D01*
X1642Y27322D01*
X1553Y27390D01*
X1450Y27432D01*
X1340Y27447D01*
D02*
G37*
G36*
X26231Y27437D02*
X26120Y27422D01*
X26017Y27379D01*
X25929Y27312D01*
X25861Y27223D01*
X25818Y27120D01*
X25804Y27010D01*
X25818Y26899D01*
X25861Y26796D01*
X25929Y26708D01*
X26017Y26640D01*
X26120Y26597D01*
X26231Y26583D01*
X26341Y26597D01*
X26444Y26640D01*
X26532Y26708D01*
X26600Y26796D01*
X26643Y26899D01*
X26657Y27010D01*
X26643Y27120D01*
X26600Y27223D01*
X26532Y27312D01*
X26444Y27379D01*
X26341Y27422D01*
X26231Y27437D01*
D02*
G37*
G36*
X25231D02*
X25120Y27422D01*
X25017Y27379D01*
X24929Y27312D01*
X24861Y27223D01*
X24818Y27120D01*
X24804Y27010D01*
X24818Y26899D01*
X24861Y26796D01*
X24929Y26708D01*
X25017Y26640D01*
X25120Y26597D01*
X25231Y26583D01*
X25341Y26597D01*
X25444Y26640D01*
X25532Y26708D01*
X25600Y26796D01*
X25643Y26899D01*
X25657Y27010D01*
X25643Y27120D01*
X25600Y27223D01*
X25532Y27312D01*
X25444Y27379D01*
X25341Y27422D01*
X25231Y27437D01*
D02*
G37*
G36*
X2340Y26447D02*
X2230Y26432D01*
X2127Y26390D01*
X2038Y26322D01*
X1970Y26233D01*
X1928Y26130D01*
X1913Y26020D01*
X1928Y25910D01*
X1970Y25807D01*
X2038Y25718D01*
X2127Y25650D01*
X2230Y25608D01*
X2340Y25593D01*
X2450Y25608D01*
X2553Y25650D01*
X2642Y25718D01*
X2710Y25807D01*
X2752Y25910D01*
X2767Y26020D01*
X2752Y26130D01*
X2710Y26233D01*
X2642Y26322D01*
X2553Y26390D01*
X2450Y26432D01*
X2340Y26447D01*
D02*
G37*
G36*
X1340D02*
X1230Y26432D01*
X1127Y26390D01*
X1038Y26322D01*
X970Y26233D01*
X928Y26130D01*
X913Y26020D01*
X928Y25910D01*
X970Y25807D01*
X1038Y25718D01*
X1127Y25650D01*
X1230Y25608D01*
X1340Y25593D01*
X1450Y25608D01*
X1553Y25650D01*
X1642Y25718D01*
X1710Y25807D01*
X1752Y25910D01*
X1767Y26020D01*
X1752Y26130D01*
X1710Y26233D01*
X1642Y26322D01*
X1553Y26390D01*
X1450Y26432D01*
X1340Y26447D01*
D02*
G37*
G36*
X26231Y26437D02*
X26120Y26422D01*
X26017Y26379D01*
X25929Y26312D01*
X25861Y26223D01*
X25818Y26120D01*
X25804Y26010D01*
X25818Y25899D01*
X25861Y25796D01*
X25929Y25708D01*
X26017Y25640D01*
X26120Y25597D01*
X26231Y25583D01*
X26341Y25597D01*
X26444Y25640D01*
X26532Y25708D01*
X26600Y25796D01*
X26643Y25899D01*
X26657Y26010D01*
X26643Y26120D01*
X26600Y26223D01*
X26532Y26312D01*
X26444Y26379D01*
X26341Y26422D01*
X26231Y26437D01*
D02*
G37*
G36*
X25231D02*
X25120Y26422D01*
X25017Y26379D01*
X24929Y26312D01*
X24861Y26223D01*
X24818Y26120D01*
X24804Y26010D01*
X24818Y25899D01*
X24861Y25796D01*
X24929Y25708D01*
X25017Y25640D01*
X25120Y25597D01*
X25231Y25583D01*
X25341Y25597D01*
X25444Y25640D01*
X25532Y25708D01*
X25600Y25796D01*
X25643Y25899D01*
X25657Y26010D01*
X25643Y26120D01*
X25600Y26223D01*
X25532Y26312D01*
X25444Y26379D01*
X25341Y26422D01*
X25231Y26437D01*
D02*
G37*
G36*
X6360Y26307D02*
X6275Y26295D01*
X6196Y26263D01*
X6128Y26211D01*
X6076Y26143D01*
X6044Y26064D01*
X6032Y25979D01*
Y25841D01*
X6044Y25756D01*
X6076Y25677D01*
X6128Y25609D01*
X6196Y25557D01*
X6275Y25525D01*
X6360Y25514D01*
X6445Y25525D01*
X6524Y25557D01*
X6592Y25609D01*
X6644Y25677D01*
X6676Y25756D01*
X6688Y25841D01*
Y25979D01*
X6676Y26064D01*
X6644Y26143D01*
X6592Y26211D01*
X6524Y26263D01*
X6445Y26295D01*
X6360Y26307D01*
D02*
G37*
G36*
X12800Y25623D02*
X12706Y25611D01*
X12618Y25575D01*
X12543Y25517D01*
X12485Y25442D01*
X12449Y25354D01*
X12437Y25260D01*
X12449Y25166D01*
X12485Y25078D01*
X12543Y25003D01*
X12618Y24945D01*
X12706Y24909D01*
X12800Y24897D01*
X12894Y24909D01*
X12982Y24945D01*
X13057Y25003D01*
X13115Y25078D01*
X13151Y25166D01*
X13163Y25260D01*
X13151Y25354D01*
X13115Y25442D01*
X13057Y25517D01*
X12982Y25575D01*
X12894Y25611D01*
X12800Y25623D01*
D02*
G37*
G36*
X11800D02*
X11706Y25611D01*
X11618Y25575D01*
X11543Y25517D01*
X11485Y25442D01*
X11449Y25354D01*
X11437Y25260D01*
X11449Y25166D01*
X11485Y25078D01*
X11543Y25003D01*
X11618Y24945D01*
X11706Y24909D01*
X11800Y24897D01*
X11894Y24909D01*
X11982Y24945D01*
X12057Y25003D01*
X12115Y25078D01*
X12151Y25166D01*
X12163Y25260D01*
X12151Y25354D01*
X12115Y25442D01*
X12057Y25517D01*
X11982Y25575D01*
X11894Y25611D01*
X11800Y25623D01*
D02*
G37*
G36*
X10800D02*
X10706Y25611D01*
X10618Y25575D01*
X10543Y25517D01*
X10485Y25442D01*
X10449Y25354D01*
X10437Y25260D01*
X10449Y25166D01*
X10485Y25078D01*
X10543Y25003D01*
X10618Y24945D01*
X10706Y24909D01*
X10800Y24897D01*
X10894Y24909D01*
X10982Y24945D01*
X11057Y25003D01*
X11115Y25078D01*
X11151Y25166D01*
X11163Y25260D01*
X11151Y25354D01*
X11115Y25442D01*
X11057Y25517D01*
X10982Y25575D01*
X10894Y25611D01*
X10800Y25623D01*
D02*
G37*
G36*
X9800D02*
X9706Y25611D01*
X9618Y25575D01*
X9543Y25517D01*
X9485Y25442D01*
X9449Y25354D01*
X9437Y25260D01*
X9449Y25166D01*
X9485Y25078D01*
X9543Y25003D01*
X9618Y24945D01*
X9706Y24909D01*
X9800Y24897D01*
X9894Y24909D01*
X9982Y24945D01*
X10057Y25003D01*
X10115Y25078D01*
X10151Y25166D01*
X10163Y25260D01*
X10151Y25354D01*
X10115Y25442D01*
X10057Y25517D01*
X9982Y25575D01*
X9894Y25611D01*
X9800Y25623D01*
D02*
G37*
G36*
X19920Y25613D02*
X19826Y25601D01*
X19738Y25565D01*
X19663Y25507D01*
X19605Y25432D01*
X19569Y25344D01*
X19557Y25250D01*
X19569Y25156D01*
X19605Y25068D01*
X19663Y24993D01*
X19738Y24935D01*
X19826Y24899D01*
X19920Y24887D01*
X20014Y24899D01*
X20102Y24935D01*
X20177Y24993D01*
X20235Y25068D01*
X20271Y25156D01*
X20283Y25250D01*
X20271Y25344D01*
X20235Y25432D01*
X20177Y25507D01*
X20102Y25565D01*
X20014Y25601D01*
X19920Y25613D01*
D02*
G37*
G36*
X17920D02*
X17826Y25601D01*
X17738Y25565D01*
X17663Y25507D01*
X17605Y25432D01*
X17569Y25344D01*
X17557Y25250D01*
X17569Y25156D01*
X17605Y25068D01*
X17663Y24993D01*
X17738Y24935D01*
X17826Y24899D01*
X17920Y24887D01*
X18014Y24899D01*
X18102Y24935D01*
X18177Y24993D01*
X18235Y25068D01*
X18271Y25156D01*
X18283Y25250D01*
X18271Y25344D01*
X18235Y25432D01*
X18177Y25507D01*
X18102Y25565D01*
X18014Y25601D01*
X17920Y25613D01*
D02*
G37*
G36*
X16920D02*
X16826Y25601D01*
X16738Y25565D01*
X16663Y25507D01*
X16605Y25432D01*
X16569Y25344D01*
X16557Y25250D01*
X16569Y25156D01*
X16605Y25068D01*
X16663Y24993D01*
X16738Y24935D01*
X16826Y24899D01*
X16920Y24887D01*
X17014Y24899D01*
X17102Y24935D01*
X17177Y24993D01*
X17235Y25068D01*
X17271Y25156D01*
X17283Y25250D01*
X17271Y25344D01*
X17235Y25432D01*
X17177Y25507D01*
X17102Y25565D01*
X17014Y25601D01*
X16920Y25613D01*
D02*
G37*
G36*
X2340Y25447D02*
X2230Y25432D01*
X2127Y25390D01*
X2038Y25322D01*
X1970Y25233D01*
X1928Y25130D01*
X1913Y25020D01*
X1928Y24910D01*
X1970Y24807D01*
X2038Y24718D01*
X2127Y24650D01*
X2230Y24608D01*
X2340Y24593D01*
X2450Y24608D01*
X2553Y24650D01*
X2642Y24718D01*
X2710Y24807D01*
X2752Y24910D01*
X2767Y25020D01*
X2752Y25130D01*
X2710Y25233D01*
X2642Y25322D01*
X2553Y25390D01*
X2450Y25432D01*
X2340Y25447D01*
D02*
G37*
G36*
X1340D02*
X1230Y25432D01*
X1127Y25390D01*
X1038Y25322D01*
X970Y25233D01*
X928Y25130D01*
X913Y25020D01*
X928Y24910D01*
X970Y24807D01*
X1038Y24718D01*
X1127Y24650D01*
X1230Y24608D01*
X1340Y24593D01*
X1450Y24608D01*
X1553Y24650D01*
X1642Y24718D01*
X1710Y24807D01*
X1752Y24910D01*
X1767Y25020D01*
X1752Y25130D01*
X1710Y25233D01*
X1642Y25322D01*
X1553Y25390D01*
X1450Y25432D01*
X1340Y25447D01*
D02*
G37*
G36*
X26231Y25437D02*
X26120Y25422D01*
X26017Y25379D01*
X25929Y25312D01*
X25861Y25223D01*
X25818Y25120D01*
X25804Y25010D01*
X25818Y24899D01*
X25861Y24796D01*
X25929Y24708D01*
X26017Y24640D01*
X26120Y24597D01*
X26231Y24583D01*
X26341Y24597D01*
X26444Y24640D01*
X26532Y24708D01*
X26600Y24796D01*
X26643Y24899D01*
X26657Y25010D01*
X26643Y25120D01*
X26600Y25223D01*
X26532Y25312D01*
X26444Y25379D01*
X26341Y25422D01*
X26231Y25437D01*
D02*
G37*
G36*
X25231D02*
X25120Y25422D01*
X25017Y25379D01*
X24929Y25312D01*
X24861Y25223D01*
X24818Y25120D01*
X24804Y25010D01*
X24818Y24899D01*
X24861Y24796D01*
X24929Y24708D01*
X25017Y24640D01*
X25120Y24597D01*
X25231Y24583D01*
X25341Y24597D01*
X25444Y24640D01*
X25532Y24708D01*
X25600Y24796D01*
X25643Y24899D01*
X25657Y25010D01*
X25643Y25120D01*
X25600Y25223D01*
X25532Y25312D01*
X25444Y25379D01*
X25341Y25422D01*
X25231Y25437D01*
D02*
G37*
G36*
X2340Y24447D02*
X2230Y24432D01*
X2127Y24390D01*
X2038Y24322D01*
X1970Y24233D01*
X1928Y24130D01*
X1913Y24020D01*
X1928Y23910D01*
X1970Y23807D01*
X2038Y23718D01*
X2127Y23650D01*
X2230Y23608D01*
X2340Y23593D01*
X2450Y23608D01*
X2553Y23650D01*
X2642Y23718D01*
X2710Y23807D01*
X2752Y23910D01*
X2767Y24020D01*
X2752Y24130D01*
X2710Y24233D01*
X2642Y24322D01*
X2553Y24390D01*
X2450Y24432D01*
X2340Y24447D01*
D02*
G37*
G36*
X1340D02*
X1230Y24432D01*
X1127Y24390D01*
X1038Y24322D01*
X970Y24233D01*
X928Y24130D01*
X913Y24020D01*
X928Y23910D01*
X970Y23807D01*
X1038Y23718D01*
X1127Y23650D01*
X1230Y23608D01*
X1340Y23593D01*
X1450Y23608D01*
X1553Y23650D01*
X1642Y23718D01*
X1710Y23807D01*
X1752Y23910D01*
X1767Y24020D01*
X1752Y24130D01*
X1710Y24233D01*
X1642Y24322D01*
X1553Y24390D01*
X1450Y24432D01*
X1340Y24447D01*
D02*
G37*
G36*
X26231Y24437D02*
X26120Y24422D01*
X26017Y24379D01*
X25929Y24312D01*
X25861Y24223D01*
X25818Y24120D01*
X25804Y24010D01*
X25818Y23899D01*
X25861Y23796D01*
X25929Y23708D01*
X26017Y23640D01*
X26120Y23597D01*
X26231Y23583D01*
X26341Y23597D01*
X26444Y23640D01*
X26532Y23708D01*
X26600Y23796D01*
X26643Y23899D01*
X26657Y24010D01*
X26643Y24120D01*
X26600Y24223D01*
X26532Y24312D01*
X26444Y24379D01*
X26341Y24422D01*
X26231Y24437D01*
D02*
G37*
G36*
X2340Y23447D02*
X2230Y23432D01*
X2127Y23390D01*
X2038Y23322D01*
X1970Y23233D01*
X1928Y23130D01*
X1913Y23020D01*
X1928Y22910D01*
X1970Y22807D01*
X2038Y22718D01*
X2127Y22650D01*
X2230Y22608D01*
X2340Y22593D01*
X2450Y22608D01*
X2553Y22650D01*
X2642Y22718D01*
X2710Y22807D01*
X2752Y22910D01*
X2767Y23020D01*
X2752Y23130D01*
X2710Y23233D01*
X2642Y23322D01*
X2553Y23390D01*
X2450Y23432D01*
X2340Y23447D01*
D02*
G37*
G36*
X1340D02*
X1230Y23432D01*
X1127Y23390D01*
X1038Y23322D01*
X970Y23233D01*
X928Y23130D01*
X913Y23020D01*
X928Y22910D01*
X970Y22807D01*
X1038Y22718D01*
X1127Y22650D01*
X1230Y22608D01*
X1340Y22593D01*
X1450Y22608D01*
X1553Y22650D01*
X1642Y22718D01*
X1710Y22807D01*
X1752Y22910D01*
X1767Y23020D01*
X1752Y23130D01*
X1710Y23233D01*
X1642Y23322D01*
X1553Y23390D01*
X1450Y23432D01*
X1340Y23447D01*
D02*
G37*
G36*
X11800Y22623D02*
X11706Y22611D01*
X11618Y22575D01*
X11543Y22517D01*
X11485Y22442D01*
X11449Y22354D01*
X11437Y22260D01*
X11449Y22166D01*
X11485Y22078D01*
X11543Y22003D01*
X11618Y21945D01*
X11706Y21909D01*
X11800Y21897D01*
X11894Y21909D01*
X11982Y21945D01*
X12057Y22003D01*
X12115Y22078D01*
X12151Y22166D01*
X12163Y22260D01*
X12151Y22354D01*
X12115Y22442D01*
X12057Y22517D01*
X11982Y22575D01*
X11894Y22611D01*
X11800Y22623D01*
D02*
G37*
G36*
X10800D02*
X10706Y22611D01*
X10618Y22575D01*
X10543Y22517D01*
X10485Y22442D01*
X10449Y22354D01*
X10437Y22260D01*
X10449Y22166D01*
X10485Y22078D01*
X10543Y22003D01*
X10618Y21945D01*
X10706Y21909D01*
X10800Y21897D01*
X10894Y21909D01*
X10982Y21945D01*
X11057Y22003D01*
X11115Y22078D01*
X11151Y22166D01*
X11163Y22260D01*
X11151Y22354D01*
X11115Y22442D01*
X11057Y22517D01*
X10982Y22575D01*
X10894Y22611D01*
X10800Y22623D01*
D02*
G37*
G36*
X9800D02*
X9706Y22611D01*
X9618Y22575D01*
X9543Y22517D01*
X9485Y22442D01*
X9449Y22354D01*
X9437Y22260D01*
X9449Y22166D01*
X9485Y22078D01*
X9543Y22003D01*
X9618Y21945D01*
X9706Y21909D01*
X9800Y21897D01*
X9894Y21909D01*
X9982Y21945D01*
X10057Y22003D01*
X10115Y22078D01*
X10151Y22166D01*
X10163Y22260D01*
X10151Y22354D01*
X10115Y22442D01*
X10057Y22517D01*
X9982Y22575D01*
X9894Y22611D01*
X9800Y22623D01*
D02*
G37*
G36*
X19920Y22613D02*
X19826Y22601D01*
X19738Y22565D01*
X19663Y22507D01*
X19605Y22432D01*
X19569Y22344D01*
X19557Y22250D01*
X19569Y22156D01*
X19605Y22068D01*
X19663Y21993D01*
X19738Y21935D01*
X19826Y21899D01*
X19920Y21887D01*
X20014Y21899D01*
X20102Y21935D01*
X20177Y21993D01*
X20235Y22068D01*
X20271Y22156D01*
X20283Y22250D01*
X20271Y22344D01*
X20235Y22432D01*
X20177Y22507D01*
X20102Y22565D01*
X20014Y22601D01*
X19920Y22613D01*
D02*
G37*
G36*
X18920D02*
X18826Y22601D01*
X18738Y22565D01*
X18663Y22507D01*
X18605Y22432D01*
X18569Y22344D01*
X18557Y22250D01*
X18569Y22156D01*
X18605Y22068D01*
X18663Y21993D01*
X18738Y21935D01*
X18826Y21899D01*
X18920Y21887D01*
X19014Y21899D01*
X19102Y21935D01*
X19177Y21993D01*
X19235Y22068D01*
X19271Y22156D01*
X19283Y22250D01*
X19271Y22344D01*
X19235Y22432D01*
X19177Y22507D01*
X19102Y22565D01*
X19014Y22601D01*
X18920Y22613D01*
D02*
G37*
G36*
X17920D02*
X17826Y22601D01*
X17738Y22565D01*
X17663Y22507D01*
X17605Y22432D01*
X17569Y22344D01*
X17557Y22250D01*
X17569Y22156D01*
X17605Y22068D01*
X17663Y21993D01*
X17738Y21935D01*
X17826Y21899D01*
X17920Y21887D01*
X18014Y21899D01*
X18102Y21935D01*
X18177Y21993D01*
X18235Y22068D01*
X18271Y22156D01*
X18283Y22250D01*
X18271Y22344D01*
X18235Y22432D01*
X18177Y22507D01*
X18102Y22565D01*
X18014Y22601D01*
X17920Y22613D01*
D02*
G37*
G36*
X16920D02*
X16826Y22601D01*
X16738Y22565D01*
X16663Y22507D01*
X16605Y22432D01*
X16569Y22344D01*
X16557Y22250D01*
X16569Y22156D01*
X16605Y22068D01*
X16663Y21993D01*
X16738Y21935D01*
X16826Y21899D01*
X16920Y21887D01*
X17014Y21899D01*
X17102Y21935D01*
X17177Y21993D01*
X17235Y22068D01*
X17271Y22156D01*
X17283Y22250D01*
X17271Y22344D01*
X17235Y22432D01*
X17177Y22507D01*
X17102Y22565D01*
X17014Y22601D01*
X16920Y22613D01*
D02*
G37*
G36*
X2340Y22447D02*
X2230Y22432D01*
X2127Y22390D01*
X2038Y22322D01*
X1970Y22233D01*
X1928Y22130D01*
X1913Y22020D01*
X1928Y21910D01*
X1970Y21807D01*
X2038Y21718D01*
X2127Y21650D01*
X2230Y21608D01*
X2340Y21593D01*
X2450Y21608D01*
X2553Y21650D01*
X2642Y21718D01*
X2710Y21807D01*
X2752Y21910D01*
X2767Y22020D01*
X2752Y22130D01*
X2710Y22233D01*
X2642Y22322D01*
X2553Y22390D01*
X2450Y22432D01*
X2340Y22447D01*
D02*
G37*
G36*
X1340D02*
X1230Y22432D01*
X1127Y22390D01*
X1038Y22322D01*
X970Y22233D01*
X928Y22130D01*
X913Y22020D01*
X928Y21910D01*
X970Y21807D01*
X1038Y21718D01*
X1127Y21650D01*
X1230Y21608D01*
X1340Y21593D01*
X1450Y21608D01*
X1553Y21650D01*
X1642Y21718D01*
X1710Y21807D01*
X1752Y21910D01*
X1767Y22020D01*
X1752Y22130D01*
X1710Y22233D01*
X1642Y22322D01*
X1553Y22390D01*
X1450Y22432D01*
X1340Y22447D01*
D02*
G37*
G36*
X26231Y22437D02*
X26120Y22422D01*
X26017Y22379D01*
X25929Y22312D01*
X25861Y22223D01*
X25818Y22120D01*
X25804Y22010D01*
X25818Y21899D01*
X25861Y21796D01*
X25929Y21708D01*
X26017Y21640D01*
X26120Y21597D01*
X26231Y21583D01*
X26341Y21597D01*
X26444Y21640D01*
X26532Y21708D01*
X26600Y21796D01*
X26643Y21899D01*
X26657Y22010D01*
X26643Y22120D01*
X26600Y22223D01*
X26532Y22312D01*
X26444Y22379D01*
X26341Y22422D01*
X26231Y22437D01*
D02*
G37*
G36*
X25231D02*
X25120Y22422D01*
X25017Y22379D01*
X24929Y22312D01*
X24861Y22223D01*
X24818Y22120D01*
X24804Y22010D01*
X24818Y21899D01*
X24861Y21796D01*
X24929Y21708D01*
X25017Y21640D01*
X25120Y21597D01*
X25231Y21583D01*
X25341Y21597D01*
X25444Y21640D01*
X25532Y21708D01*
X25600Y21796D01*
X25643Y21899D01*
X25657Y22010D01*
X25643Y22120D01*
X25600Y22223D01*
X25532Y22312D01*
X25444Y22379D01*
X25341Y22422D01*
X25231Y22437D01*
D02*
G37*
G36*
X2340Y21447D02*
X2230Y21432D01*
X2127Y21390D01*
X2038Y21322D01*
X1970Y21233D01*
X1928Y21130D01*
X1913Y21020D01*
X1928Y20910D01*
X1970Y20807D01*
X2038Y20718D01*
X2127Y20650D01*
X2230Y20608D01*
X2340Y20593D01*
X2450Y20608D01*
X2553Y20650D01*
X2642Y20718D01*
X2710Y20807D01*
X2752Y20910D01*
X2767Y21020D01*
X2752Y21130D01*
X2710Y21233D01*
X2642Y21322D01*
X2553Y21390D01*
X2450Y21432D01*
X2340Y21447D01*
D02*
G37*
G36*
X1340D02*
X1230Y21432D01*
X1127Y21390D01*
X1038Y21322D01*
X970Y21233D01*
X928Y21130D01*
X913Y21020D01*
X928Y20910D01*
X970Y20807D01*
X1038Y20718D01*
X1127Y20650D01*
X1230Y20608D01*
X1340Y20593D01*
X1450Y20608D01*
X1553Y20650D01*
X1642Y20718D01*
X1710Y20807D01*
X1752Y20910D01*
X1767Y21020D01*
X1752Y21130D01*
X1710Y21233D01*
X1642Y21322D01*
X1553Y21390D01*
X1450Y21432D01*
X1340Y21447D01*
D02*
G37*
G36*
X26231Y21437D02*
X26120Y21422D01*
X26017Y21379D01*
X25929Y21312D01*
X25861Y21223D01*
X25818Y21120D01*
X25804Y21010D01*
X25818Y20899D01*
X25861Y20796D01*
X25929Y20708D01*
X26017Y20640D01*
X26120Y20597D01*
X26231Y20583D01*
X26341Y20597D01*
X26444Y20640D01*
X26532Y20708D01*
X26600Y20796D01*
X26643Y20899D01*
X26657Y21010D01*
X26643Y21120D01*
X26600Y21223D01*
X26532Y21312D01*
X26444Y21379D01*
X26341Y21422D01*
X26231Y21437D01*
D02*
G37*
G36*
X2340Y20447D02*
X2230Y20432D01*
X2127Y20390D01*
X2038Y20322D01*
X1970Y20233D01*
X1928Y20130D01*
X1913Y20020D01*
X1928Y19910D01*
X1970Y19807D01*
X2038Y19718D01*
X2127Y19650D01*
X2230Y19608D01*
X2340Y19593D01*
X2450Y19608D01*
X2553Y19650D01*
X2642Y19718D01*
X2710Y19807D01*
X2752Y19910D01*
X2767Y20020D01*
X2752Y20130D01*
X2710Y20233D01*
X2642Y20322D01*
X2553Y20390D01*
X2450Y20432D01*
X2340Y20447D01*
D02*
G37*
G36*
X1340D02*
X1230Y20432D01*
X1127Y20390D01*
X1038Y20322D01*
X970Y20233D01*
X928Y20130D01*
X913Y20020D01*
X928Y19910D01*
X970Y19807D01*
X1038Y19718D01*
X1127Y19650D01*
X1230Y19608D01*
X1340Y19593D01*
X1450Y19608D01*
X1553Y19650D01*
X1642Y19718D01*
X1710Y19807D01*
X1752Y19910D01*
X1767Y20020D01*
X1752Y20130D01*
X1710Y20233D01*
X1642Y20322D01*
X1553Y20390D01*
X1450Y20432D01*
X1340Y20447D01*
D02*
G37*
G36*
X8210Y20247D02*
X8125Y20236D01*
X8046Y20203D01*
X7979Y20151D01*
X7927Y20084D01*
X7894Y20005D01*
X7883Y19920D01*
X7894Y19835D01*
X7927Y19756D01*
X7979Y19689D01*
X8046Y19637D01*
X8125Y19604D01*
X8210Y19593D01*
X8295Y19604D01*
X8374Y19637D01*
X8441Y19689D01*
X8493Y19756D01*
X8526Y19835D01*
X8537Y19920D01*
X8526Y20005D01*
X8493Y20084D01*
X8441Y20151D01*
X8374Y20203D01*
X8295Y20236D01*
X8210Y20247D01*
D02*
G37*
G36*
X26231Y20437D02*
X26120Y20422D01*
X26017Y20379D01*
X25929Y20312D01*
X25861Y20223D01*
X25818Y20120D01*
X25804Y20010D01*
X25818Y19899D01*
X25861Y19796D01*
X25929Y19708D01*
X26017Y19640D01*
X26120Y19597D01*
X26231Y19583D01*
X26341Y19597D01*
X26444Y19640D01*
X26532Y19708D01*
X26600Y19796D01*
X26643Y19899D01*
X26657Y20010D01*
X26643Y20120D01*
X26600Y20223D01*
X26532Y20312D01*
X26444Y20379D01*
X26341Y20422D01*
X26231Y20437D01*
D02*
G37*
G36*
X25231D02*
X25120Y20422D01*
X25017Y20379D01*
X24929Y20312D01*
X24861Y20223D01*
X24818Y20120D01*
X24804Y20010D01*
X24818Y19899D01*
X24861Y19796D01*
X24929Y19708D01*
X25017Y19640D01*
X25120Y19597D01*
X25231Y19583D01*
X25341Y19597D01*
X25444Y19640D01*
X25532Y19708D01*
X25600Y19796D01*
X25643Y19899D01*
X25657Y20010D01*
X25643Y20120D01*
X25600Y20223D01*
X25532Y20312D01*
X25444Y20379D01*
X25341Y20422D01*
X25231Y20437D01*
D02*
G37*
G36*
X10130Y20227D02*
X10045Y20216D01*
X9966Y20183D01*
X9899Y20131D01*
X9847Y20064D01*
X9814Y19985D01*
X9803Y19900D01*
X9814Y19815D01*
X9847Y19736D01*
X9899Y19669D01*
X9966Y19617D01*
X10045Y19584D01*
X10130Y19573D01*
X10215Y19584D01*
X10294Y19617D01*
X10361Y19669D01*
X10413Y19736D01*
X10446Y19815D01*
X10457Y19900D01*
X10446Y19985D01*
X10413Y20064D01*
X10361Y20131D01*
X10294Y20183D01*
X10215Y20216D01*
X10130Y20227D01*
D02*
G37*
G36*
X2340Y19447D02*
X2230Y19432D01*
X2127Y19390D01*
X2038Y19322D01*
X1970Y19233D01*
X1928Y19130D01*
X1913Y19020D01*
X1928Y18910D01*
X1970Y18807D01*
X2038Y18718D01*
X2127Y18650D01*
X2230Y18608D01*
X2340Y18593D01*
X2450Y18608D01*
X2553Y18650D01*
X2642Y18718D01*
X2710Y18807D01*
X2752Y18910D01*
X2767Y19020D01*
X2752Y19130D01*
X2710Y19233D01*
X2642Y19322D01*
X2553Y19390D01*
X2450Y19432D01*
X2340Y19447D01*
D02*
G37*
G36*
X1340D02*
X1230Y19432D01*
X1127Y19390D01*
X1038Y19322D01*
X970Y19233D01*
X928Y19130D01*
X913Y19020D01*
X928Y18910D01*
X970Y18807D01*
X1038Y18718D01*
X1127Y18650D01*
X1230Y18608D01*
X1340Y18593D01*
X1450Y18608D01*
X1553Y18650D01*
X1642Y18718D01*
X1710Y18807D01*
X1752Y18910D01*
X1767Y19020D01*
X1752Y19130D01*
X1710Y19233D01*
X1642Y19322D01*
X1553Y19390D01*
X1450Y19432D01*
X1340Y19447D01*
D02*
G37*
G36*
X26231Y19437D02*
X26120Y19422D01*
X26017Y19379D01*
X25929Y19312D01*
X25861Y19223D01*
X25818Y19120D01*
X25804Y19010D01*
X25818Y18899D01*
X25861Y18796D01*
X25929Y18708D01*
X26017Y18640D01*
X26120Y18597D01*
X26231Y18583D01*
X26341Y18597D01*
X26444Y18640D01*
X26532Y18708D01*
X26600Y18796D01*
X26643Y18899D01*
X26657Y19010D01*
X26643Y19120D01*
X26600Y19223D01*
X26532Y19312D01*
X26444Y19379D01*
X26341Y19422D01*
X26231Y19437D01*
D02*
G37*
G36*
X25231D02*
X25120Y19422D01*
X25017Y19379D01*
X24929Y19312D01*
X24861Y19223D01*
X24818Y19120D01*
X24804Y19010D01*
X24818Y18899D01*
X24861Y18796D01*
X24929Y18708D01*
X25017Y18640D01*
X25120Y18597D01*
X25231Y18583D01*
X25341Y18597D01*
X25444Y18640D01*
X25532Y18708D01*
X25600Y18796D01*
X25643Y18899D01*
X25657Y19010D01*
X25643Y19120D01*
X25600Y19223D01*
X25532Y19312D01*
X25444Y19379D01*
X25341Y19422D01*
X25231Y19437D01*
D02*
G37*
G36*
X23510Y18141D02*
X23426Y18124D01*
X23354Y18076D01*
X23306Y18004D01*
X23289Y17920D01*
X23306Y17836D01*
X23354Y17764D01*
X23426Y17716D01*
X23510Y17699D01*
X23594Y17716D01*
X23666Y17764D01*
X23714Y17836D01*
X23731Y17920D01*
X23714Y18004D01*
X23666Y18076D01*
X23594Y18124D01*
X23510Y18141D01*
D02*
G37*
G36*
X2340Y18447D02*
X2230Y18432D01*
X2127Y18390D01*
X2038Y18322D01*
X1970Y18233D01*
X1928Y18130D01*
X1913Y18020D01*
X1928Y17910D01*
X1970Y17807D01*
X2038Y17718D01*
X2127Y17650D01*
X2230Y17608D01*
X2340Y17593D01*
X2450Y17608D01*
X2553Y17650D01*
X2642Y17718D01*
X2710Y17807D01*
X2752Y17910D01*
X2767Y18020D01*
X2752Y18130D01*
X2710Y18233D01*
X2642Y18322D01*
X2553Y18390D01*
X2450Y18432D01*
X2340Y18447D01*
D02*
G37*
G36*
X1340D02*
X1230Y18432D01*
X1127Y18390D01*
X1038Y18322D01*
X970Y18233D01*
X928Y18130D01*
X913Y18020D01*
X928Y17910D01*
X970Y17807D01*
X1038Y17718D01*
X1127Y17650D01*
X1230Y17608D01*
X1340Y17593D01*
X1450Y17608D01*
X1553Y17650D01*
X1642Y17718D01*
X1710Y17807D01*
X1752Y17910D01*
X1767Y18020D01*
X1752Y18130D01*
X1710Y18233D01*
X1642Y18322D01*
X1553Y18390D01*
X1450Y18432D01*
X1340Y18447D01*
D02*
G37*
G36*
X26231Y18437D02*
X26120Y18422D01*
X26017Y18379D01*
X25929Y18312D01*
X25861Y18223D01*
X25818Y18120D01*
X25804Y18010D01*
X25818Y17899D01*
X25861Y17796D01*
X25929Y17708D01*
X26017Y17640D01*
X26120Y17597D01*
X26231Y17583D01*
X26341Y17597D01*
X26444Y17640D01*
X26532Y17708D01*
X26600Y17796D01*
X26643Y17899D01*
X26657Y18010D01*
X26643Y18120D01*
X26600Y18223D01*
X26532Y18312D01*
X26444Y18379D01*
X26341Y18422D01*
X26231Y18437D01*
D02*
G37*
G36*
X2340Y17447D02*
X2230Y17432D01*
X2127Y17390D01*
X2038Y17322D01*
X1970Y17233D01*
X1928Y17130D01*
X1913Y17020D01*
X1928Y16910D01*
X1970Y16807D01*
X2038Y16718D01*
X2127Y16650D01*
X2230Y16608D01*
X2340Y16593D01*
X2450Y16608D01*
X2553Y16650D01*
X2642Y16718D01*
X2710Y16807D01*
X2752Y16910D01*
X2767Y17020D01*
X2752Y17130D01*
X2710Y17233D01*
X2642Y17322D01*
X2553Y17390D01*
X2450Y17432D01*
X2340Y17447D01*
D02*
G37*
G36*
X1340D02*
X1230Y17432D01*
X1127Y17390D01*
X1038Y17322D01*
X970Y17233D01*
X928Y17130D01*
X913Y17020D01*
X928Y16910D01*
X970Y16807D01*
X1038Y16718D01*
X1127Y16650D01*
X1230Y16608D01*
X1340Y16593D01*
X1450Y16608D01*
X1553Y16650D01*
X1642Y16718D01*
X1710Y16807D01*
X1752Y16910D01*
X1767Y17020D01*
X1752Y17130D01*
X1710Y17233D01*
X1642Y17322D01*
X1553Y17390D01*
X1450Y17432D01*
X1340Y17447D01*
D02*
G37*
G36*
X11643Y16743D02*
X10757D01*
Y15857D01*
X11643D01*
Y16743D01*
D02*
G37*
G36*
X16121Y16747D02*
X16006Y16732D01*
X15898Y16687D01*
X15805Y16616D01*
X15734Y16523D01*
X15690Y16416D01*
X15675Y16300D01*
X15690Y16184D01*
X15734Y16077D01*
X15805Y15984D01*
X15898Y15913D01*
X16006Y15868D01*
X16121Y15853D01*
X16237Y15868D01*
X16345Y15913D01*
X16437Y15984D01*
X16508Y16077D01*
X16553Y16184D01*
X16568Y16300D01*
X16553Y16416D01*
X16508Y16523D01*
X16437Y16616D01*
X16345Y16687D01*
X16237Y16732D01*
X16121Y16747D01*
D02*
G37*
G36*
X2340Y16447D02*
X2230Y16432D01*
X2127Y16390D01*
X2038Y16322D01*
X1970Y16233D01*
X1928Y16130D01*
X1913Y16020D01*
X1928Y15910D01*
X1970Y15807D01*
X2038Y15718D01*
X2127Y15650D01*
X2230Y15608D01*
X2340Y15593D01*
X2450Y15608D01*
X2553Y15650D01*
X2642Y15718D01*
X2710Y15807D01*
X2752Y15910D01*
X2767Y16020D01*
X2752Y16130D01*
X2710Y16233D01*
X2642Y16322D01*
X2553Y16390D01*
X2450Y16432D01*
X2340Y16447D01*
D02*
G37*
G36*
X21310Y15351D02*
X21226Y15334D01*
X21154Y15286D01*
X21106Y15214D01*
X21089Y15130D01*
X21106Y15046D01*
X21154Y14974D01*
X21226Y14926D01*
X21310Y14909D01*
X21394Y14926D01*
X21466Y14974D01*
X21514Y15046D01*
X21531Y15130D01*
X21514Y15214D01*
X21466Y15286D01*
X21394Y15334D01*
X21310Y15351D01*
D02*
G37*
G36*
X2340Y15447D02*
X2230Y15432D01*
X2127Y15390D01*
X2038Y15322D01*
X1970Y15233D01*
X1928Y15130D01*
X1913Y15020D01*
X1928Y14910D01*
X1970Y14807D01*
X2038Y14718D01*
X2127Y14650D01*
X2230Y14608D01*
X2340Y14593D01*
X2450Y14608D01*
X2553Y14650D01*
X2642Y14718D01*
X2710Y14807D01*
X2752Y14910D01*
X2767Y15020D01*
X2752Y15130D01*
X2710Y15233D01*
X2642Y15322D01*
X2553Y15390D01*
X2450Y15432D01*
X2340Y15447D01*
D02*
G37*
G36*
X1340D02*
X1230Y15432D01*
X1127Y15390D01*
X1038Y15322D01*
X970Y15233D01*
X928Y15130D01*
X913Y15020D01*
X928Y14910D01*
X970Y14807D01*
X1038Y14718D01*
X1127Y14650D01*
X1230Y14608D01*
X1340Y14593D01*
X1450Y14608D01*
X1553Y14650D01*
X1642Y14718D01*
X1710Y14807D01*
X1752Y14910D01*
X1767Y15020D01*
X1752Y15130D01*
X1710Y15233D01*
X1642Y15322D01*
X1553Y15390D01*
X1450Y15432D01*
X1340Y15447D01*
D02*
G37*
G36*
X25231Y15437D02*
X25120Y15422D01*
X25017Y15379D01*
X24929Y15312D01*
X24861Y15223D01*
X24818Y15120D01*
X24804Y15010D01*
X24818Y14899D01*
X24861Y14796D01*
X24929Y14708D01*
X25017Y14640D01*
X25120Y14597D01*
X25231Y14583D01*
X25341Y14597D01*
X25444Y14640D01*
X25532Y14708D01*
X25600Y14796D01*
X25643Y14899D01*
X25657Y15010D01*
X25643Y15120D01*
X25600Y15223D01*
X25532Y15312D01*
X25444Y15379D01*
X25341Y15422D01*
X25231Y15437D01*
D02*
G37*
G36*
X2340Y14447D02*
X2230Y14432D01*
X2127Y14390D01*
X2038Y14322D01*
X1970Y14233D01*
X1928Y14130D01*
X1913Y14020D01*
X1928Y13910D01*
X1970Y13807D01*
X2038Y13718D01*
X2127Y13650D01*
X2230Y13608D01*
X2340Y13593D01*
X2450Y13608D01*
X2553Y13650D01*
X2642Y13718D01*
X2710Y13807D01*
X2752Y13910D01*
X2767Y14020D01*
X2752Y14130D01*
X2710Y14233D01*
X2642Y14322D01*
X2553Y14390D01*
X2450Y14432D01*
X2340Y14447D01*
D02*
G37*
G36*
X1340D02*
X1230Y14432D01*
X1127Y14390D01*
X1038Y14322D01*
X970Y14233D01*
X928Y14130D01*
X913Y14020D01*
X928Y13910D01*
X970Y13807D01*
X1038Y13718D01*
X1127Y13650D01*
X1230Y13608D01*
X1340Y13593D01*
X1450Y13608D01*
X1553Y13650D01*
X1642Y13718D01*
X1710Y13807D01*
X1752Y13910D01*
X1767Y14020D01*
X1752Y14130D01*
X1710Y14233D01*
X1642Y14322D01*
X1553Y14390D01*
X1450Y14432D01*
X1340Y14447D01*
D02*
G37*
G36*
X25231Y14437D02*
X25120Y14422D01*
X25017Y14379D01*
X24929Y14312D01*
X24861Y14223D01*
X24818Y14120D01*
X24804Y14010D01*
X24818Y13899D01*
X24861Y13796D01*
X24929Y13708D01*
X25017Y13640D01*
X25120Y13597D01*
X25231Y13583D01*
X25341Y13597D01*
X25444Y13640D01*
X25532Y13708D01*
X25600Y13796D01*
X25643Y13899D01*
X25657Y14010D01*
X25643Y14120D01*
X25600Y14223D01*
X25532Y14312D01*
X25444Y14379D01*
X25341Y14422D01*
X25231Y14437D01*
D02*
G37*
G36*
X5803Y14023D02*
X4917D01*
Y13137D01*
X5803D01*
Y14023D01*
D02*
G37*
G36*
X17633Y14003D02*
X16747D01*
Y13117D01*
X17633D01*
Y14003D01*
D02*
G37*
G36*
X18120Y13221D02*
X18036Y13204D01*
X17964Y13156D01*
X17916Y13084D01*
X17899Y13000D01*
X17916Y12916D01*
X17964Y12844D01*
X18036Y12796D01*
X18120Y12779D01*
X18204Y12796D01*
X18276Y12844D01*
X18324Y12916D01*
X18341Y13000D01*
X18324Y13084D01*
X18276Y13156D01*
X18204Y13204D01*
X18120Y13221D01*
D02*
G37*
G36*
X2340Y13447D02*
X2230Y13432D01*
X2127Y13390D01*
X2038Y13322D01*
X1970Y13233D01*
X1928Y13130D01*
X1913Y13020D01*
X1928Y12910D01*
X1970Y12807D01*
X2038Y12718D01*
X2127Y12650D01*
X2230Y12608D01*
X2340Y12593D01*
X2450Y12608D01*
X2553Y12650D01*
X2642Y12718D01*
X2710Y12807D01*
X2752Y12910D01*
X2767Y13020D01*
X2752Y13130D01*
X2710Y13233D01*
X2642Y13322D01*
X2553Y13390D01*
X2450Y13432D01*
X2340Y13447D01*
D02*
G37*
G36*
X1340D02*
X1230Y13432D01*
X1127Y13390D01*
X1038Y13322D01*
X970Y13233D01*
X928Y13130D01*
X913Y13020D01*
X928Y12910D01*
X970Y12807D01*
X1038Y12718D01*
X1127Y12650D01*
X1230Y12608D01*
X1340Y12593D01*
X1450Y12608D01*
X1553Y12650D01*
X1642Y12718D01*
X1710Y12807D01*
X1752Y12910D01*
X1767Y13020D01*
X1752Y13130D01*
X1710Y13233D01*
X1642Y13322D01*
X1553Y13390D01*
X1450Y13432D01*
X1340Y13447D01*
D02*
G37*
G36*
X26231Y13437D02*
X26120Y13422D01*
X26017Y13379D01*
X25929Y13312D01*
X25861Y13223D01*
X25818Y13120D01*
X25804Y13010D01*
X25818Y12899D01*
X25861Y12796D01*
X25929Y12708D01*
X26017Y12640D01*
X26120Y12597D01*
X26231Y12583D01*
X26341Y12597D01*
X26444Y12640D01*
X26532Y12708D01*
X26600Y12796D01*
X26643Y12899D01*
X26657Y13010D01*
X26643Y13120D01*
X26600Y13223D01*
X26532Y13312D01*
X26444Y13379D01*
X26341Y13422D01*
X26231Y13437D01*
D02*
G37*
G36*
X25231D02*
X25120Y13422D01*
X25017Y13379D01*
X24929Y13312D01*
X24861Y13223D01*
X24818Y13120D01*
X24804Y13010D01*
X24818Y12899D01*
X24861Y12796D01*
X24929Y12708D01*
X25017Y12640D01*
X25120Y12597D01*
X25231Y12583D01*
X25341Y12597D01*
X25444Y12640D01*
X25532Y12708D01*
X25600Y12796D01*
X25643Y12899D01*
X25657Y13010D01*
X25643Y13120D01*
X25600Y13223D01*
X25532Y13312D01*
X25444Y13379D01*
X25341Y13422D01*
X25231Y13437D01*
D02*
G37*
G36*
X18510Y12851D02*
X18426Y12834D01*
X18354Y12786D01*
X18306Y12714D01*
X18289Y12630D01*
X18306Y12546D01*
X18354Y12474D01*
X18426Y12426D01*
X18510Y12409D01*
X18594Y12426D01*
X18637Y12455D01*
X18666Y12474D01*
X18707Y12446D01*
X18666Y12384D01*
X18649Y12300D01*
X18666Y12216D01*
X18714Y12144D01*
X18786Y12096D01*
X18870Y12079D01*
X18954Y12096D01*
X19026Y12144D01*
X19074Y12216D01*
X19091Y12300D01*
X19074Y12384D01*
X19026Y12456D01*
X18954Y12504D01*
X18870Y12521D01*
X18786Y12504D01*
X18743Y12475D01*
X18714Y12456D01*
X18673Y12484D01*
X18714Y12546D01*
X18731Y12630D01*
X18714Y12714D01*
X18666Y12786D01*
X18594Y12834D01*
X18510Y12851D01*
D02*
G37*
G36*
X2340Y12447D02*
X2230Y12432D01*
X2127Y12390D01*
X2038Y12322D01*
X1970Y12233D01*
X1928Y12130D01*
X1913Y12020D01*
X1928Y11910D01*
X1970Y11807D01*
X2038Y11718D01*
X2127Y11650D01*
X2230Y11608D01*
X2340Y11593D01*
X2450Y11608D01*
X2553Y11650D01*
X2642Y11718D01*
X2710Y11807D01*
X2752Y11910D01*
X2767Y12020D01*
X2752Y12130D01*
X2710Y12233D01*
X2642Y12322D01*
X2553Y12390D01*
X2450Y12432D01*
X2340Y12447D01*
D02*
G37*
G36*
X1340D02*
X1230Y12432D01*
X1127Y12390D01*
X1038Y12322D01*
X970Y12233D01*
X928Y12130D01*
X913Y12020D01*
X928Y11910D01*
X970Y11807D01*
X1038Y11718D01*
X1127Y11650D01*
X1230Y11608D01*
X1340Y11593D01*
X1450Y11608D01*
X1553Y11650D01*
X1642Y11718D01*
X1710Y11807D01*
X1752Y11910D01*
X1767Y12020D01*
X1752Y12130D01*
X1710Y12233D01*
X1642Y12322D01*
X1553Y12390D01*
X1450Y12432D01*
X1340Y12447D01*
D02*
G37*
G36*
X26231Y12437D02*
X26120Y12422D01*
X26017Y12379D01*
X25929Y12312D01*
X25861Y12223D01*
X25818Y12120D01*
X25804Y12010D01*
X25818Y11899D01*
X25861Y11796D01*
X25929Y11708D01*
X26017Y11640D01*
X26120Y11597D01*
X26231Y11583D01*
X26341Y11597D01*
X26444Y11640D01*
X26532Y11708D01*
X26600Y11796D01*
X26643Y11899D01*
X26657Y12010D01*
X26643Y12120D01*
X26600Y12223D01*
X26532Y12312D01*
X26444Y12379D01*
X26341Y12422D01*
X26231Y12437D01*
D02*
G37*
G36*
X25231D02*
X25120Y12422D01*
X25017Y12379D01*
X24929Y12312D01*
X24861Y12223D01*
X24818Y12120D01*
X24804Y12010D01*
X24818Y11899D01*
X24861Y11796D01*
X24929Y11708D01*
X25017Y11640D01*
X25120Y11597D01*
X25231Y11583D01*
X25341Y11597D01*
X25444Y11640D01*
X25532Y11708D01*
X25600Y11796D01*
X25643Y11899D01*
X25657Y12010D01*
X25643Y12120D01*
X25600Y12223D01*
X25532Y12312D01*
X25444Y12379D01*
X25341Y12422D01*
X25231Y12437D01*
D02*
G37*
G36*
X11642Y11733D02*
X10756D01*
Y10847D01*
X11642D01*
Y11733D01*
D02*
G37*
G36*
X16120Y11737D02*
X16004Y11722D01*
X15897Y11677D01*
X15804Y11606D01*
X15733Y11513D01*
X15688Y11406D01*
X15673Y11290D01*
X15688Y11174D01*
X15733Y11067D01*
X15804Y10974D01*
X15897Y10903D01*
X16004Y10858D01*
X16120Y10843D01*
X16236Y10858D01*
X16343Y10903D01*
X16436Y10974D01*
X16507Y11067D01*
X16552Y11174D01*
X16567Y11290D01*
X16552Y11406D01*
X16507Y11513D01*
X16436Y11606D01*
X16343Y11677D01*
X16236Y11722D01*
X16120Y11737D01*
D02*
G37*
G36*
X1340Y11447D02*
X1230Y11432D01*
X1127Y11390D01*
X1038Y11322D01*
X970Y11233D01*
X928Y11130D01*
X913Y11020D01*
X928Y10910D01*
X970Y10807D01*
X1038Y10718D01*
X1127Y10650D01*
X1230Y10608D01*
X1340Y10593D01*
X1450Y10608D01*
X1553Y10650D01*
X1642Y10718D01*
X1710Y10807D01*
X1752Y10910D01*
X1767Y11020D01*
X1752Y11130D01*
X1710Y11233D01*
X1642Y11322D01*
X1553Y11390D01*
X1450Y11432D01*
X1340Y11447D01*
D02*
G37*
G36*
X26231Y11437D02*
X26120Y11422D01*
X26017Y11379D01*
X25929Y11312D01*
X25861Y11223D01*
X25818Y11120D01*
X25804Y11010D01*
X25818Y10899D01*
X25861Y10796D01*
X25929Y10708D01*
X26017Y10640D01*
X26120Y10597D01*
X26231Y10583D01*
X26341Y10597D01*
X26444Y10640D01*
X26532Y10708D01*
X26600Y10796D01*
X26643Y10899D01*
X26657Y11010D01*
X26643Y11120D01*
X26600Y11223D01*
X26532Y11312D01*
X26444Y11379D01*
X26341Y11422D01*
X26231Y11437D01*
D02*
G37*
G36*
X25231D02*
X25120Y11422D01*
X25017Y11379D01*
X24929Y11312D01*
X24861Y11223D01*
X24818Y11120D01*
X24804Y11010D01*
X24818Y10899D01*
X24861Y10796D01*
X24929Y10708D01*
X25017Y10640D01*
X25120Y10597D01*
X25231Y10583D01*
X25341Y10597D01*
X25444Y10640D01*
X25532Y10708D01*
X25600Y10796D01*
X25643Y10899D01*
X25657Y11010D01*
X25643Y11120D01*
X25600Y11223D01*
X25532Y11312D01*
X25444Y11379D01*
X25341Y11422D01*
X25231Y11437D01*
D02*
G37*
G36*
X2340Y10447D02*
X2230Y10432D01*
X2127Y10390D01*
X2038Y10322D01*
X1970Y10233D01*
X1928Y10130D01*
X1913Y10020D01*
X1928Y9910D01*
X1970Y9807D01*
X2038Y9718D01*
X2127Y9650D01*
X2230Y9608D01*
X2340Y9593D01*
X2450Y9608D01*
X2553Y9650D01*
X2642Y9718D01*
X2710Y9807D01*
X2752Y9910D01*
X2767Y10020D01*
X2752Y10130D01*
X2710Y10233D01*
X2642Y10322D01*
X2553Y10390D01*
X2450Y10432D01*
X2340Y10447D01*
D02*
G37*
G36*
X1340D02*
X1230Y10432D01*
X1127Y10390D01*
X1038Y10322D01*
X970Y10233D01*
X928Y10130D01*
X913Y10020D01*
X928Y9910D01*
X970Y9807D01*
X1038Y9718D01*
X1127Y9650D01*
X1230Y9608D01*
X1340Y9593D01*
X1450Y9608D01*
X1553Y9650D01*
X1642Y9718D01*
X1710Y9807D01*
X1752Y9910D01*
X1767Y10020D01*
X1752Y10130D01*
X1710Y10233D01*
X1642Y10322D01*
X1553Y10390D01*
X1450Y10432D01*
X1340Y10447D01*
D02*
G37*
G36*
X26231Y10437D02*
X26120Y10422D01*
X26017Y10379D01*
X25929Y10312D01*
X25861Y10223D01*
X25818Y10120D01*
X25804Y10010D01*
X25818Y9899D01*
X25861Y9796D01*
X25929Y9708D01*
X26017Y9640D01*
X26120Y9597D01*
X26231Y9583D01*
X26341Y9597D01*
X26444Y9640D01*
X26532Y9708D01*
X26600Y9796D01*
X26643Y9899D01*
X26657Y10010D01*
X26643Y10120D01*
X26600Y10223D01*
X26532Y10312D01*
X26444Y10379D01*
X26341Y10422D01*
X26231Y10437D01*
D02*
G37*
G36*
X25231D02*
X25120Y10422D01*
X25017Y10379D01*
X24929Y10312D01*
X24861Y10223D01*
X24818Y10120D01*
X24804Y10010D01*
X24818Y9899D01*
X24861Y9796D01*
X24929Y9708D01*
X25017Y9640D01*
X25120Y9597D01*
X25231Y9583D01*
X25341Y9597D01*
X25444Y9640D01*
X25532Y9708D01*
X25600Y9796D01*
X25643Y9899D01*
X25657Y10010D01*
X25643Y10120D01*
X25600Y10223D01*
X25532Y10312D01*
X25444Y10379D01*
X25341Y10422D01*
X25231Y10437D01*
D02*
G37*
G36*
X2340Y9447D02*
X2230Y9432D01*
X2127Y9390D01*
X2038Y9322D01*
X1970Y9233D01*
X1928Y9130D01*
X1913Y9020D01*
X1928Y8910D01*
X1970Y8807D01*
X2038Y8718D01*
X2127Y8650D01*
X2230Y8608D01*
X2340Y8593D01*
X2450Y8608D01*
X2553Y8650D01*
X2642Y8718D01*
X2710Y8807D01*
X2752Y8910D01*
X2767Y9020D01*
X2752Y9130D01*
X2710Y9233D01*
X2642Y9322D01*
X2553Y9390D01*
X2450Y9432D01*
X2340Y9447D01*
D02*
G37*
G36*
X1340D02*
X1230Y9432D01*
X1127Y9390D01*
X1038Y9322D01*
X970Y9233D01*
X928Y9130D01*
X913Y9020D01*
X928Y8910D01*
X970Y8807D01*
X1038Y8718D01*
X1127Y8650D01*
X1230Y8608D01*
X1340Y8593D01*
X1450Y8608D01*
X1553Y8650D01*
X1642Y8718D01*
X1710Y8807D01*
X1752Y8910D01*
X1767Y9020D01*
X1752Y9130D01*
X1710Y9233D01*
X1642Y9322D01*
X1553Y9390D01*
X1450Y9432D01*
X1340Y9447D01*
D02*
G37*
G36*
X26231Y9437D02*
X26120Y9422D01*
X26017Y9379D01*
X25929Y9312D01*
X25861Y9223D01*
X25818Y9120D01*
X25804Y9010D01*
X25818Y8899D01*
X25861Y8796D01*
X25929Y8708D01*
X26017Y8640D01*
X26120Y8597D01*
X26231Y8583D01*
X26341Y8597D01*
X26444Y8640D01*
X26532Y8708D01*
X26600Y8796D01*
X26643Y8899D01*
X26657Y9010D01*
X26643Y9120D01*
X26600Y9223D01*
X26532Y9312D01*
X26444Y9379D01*
X26341Y9422D01*
X26231Y9437D01*
D02*
G37*
G36*
X2340Y8447D02*
X2230Y8432D01*
X2127Y8390D01*
X2038Y8322D01*
X1970Y8233D01*
X1928Y8130D01*
X1913Y8020D01*
X1928Y7910D01*
X1970Y7807D01*
X2038Y7718D01*
X2127Y7650D01*
X2230Y7608D01*
X2340Y7593D01*
X2450Y7608D01*
X2553Y7650D01*
X2642Y7718D01*
X2710Y7807D01*
X2752Y7910D01*
X2767Y8020D01*
X2752Y8130D01*
X2710Y8233D01*
X2642Y8322D01*
X2553Y8390D01*
X2450Y8432D01*
X2340Y8447D01*
D02*
G37*
G36*
X1340D02*
X1230Y8432D01*
X1127Y8390D01*
X1038Y8322D01*
X970Y8233D01*
X928Y8130D01*
X913Y8020D01*
X928Y7910D01*
X970Y7807D01*
X1038Y7718D01*
X1127Y7650D01*
X1230Y7608D01*
X1340Y7593D01*
X1450Y7608D01*
X1553Y7650D01*
X1642Y7718D01*
X1710Y7807D01*
X1752Y7910D01*
X1767Y8020D01*
X1752Y8130D01*
X1710Y8233D01*
X1642Y8322D01*
X1553Y8390D01*
X1450Y8432D01*
X1340Y8447D01*
D02*
G37*
G36*
X26231Y8437D02*
X26120Y8422D01*
X26017Y8379D01*
X25929Y8312D01*
X25861Y8223D01*
X25818Y8120D01*
X25804Y8010D01*
X25818Y7899D01*
X25861Y7796D01*
X25929Y7708D01*
X26017Y7640D01*
X26120Y7597D01*
X26231Y7583D01*
X26341Y7597D01*
X26444Y7640D01*
X26532Y7708D01*
X26600Y7796D01*
X26643Y7899D01*
X26657Y8010D01*
X26643Y8120D01*
X26600Y8223D01*
X26532Y8312D01*
X26444Y8379D01*
X26341Y8422D01*
X26231Y8437D01*
D02*
G37*
G36*
X25231D02*
X25120Y8422D01*
X25017Y8379D01*
X24929Y8312D01*
X24861Y8223D01*
X24818Y8120D01*
X24804Y8010D01*
X24818Y7899D01*
X24861Y7796D01*
X24929Y7708D01*
X25017Y7640D01*
X25120Y7597D01*
X25231Y7583D01*
X25341Y7597D01*
X25444Y7640D01*
X25532Y7708D01*
X25600Y7796D01*
X25643Y7899D01*
X25657Y8010D01*
X25643Y8120D01*
X25600Y8223D01*
X25532Y8312D01*
X25444Y8379D01*
X25341Y8422D01*
X25231Y8437D01*
D02*
G37*
G36*
X2340Y7447D02*
X2230Y7432D01*
X2127Y7390D01*
X2038Y7322D01*
X1970Y7233D01*
X1928Y7130D01*
X1913Y7020D01*
X1928Y6910D01*
X1970Y6807D01*
X2038Y6718D01*
X2127Y6650D01*
X2230Y6608D01*
X2340Y6593D01*
X2450Y6608D01*
X2553Y6650D01*
X2642Y6718D01*
X2710Y6807D01*
X2752Y6910D01*
X2767Y7020D01*
X2752Y7130D01*
X2710Y7233D01*
X2642Y7322D01*
X2553Y7390D01*
X2450Y7432D01*
X2340Y7447D01*
D02*
G37*
G36*
X1340D02*
X1230Y7432D01*
X1127Y7390D01*
X1038Y7322D01*
X970Y7233D01*
X928Y7130D01*
X913Y7020D01*
X928Y6910D01*
X970Y6807D01*
X1038Y6718D01*
X1127Y6650D01*
X1230Y6608D01*
X1340Y6593D01*
X1450Y6608D01*
X1553Y6650D01*
X1642Y6718D01*
X1710Y6807D01*
X1752Y6910D01*
X1767Y7020D01*
X1752Y7130D01*
X1710Y7233D01*
X1642Y7322D01*
X1553Y7390D01*
X1450Y7432D01*
X1340Y7447D01*
D02*
G37*
G36*
X26231Y7437D02*
X26120Y7422D01*
X26017Y7379D01*
X25929Y7312D01*
X25861Y7223D01*
X25818Y7120D01*
X25804Y7010D01*
X25818Y6899D01*
X25861Y6796D01*
X25929Y6708D01*
X26017Y6640D01*
X26120Y6597D01*
X26231Y6583D01*
X26341Y6597D01*
X26444Y6640D01*
X26532Y6708D01*
X26600Y6796D01*
X26643Y6899D01*
X26657Y7010D01*
X26643Y7120D01*
X26600Y7223D01*
X26532Y7312D01*
X26444Y7379D01*
X26341Y7422D01*
X26231Y7437D01*
D02*
G37*
G36*
X25231D02*
X25120Y7422D01*
X25017Y7379D01*
X24929Y7312D01*
X24861Y7223D01*
X24818Y7120D01*
X24804Y7010D01*
X24818Y6899D01*
X24861Y6796D01*
X24929Y6708D01*
X25017Y6640D01*
X25120Y6597D01*
X25231Y6583D01*
X25341Y6597D01*
X25444Y6640D01*
X25532Y6708D01*
X25600Y6796D01*
X25643Y6899D01*
X25657Y7010D01*
X25643Y7120D01*
X25600Y7223D01*
X25532Y7312D01*
X25444Y7379D01*
X25341Y7422D01*
X25231Y7437D01*
D02*
G37*
G36*
X2340Y6447D02*
X2230Y6432D01*
X2127Y6390D01*
X2038Y6322D01*
X1970Y6233D01*
X1928Y6130D01*
X1913Y6020D01*
X1928Y5910D01*
X1970Y5807D01*
X2038Y5718D01*
X2127Y5650D01*
X2230Y5608D01*
X2340Y5593D01*
X2450Y5608D01*
X2553Y5650D01*
X2642Y5718D01*
X2710Y5807D01*
X2752Y5910D01*
X2767Y6020D01*
X2752Y6130D01*
X2710Y6233D01*
X2642Y6322D01*
X2553Y6390D01*
X2450Y6432D01*
X2340Y6447D01*
D02*
G37*
G36*
X1340D02*
X1230Y6432D01*
X1127Y6390D01*
X1038Y6322D01*
X970Y6233D01*
X928Y6130D01*
X913Y6020D01*
X928Y5910D01*
X970Y5807D01*
X1038Y5718D01*
X1127Y5650D01*
X1230Y5608D01*
X1340Y5593D01*
X1450Y5608D01*
X1553Y5650D01*
X1642Y5718D01*
X1710Y5807D01*
X1752Y5910D01*
X1767Y6020D01*
X1752Y6130D01*
X1710Y6233D01*
X1642Y6322D01*
X1553Y6390D01*
X1450Y6432D01*
X1340Y6447D01*
D02*
G37*
G36*
X26231Y6437D02*
X26120Y6422D01*
X26017Y6379D01*
X25929Y6312D01*
X25861Y6223D01*
X25818Y6120D01*
X25804Y6010D01*
X25818Y5899D01*
X25861Y5796D01*
X25929Y5708D01*
X26017Y5640D01*
X26120Y5597D01*
X26231Y5583D01*
X26341Y5597D01*
X26444Y5640D01*
X26532Y5708D01*
X26600Y5796D01*
X26643Y5899D01*
X26657Y6010D01*
X26643Y6120D01*
X26600Y6223D01*
X26532Y6312D01*
X26444Y6379D01*
X26341Y6422D01*
X26231Y6437D01*
D02*
G37*
G36*
X25231D02*
X25120Y6422D01*
X25017Y6379D01*
X24929Y6312D01*
X24861Y6223D01*
X24818Y6120D01*
X24804Y6010D01*
X24818Y5899D01*
X24861Y5796D01*
X24929Y5708D01*
X25017Y5640D01*
X25120Y5597D01*
X25231Y5583D01*
X25341Y5597D01*
X25444Y5640D01*
X25532Y5708D01*
X25600Y5796D01*
X25643Y5899D01*
X25657Y6010D01*
X25643Y6120D01*
X25600Y6223D01*
X25532Y6312D01*
X25444Y6379D01*
X25341Y6422D01*
X25231Y6437D01*
D02*
G37*
G36*
X26986Y5759D02*
X26895Y5740D01*
X26817Y5689D01*
X26765Y5611D01*
X26747Y5520D01*
X26765Y5429D01*
X26817Y5351D01*
X26895Y5300D01*
X26986Y5281D01*
X27077Y5300D01*
X27155Y5351D01*
X27206Y5429D01*
X27225Y5520D01*
X27206Y5611D01*
X27155Y5689D01*
X27077Y5740D01*
X26986Y5759D01*
D02*
G37*
G36*
X26730Y5111D02*
X26646Y5094D01*
X26574Y5046D01*
X26526Y4974D01*
X26509Y4890D01*
X26526Y4806D01*
X26574Y4734D01*
X26646Y4686D01*
X26730Y4669D01*
X26814Y4686D01*
X26886Y4734D01*
X26934Y4806D01*
X26951Y4890D01*
X26934Y4974D01*
X26886Y5046D01*
X26814Y5094D01*
X26730Y5111D01*
D02*
G37*
G36*
X4703Y4781D02*
X3817D01*
Y3896D01*
X4703D01*
Y4781D01*
D02*
G37*
G36*
X9181Y4785D02*
X9066Y4770D01*
X8958Y4725D01*
X8865Y4654D01*
X8794Y4562D01*
X8750Y4454D01*
X8735Y4338D01*
X8750Y4223D01*
X8794Y4115D01*
X8865Y4023D01*
X8958Y3952D01*
X9066Y3907D01*
X9181Y3892D01*
X9297Y3907D01*
X9405Y3952D01*
X9497Y4023D01*
X9568Y4115D01*
X9613Y4223D01*
X9628Y4338D01*
X9613Y4454D01*
X9568Y4562D01*
X9497Y4654D01*
X9405Y4725D01*
X9297Y4770D01*
X9181Y4785D01*
D02*
G37*
G36*
X21120Y4717D02*
X21004Y4702D01*
X20897Y4657D01*
X20804Y4586D01*
X20733Y4493D01*
X20688Y4386D01*
X20673Y4270D01*
X20688Y4154D01*
X20733Y4047D01*
X20804Y3954D01*
X20897Y3883D01*
X21004Y3838D01*
X21120Y3823D01*
X21236Y3838D01*
X21343Y3883D01*
X21436Y3954D01*
X21507Y4047D01*
X21552Y4154D01*
X21567Y4270D01*
X21552Y4386D01*
X21507Y4493D01*
X21436Y4586D01*
X21343Y4657D01*
X21236Y4702D01*
X21120Y4717D01*
D02*
G37*
%LPD*%
G36*
X11457Y43559D02*
X11453Y43552D01*
X5502D01*
X5498Y43559D01*
X5526Y43609D01*
X11431D01*
X11457Y43559D01*
D02*
G37*
D13*
X13915Y51069D02*
X14416Y51570D01*
X17040D01*
X23310Y24510D02*
Y35580D01*
Y24510D02*
X24337Y23483D01*
X5063Y51069D02*
X13915D01*
X7933Y51530D02*
X8413Y52010D01*
X23830D02*
X24030Y51810D01*
X8413Y52010D02*
X23830D01*
X5330Y51530D02*
X7933D01*
X14380Y45930D02*
X20420D01*
X20809Y45541D01*
X11620Y48690D02*
X14380Y45930D01*
X22030Y36450D02*
Y41960D01*
X19800Y44190D02*
X22030Y41960D01*
X25780Y46230D02*
X25810Y46200D01*
X21900Y46230D02*
X25780D01*
X20530Y44860D02*
X21900Y46230D01*
X8247Y44860D02*
X20530D01*
X6629Y44621D02*
X8008D01*
X8247Y44860D01*
X6240Y45010D02*
X6629Y44621D01*
X8030Y45020D02*
Y45633D01*
X5500Y46344D02*
X6240Y45604D01*
Y45010D02*
Y45604D01*
X2352Y46078D02*
X5322D01*
X6000Y44500D02*
Y45400D01*
X5322Y46078D02*
X6000Y45400D01*
X6690Y45481D02*
Y45760D01*
X6600Y45053D02*
Y45391D01*
X6690Y45481D01*
X5483Y46967D02*
X6690Y45760D01*
X9301Y44190D02*
X19800D01*
X9121Y44010D02*
X9301Y44190D01*
X12438Y42482D02*
X13320Y41600D01*
Y39770D02*
X13660Y39430D01*
X13320Y39770D02*
Y41600D01*
X13610Y40340D02*
Y41535D01*
X13180Y41965D02*
X13610Y41535D01*
Y40340D02*
X13850Y40100D01*
X13180Y41965D02*
Y42132D01*
X12142Y43170D02*
X13180Y42132D01*
X13660Y39430D02*
X14080D01*
X6000Y44110D02*
Y44500D01*
X6100Y44010D02*
X9121D01*
X6000Y44110D02*
X6100Y44010D01*
X3559Y45110D02*
X4070D01*
X5460Y43720D02*
X11592D01*
X4070Y45110D02*
X5460Y43720D01*
X12228D02*
X13480D01*
X12086Y43862D02*
X12228Y43720D01*
X13480D02*
X13650Y43550D01*
X11734Y43862D02*
X12086D01*
X11592Y43720D02*
X11734Y43862D01*
X12283Y43440D02*
X12690D01*
X12020Y43703D02*
X12283Y43440D01*
X11537D02*
X11800Y43703D01*
X5416Y43440D02*
X11537D01*
X11800Y43703D02*
X12020D01*
X4106Y44750D02*
X5416Y43440D01*
X12690D02*
X13689Y42441D01*
X13850Y40100D02*
Y40100D01*
X13689Y42441D02*
Y42441D01*
Y42441D02*
X14000Y42130D01*
X12021Y43170D02*
X12142D01*
X4258Y42482D02*
X12438D01*
X2880Y43860D02*
X4258Y42482D01*
X3347Y44750D02*
X4106D01*
X2250Y45020D02*
X3077D01*
X3347Y44750D01*
X12020Y43170D02*
X12021Y43170D01*
X11799D02*
X11800Y43170D01*
X4106Y43170D02*
X11799D01*
X11800Y43170D02*
X12020D01*
X2901Y44375D02*
X4106Y43170D01*
X25757Y23483D02*
X26231Y23010D01*
X24337Y23483D02*
X25757D01*
X2730Y43860D02*
X2880D01*
X2720Y43850D02*
X2730Y43860D01*
X2250Y43850D02*
X2720D01*
X2250Y44375D02*
X2901D01*
X13650Y43100D02*
Y43550D01*
Y43100D02*
X13990Y42760D01*
X2333Y45557D02*
X3112D01*
X3559Y45110D01*
X2340Y46090D02*
X2352Y46078D01*
X2340Y46738D02*
X3052D01*
X3281Y46967D01*
X5483D01*
X1867Y47540D02*
X6123D01*
X8030Y45633D01*
X20285Y18510D02*
X20520D01*
X21494Y17536D01*
X25373D01*
X25757Y17152D01*
Y15483D02*
Y17152D01*
Y15483D02*
X26231Y15010D01*
X19740Y18320D02*
X21050Y17010D01*
X25231D01*
D30*
X19480Y45470D02*
D03*
Y46470D02*
D03*
X25800Y42550D02*
D03*
X26630Y50880D02*
D03*
X24920D02*
D03*
X25877Y45340D02*
D03*
X22770Y45320D02*
D03*
X22760Y40836D02*
D03*
X7449Y30500D02*
D03*
Y29500D02*
D03*
D31*
X19480Y47470D02*
D03*
X25800Y41550D02*
D03*
X26630Y49880D02*
D03*
X24920D02*
D03*
X25877Y44340D02*
D03*
X22770Y44320D02*
D03*
X22760Y41836D02*
D03*
X7449Y31500D02*
D03*
D32*
X5380Y25900D02*
D03*
X6360Y25910D02*
D03*
X18870Y50930D02*
D03*
X19850Y50940D02*
D03*
X20830Y50950D02*
D03*
X21810Y50960D02*
D03*
X22790Y50970D02*
D03*
D33*
X12800Y22260D02*
D03*
X11800D02*
D03*
X10800D02*
D03*
X9800D02*
D03*
X12800Y25260D02*
D03*
X11800D02*
D03*
X10800D02*
D03*
X9800D02*
D03*
X16920Y25250D02*
D03*
X17920D02*
D03*
X18920D02*
D03*
X19920D02*
D03*
Y22250D02*
D03*
X18920D02*
D03*
X17920D02*
D03*
X16920D02*
D03*
D34*
X24280Y41960D02*
D03*
X24780Y41460D02*
D03*
X23780D02*
D03*
Y42460D02*
D03*
X24780D02*
D03*
X24365Y44680D02*
D03*
X24865Y44180D02*
D03*
X23865D02*
D03*
Y45180D02*
D03*
X24865D02*
D03*
X10630Y20400D02*
D03*
X9630D02*
D03*
Y19400D02*
D03*
X10630D02*
D03*
X10130Y19900D02*
D03*
X8710Y20420D02*
D03*
X7710D02*
D03*
Y19420D02*
D03*
X8710D02*
D03*
X8210Y19920D02*
D03*
D37*
X21120Y2301D02*
D03*
X16199D02*
D03*
X21120Y4270D02*
D03*
X9181Y2370D02*
D03*
X4260D02*
D03*
X9181Y4338D02*
D03*
X10281Y11611D02*
D03*
X5360D02*
D03*
X10281Y13580D02*
D03*
X16121Y14332D02*
D03*
X11200D02*
D03*
X16121Y16300D02*
D03*
X22111Y11592D02*
D03*
X17190D02*
D03*
X22111Y13560D02*
D03*
X16120Y9322D02*
D03*
X11199D02*
D03*
X16120Y11290D02*
D03*
D38*
X16199Y4270D02*
D03*
X4260Y4338D02*
D03*
X5360Y13580D02*
D03*
X11200Y16300D02*
D03*
X17190Y13560D02*
D03*
X11199Y11290D02*
D03*
D39*
X3910Y49890D02*
D03*
X17040Y51570D02*
D03*
X23310Y35580D02*
D03*
X24030Y51810D02*
D03*
X20809Y45541D02*
D03*
X22030Y36450D02*
D03*
X25810Y46200D02*
D03*
X26986Y5520D02*
D03*
X2333Y45557D02*
D03*
X2250Y45020D02*
D03*
Y44375D02*
D03*
Y43850D02*
D03*
X2340Y46090D02*
D03*
Y46738D02*
D03*
X16400Y49500D02*
D03*
X15880Y50240D02*
D03*
X26110Y47300D02*
D03*
X9603Y16745D02*
D03*
X18285Y9736D02*
D03*
X14023Y4495D02*
D03*
X11360Y4500D02*
D03*
X21770Y16601D02*
D03*
X18760Y17360D02*
D03*
D41*
X25231Y40010D02*
D03*
X1340Y40020D02*
D03*
D42*
X25231Y39010D02*
D03*
Y38010D02*
D03*
Y37010D02*
D03*
X26231Y38010D02*
D03*
Y39010D02*
D03*
Y40010D02*
D03*
Y37010D02*
D03*
Y34010D02*
D03*
Y36010D02*
D03*
Y35010D02*
D03*
X25231Y34010D02*
D03*
Y35010D02*
D03*
Y36010D02*
D03*
Y31010D02*
D03*
Y30010D02*
D03*
Y29010D02*
D03*
X26231Y30010D02*
D03*
Y31010D02*
D03*
Y29010D02*
D03*
Y32010D02*
D03*
Y33010D02*
D03*
X25231Y32010D02*
D03*
Y33010D02*
D03*
Y23010D02*
D03*
Y22010D02*
D03*
X26231Y23010D02*
D03*
Y22010D02*
D03*
Y21010D02*
D03*
Y20010D02*
D03*
X25231D02*
D03*
Y21010D02*
D03*
Y26010D02*
D03*
Y25010D02*
D03*
Y24010D02*
D03*
X26231Y25010D02*
D03*
Y26010D02*
D03*
Y24010D02*
D03*
Y27010D02*
D03*
Y28010D02*
D03*
X25231Y27010D02*
D03*
Y28010D02*
D03*
Y19010D02*
D03*
X26231D02*
D03*
X25231Y7010D02*
D03*
Y6010D02*
D03*
X26231Y7010D02*
D03*
Y6010D02*
D03*
X25231Y12010D02*
D03*
Y11010D02*
D03*
X26231Y12010D02*
D03*
Y11010D02*
D03*
Y8010D02*
D03*
Y10010D02*
D03*
Y9010D02*
D03*
X25231Y8010D02*
D03*
Y9010D02*
D03*
Y10010D02*
D03*
Y15010D02*
D03*
Y14010D02*
D03*
Y13010D02*
D03*
X26231Y14010D02*
D03*
Y15010D02*
D03*
Y13010D02*
D03*
Y16010D02*
D03*
Y18010D02*
D03*
Y17010D02*
D03*
X25231Y16010D02*
D03*
Y17010D02*
D03*
Y18010D02*
D03*
X1340Y39020D02*
D03*
Y38020D02*
D03*
Y37020D02*
D03*
X2340Y38020D02*
D03*
Y39020D02*
D03*
Y40020D02*
D03*
Y37020D02*
D03*
Y34020D02*
D03*
Y36020D02*
D03*
Y35020D02*
D03*
X1340Y34020D02*
D03*
Y35020D02*
D03*
Y36020D02*
D03*
Y31020D02*
D03*
Y30020D02*
D03*
Y29020D02*
D03*
X2340Y30020D02*
D03*
Y31020D02*
D03*
Y29020D02*
D03*
Y32020D02*
D03*
Y33020D02*
D03*
X1340Y32020D02*
D03*
Y33020D02*
D03*
Y23020D02*
D03*
Y22020D02*
D03*
X2340Y23020D02*
D03*
Y22020D02*
D03*
Y21020D02*
D03*
Y20020D02*
D03*
X1340D02*
D03*
Y21020D02*
D03*
Y26020D02*
D03*
Y25020D02*
D03*
Y24020D02*
D03*
X2340Y25020D02*
D03*
Y26020D02*
D03*
Y24020D02*
D03*
Y27020D02*
D03*
Y28020D02*
D03*
X1340Y27020D02*
D03*
Y28020D02*
D03*
Y19020D02*
D03*
X2340D02*
D03*
X1340Y7020D02*
D03*
Y6020D02*
D03*
X2340Y7020D02*
D03*
Y6020D02*
D03*
X1340Y12020D02*
D03*
Y11020D02*
D03*
X2340Y12020D02*
D03*
Y11020D02*
D03*
Y8020D02*
D03*
Y10020D02*
D03*
Y9020D02*
D03*
X1340Y8020D02*
D03*
Y9020D02*
D03*
Y10020D02*
D03*
Y15020D02*
D03*
Y14020D02*
D03*
Y13020D02*
D03*
X2340Y14020D02*
D03*
Y15020D02*
D03*
Y13020D02*
D03*
Y16020D02*
D03*
Y18020D02*
D03*
Y17020D02*
D03*
X1340Y16020D02*
D03*
Y17020D02*
D03*
Y18020D02*
D03*
D43*
X8030Y45020D02*
D03*
X6600Y45053D02*
D03*
X13180Y45320D02*
D03*
X13610Y45633D02*
D03*
X11990Y49170D02*
D03*
X11620Y48690D02*
D03*
X23510Y17920D02*
D03*
X4720Y50750D02*
D03*
X5063Y51069D02*
D03*
X5330Y51530D02*
D03*
X1867Y47540D02*
D03*
X24820D02*
D03*
X20390Y31790D02*
D03*
X12890Y31810D02*
D03*
X17920Y33440D02*
D03*
X21360Y46850D02*
D03*
X18870Y12300D02*
D03*
X18120Y13000D02*
D03*
X18510Y12630D02*
D03*
X8310Y51530D02*
D03*
X6020Y31360D02*
D03*
X7259Y40820D02*
D03*
X26730Y4890D02*
D03*
X21920Y30290D02*
D03*
X13860Y31145D02*
D03*
X19490Y30490D02*
D03*
X11904Y30379D02*
D03*
X9840Y4180D02*
D03*
X14590Y4960D02*
D03*
X16640Y8695D02*
D03*
X20593Y16247D02*
D03*
X17240Y15870D02*
D03*
X9072Y15320D02*
D03*
X7560Y41810D02*
D03*
X13094Y38050D02*
D03*
X12440Y36530D02*
D03*
X20285Y18510D02*
D03*
X19350Y20010D02*
D03*
X13950Y43440D02*
D03*
X13990Y42760D02*
D03*
X14000Y42130D02*
D03*
X13950Y41390D02*
D03*
X13970Y40690D02*
D03*
X15590Y38760D02*
D03*
X14080Y39430D02*
D03*
X13850Y40100D02*
D03*
X19740Y18320D02*
D03*
X21310Y15130D02*
D03*
X4680Y36418D02*
D03*
X5100Y37338D02*
D03*
X8800Y48300D02*
D03*
X6500Y47540D02*
D03*
X5900Y47100D02*
D03*
X9000Y44500D02*
D03*
X8540D02*
D03*
X6000D02*
D03*
X5500D02*
D03*
Y46344D02*
D03*
X1495Y47130D02*
D03*
X1515Y45950D02*
D03*
Y44750D02*
D03*
X1465Y43600D02*
D03*
Y43200D02*
D03*
Y42800D02*
D03*
Y42400D02*
D03*
Y42000D02*
D03*
X1525Y48694D02*
D03*
X1515Y48300D02*
D03*
Y49069D02*
D03*
Y49469D02*
D03*
Y49869D02*
D03*
Y50269D02*
D03*
Y50669D02*
D03*
Y51069D02*
D03*
Y51450D02*
D03*
X3815Y47900D02*
D03*
Y46700D02*
D03*
X3765Y45550D02*
D03*
X3715Y44350D02*
D03*
Y42000D02*
D03*
X9140Y36398D02*
D03*
X9135Y37338D02*
D03*
X15220Y36890D02*
D03*
Y37470D02*
D03*
X21580Y35825D02*
D03*
Y36360D02*
D03*
X21589Y36918D02*
D03*
X21595Y37420D02*
D03*
X18684Y38756D02*
D03*
X18689Y39426D02*
D03*
X18694Y40106D02*
D03*
X18684Y40776D02*
D03*
Y41396D02*
D03*
X18666Y42056D02*
D03*
X18674Y42748D02*
D03*
X18656Y43438D02*
D03*
X11910Y39391D02*
D03*
X11870Y38700D02*
D03*
X11846Y41396D02*
D03*
X11858Y42748D02*
D03*
X11850Y40076D02*
D03*
Y40736D02*
D03*
X11874Y42086D02*
D03*
X11910Y43436D02*
D03*
D44*
X18800Y18800D02*
X19817Y19817D01*
X18800Y17400D02*
Y18800D01*
X19817Y19817D02*
X22781Y22781D01*
X19817Y19817D02*
Y19817D01*
X22781Y22781D02*
Y38725D01*
X25941Y47460D02*
X26105Y47295D01*
X26800Y46601D01*
X3580Y22738D02*
X9588Y16729D01*
X18230Y7570D02*
Y10659D01*
X10810Y4460D02*
X15120D01*
X26800Y41483D02*
Y46601D01*
X15120Y4460D02*
X18230Y7570D01*
X9588Y5682D02*
X10810Y4460D01*
X9588Y5682D02*
Y16729D01*
X21720Y16651D02*
X21770Y16601D01*
X22070Y16301D01*
Y14499D02*
Y16301D01*
X20902Y16651D02*
X21720D01*
X18760Y17360D02*
X18800Y17400D01*
X18760Y17360D02*
X18792D01*
X19439Y16714D02*
X20839D01*
X18760Y17360D02*
X18760Y17360D01*
X18792D02*
X19439Y16714D01*
X3580Y22738D02*
Y31780D01*
X26000Y40683D02*
X26800Y41483D01*
X24738Y40683D02*
X26000D01*
X22781Y38725D02*
X24738Y40683D01*
X20839Y16714D02*
X20902Y16651D01*
X18230Y10659D02*
X22070Y14499D01*
X2340Y33020D02*
X3580Y31780D01*
X19480Y47470D02*
X19545Y47535D01*
M02*
