G04*
G04 #@! TF.GenerationSoftware,Altium Limited,Altium Designer,21.3.2 (30)*
G04*
G04 Layer_Color=8421504*
%FSLAX24Y24*%
%MOIN*%
G70*
G04*
G04 #@! TF.SameCoordinates,833F00A7-D450-4082-898E-3E871E1ABAC5*
G04*
G04*
G04 #@! TF.FilePolarity,Positive*
G04*
G01*
G75*
%ADD18R,0.0217X0.0315*%
%ADD19R,0.0650X0.0354*%
%ADD20R,0.0315X0.0217*%
%ADD21R,0.0394X0.0276*%
%ADD22R,0.0335X0.0118*%
%ADD23R,0.0354X0.0650*%
%ADD24R,0.0689X0.0976*%
%ADD25R,0.0315X0.0118*%
%ADD26R,0.0709X0.0335*%
%ADD27R,0.0630X0.0236*%
%ADD28R,0.0276X0.0394*%
D18*
X23035Y43466D02*
D03*
X22405D02*
D03*
X23035Y42700D02*
D03*
X22405D02*
D03*
X11859Y29346D02*
D03*
X11229D02*
D03*
X19535Y29270D02*
D03*
X18905D02*
D03*
X6930Y36398D02*
D03*
X7560D02*
D03*
X6935Y37328D02*
D03*
X7565D02*
D03*
X13045Y36890D02*
D03*
X13675D02*
D03*
X13056Y37470D02*
D03*
X13686D02*
D03*
X19445Y35825D02*
D03*
X20075D02*
D03*
X19460Y36357D02*
D03*
X20090D02*
D03*
X19460Y36888D02*
D03*
X20090D02*
D03*
X19470Y37420D02*
D03*
X20100D02*
D03*
X16579Y40766D02*
D03*
X17209D02*
D03*
X9805Y40076D02*
D03*
X10435D02*
D03*
X16579Y40096D02*
D03*
X17209D02*
D03*
X16579Y39426D02*
D03*
X17209D02*
D03*
X16579Y41386D02*
D03*
X17209D02*
D03*
X16579Y38756D02*
D03*
X17209D02*
D03*
X9805Y41396D02*
D03*
X10435D02*
D03*
X9814Y39391D02*
D03*
X10444D02*
D03*
X9814Y38736D02*
D03*
X10444D02*
D03*
X9805Y40746D02*
D03*
X10435D02*
D03*
X16589Y42046D02*
D03*
X17219D02*
D03*
X16550Y43440D02*
D03*
X17180D02*
D03*
X16565Y42756D02*
D03*
X17195D02*
D03*
X9800Y43446D02*
D03*
X10430D02*
D03*
X9814Y42086D02*
D03*
X10444D02*
D03*
X9782Y42748D02*
D03*
X10412D02*
D03*
D19*
X18168Y30850D02*
D03*
Y29787D02*
D03*
X10554D02*
D03*
Y30850D02*
D03*
D20*
X13574Y30235D02*
D03*
Y29605D02*
D03*
X21190Y30175D02*
D03*
Y29545D02*
D03*
X21970Y32570D02*
D03*
Y31940D02*
D03*
X14230Y32537D02*
D03*
Y31907D02*
D03*
X24375Y47503D02*
D03*
Y46873D02*
D03*
X23312Y47503D02*
D03*
Y46873D02*
D03*
X23844Y47503D02*
D03*
Y46873D02*
D03*
X25842Y48250D02*
D03*
Y47620D02*
D03*
X25311Y48255D02*
D03*
Y47625D02*
D03*
X20658Y30175D02*
D03*
Y29545D02*
D03*
X13094Y30234D02*
D03*
Y29604D02*
D03*
X15086Y3865D02*
D03*
Y3235D02*
D03*
X14023Y3245D02*
D03*
Y3875D02*
D03*
X14555Y3865D02*
D03*
Y3235D02*
D03*
X21110Y16247D02*
D03*
Y15617D02*
D03*
X21642Y16247D02*
D03*
Y15617D02*
D03*
X22173Y15617D02*
D03*
Y16247D02*
D03*
X11360Y3265D02*
D03*
Y3895D02*
D03*
X10828D02*
D03*
Y3265D02*
D03*
X10294Y3895D02*
D03*
Y3265D02*
D03*
X9072Y15637D02*
D03*
Y16267D02*
D03*
X8540D02*
D03*
Y15637D02*
D03*
X9603Y16267D02*
D03*
Y15637D02*
D03*
X18296Y9315D02*
D03*
Y8685D02*
D03*
X17764Y8680D02*
D03*
Y9310D02*
D03*
X17232Y8685D02*
D03*
Y9315D02*
D03*
X18370Y17455D02*
D03*
Y16825D02*
D03*
X17838Y16835D02*
D03*
Y17465D02*
D03*
X17234Y16835D02*
D03*
Y17465D02*
D03*
D21*
X21960Y31425D02*
D03*
Y30755D02*
D03*
X14230Y31503D02*
D03*
Y30834D02*
D03*
D22*
X24710Y47995D02*
D03*
Y48192D02*
D03*
Y48389D02*
D03*
Y48586D02*
D03*
X23470D02*
D03*
Y48389D02*
D03*
Y48192D02*
D03*
Y47995D02*
D03*
D23*
X11283Y31580D02*
D03*
X12346D02*
D03*
X19027Y31540D02*
D03*
X20090D02*
D03*
D24*
X11904Y30379D02*
D03*
X19497Y30339D02*
D03*
D25*
X12495Y30773D02*
D03*
Y30576D02*
D03*
Y30379D02*
D03*
Y30182D02*
D03*
Y29985D02*
D03*
X11314D02*
D03*
Y30182D02*
D03*
Y30379D02*
D03*
Y30576D02*
D03*
Y30773D02*
D03*
X20087Y30733D02*
D03*
Y30536D02*
D03*
Y30339D02*
D03*
Y30142D02*
D03*
Y29945D02*
D03*
X18906D02*
D03*
Y30142D02*
D03*
Y30339D02*
D03*
Y30536D02*
D03*
Y30733D02*
D03*
D26*
X2150Y41521D02*
D03*
Y51955D02*
D03*
D27*
X3095Y42014D02*
D03*
X890D02*
D03*
X3095Y42407D02*
D03*
X890D02*
D03*
X3095Y42801D02*
D03*
X890D02*
D03*
X3095Y43195D02*
D03*
X890D02*
D03*
X3095Y43588D02*
D03*
X890D02*
D03*
X3095Y43982D02*
D03*
X890D02*
D03*
X3095Y44376D02*
D03*
X890D02*
D03*
X3095Y44770D02*
D03*
X890D02*
D03*
X3095Y45163D02*
D03*
X890D02*
D03*
X3095Y45557D02*
D03*
X890D02*
D03*
X3095Y45951D02*
D03*
X890D02*
D03*
X3095Y46344D02*
D03*
X890D02*
D03*
X3095Y46738D02*
D03*
X890D02*
D03*
X3095Y47132D02*
D03*
X890D02*
D03*
X3095Y47525D02*
D03*
X890D02*
D03*
X3095Y47919D02*
D03*
X890D02*
D03*
X3095Y48313D02*
D03*
X890D02*
D03*
X3095Y48707D02*
D03*
X890D02*
D03*
X3095Y49100D02*
D03*
X890D02*
D03*
X3095Y49494D02*
D03*
X890D02*
D03*
X3095Y49888D02*
D03*
X890D02*
D03*
X3095Y50281D02*
D03*
X890D02*
D03*
X3095Y50675D02*
D03*
X890D02*
D03*
X3095Y51069D02*
D03*
X890D02*
D03*
X3095Y51462D02*
D03*
X890D02*
D03*
D28*
X8055Y36398D02*
D03*
X8724D02*
D03*
X8050Y37338D02*
D03*
X8719D02*
D03*
X14135Y36890D02*
D03*
X14805D02*
D03*
X14135Y37470D02*
D03*
X14805D02*
D03*
X20510Y37420D02*
D03*
X21179D02*
D03*
X20504Y36918D02*
D03*
X21173D02*
D03*
X20495Y36360D02*
D03*
X21165D02*
D03*
X20495Y35825D02*
D03*
X21165D02*
D03*
X17599Y40776D02*
D03*
X18268D02*
D03*
X17609Y40106D02*
D03*
X18278D02*
D03*
X10825Y40076D02*
D03*
X11494D02*
D03*
X10825Y41396D02*
D03*
X11494D02*
D03*
X10825Y38716D02*
D03*
X11494D02*
D03*
X10825Y39386D02*
D03*
X11494D02*
D03*
X10830Y40736D02*
D03*
X11500D02*
D03*
X17604Y39426D02*
D03*
X18273D02*
D03*
X17599Y38756D02*
D03*
X18269D02*
D03*
X17599Y41396D02*
D03*
X18268D02*
D03*
X17581Y42056D02*
D03*
X18250D02*
D03*
X17589Y42748D02*
D03*
X18258D02*
D03*
X17571Y43438D02*
D03*
X18240D02*
D03*
X10825Y43436D02*
D03*
X11494D02*
D03*
X10812Y42748D02*
D03*
X11481D02*
D03*
X10835Y42086D02*
D03*
X11504D02*
D03*
M02*
