G04*
G04 #@! TF.GenerationSoftware,Altium Limited,Altium Designer,21.3.2 (30)*
G04*
G04 Layer_Physical_Order=3*
G04 Layer_Color=16440176*
%FSLAX24Y24*%
%MOIN*%
G70*
G04*
G04 #@! TF.SameCoordinates,833F00A7-D450-4082-898E-3E871E1ABAC5*
G04*
G04*
G04 #@! TF.FilePolarity,Positive*
G04*
G01*
G75*
%ADD13C,0.0100*%
%ADD39C,0.0350*%
%ADD42C,0.0728*%
%ADD43C,0.0315*%
D13*
X4370Y38233D02*
Y49430D01*
X3910Y49890D02*
X4370Y49430D01*
X17027Y49263D02*
Y51557D01*
X17040Y51570D01*
X17027Y49263D02*
X17780Y48510D01*
X19580D01*
X20330Y47760D01*
Y40270D02*
Y47760D01*
Y40270D02*
X23660Y36940D01*
Y34665D02*
X23780Y34545D01*
X23660Y34665D02*
Y36940D01*
X23780Y31770D02*
Y34545D01*
X23310Y35580D02*
Y36082D01*
X20542Y38850D02*
X23310Y36082D01*
X25757Y30483D02*
Y31333D01*
X25560Y31530D02*
X25757Y31333D01*
X23780Y31770D02*
X24020Y31530D01*
X25560D01*
X25757Y30483D02*
X26231Y30010D01*
X23406Y41305D02*
Y42615D01*
X23410Y42619D01*
Y38945D02*
Y41301D01*
Y38945D02*
X24450Y37905D01*
X23410Y50040D02*
X24040Y50670D01*
X23406Y41305D02*
X23410Y41301D01*
Y42619D02*
Y50040D01*
X24020Y51820D02*
X24040Y51800D01*
Y50670D02*
Y51800D01*
X24450Y35121D02*
Y37905D01*
Y35121D02*
X25041Y34530D01*
X26380D01*
X26704Y29814D02*
Y34206D01*
X26380Y34530D02*
X26704Y34206D01*
X26690Y29800D02*
X26704Y29814D01*
X26231Y29010D02*
X26690Y29469D01*
Y29800D01*
X20809Y40762D02*
X23931Y37640D01*
X23930Y37639D02*
X23931Y37640D01*
X23930Y34620D02*
Y37639D01*
Y34620D02*
X25067Y33483D01*
X25757D01*
X26231Y33010D01*
X20809Y40762D02*
Y45541D01*
X21990Y32190D02*
Y36410D01*
X22030Y36450D01*
X21990Y32190D02*
X23170Y31010D01*
X26231Y38010D02*
X26900D01*
X27270Y37640D01*
Y5370D02*
Y37640D01*
X26231Y40180D02*
X26414Y40363D01*
Y45876D01*
X26090Y46200D02*
X26414Y45876D01*
X26231Y40010D02*
Y40180D01*
X25810Y46200D02*
X26090D01*
X6690Y34985D02*
Y39945D01*
X6600Y40035D02*
Y45053D01*
Y40035D02*
X6690Y39945D01*
X6446Y34741D02*
X6690Y34985D01*
X5847Y26437D02*
X6446Y27036D01*
Y34741D01*
X13180Y40920D02*
Y45320D01*
X13600Y45623D02*
X13610Y45633D01*
X13600Y41740D02*
Y45623D01*
Y41740D02*
X13950Y41390D01*
X13813Y40100D02*
X13850D01*
X23170Y31010D02*
X25231D01*
X23693Y11483D02*
X26373D01*
X23220Y11010D02*
X23693Y11483D01*
X18550Y11010D02*
X23220D01*
X26373Y11483D02*
X26704Y11814D01*
X25231Y28010D02*
X25757Y27483D01*
Y13814D02*
Y27483D01*
X19110Y40230D02*
Y40230D01*
X20490Y38850D02*
X20542D01*
X19110Y40230D02*
X20490Y38850D01*
X18920Y40420D02*
X19110Y40230D01*
X13094Y38010D02*
X13220Y37884D01*
Y31857D02*
X13593Y31483D01*
X13220Y31857D02*
Y37884D01*
X13094Y38010D02*
Y38050D01*
X12260Y38884D02*
X13094Y38050D01*
X25757Y13814D02*
X26083Y13488D01*
X26472D01*
X26704Y13256D01*
Y11814D02*
Y13256D01*
X16640Y12920D02*
X18550Y11010D01*
X16640Y14805D02*
X16790Y14955D01*
X16640Y12920D02*
Y14805D01*
X16790Y14955D02*
Y16840D01*
X13593Y20037D02*
X16790Y16840D01*
X13593Y20037D02*
Y31483D01*
X27010Y20716D02*
X27070Y20776D01*
X27010Y5544D02*
Y20716D01*
X26986Y5520D02*
X27010Y5544D01*
X27070Y20776D02*
Y35880D01*
X26414Y36536D02*
X27070Y35880D01*
X26831Y4931D02*
X27270Y5370D01*
X1220Y20140D02*
X1340Y20020D01*
X870Y20140D02*
X1220D01*
X700Y20310D02*
X870Y20140D01*
X700Y20310D02*
Y22049D01*
X1027Y22376D01*
Y22488D01*
X390Y16070D02*
Y24910D01*
Y16070D02*
X930Y15530D01*
X390Y24910D02*
X1027Y25547D01*
Y22488D02*
X1085Y22547D01*
X2957D01*
X3700Y23290D01*
Y24819D02*
X5318Y26437D01*
X5847D01*
X3700Y23290D02*
Y24819D01*
X1027Y25547D02*
X2536D01*
X2559Y25570D01*
X3962D01*
X4790Y26398D01*
Y27730D01*
X6287Y29227D01*
Y34290D01*
X11990Y49170D02*
X12260Y48900D01*
Y38884D02*
Y48900D01*
X11580Y37390D02*
Y48650D01*
X11620Y48690D01*
X11580Y37390D02*
X12440Y36530D01*
X26829Y4931D02*
X26831D01*
X26710Y4812D02*
X26829Y4931D01*
X26035Y36536D02*
X26414D01*
X25720Y36851D02*
X26035Y36536D01*
X25720Y38499D02*
X26231Y39010D01*
X25720Y36851D02*
Y38499D01*
X18550Y40420D02*
X18920D01*
X16400Y42570D02*
Y49500D01*
Y42570D02*
X18550Y40420D01*
X18418Y27352D02*
X24180Y21590D01*
Y13391D02*
X25051Y12520D01*
X24180Y13391D02*
Y21590D01*
X19050Y17890D02*
X23480D01*
X23510Y17920D01*
X15880Y42560D02*
X18420Y40020D01*
X15880Y42560D02*
Y50240D01*
X16360Y20580D02*
X19050Y17890D01*
X25720Y12520D02*
X26231Y12010D01*
X25051Y12520D02*
X25720D01*
X18418Y39332D02*
X18420Y39334D01*
X18418Y27352D02*
Y39332D01*
X18420Y39334D02*
Y40020D01*
X4680Y37863D02*
X4870Y38053D01*
X4680Y36418D02*
Y37863D01*
X4870Y38053D02*
Y46487D01*
X4413Y36163D02*
Y37903D01*
Y36163D02*
X6287Y34290D01*
X4600Y38090D02*
Y46566D01*
X4413Y37903D02*
X4600Y38090D01*
X1340Y36020D02*
X1848Y36528D01*
X2665D02*
X4370Y38233D01*
X1848Y36528D02*
X2665D01*
X4600Y46566D02*
X4720Y46686D01*
X4870Y46487D02*
X4980Y46597D01*
Y50633D01*
X4987Y50640D01*
X5063Y51011D02*
Y51069D01*
X4987Y50934D02*
X5063Y51011D01*
X4987Y50640D02*
Y50934D01*
X5200Y46680D02*
X5330Y46810D01*
X5100Y37338D02*
Y37396D01*
X5200Y37496D01*
Y46680D01*
X4720Y46686D02*
Y50750D01*
X5330Y46810D02*
Y51530D01*
X1867Y39493D02*
Y47540D01*
X3210Y12530D02*
X6090Y15410D01*
Y20220D01*
X8035Y22165D01*
X3657Y13547D02*
X5340Y15230D01*
Y20441D02*
X7873Y22974D01*
X5340Y15230D02*
Y20441D01*
X7873Y22974D02*
Y42618D01*
X2340Y21020D02*
X5170D01*
X7025Y22875D02*
Y34655D01*
X5170Y21020D02*
X7025Y22875D01*
X6735Y23395D02*
Y34805D01*
X1873Y21547D02*
X4887D01*
X6735Y23395D01*
X1830Y15530D02*
X2340Y15020D01*
X930Y15530D02*
X1830D01*
X2340Y36020D02*
X3850D01*
X6020Y31360D02*
Y33850D01*
X3850Y36020D02*
X6020Y33850D01*
X1340Y13020D02*
X1867Y13547D01*
X3657D01*
X8540Y43285D02*
Y44500D01*
X7873Y42618D02*
X8540Y43285D01*
X18510Y12630D02*
Y17150D01*
X15590Y20070D02*
Y38760D01*
Y20070D02*
X18510Y17150D01*
X16110Y20520D02*
Y39370D01*
X19030Y17600D02*
X20140D01*
X16110Y20520D02*
X19030Y17600D01*
X13950Y43440D02*
X17653Y39737D01*
Y27097D02*
X19350Y25400D01*
X17653Y27097D02*
Y39737D01*
X8035Y22165D02*
Y42555D01*
X18370Y12300D02*
X18870D01*
X17750Y12920D02*
X18370Y12300D01*
X17750Y12920D02*
Y16980D01*
X14954Y20306D02*
X18120Y17140D01*
Y13000D02*
Y17140D01*
X14600Y20130D02*
X17750Y16980D01*
X14954Y20306D02*
Y37396D01*
X14600Y37390D02*
X14600Y20130D01*
X20140Y17600D02*
X21310Y16430D01*
Y15130D02*
Y16430D01*
X16360Y20580D02*
Y39570D01*
X17340Y20120D02*
Y25630D01*
X16900Y26070D02*
X17340Y25630D01*
X16900Y26070D02*
Y39500D01*
X19350Y20500D02*
Y25400D01*
X14540Y41390D02*
X16360Y39570D01*
X14270Y42130D02*
X16900Y39500D01*
X13990Y42760D02*
X17220Y39530D01*
X17220Y26720D01*
X18420Y25520D01*
X1867Y39493D02*
X2340Y39020D01*
X13180Y40920D02*
X13410Y40690D01*
X13970D01*
X8540Y44500D02*
Y47970D01*
X8310Y48200D02*
X8540Y47970D01*
X8310Y48200D02*
Y51530D01*
X8035Y42555D02*
X9000Y43520D01*
Y44500D01*
X1850Y12530D02*
X3210D01*
X1340Y12020D02*
X1850Y12530D01*
X7560Y35190D02*
Y41810D01*
X7025Y34655D02*
X7560Y35190D01*
X6735Y34805D02*
X7259Y35329D01*
Y40820D01*
X1346Y21020D02*
X1873Y21547D01*
X1340Y21020D02*
X1346D01*
X7259Y40820D02*
Y45741D01*
X5900Y47100D02*
X7259Y45741D01*
X6500Y47540D02*
X7560Y46480D01*
Y41810D02*
Y46480D01*
X20250Y18510D02*
X20285D01*
X18420Y20340D02*
X20250Y18510D01*
X18420Y20340D02*
Y25520D01*
X19350Y20010D02*
Y20500D01*
X14000Y42130D02*
X14270D01*
X13950Y41390D02*
X14540D01*
X14790Y40690D02*
X16110Y39370D01*
X13970Y40690D02*
X14790D01*
X14080Y38270D02*
X14954Y37396D01*
X13813Y38177D02*
X14600Y37390D01*
X14080Y38270D02*
Y39430D01*
X13813Y38177D02*
Y40063D01*
X13850Y40100D01*
X19140Y18320D02*
X19740D01*
X17340Y20120D02*
X19140Y18320D01*
X8800Y48300D02*
X9000Y48100D01*
Y44500D02*
Y48100D01*
X5500Y44500D02*
Y46344D01*
D39*
X3910Y49890D02*
D03*
X17040Y51570D02*
D03*
X23310Y35580D02*
D03*
X24030Y51810D02*
D03*
X20809Y45541D02*
D03*
X22030Y36450D02*
D03*
X25810Y46200D02*
D03*
X26986Y5520D02*
D03*
X16400Y49500D02*
D03*
X15880Y50240D02*
D03*
D42*
X26231Y38010D02*
D03*
Y39010D02*
D03*
Y40010D02*
D03*
X25231Y31010D02*
D03*
X26231Y30010D02*
D03*
Y29010D02*
D03*
Y33010D02*
D03*
X25231Y28010D02*
D03*
X26231Y12010D02*
D03*
X2340Y39020D02*
D03*
Y36020D02*
D03*
X1340D02*
D03*
X2340Y21020D02*
D03*
X1340Y20020D02*
D03*
Y21020D02*
D03*
Y12020D02*
D03*
Y13020D02*
D03*
X2340Y15020D02*
D03*
D43*
X6600Y45053D02*
D03*
X13180Y45320D02*
D03*
X13610Y45633D02*
D03*
X11990Y49170D02*
D03*
X11620Y48690D02*
D03*
X23510Y17920D02*
D03*
X4720Y50750D02*
D03*
X5063Y51069D02*
D03*
X5330Y51530D02*
D03*
X1867Y47540D02*
D03*
X18870Y12300D02*
D03*
X18120Y13000D02*
D03*
X18510Y12630D02*
D03*
X8310Y51530D02*
D03*
X6020Y31360D02*
D03*
X7259Y40820D02*
D03*
X26730Y4890D02*
D03*
X7560Y41810D02*
D03*
X13094Y38050D02*
D03*
X12440Y36530D02*
D03*
X20285Y18510D02*
D03*
X19350Y20010D02*
D03*
X13950Y43440D02*
D03*
X13990Y42760D02*
D03*
X14000Y42130D02*
D03*
X13950Y41390D02*
D03*
X13970Y40690D02*
D03*
X15590Y38760D02*
D03*
X14080Y39430D02*
D03*
X13850Y40100D02*
D03*
X19740Y18320D02*
D03*
X21310Y15130D02*
D03*
X4680Y36418D02*
D03*
X5100Y37338D02*
D03*
X8800Y48300D02*
D03*
X6500Y47540D02*
D03*
X5900Y47100D02*
D03*
X9000Y44500D02*
D03*
X8540D02*
D03*
X5500D02*
D03*
Y46344D02*
D03*
M02*
