G04*
G04 #@! TF.GenerationSoftware,Altium Limited,Altium Designer,19.0.15 (446)*
G04*
G04 Layer_Color=128*
%FSLAX24Y24*%
%MOIN*%
G70*
G01*
G75*
%ADD48C,0.0020*%
D48*
X20864Y4270D02*
X21376D01*
X21120Y4014D02*
Y4526D01*
X20864Y2301D02*
X21376D01*
X21120Y2046D02*
Y2557D01*
X15943Y4270D02*
X16455D01*
X16199Y4014D02*
Y4526D01*
X15943Y2301D02*
X16455D01*
X16199Y2046D02*
Y2557D01*
X24699Y45180D02*
X25030D01*
X24865Y45015D02*
Y45345D01*
X24199Y44680D02*
X24530D01*
X24365Y44515D02*
Y44845D01*
X24699Y44180D02*
X25030D01*
X24865Y44015D02*
Y44345D01*
X23699Y45180D02*
X24030D01*
X23865Y45015D02*
Y45345D01*
X23699Y44180D02*
X24030D01*
X23865Y44015D02*
Y44345D01*
X22613Y50970D02*
X22967D01*
X22790Y50793D02*
Y51147D01*
X21633Y50960D02*
X21987D01*
X21810Y50783D02*
Y51137D01*
X20653Y50950D02*
X21007D01*
X20830Y50773D02*
Y51127D01*
X19673Y50940D02*
X20027D01*
X19850Y50763D02*
Y51117D01*
X18693Y50930D02*
X19047D01*
X18870Y50753D02*
Y51107D01*
X6183Y25910D02*
X6537D01*
X6360Y25733D02*
Y26087D01*
X5203Y25900D02*
X5557D01*
X5380Y25723D02*
Y26077D01*
X19263Y46470D02*
X19697D01*
X19480Y46253D02*
Y46687D01*
X19263Y45470D02*
X19697D01*
X19480Y45253D02*
Y45687D01*
X19263Y47470D02*
X19697D01*
X19480Y47253D02*
Y47687D01*
X26413Y49880D02*
X26847D01*
X26630Y49663D02*
Y50097D01*
X26413Y50880D02*
X26847D01*
X26630Y50663D02*
Y51097D01*
X26034Y40010D02*
X26427D01*
X26231Y39813D02*
Y40207D01*
X26034Y39010D02*
X26427D01*
X26231Y38813D02*
Y39207D01*
X26034Y38010D02*
X26427D01*
X26231Y37813D02*
Y38207D01*
X26034Y37010D02*
X26427D01*
X26231Y36813D02*
Y37207D01*
X26034Y36010D02*
X26427D01*
X26231Y35813D02*
Y36207D01*
X26034Y35010D02*
X26427D01*
X26231Y34813D02*
Y35207D01*
X26034Y33010D02*
X26427D01*
X26231Y32813D02*
Y33207D01*
X26034Y32010D02*
X26427D01*
X26231Y31813D02*
Y32207D01*
X26034Y34010D02*
X26427D01*
X26231Y33813D02*
Y34207D01*
X26034Y31010D02*
X26427D01*
X26231Y30813D02*
Y31207D01*
X26034Y30010D02*
X26427D01*
X26231Y29813D02*
Y30207D01*
X26034Y29010D02*
X26427D01*
X26231Y28813D02*
Y29207D01*
X26034Y28010D02*
X26427D01*
X26231Y27813D02*
Y28207D01*
X26034Y27010D02*
X26427D01*
X26231Y26813D02*
Y27207D01*
X26034Y26010D02*
X26427D01*
X26231Y25813D02*
Y26207D01*
X26034Y25010D02*
X26427D01*
X26231Y24813D02*
Y25207D01*
X26034Y24010D02*
X26427D01*
X26231Y23813D02*
Y24207D01*
X26034Y23010D02*
X26427D01*
X26231Y22813D02*
Y23207D01*
X26034Y22010D02*
X26427D01*
X26231Y21813D02*
Y22207D01*
X26034Y21010D02*
X26427D01*
X26231Y20813D02*
Y21207D01*
X26034Y20010D02*
X26427D01*
X26231Y19813D02*
Y20207D01*
X26034Y19010D02*
X26427D01*
X26231Y18813D02*
Y19207D01*
X26034Y18010D02*
X26427D01*
X26231Y17813D02*
Y18207D01*
X26034Y17010D02*
X26427D01*
X26231Y16813D02*
Y17207D01*
X26034Y16010D02*
X26427D01*
X26231Y15813D02*
Y16207D01*
X26034Y15010D02*
X26427D01*
X26231Y14813D02*
Y15207D01*
X26034Y14010D02*
X26427D01*
X26231Y13813D02*
Y14207D01*
X26034Y11010D02*
X26427D01*
X26231Y10813D02*
Y11207D01*
X26034Y13010D02*
X26427D01*
X26231Y12813D02*
Y13207D01*
X26034Y12010D02*
X26427D01*
X26231Y11813D02*
Y12207D01*
X26034Y10010D02*
X26427D01*
X26231Y9813D02*
Y10207D01*
X26034Y9010D02*
X26427D01*
X26231Y8813D02*
Y9207D01*
X26034Y7010D02*
X26427D01*
X26231Y6813D02*
Y7207D01*
X26034Y6010D02*
X26427D01*
X26231Y5813D02*
Y6207D01*
X26034Y8010D02*
X26427D01*
X26231Y7813D02*
Y8207D01*
X25034Y40010D02*
X25427D01*
X25231Y39813D02*
Y40207D01*
X25034Y39010D02*
X25427D01*
X25231Y38813D02*
Y39207D01*
X25034Y38010D02*
X25427D01*
X25231Y37813D02*
Y38207D01*
X25034Y37010D02*
X25427D01*
X25231Y36813D02*
Y37207D01*
X25034Y36010D02*
X25427D01*
X25231Y35813D02*
Y36207D01*
X25034Y35010D02*
X25427D01*
X25231Y34813D02*
Y35207D01*
X25034Y34010D02*
X25427D01*
X25231Y33813D02*
Y34207D01*
X25034Y33010D02*
X25427D01*
X25231Y32813D02*
Y33207D01*
X25034Y32010D02*
X25427D01*
X25231Y31813D02*
Y32207D01*
X25034Y31010D02*
X25427D01*
X25231Y30813D02*
Y31207D01*
X25034Y30010D02*
X25427D01*
X25231Y29813D02*
Y30207D01*
X25034Y29010D02*
X25427D01*
X25231Y28813D02*
Y29207D01*
X25034Y28010D02*
X25427D01*
X25231Y27813D02*
Y28207D01*
X25034Y27010D02*
X25427D01*
X25231Y26813D02*
Y27207D01*
X25034Y26010D02*
X25427D01*
X25231Y25813D02*
Y26207D01*
X25034Y25010D02*
X25427D01*
X25231Y24813D02*
Y25207D01*
X25034Y24010D02*
X25427D01*
X25231Y23813D02*
Y24207D01*
X25034Y23010D02*
X25427D01*
X25231Y22813D02*
Y23207D01*
X25034Y22010D02*
X25427D01*
X25231Y21813D02*
Y22207D01*
X25034Y21010D02*
X25427D01*
X25231Y20813D02*
Y21207D01*
X25034Y20010D02*
X25427D01*
X25231Y19813D02*
Y20207D01*
X25034Y19010D02*
X25427D01*
X25231Y18813D02*
Y19207D01*
X25034Y18010D02*
X25427D01*
X25231Y17813D02*
Y18207D01*
X25034Y17010D02*
X25427D01*
X25231Y16813D02*
Y17207D01*
X25034Y15010D02*
X25427D01*
X25231Y14813D02*
Y15207D01*
X25034Y14010D02*
X25427D01*
X25231Y13813D02*
Y14207D01*
X25034Y16010D02*
X25427D01*
X25231Y15813D02*
Y16207D01*
X25034Y13010D02*
X25427D01*
X25231Y12813D02*
Y13207D01*
X25034Y12010D02*
X25427D01*
X25231Y11813D02*
Y12207D01*
X25034Y11010D02*
X25427D01*
X25231Y10813D02*
Y11207D01*
X25034Y10010D02*
X25427D01*
X25231Y9813D02*
Y10207D01*
X25034Y7010D02*
X25427D01*
X25231Y6813D02*
Y7207D01*
X25034Y6010D02*
X25427D01*
X25231Y5813D02*
Y6207D01*
X25034Y9010D02*
X25427D01*
X25231Y8813D02*
Y9207D01*
X25034Y8010D02*
X25427D01*
X25231Y7813D02*
Y8207D01*
X18719Y25250D02*
X19121D01*
X18920Y25049D02*
Y25451D01*
X19719Y25250D02*
X20121D01*
X19920Y25049D02*
Y25451D01*
X16719Y25250D02*
X17121D01*
X16920Y25049D02*
Y25451D01*
X17719Y25250D02*
X18121D01*
X17920Y25049D02*
Y25451D01*
X15865Y16300D02*
X16377D01*
X16121Y16044D02*
Y16556D01*
X15865Y14332D02*
X16377D01*
X16121Y14076D02*
Y14587D01*
X10944Y16300D02*
X11456D01*
X11200Y16044D02*
Y16556D01*
X10944Y14332D02*
X11456D01*
X11200Y14076D02*
Y14587D01*
X15864Y11290D02*
X16376D01*
X16120Y11034D02*
Y11546D01*
X15864Y9322D02*
X16376D01*
X16120Y9066D02*
Y9577D01*
X10943Y11290D02*
X11455D01*
X11199Y11034D02*
Y11546D01*
X10943Y9322D02*
X11455D01*
X11199Y9066D02*
Y9577D01*
X10025Y13580D02*
X10537D01*
X10281Y13324D02*
Y13836D01*
X10025Y11611D02*
X10537D01*
X10281Y11355D02*
Y11867D01*
X5104Y13580D02*
X5616D01*
X5360Y13324D02*
Y13836D01*
X5104Y11611D02*
X5616D01*
X5360Y11355D02*
Y11867D01*
X21855Y13560D02*
X22367D01*
X22111Y13304D02*
Y13816D01*
X21855Y11592D02*
X22367D01*
X22111Y11336D02*
Y11847D01*
X16934Y13560D02*
X17446D01*
X17190Y13304D02*
Y13816D01*
X16934Y11592D02*
X17446D01*
X17190Y11336D02*
Y11847D01*
X8925Y4338D02*
X9437D01*
X9181Y4083D02*
Y4594D01*
X8925Y2370D02*
X9437D01*
X9181Y2114D02*
Y2626D01*
X4004Y4338D02*
X4516D01*
X4260Y4083D02*
Y4594D01*
X4004Y2370D02*
X4516D01*
X4260Y2114D02*
Y2626D01*
X2143Y40020D02*
X2537D01*
X2340Y39823D02*
Y40217D01*
X2143Y39020D02*
X2537D01*
X2340Y38823D02*
Y39217D01*
X2143Y38020D02*
X2537D01*
X2340Y37823D02*
Y38217D01*
X2143Y37020D02*
X2537D01*
X2340Y36823D02*
Y37217D01*
X2143Y36020D02*
X2537D01*
X2340Y35823D02*
Y36217D01*
X2143Y35020D02*
X2537D01*
X2340Y34823D02*
Y35217D01*
X2143Y33020D02*
X2537D01*
X2340Y32823D02*
Y33217D01*
X2143Y32020D02*
X2537D01*
X2340Y31823D02*
Y32217D01*
X2143Y34020D02*
X2537D01*
X2340Y33823D02*
Y34217D01*
X2143Y31020D02*
X2537D01*
X2340Y30823D02*
Y31217D01*
X2143Y30020D02*
X2537D01*
X2340Y29823D02*
Y30217D01*
X2143Y29020D02*
X2537D01*
X2340Y28823D02*
Y29217D01*
X2143Y28020D02*
X2537D01*
X2340Y27823D02*
Y28217D01*
X2143Y27020D02*
X2537D01*
X2340Y26823D02*
Y27217D01*
X2143Y26020D02*
X2537D01*
X2340Y25823D02*
Y26217D01*
X2143Y25020D02*
X2537D01*
X2340Y24823D02*
Y25217D01*
X2143Y24020D02*
X2537D01*
X2340Y23823D02*
Y24217D01*
X2143Y23020D02*
X2537D01*
X2340Y22823D02*
Y23217D01*
X2143Y22020D02*
X2537D01*
X2340Y21823D02*
Y22217D01*
X2143Y21020D02*
X2537D01*
X2340Y20823D02*
Y21217D01*
X2143Y20020D02*
X2537D01*
X2340Y19823D02*
Y20217D01*
X2143Y19020D02*
X2537D01*
X2340Y18823D02*
Y19217D01*
X2143Y18020D02*
X2537D01*
X2340Y17823D02*
Y18217D01*
X2143Y17020D02*
X2537D01*
X2340Y16823D02*
Y17217D01*
X2143Y16020D02*
X2537D01*
X2340Y15823D02*
Y16217D01*
X2143Y15020D02*
X2537D01*
X2340Y14823D02*
Y15217D01*
X2143Y14020D02*
X2537D01*
X2340Y13823D02*
Y14217D01*
X2143Y11020D02*
X2537D01*
X2340Y10823D02*
Y11217D01*
X2143Y13020D02*
X2537D01*
X2340Y12823D02*
Y13217D01*
X2143Y12020D02*
X2537D01*
X2340Y11823D02*
Y12217D01*
X2143Y10020D02*
X2537D01*
X2340Y9823D02*
Y10217D01*
X2143Y9020D02*
X2537D01*
X2340Y8823D02*
Y9217D01*
X2143Y7020D02*
X2537D01*
X2340Y6823D02*
Y7217D01*
X2143Y6020D02*
X2537D01*
X2340Y5823D02*
Y6217D01*
X2143Y8020D02*
X2537D01*
X2340Y7823D02*
Y8217D01*
X1143Y40020D02*
X1537D01*
X1340Y39823D02*
Y40217D01*
X1143Y39020D02*
X1537D01*
X1340Y38823D02*
Y39217D01*
X1143Y38020D02*
X1537D01*
X1340Y37823D02*
Y38217D01*
X1143Y37020D02*
X1537D01*
X1340Y36823D02*
Y37217D01*
X1143Y36020D02*
X1537D01*
X1340Y35823D02*
Y36217D01*
X1143Y35020D02*
X1537D01*
X1340Y34823D02*
Y35217D01*
X1143Y34020D02*
X1537D01*
X1340Y33823D02*
Y34217D01*
X1143Y33020D02*
X1537D01*
X1340Y32823D02*
Y33217D01*
X1143Y32020D02*
X1537D01*
X1340Y31823D02*
Y32217D01*
X1143Y31020D02*
X1537D01*
X1340Y30823D02*
Y31217D01*
X1143Y30020D02*
X1537D01*
X1340Y29823D02*
Y30217D01*
X1143Y29020D02*
X1537D01*
X1340Y28823D02*
Y29217D01*
X1143Y28020D02*
X1537D01*
X1340Y27823D02*
Y28217D01*
X1143Y27020D02*
X1537D01*
X1340Y26823D02*
Y27217D01*
X1143Y26020D02*
X1537D01*
X1340Y25823D02*
Y26217D01*
X1143Y25020D02*
X1537D01*
X1340Y24823D02*
Y25217D01*
X1143Y24020D02*
X1537D01*
X1340Y23823D02*
Y24217D01*
X1143Y23020D02*
X1537D01*
X1340Y22823D02*
Y23217D01*
X1143Y22020D02*
X1537D01*
X1340Y21823D02*
Y22217D01*
X1143Y21020D02*
X1537D01*
X1340Y20823D02*
Y21217D01*
X1143Y20020D02*
X1537D01*
X1340Y19823D02*
Y20217D01*
X1143Y19020D02*
X1537D01*
X1340Y18823D02*
Y19217D01*
X1143Y18020D02*
X1537D01*
X1340Y17823D02*
Y18217D01*
X1143Y17020D02*
X1537D01*
X1340Y16823D02*
Y17217D01*
X1143Y15020D02*
X1537D01*
X1340Y14823D02*
Y15217D01*
X1143Y14020D02*
X1537D01*
X1340Y13823D02*
Y14217D01*
X1143Y16020D02*
X1537D01*
X1340Y15823D02*
Y16217D01*
X1143Y13020D02*
X1537D01*
X1340Y12823D02*
Y13217D01*
X1143Y12020D02*
X1537D01*
X1340Y11823D02*
Y12217D01*
X1143Y11020D02*
X1537D01*
X1340Y10823D02*
Y11217D01*
X1143Y10020D02*
X1537D01*
X1340Y9823D02*
Y10217D01*
X1143Y7020D02*
X1537D01*
X1340Y6823D02*
Y7217D01*
X1143Y6020D02*
X1537D01*
X1340Y5823D02*
Y6217D01*
X1143Y9020D02*
X1537D01*
X1340Y8823D02*
Y9217D01*
X1143Y8020D02*
X1537D01*
X1340Y7823D02*
Y8217D01*
X12599Y25260D02*
X13001D01*
X12800Y25059D02*
Y25461D01*
X9599Y25260D02*
X10001D01*
X9800Y25059D02*
Y25461D01*
X11599Y25260D02*
X12001D01*
X11800Y25059D02*
Y25461D01*
X10599Y25260D02*
X11001D01*
X10800Y25059D02*
Y25461D01*
X19719Y22250D02*
X20121D01*
X19920Y22049D02*
Y22451D01*
X17719Y22250D02*
X18121D01*
X17920Y22049D02*
Y22451D01*
X18719Y22250D02*
X19121D01*
X18920Y22049D02*
Y22451D01*
X16719Y22250D02*
X17121D01*
X16920Y22049D02*
Y22451D01*
X12599Y22260D02*
X13001D01*
X12800Y22059D02*
Y22461D01*
X10599Y22260D02*
X11001D01*
X10800Y22059D02*
Y22461D01*
X11599Y22260D02*
X12001D01*
X11800Y22059D02*
Y22461D01*
X9599Y22260D02*
X10001D01*
X9800Y22059D02*
Y22461D01*
X8545Y20420D02*
X8875D01*
X8710Y20255D02*
Y20585D01*
X8045Y19920D02*
X8375D01*
X8210Y19755D02*
Y20085D01*
X8545Y19420D02*
X8875D01*
X8710Y19255D02*
Y19585D01*
X7545Y20420D02*
X7875D01*
X7710Y20255D02*
Y20585D01*
X7545Y19420D02*
X7875D01*
X7710Y19255D02*
Y19585D01*
X10465Y20400D02*
X10795D01*
X10630Y20235D02*
Y20565D01*
X9965Y19900D02*
X10295D01*
X10130Y19735D02*
Y20065D01*
X10465Y19400D02*
X10795D01*
X10630Y19235D02*
Y19565D01*
X9465Y20400D02*
X9795D01*
X9630Y20235D02*
Y20565D01*
X9465Y19400D02*
X9795D01*
X9630Y19235D02*
Y19565D01*
X7233Y30500D02*
X7666D01*
X7449Y30283D02*
Y30717D01*
X7233Y29500D02*
X7666D01*
X7449Y29283D02*
Y29717D01*
X7233Y31500D02*
X7666D01*
X7449Y31283D02*
Y31717D01*
X22543Y40836D02*
X22977D01*
X22760Y40619D02*
Y41052D01*
X22543Y41836D02*
X22977D01*
X22760Y41619D02*
Y42052D01*
X24615Y42460D02*
X24945D01*
X24780Y42295D02*
Y42625D01*
X24115Y41960D02*
X24445D01*
X24280Y41795D02*
Y42125D01*
X24615Y41460D02*
X24945D01*
X24780Y41295D02*
Y41625D01*
X23615Y42460D02*
X23945D01*
X23780Y42295D02*
Y42625D01*
X23615Y41460D02*
X23945D01*
X23780Y41295D02*
Y41625D01*
X22553Y44320D02*
X22987D01*
X22770Y44103D02*
Y44537D01*
X22553Y45320D02*
X22987D01*
X22770Y45103D02*
Y45537D01*
X25583Y41550D02*
X26017D01*
X25800Y41333D02*
Y41767D01*
X25583Y42550D02*
X26017D01*
X25800Y42333D02*
Y42767D01*
X25660Y44340D02*
X26093D01*
X25877Y44123D02*
Y44557D01*
X25660Y45340D02*
X26093D01*
X25877Y45123D02*
Y45557D01*
X24703Y49880D02*
X25137D01*
X24920Y49663D02*
Y50097D01*
X24703Y50880D02*
X25137D01*
X24920Y50663D02*
Y51097D01*
X19411Y30350D02*
X19589D01*
X19500Y30261D02*
Y30439D01*
X26780Y5520D02*
X26980D01*
X26880Y5420D02*
Y5620D01*
X8451Y44500D02*
X8629D01*
X8540Y44411D02*
Y44589D01*
X7941Y45020D02*
X8119D01*
X8030Y44931D02*
Y45109D01*
X18595Y40776D02*
X18772D01*
X18684Y40688D02*
Y40865D01*
X18605Y40106D02*
X18782D01*
X18694Y40018D02*
Y40195D01*
X12088Y49143D02*
X12265D01*
X12177Y49055D02*
Y49232D01*
X13006Y38046D02*
X13183D01*
X13094Y37957D02*
Y38134D01*
X3810Y49890D02*
X4010D01*
X3910Y49790D02*
Y49990D01*
X16940Y51570D02*
X17140D01*
X17040Y51470D02*
Y51670D01*
X23210Y35580D02*
X23410D01*
X23310Y35480D02*
Y35680D01*
X23930Y51810D02*
X24130D01*
X24030Y51710D02*
Y51910D01*
X20709Y45541D02*
X20909D01*
X20809Y45441D02*
Y45641D01*
X21930Y36450D02*
X22130D01*
X22030Y36350D02*
Y36550D01*
X25710Y46200D02*
X25910D01*
X25810Y46100D02*
Y46300D01*
X6511Y45053D02*
X6689D01*
X6600Y44965D02*
Y45142D01*
X13091Y45320D02*
X13269D01*
X13180Y45231D02*
Y45409D01*
X13521Y45633D02*
X13699D01*
X13610Y45544D02*
Y45722D01*
X2233Y45557D02*
X2433D01*
X2333Y45457D02*
Y45657D01*
X2150Y45020D02*
X2350D01*
X2250Y44920D02*
Y45120D01*
X2150Y44375D02*
X2350D01*
X2250Y44275D02*
Y44475D01*
X2150Y43850D02*
X2350D01*
X2250Y43750D02*
Y43950D01*
X2240Y46090D02*
X2440D01*
X2340Y45990D02*
Y46190D01*
X2240Y46738D02*
X2440D01*
X2340Y46638D02*
Y46838D01*
X11531Y48690D02*
X11709D01*
X11620Y48601D02*
Y48779D01*
X16300Y49500D02*
X16500D01*
X16400Y49400D02*
Y49600D01*
X23421Y17920D02*
X23599D01*
X23510Y17831D02*
Y18009D01*
X15780Y50240D02*
X15980D01*
X15880Y50140D02*
Y50340D01*
X4631Y50750D02*
X4809D01*
X4720Y50661D02*
Y50839D01*
X4975Y51069D02*
X5152D01*
X5063Y50980D02*
Y51157D01*
X5241Y51530D02*
X5419D01*
X5330Y51441D02*
Y51619D01*
X1778Y47540D02*
X1955D01*
X1867Y47451D02*
Y47629D01*
X24731Y47540D02*
X24909D01*
X24820Y47451D02*
Y47629D01*
X26010Y47300D02*
X26210D01*
X26110Y47200D02*
Y47400D01*
X9503Y16745D02*
X9703D01*
X9603Y16645D02*
Y16845D01*
X18185Y9736D02*
X18385D01*
X18285Y9636D02*
Y9836D01*
X13923Y4495D02*
X14123D01*
X14023Y4395D02*
Y4595D01*
X11260Y4500D02*
X11460D01*
X11360Y4400D02*
Y4600D01*
X21670Y16601D02*
X21870D01*
X21770Y16501D02*
Y16701D01*
X18660Y17360D02*
X18860D01*
X18760Y17260D02*
Y17460D01*
X20301Y31790D02*
X20479D01*
X20390Y31701D02*
Y31879D01*
X12801Y31810D02*
X12979D01*
X12890Y31721D02*
Y31899D01*
X17831Y33440D02*
X18009D01*
X17920Y33351D02*
Y33529D01*
X21271Y46850D02*
X21449D01*
X21360Y46761D02*
Y46939D01*
X18781Y12300D02*
X18959D01*
X18870Y12211D02*
Y12389D01*
X18031Y13000D02*
X18209D01*
X18120Y12911D02*
Y13089D01*
X18421Y12630D02*
X18599D01*
X18510Y12541D02*
Y12719D01*
X8221Y51530D02*
X8399D01*
X8310Y51441D02*
Y51619D01*
X5931Y31360D02*
X6109D01*
X6020Y31271D02*
Y31449D01*
X7171Y40820D02*
X7348D01*
X7259Y40731D02*
Y40909D01*
X26641Y4890D02*
X26819D01*
X26730Y4801D02*
Y4979D01*
X21831Y30290D02*
X22009D01*
X21920Y30201D02*
Y30379D01*
X13771Y31145D02*
X13949D01*
X13860Y31057D02*
Y31234D01*
X11816Y30379D02*
X11993D01*
X11904Y30291D02*
Y30468D01*
X9751Y4180D02*
X9929D01*
X9840Y4091D02*
Y4269D01*
X14501Y4960D02*
X14679D01*
X14590Y4871D02*
Y5049D01*
X16551Y8695D02*
X16729D01*
X16640Y8606D02*
Y8783D01*
X20504Y16247D02*
X20681D01*
X20593Y16159D02*
Y16336D01*
X17151Y15870D02*
X17329D01*
X17240Y15781D02*
Y15959D01*
X8983Y15320D02*
X9160D01*
X9072Y15231D02*
Y15409D01*
X7471Y41810D02*
X7649D01*
X7560Y41721D02*
Y41899D01*
X12351Y36530D02*
X12529D01*
X12440Y36441D02*
Y36619D01*
X20196Y18510D02*
X20374D01*
X20285Y18421D02*
Y18599D01*
X19261Y20010D02*
X19439D01*
X19350Y19921D02*
Y20099D01*
X13862Y43440D02*
X14039D01*
X13950Y43352D02*
Y43529D01*
X13901Y42760D02*
X14079D01*
X13990Y42671D02*
Y42849D01*
X13911Y42130D02*
X14089D01*
X14000Y42041D02*
Y42219D01*
X13861Y41390D02*
X14039D01*
X13950Y41301D02*
Y41479D01*
X13881Y40690D02*
X14059D01*
X13970Y40601D02*
Y40779D01*
X15501Y38760D02*
X15679D01*
X15590Y38671D02*
Y38849D01*
X13991Y39430D02*
X14169D01*
X14080Y39341D02*
Y39519D01*
X13761Y40100D02*
X13939D01*
X13850Y40011D02*
Y40189D01*
X19651Y18320D02*
X19829D01*
X19740Y18231D02*
Y18409D01*
X21221Y15130D02*
X21399D01*
X21310Y15041D02*
Y15219D01*
X4591Y36418D02*
X4769D01*
X4680Y36329D02*
Y36507D01*
X5011Y37338D02*
X5189D01*
X5100Y37249D02*
Y37427D01*
X8711Y48300D02*
X8889D01*
X8800Y48211D02*
Y48389D01*
X6411Y47540D02*
X6589D01*
X6500Y47451D02*
Y47629D01*
X5811Y47100D02*
X5989D01*
X5900Y47011D02*
Y47189D01*
X8911Y44500D02*
X9089D01*
X9000Y44411D02*
Y44589D01*
X5911Y44500D02*
X6089D01*
X6000Y44411D02*
Y44589D01*
X5411Y44500D02*
X5589D01*
X5500Y44411D02*
Y44589D01*
X5411Y46344D02*
X5589D01*
X5500Y46256D02*
Y46433D01*
X1406Y47130D02*
X1584D01*
X1495Y47041D02*
Y47219D01*
X1426Y45950D02*
X1604D01*
X1515Y45861D02*
Y46039D01*
X1426Y44750D02*
X1604D01*
X1515Y44661D02*
Y44839D01*
X1376Y43600D02*
X1554D01*
X1465Y43511D02*
Y43689D01*
X1376Y43200D02*
X1554D01*
X1465Y43111D02*
Y43289D01*
X1376Y42800D02*
X1554D01*
X1465Y42711D02*
Y42889D01*
X1376Y42400D02*
X1554D01*
X1465Y42311D02*
Y42489D01*
X1376Y42000D02*
X1554D01*
X1465Y41911D02*
Y42089D01*
X1436Y48694D02*
X1614D01*
X1525Y48605D02*
Y48782D01*
X1426Y48300D02*
X1604D01*
X1515Y48211D02*
Y48389D01*
X1426Y49069D02*
X1604D01*
X1515Y48980D02*
Y49157D01*
X1426Y49469D02*
X1604D01*
X1515Y49380D02*
Y49557D01*
X1426Y49869D02*
X1604D01*
X1515Y49780D02*
Y49957D01*
X1426Y50269D02*
X1604D01*
X1515Y50180D02*
Y50357D01*
X1426Y50669D02*
X1604D01*
X1515Y50580D02*
Y50757D01*
X1426Y51069D02*
X1604D01*
X1515Y50980D02*
Y51157D01*
X1426Y51450D02*
X1604D01*
X1515Y51361D02*
Y51539D01*
X3726Y47900D02*
X3904D01*
X3815Y47811D02*
Y47989D01*
X3726Y46700D02*
X3904D01*
X3815Y46611D02*
Y46789D01*
X3676Y45550D02*
X3854D01*
X3765Y45461D02*
Y45639D01*
X3626Y44350D02*
X3804D01*
X3715Y44261D02*
Y44439D01*
X3626Y42000D02*
X3804D01*
X3715Y41911D02*
Y42089D01*
X9051Y36398D02*
X9229D01*
X9140Y36309D02*
Y36487D01*
X9046Y37338D02*
X9224D01*
X9135Y37249D02*
Y37427D01*
X15132Y36890D02*
X15309D01*
X15220Y36801D02*
Y36979D01*
X15132Y37470D02*
X15309D01*
X15220Y37381D02*
Y37559D01*
X21492Y35825D02*
X21669D01*
X21580Y35737D02*
Y35914D01*
X21492Y36360D02*
X21669D01*
X21580Y36271D02*
Y36449D01*
X21500Y36918D02*
X21677D01*
X21589Y36829D02*
Y37006D01*
X21506Y37420D02*
X21684D01*
X21595Y37331D02*
Y37509D01*
X18596Y38756D02*
X18773D01*
X18684Y38668D02*
Y38845D01*
X18600Y39426D02*
X18778D01*
X18689Y39338D02*
Y39515D01*
X18595Y41396D02*
X18772D01*
X18684Y41308D02*
Y41485D01*
X18577Y42056D02*
X18754D01*
X18666Y41968D02*
Y42145D01*
X18585Y42748D02*
X18762D01*
X18674Y42660D02*
Y42837D01*
X18567Y43438D02*
X18744D01*
X18656Y43350D02*
Y43527D01*
X11821Y39391D02*
X11999D01*
X11910Y39303D02*
Y39480D01*
X11781Y38700D02*
X11959D01*
X11870Y38611D02*
Y38789D01*
X11758Y41396D02*
X11935D01*
X11846Y41308D02*
Y41485D01*
X11769Y42748D02*
X11946D01*
X11858Y42660D02*
Y42837D01*
X11761Y40076D02*
X11939D01*
X11850Y39988D02*
Y40165D01*
X11761Y40736D02*
X11939D01*
X11850Y40648D02*
Y40825D01*
X11785Y42086D02*
X11962D01*
X11874Y41998D02*
Y42175D01*
X11821Y43436D02*
X11999D01*
X11910Y43348D02*
Y43525D01*
M02*
