M48
;Layer_Color=9474304
;FILE_FORMAT=2:4
INCH,LZ
;TYPE=PLATED
T1F00S00C0.0177
T2F00S00C0.0200
T3F00S00C0.0331
T4F00S00C0.0354
T5F00S00C0.0394
T6F00S00C0.0402
T7F00S00C0.0433
T8F00S00C0.0512
%
T01
X00984Y00418
X01459Y00496
X01664Y008695
X01812Y013
X01851Y01263
X01887Y0123
X01724Y01587
X020593Y016247
X02131Y01513
X020285Y01851
X01974Y01832
X009072Y01532
X02351Y01792
X02673Y00489
X01935Y02001
X01949Y03049
X02039Y03179
X02192Y03029
X01792Y03344
X01386Y031145
X01289Y03181
X011904Y030379
X00602Y03136
X00468Y036418
X0051Y037338
X003715Y042
X001465
Y0424
Y0428
Y0432
Y0436
X001515Y04475
Y04595
X001495Y04713
X001867Y04754
X001515Y0483
X001525Y048694
X001515Y049069
Y049469
X003815Y0479
Y0467
X003765Y04555
X003715Y04435
X0055Y0445
X006
X0066Y045053
X0055Y046344
X0059Y0471
X0065Y04754
X0088Y0483
X01162Y04869
X01199Y04917
X01318Y04532
X01361Y045633
X01395Y04344
X01399Y04276
X014Y04213
X01395Y04139
X01397Y04069
X01385Y0401
X01408Y03943
X01559Y03876
X01522Y03747
Y03689
X01244Y03653
X013094Y03805
X01187Y0387
X01191Y039391
X01185Y040076
Y040736
X011846Y041396
X011874Y042086
X011858Y042748
X01191Y043436
X009Y0445
X00854
X00803Y04502
X00756Y04181
X007259Y04082
X009135Y037338
X00914Y036398
X018684Y038756
X018689Y039426
X018694Y040106
X018684Y040776
Y041396
X018666Y042056
X018674Y042748
X018656Y043438
X02136Y04685
X021595Y03742
X021589Y036918
X02158Y03636
Y035825
X02482Y04754
X00831Y05153
X00533
X005063Y051069
X00472Y05075
X001515Y050669
Y050269
Y049869
Y051069
Y05145
T02
X01136Y0045
X014023Y004495
X018285Y009736
X01876Y01736
X02177Y016601
X009603Y016745
X026986Y00552
X00225Y04385
Y044375
Y04502
X002333Y045557
X00234Y04609
Y046738
X0164Y0495
X020809Y045541
X02203Y03645
X02331Y03558
X02581Y0462
X02611Y0473
X02403Y05181
X01704Y05157
X01588Y05024
X00391Y04989
T03
X00771Y01942
Y02042
X00871
X00963Y0204
X01063
Y0194
X00963
X00871Y01942
X00821Y01992
X01013Y0199
X02378Y04146
X02428Y04196
X02478Y04146
Y04246
X02378
X023865Y04418
X024365Y04468
X024865Y04418
Y04518
X023865
T04
X00538Y0259
X00636Y02591
X01887Y05093
X01985Y05094
X02083Y05095
X02181Y05096
X02279Y05097
T05
X00134Y00602
Y00702
X00234
Y00602
Y00802
Y00902
Y01002
Y01102
X00134
Y01202
X00234
Y01302
X00134
Y01402
Y01502
X00234
Y01402
Y01602
Y01702
Y01802
X00134
Y01702
Y01602
Y01002
Y00902
Y00802
X025231Y00801
Y00701
Y00601
X026231
Y00701
Y00801
Y00901
Y01001
Y01101
X025231
Y01201
X026231
Y01301
X025231
Y01401
Y01501
X026231
Y01401
Y01601
Y01701
Y01801
X025231
Y01701
Y01601
Y01001
Y00901
Y01901
Y02001
X026231
Y02101
Y02201
X025231
Y02301
X026231
Y02401
X025231
Y02501
Y02601
X026231
Y02501
Y02701
Y02801
Y02901
X025231
Y03001
Y03101
X026231
Y03001
Y03201
Y03301
Y03401
X025231
Y03301
Y03201
Y02801
Y02701
Y02101
X026231Y01901
X00234Y01902
Y02002
Y02102
Y02202
X00134
Y02302
X00234
Y02402
X00134
Y02502
Y02602
X00234
Y02502
Y02702
Y02802
Y02902
X00134
Y03002
Y03102
X00234
Y03002
Y03202
Y03302
Y03402
X00134
Y03302
Y03202
Y02802
Y02702
Y02102
Y02002
Y01902
Y03502
X00234
Y03602
Y03702
X00134
Y03802
Y03902
Y04002
X00234
Y03902
Y03802
X00134Y03602
X025231Y03601
Y03701
Y03801
Y03901
Y04001
X026231
Y03901
Y03801
Y03701
Y03601
Y03501
X025231
T06
X0098Y02226
X0108
X0118
X0128
Y02526
X0118
X0108
X0098
X01692Y02525
X01792
X01892
X01992
Y02225
X01892
X01792
X01692
T07
X007449Y0295
Y0305
Y0315
X02276Y040836
Y041836
X02277Y04432
Y04532
X01948Y04547
Y04647
Y04747
X025877Y04534
Y04434
X0258Y04255
Y04155
X02663Y04988
Y05088
X02492
Y04988
T08
X009181Y00237
X016199Y002301
X02112
X00426Y00237
Y004338
X00536Y011611
Y01358
X010281
X0112Y014332
Y0163
X016121
Y014332
X01719Y01356
Y011592
X01612Y01129
Y009322
X011199
Y01129
X010281Y011611
X009181Y004338
X016199Y00427
X02112
X022111Y011592
Y01356
M30
